<?xml version="1.0" encoding="utf-8" standalone="no"?>
<!DOCTYPE svg PUBLIC "-//W3C//DTD SVG 1.1//EN"
  "http://www.w3.org/Graphics/SVG/1.1/DTD/svg11.dtd">
<svg xmlns:xlink="http://www.w3.org/1999/xlink" width="699.84pt" height="514.8pt" viewBox="0 0 699.84 514.8" xmlns="http://www.w3.org/2000/svg" version="1.1">
 <metadata>
  <rdf:RDF xmlns:dc="http://purl.org/dc/elements/1.1/" xmlns:cc="http://creativecommons.org/ns#" xmlns:rdf="http://www.w3.org/1999/02/22-rdf-syntax-ns#">
   <cc:Work>
    <dc:type rdf:resource="http://purl.org/dc/dcmitype/StillImage"/>
    <dc:date>2022-02-06T15:24:21.091405</dc:date>
    <dc:format>image/svg+xml</dc:format>
    <dc:creator>
     <cc:Agent>
      <dc:title>Matplotlib v3.5.0, https://matplotlib.org/</dc:title>
     </cc:Agent>
    </dc:creator>
   </cc:Work>
  </rdf:RDF>
 </metadata>
 <defs>
  <style type="text/css">*{stroke-linejoin: round; stroke-linecap: butt}</style>
 </defs>
 <g id="figure_1">
  <g id="patch_1">
   <path d="M 0 514.8 
L 699.84 514.8 
L 699.84 0 
L 0 0 
z
" style="fill: #ffffff"/>
  </g>
  <g id="axes_1">
   <g id="patch_2">
    <path d="M 87.48 458.172 
L 629.856 458.172 
L 629.856 61.776 
L 87.48 61.776 
z
" style="fill: #ffffff"/>
   </g>
   <g id="matplotlib.axis_1">
    <g id="xtick_1">
     <g id="line2d_1">
      <defs>
       <path id="m8338d15898" d="M 0 0 
L 0 3.5 
" style="stroke: #000000; stroke-width: 0.8"/>
      </defs>
      <g>
       <use xlink:href="#m8338d15898" x="87.48" y="458.172" style="stroke: #000000; stroke-width: 0.8"/>
      </g>
     </g>
     <g id="text_1">
      <!-- −1.00 -->
      <g transform="translate(56.834688 480.368875)scale(0.2 -0.2)">
       <defs>
        <path id="DejaVuSans-2212" d="M 678 2272 
L 4684 2272 
L 4684 1741 
L 678 1741 
L 678 2272 
z
" transform="scale(0.015625)"/>
        <path id="DejaVuSans-31" d="M 794 531 
L 1825 531 
L 1825 4091 
L 703 3866 
L 703 4441 
L 1819 4666 
L 2450 4666 
L 2450 531 
L 3481 531 
L 3481 0 
L 794 0 
L 794 531 
z
" transform="scale(0.015625)"/>
        <path id="DejaVuSans-2e" d="M 684 794 
L 1344 794 
L 1344 0 
L 684 0 
L 684 794 
z
" transform="scale(0.015625)"/>
        <path id="DejaVuSans-30" d="M 2034 4250 
Q 1547 4250 1301 3770 
Q 1056 3291 1056 2328 
Q 1056 1369 1301 889 
Q 1547 409 2034 409 
Q 2525 409 2770 889 
Q 3016 1369 3016 2328 
Q 3016 3291 2770 3770 
Q 2525 4250 2034 4250 
z
M 2034 4750 
Q 2819 4750 3233 4129 
Q 3647 3509 3647 2328 
Q 3647 1150 3233 529 
Q 2819 -91 2034 -91 
Q 1250 -91 836 529 
Q 422 1150 422 2328 
Q 422 3509 836 4129 
Q 1250 4750 2034 4750 
z
" transform="scale(0.015625)"/>
       </defs>
       <use xlink:href="#DejaVuSans-2212"/>
       <use xlink:href="#DejaVuSans-31" x="83.789062"/>
       <use xlink:href="#DejaVuSans-2e" x="147.412109"/>
       <use xlink:href="#DejaVuSans-30" x="179.199219"/>
       <use xlink:href="#DejaVuSans-30" x="242.822266"/>
      </g>
     </g>
    </g>
    <g id="xtick_2">
     <g id="line2d_2">
      <g>
       <use xlink:href="#m8338d15898" x="155.277" y="458.172" style="stroke: #000000; stroke-width: 0.8"/>
      </g>
     </g>
     <g id="text_2">
      <!-- −0.75 -->
      <g transform="translate(124.631688 480.368875)scale(0.2 -0.2)">
       <defs>
        <path id="DejaVuSans-37" d="M 525 4666 
L 3525 4666 
L 3525 4397 
L 1831 0 
L 1172 0 
L 2766 4134 
L 525 4134 
L 525 4666 
z
" transform="scale(0.015625)"/>
        <path id="DejaVuSans-35" d="M 691 4666 
L 3169 4666 
L 3169 4134 
L 1269 4134 
L 1269 2991 
Q 1406 3038 1543 3061 
Q 1681 3084 1819 3084 
Q 2600 3084 3056 2656 
Q 3513 2228 3513 1497 
Q 3513 744 3044 326 
Q 2575 -91 1722 -91 
Q 1428 -91 1123 -41 
Q 819 9 494 109 
L 494 744 
Q 775 591 1075 516 
Q 1375 441 1709 441 
Q 2250 441 2565 725 
Q 2881 1009 2881 1497 
Q 2881 1984 2565 2268 
Q 2250 2553 1709 2553 
Q 1456 2553 1204 2497 
Q 953 2441 691 2322 
L 691 4666 
z
" transform="scale(0.015625)"/>
       </defs>
       <use xlink:href="#DejaVuSans-2212"/>
       <use xlink:href="#DejaVuSans-30" x="83.789062"/>
       <use xlink:href="#DejaVuSans-2e" x="147.412109"/>
       <use xlink:href="#DejaVuSans-37" x="179.199219"/>
       <use xlink:href="#DejaVuSans-35" x="242.822266"/>
      </g>
     </g>
    </g>
    <g id="xtick_3">
     <g id="line2d_3">
      <g>
       <use xlink:href="#m8338d15898" x="223.074" y="458.172" style="stroke: #000000; stroke-width: 0.8"/>
      </g>
     </g>
     <g id="text_3">
      <!-- −0.50 -->
      <g transform="translate(192.428688 480.368875)scale(0.2 -0.2)">
       <use xlink:href="#DejaVuSans-2212"/>
       <use xlink:href="#DejaVuSans-30" x="83.789062"/>
       <use xlink:href="#DejaVuSans-2e" x="147.412109"/>
       <use xlink:href="#DejaVuSans-35" x="179.199219"/>
       <use xlink:href="#DejaVuSans-30" x="242.822266"/>
      </g>
     </g>
    </g>
    <g id="xtick_4">
     <g id="line2d_4">
      <g>
       <use xlink:href="#m8338d15898" x="290.871" y="458.172" style="stroke: #000000; stroke-width: 0.8"/>
      </g>
     </g>
     <g id="text_4">
      <!-- −0.25 -->
      <g transform="translate(260.225687 480.368875)scale(0.2 -0.2)">
       <defs>
        <path id="DejaVuSans-32" d="M 1228 531 
L 3431 531 
L 3431 0 
L 469 0 
L 469 531 
Q 828 903 1448 1529 
Q 2069 2156 2228 2338 
Q 2531 2678 2651 2914 
Q 2772 3150 2772 3378 
Q 2772 3750 2511 3984 
Q 2250 4219 1831 4219 
Q 1534 4219 1204 4116 
Q 875 4013 500 3803 
L 500 4441 
Q 881 4594 1212 4672 
Q 1544 4750 1819 4750 
Q 2544 4750 2975 4387 
Q 3406 4025 3406 3419 
Q 3406 3131 3298 2873 
Q 3191 2616 2906 2266 
Q 2828 2175 2409 1742 
Q 1991 1309 1228 531 
z
" transform="scale(0.015625)"/>
       </defs>
       <use xlink:href="#DejaVuSans-2212"/>
       <use xlink:href="#DejaVuSans-30" x="83.789062"/>
       <use xlink:href="#DejaVuSans-2e" x="147.412109"/>
       <use xlink:href="#DejaVuSans-32" x="179.199219"/>
       <use xlink:href="#DejaVuSans-35" x="242.822266"/>
      </g>
     </g>
    </g>
    <g id="xtick_5">
     <g id="line2d_5">
      <g>
       <use xlink:href="#m8338d15898" x="358.668" y="458.172" style="stroke: #000000; stroke-width: 0.8"/>
      </g>
     </g>
     <g id="text_5">
      <!-- 0.00 -->
      <g transform="translate(336.402375 480.368875)scale(0.2 -0.2)">
       <use xlink:href="#DejaVuSans-30"/>
       <use xlink:href="#DejaVuSans-2e" x="63.623047"/>
       <use xlink:href="#DejaVuSans-30" x="95.410156"/>
       <use xlink:href="#DejaVuSans-30" x="159.033203"/>
      </g>
     </g>
    </g>
    <g id="xtick_6">
     <g id="line2d_6">
      <g>
       <use xlink:href="#m8338d15898" x="426.465" y="458.172" style="stroke: #000000; stroke-width: 0.8"/>
      </g>
     </g>
     <g id="text_6">
      <!-- 0.25 -->
      <g transform="translate(404.199375 480.368875)scale(0.2 -0.2)">
       <use xlink:href="#DejaVuSans-30"/>
       <use xlink:href="#DejaVuSans-2e" x="63.623047"/>
       <use xlink:href="#DejaVuSans-32" x="95.410156"/>
       <use xlink:href="#DejaVuSans-35" x="159.033203"/>
      </g>
     </g>
    </g>
    <g id="xtick_7">
     <g id="line2d_7">
      <g>
       <use xlink:href="#m8338d15898" x="494.262" y="458.172" style="stroke: #000000; stroke-width: 0.8"/>
      </g>
     </g>
     <g id="text_7">
      <!-- 0.50 -->
      <g transform="translate(471.996375 480.368875)scale(0.2 -0.2)">
       <use xlink:href="#DejaVuSans-30"/>
       <use xlink:href="#DejaVuSans-2e" x="63.623047"/>
       <use xlink:href="#DejaVuSans-35" x="95.410156"/>
       <use xlink:href="#DejaVuSans-30" x="159.033203"/>
      </g>
     </g>
    </g>
    <g id="xtick_8">
     <g id="line2d_8">
      <g>
       <use xlink:href="#m8338d15898" x="562.059" y="458.172" style="stroke: #000000; stroke-width: 0.8"/>
      </g>
     </g>
     <g id="text_8">
      <!-- 0.75 -->
      <g transform="translate(539.793375 480.368875)scale(0.2 -0.2)">
       <use xlink:href="#DejaVuSans-30"/>
       <use xlink:href="#DejaVuSans-2e" x="63.623047"/>
       <use xlink:href="#DejaVuSans-37" x="95.410156"/>
       <use xlink:href="#DejaVuSans-35" x="159.033203"/>
      </g>
     </g>
    </g>
    <g id="xtick_9">
     <g id="line2d_9">
      <g>
       <use xlink:href="#m8338d15898" x="629.856" y="458.172" style="stroke: #000000; stroke-width: 0.8"/>
      </g>
     </g>
     <g id="text_9">
      <!-- 1.00 -->
      <g transform="translate(607.590375 480.368875)scale(0.2 -0.2)">
       <use xlink:href="#DejaVuSans-31"/>
       <use xlink:href="#DejaVuSans-2e" x="63.623047"/>
       <use xlink:href="#DejaVuSans-30" x="95.410156"/>
       <use xlink:href="#DejaVuSans-30" x="159.033203"/>
      </g>
     </g>
    </g>
    <g id="text_10">
     <!-- $cos(\theta)$ -->
     <g transform="translate(327.868 503.725125)scale(0.2 -0.2)">
      <defs>
       <path id="DejaVuSans-Oblique-63" d="M 3431 3366 
L 3316 2797 
Q 3109 2947 2876 3022 
Q 2644 3097 2394 3097 
Q 2119 3097 1870 3000 
Q 1622 2903 1453 2725 
Q 1184 2453 1037 2087 
Q 891 1722 891 1331 
Q 891 859 1127 628 
Q 1363 397 1844 397 
Q 2081 397 2348 469 
Q 2616 541 2906 684 
L 2797 116 
Q 2547 13 2283 -39 
Q 2019 -91 1741 -91 
Q 1044 -91 669 257 
Q 294 606 294 1253 
Q 294 1797 489 2255 
Q 684 2713 1069 3078 
Q 1331 3328 1684 3456 
Q 2038 3584 2456 3584 
Q 2700 3584 2940 3529 
Q 3181 3475 3431 3366 
z
" transform="scale(0.015625)"/>
       <path id="DejaVuSans-Oblique-6f" d="M 1625 -91 
Q 1009 -91 651 289 
Q 294 669 294 1325 
Q 294 1706 417 2101 
Q 541 2497 738 2766 
Q 1047 3184 1428 3384 
Q 1809 3584 2291 3584 
Q 2888 3584 3255 3212 
Q 3622 2841 3622 2241 
Q 3622 1825 3500 1412 
Q 3378 1000 3181 728 
Q 2875 309 2494 109 
Q 2113 -91 1625 -91 
z
M 891 1344 
Q 891 869 1089 633 
Q 1288 397 1691 397 
Q 2269 397 2648 901 
Q 3028 1406 3028 2181 
Q 3028 2634 2825 2865 
Q 2622 3097 2228 3097 
Q 1903 3097 1650 2945 
Q 1397 2794 1197 2484 
Q 1050 2253 970 1956 
Q 891 1659 891 1344 
z
" transform="scale(0.015625)"/>
       <path id="DejaVuSans-Oblique-73" d="M 3200 3397 
L 3091 2853 
Q 2863 2978 2609 3040 
Q 2356 3103 2088 3103 
Q 1634 3103 1373 2948 
Q 1113 2794 1113 2528 
Q 1113 2219 1719 2053 
Q 1766 2041 1788 2034 
L 1972 1978 
Q 2547 1819 2739 1644 
Q 2931 1469 2931 1166 
Q 2931 609 2489 259 
Q 2047 -91 1331 -91 
Q 1053 -91 747 -37 
Q 441 16 72 128 
L 184 722 
Q 500 559 806 475 
Q 1113 391 1394 391 
Q 1816 391 2080 572 
Q 2344 753 2344 1031 
Q 2344 1331 1650 1516 
L 1591 1531 
L 1394 1581 
Q 956 1697 753 1886 
Q 550 2075 550 2369 
Q 550 2928 970 3256 
Q 1391 3584 2113 3584 
Q 2397 3584 2667 3537 
Q 2938 3491 3200 3397 
z
" transform="scale(0.015625)"/>
       <path id="DejaVuSans-28" d="M 1984 4856 
Q 1566 4138 1362 3434 
Q 1159 2731 1159 2009 
Q 1159 1288 1364 580 
Q 1569 -128 1984 -844 
L 1484 -844 
Q 1016 -109 783 600 
Q 550 1309 550 2009 
Q 550 2706 781 3412 
Q 1013 4119 1484 4856 
L 1984 4856 
z
" transform="scale(0.015625)"/>
       <path id="DejaVuSans-Oblique-3b8" d="M 2913 2219 
L 925 2219 
Q 791 1284 928 888 
Q 1100 400 1566 400 
Q 2034 400 2391 891 
Q 2703 1322 2913 2219 
z
M 3009 2750 
Q 3094 3638 2984 3950 
Q 2813 4444 2353 4444 
Q 1875 4444 1525 3956 
Q 1250 3563 1034 2750 
L 3009 2750 
z
M 2444 4913 
Q 3194 4913 3494 4250 
Q 3794 3591 3566 2422 
Q 3341 1256 2781 594 
Q 2225 -72 1475 -72 
Q 722 -72 425 594 
Q 128 1256 353 2422 
Q 581 3591 1134 4250 
Q 1691 4913 2444 4913 
z
" transform="scale(0.015625)"/>
       <path id="DejaVuSans-29" d="M 513 4856 
L 1013 4856 
Q 1481 4119 1714 3412 
Q 1947 2706 1947 2009 
Q 1947 1309 1714 600 
Q 1481 -109 1013 -844 
L 513 -844 
Q 928 -128 1133 580 
Q 1338 1288 1338 2009 
Q 1338 2731 1133 3434 
Q 928 4138 513 4856 
z
" transform="scale(0.015625)"/>
      </defs>
      <use xlink:href="#DejaVuSans-Oblique-63" transform="translate(0 0.234375)"/>
      <use xlink:href="#DejaVuSans-Oblique-6f" transform="translate(54.980469 0.234375)"/>
      <use xlink:href="#DejaVuSans-Oblique-73" transform="translate(116.162109 0.234375)"/>
      <use xlink:href="#DejaVuSans-28" transform="translate(168.261719 0.234375)"/>
      <use xlink:href="#DejaVuSans-Oblique-3b8" transform="translate(207.275391 0.234375)"/>
      <use xlink:href="#DejaVuSans-29" transform="translate(268.457031 0.234375)"/>
     </g>
    </g>
   </g>
   <g id="matplotlib.axis_2">
    <g id="ytick_1">
     <g id="line2d_10">
      <defs>
       <path id="mac271b40fd" d="M 0 0 
L -3.5 0 
" style="stroke: #000000; stroke-width: 0.8"/>
      </defs>
      <g>
       <use xlink:href="#mac271b40fd" x="87.48" y="410.573924" style="stroke: #000000; stroke-width: 0.8"/>
      </g>
     </g>
     <g id="text_11">
      <!-- 2.5 -->
      <g transform="translate(48.67375 418.172361)scale(0.2 -0.2)">
       <use xlink:href="#DejaVuSans-32"/>
       <use xlink:href="#DejaVuSans-2e" x="63.623047"/>
       <use xlink:href="#DejaVuSans-35" x="95.410156"/>
      </g>
     </g>
    </g>
    <g id="ytick_2">
     <g id="line2d_11">
      <g>
       <use xlink:href="#mac271b40fd" x="87.48" y="357.011848" style="stroke: #000000; stroke-width: 0.8"/>
      </g>
     </g>
     <g id="text_12">
      <!-- 5.0 -->
      <g transform="translate(48.67375 364.610286)scale(0.2 -0.2)">
       <use xlink:href="#DejaVuSans-35"/>
       <use xlink:href="#DejaVuSans-2e" x="63.623047"/>
       <use xlink:href="#DejaVuSans-30" x="95.410156"/>
      </g>
     </g>
    </g>
    <g id="ytick_3">
     <g id="line2d_12">
      <g>
       <use xlink:href="#mac271b40fd" x="87.48" y="303.449773" style="stroke: #000000; stroke-width: 0.8"/>
      </g>
     </g>
     <g id="text_13">
      <!-- 7.5 -->
      <g transform="translate(48.67375 311.048211)scale(0.2 -0.2)">
       <use xlink:href="#DejaVuSans-37"/>
       <use xlink:href="#DejaVuSans-2e" x="63.623047"/>
       <use xlink:href="#DejaVuSans-35" x="95.410156"/>
      </g>
     </g>
    </g>
    <g id="ytick_4">
     <g id="line2d_13">
      <g>
       <use xlink:href="#mac271b40fd" x="87.48" y="249.887698" style="stroke: #000000; stroke-width: 0.8"/>
      </g>
     </g>
     <g id="text_14">
      <!-- 10.0 -->
      <g transform="translate(35.94875 257.486135)scale(0.2 -0.2)">
       <use xlink:href="#DejaVuSans-31"/>
       <use xlink:href="#DejaVuSans-30" x="63.623047"/>
       <use xlink:href="#DejaVuSans-2e" x="127.246094"/>
       <use xlink:href="#DejaVuSans-30" x="159.033203"/>
      </g>
     </g>
    </g>
    <g id="ytick_5">
     <g id="line2d_14">
      <g>
       <use xlink:href="#mac271b40fd" x="87.48" y="196.325623" style="stroke: #000000; stroke-width: 0.8"/>
      </g>
     </g>
     <g id="text_15">
      <!-- 12.5 -->
      <g transform="translate(35.94875 203.92406)scale(0.2 -0.2)">
       <use xlink:href="#DejaVuSans-31"/>
       <use xlink:href="#DejaVuSans-32" x="63.623047"/>
       <use xlink:href="#DejaVuSans-2e" x="127.246094"/>
       <use xlink:href="#DejaVuSans-35" x="159.033203"/>
      </g>
     </g>
    </g>
    <g id="ytick_6">
     <g id="line2d_15">
      <g>
       <use xlink:href="#mac271b40fd" x="87.48" y="142.763547" style="stroke: #000000; stroke-width: 0.8"/>
      </g>
     </g>
     <g id="text_16">
      <!-- 15.0 -->
      <g transform="translate(35.94875 150.361985)scale(0.2 -0.2)">
       <use xlink:href="#DejaVuSans-31"/>
       <use xlink:href="#DejaVuSans-35" x="63.623047"/>
       <use xlink:href="#DejaVuSans-2e" x="127.246094"/>
       <use xlink:href="#DejaVuSans-30" x="159.033203"/>
      </g>
     </g>
    </g>
    <g id="ytick_7">
     <g id="line2d_16">
      <g>
       <use xlink:href="#mac271b40fd" x="87.48" y="89.201472" style="stroke: #000000; stroke-width: 0.8"/>
      </g>
     </g>
     <g id="text_17">
      <!-- 17.5 -->
      <g transform="translate(35.94875 96.79991)scale(0.2 -0.2)">
       <use xlink:href="#DejaVuSans-31"/>
       <use xlink:href="#DejaVuSans-37" x="63.623047"/>
       <use xlink:href="#DejaVuSans-2e" x="127.246094"/>
       <use xlink:href="#DejaVuSans-35" x="159.033203"/>
      </g>
     </g>
    </g>
    <g id="text_18">
     <!-- $\phi_{\nu_{\mu}}/\phi_{\nu_e}$ -->
     <g transform="translate(24.14875 291.474)rotate(-90)scale(0.2 -0.2)">
      <defs>
       <path id="DejaVuSans-Oblique-3d5" d="M 2991 4863 
L 2738 3572 
Q 3363 3572 3684 3094 
Q 4016 2606 3850 1747 
Q 3681 888 3159 400 
Q 2653 -78 2028 -78 
L 1784 -1331 
L 1213 -1331 
L 1456 -78 
Q 834 -78 509 400 
Q 178 888 347 1747 
Q 513 2606 1034 3094 
Q 1544 3572 2166 3572 
L 2419 4863 
L 2991 4863 
z
M 2128 434 
Q 2481 434 2784 756 
Q 3116 1116 3244 1747 
Q 3369 2372 3169 2738 
Q 2991 3059 2638 3059 
L 2128 434 
z
M 1556 434 
L 2066 3059 
Q 1716 3059 1413 2738 
Q 1072 2372 953 1747 
Q 834 1116 1028 756 
Q 1203 434 1556 434 
z
" transform="scale(0.015625)"/>
       <path id="DejaVuSans-Oblique-3bd" d="M 959 0 
L 572 3500 
L 1191 3500 
L 1522 563 
Q 1972 950 2391 1488 
Q 2706 1891 2788 2241 
Q 2825 2406 2809 2719 
Q 2794 3091 2544 3500 
L 3125 3500 
L 3125 3500 
Q 3288 3222 3353 2834 
Q 3416 2478 3369 2234 
Q 3250 1622 2719 1075 
Q 2025 363 1572 0 
L 959 0 
z
" transform="scale(0.015625)"/>
       <path id="DejaVuSans-Oblique-3bc" d="M -84 -1331 
L 856 3500 
L 1434 3500 
L 1009 1322 
Q 997 1256 987 1175 
Q 978 1094 978 1013 
Q 978 722 1161 565 
Q 1344 409 1684 409 
Q 2147 409 2431 671 
Q 2716 934 2816 1459 
L 3213 3500 
L 3788 3500 
L 3266 809 
Q 3253 750 3248 706 
Q 3244 663 3244 628 
Q 3244 531 3283 486 
Q 3322 441 3406 441 
Q 3438 441 3492 456 
Q 3547 472 3647 513 
L 3559 50 
Q 3422 -19 3297 -55 
Q 3172 -91 3053 -91 
Q 2847 -91 2730 40 
Q 2613 172 2613 403 
Q 2438 153 2195 31 
Q 1953 -91 1625 -91 
Q 1334 -91 1117 43 
Q 900 178 831 397 
L 494 -1331 
L -84 -1331 
z
" transform="scale(0.015625)"/>
       <path id="DejaVuSans-2f" d="M 1625 4666 
L 2156 4666 
L 531 -594 
L 0 -594 
L 1625 4666 
z
" transform="scale(0.015625)"/>
       <path id="DejaVuSans-Oblique-65" d="M 3078 2063 
Q 3088 2113 3092 2166 
Q 3097 2219 3097 2272 
Q 3097 2653 2873 2875 
Q 2650 3097 2266 3097 
Q 1838 3097 1509 2826 
Q 1181 2556 1013 2059 
L 3078 2063 
z
M 3578 1613 
L 903 1613 
Q 884 1494 878 1425 
Q 872 1356 872 1306 
Q 872 872 1139 634 
Q 1406 397 1894 397 
Q 2269 397 2603 481 
Q 2938 566 3225 728 
L 3116 159 
Q 2806 34 2476 -28 
Q 2147 -91 1806 -91 
Q 1078 -91 686 257 
Q 294 606 294 1247 
Q 294 1794 489 2264 
Q 684 2734 1063 3103 
Q 1306 3334 1642 3459 
Q 1978 3584 2356 3584 
Q 2950 3584 3301 3228 
Q 3653 2872 3653 2272 
Q 3653 2128 3634 1964 
Q 3616 1800 3578 1613 
z
" transform="scale(0.015625)"/>
      </defs>
      <use xlink:href="#DejaVuSans-Oblique-3d5" transform="translate(0 0.015625)"/>
      <use xlink:href="#DejaVuSans-Oblique-3bd" transform="translate(65.966797 -16.390625)scale(0.7)"/>
      <use xlink:href="#DejaVuSans-Oblique-3bc" transform="translate(105.068359 -27.875)scale(0.49)"/>
      <use xlink:href="#DejaVuSans-2f" transform="translate(140.89209 0.015625)"/>
      <use xlink:href="#DejaVuSans-Oblique-3d5" transform="translate(174.583496 0.015625)"/>
      <use xlink:href="#DejaVuSans-Oblique-3bd" transform="translate(240.550293 -16.390625)scale(0.7)"/>
      <use xlink:href="#DejaVuSans-Oblique-65" transform="translate(279.651855 -27.875)scale(0.49)"/>
     </g>
    </g>
   </g>
   <g id="line2d_17">
    <path d="M 87.48 205.00437 
L 92.90376 191.072464 
L 98.32752 180.667814 
L 103.75128 173.6064 
L 109.17504 169.565996 
L 114.5988 168.139267 
L 120.02256 168.880235 
L 125.44632 171.341166 
L 130.87008 175.099163 
L 136.29384 179.773229 
L 141.7176 185.033416 
L 147.14136 190.603917 
L 152.56512 196.261954 
L 157.98888 201.833996 
L 163.41264 207.190574 
L 168.8364 212.240567 
L 174.26016 216.925573 
L 179.68392 221.214727 
L 185.10768 225.100153 
L 190.53144 228.593104 
L 195.9552 231.720749 
L 201.37896 234.523544 
L 206.80272 237.053047 
L 212.22648 239.370069 
L 217.65024 241.543012 
L 223.074 243.646278 
L 228.49776 245.758633 
L 233.92152 247.961438 
L 239.34528 250.336678 
L 244.76904 252.964754 
L 250.1928 255.922046 
L 255.61656 259.278295 
L 261.04032 263.093881 
L 266.46408 267.417133 
L 271.88784 272.281825 
L 277.3116 277.705047 
L 282.73536 283.685621 
L 288.15912 290.203246 
L 293.58288 297.2185 
L 299.00664 304.673773 
L 304.4304 312.495149 
L 309.85416 320.595144 
L 315.27792 328.87617 
L 320.70168 337.234487 
L 326.12544 345.564376 
L 331.5492 353.762248 
L 336.97296 361.730387 
L 342.39672 369.380087 
L 347.82048 376.633986 
L 353.24424 383.427468 
L 358.668 389.709083 
L 364.09176 383.427468 
L 369.51552 376.633986 
L 374.93928 369.380087 
L 380.36304 361.730387 
L 385.7868 353.762248 
L 391.21056 345.564376 
L 396.63432 337.234487 
L 402.05808 328.87617 
L 407.48184 320.595144 
L 412.9056 312.495149 
L 418.32936 304.673773 
L 423.75312 297.2185 
L 429.17688 290.203246 
L 434.60064 283.685621 
L 440.0244 277.705047 
L 445.44816 272.281825 
L 450.87192 267.417133 
L 456.29568 263.093881 
L 461.71944 259.278295 
L 467.1432 255.922046 
L 472.56696 252.964754 
L 477.99072 250.336678 
L 483.41448 247.961438 
L 488.83824 245.758633 
L 494.262 243.646278 
L 499.68576 241.543012 
L 505.10952 239.370069 
L 510.53328 237.053047 
L 515.95704 234.523544 
L 521.3808 231.720749 
L 526.80456 228.593104 
L 532.22832 225.100153 
L 537.65208 221.214727 
L 543.07584 216.925573 
L 548.4996 212.240567 
L 553.92336 207.190574 
L 559.34712 201.833996 
L 564.77088 196.261954 
L 570.19464 190.603917 
L 575.6184 185.033416 
L 581.04216 179.773229 
L 586.46592 175.099163 
L 591.88968 171.341166 
L 597.31344 168.880235 
L 602.7372 168.139267 
L 608.16096 169.565996 
L 613.58472 173.6064 
L 619.00848 180.667814 
L 624.43224 191.072464 
" clip-path="url(#p380cc5f52a)" style="fill: none; stroke: #ff0000; stroke-width: 3; stroke-linecap: square"/>
   </g>
   <g id="line2d_18">
    <path d="M 87.48 79.794 
L 92.90376 85.981182 
L 98.32752 92.301239 
L 103.75128 98.681058 
L 109.17504 105.059217 
L 114.5988 111.38518 
L 120.02256 117.618435 
L 125.44632 123.727604 
L 130.87008 129.689565 
L 136.29384 135.488613 
L 141.7176 141.115658 
L 147.14136 146.567492 
L 152.56512 151.846104 
L 157.98888 156.958069 
L 163.41264 161.913985 
L 168.8364 166.727964 
L 174.26016 171.417172 
L 179.68392 176.001401 
L 185.10768 180.502676 
L 190.53144 184.94488 
L 195.9552 189.353387 
L 201.37896 193.754708 
L 206.80272 198.176126 
L 212.22648 202.645327 
L 217.65024 207.190014 
L 223.074 211.837504 
L 228.49776 216.614306 
L 233.92152 221.54568 
L 239.34528 226.655177 
L 244.76904 231.964166 
L 250.1928 237.491355 
L 255.61656 243.252321 
L 261.04032 249.259038 
L 266.46408 255.519451 
L 271.88784 262.037077 
L 277.3116 268.810676 
L 282.73536 275.83398 
L 288.15912 283.095534 
L 293.58288 290.578619 
L 299.00664 298.261313 
L 304.4304 306.11667 
L 309.85416 314.113034 
L 315.27792 322.214491 
L 320.70168 330.381454 
L 326.12544 338.571368 
L 331.5492 346.739519 
L 336.97296 354.839937 
L 342.39672 362.826346 
L 347.82048 370.653158 
L 353.24424 378.276445 
L 358.668 385.654891 
L 364.09176 378.276445 
L 369.51552 370.653158 
L 374.93928 362.826346 
L 380.36304 354.839937 
L 385.7868 346.739519 
L 391.21056 338.571368 
L 396.63432 330.381454 
L 402.05808 322.214491 
L 407.48184 314.113034 
L 412.9056 306.11667 
L 418.32936 298.261313 
L 423.75312 290.578619 
L 429.17688 283.095534 
L 434.60064 275.83398 
L 440.0244 268.810676 
L 445.44816 262.037077 
L 450.87192 255.519451 
L 456.29568 249.259038 
L 461.71944 243.252321 
L 467.1432 237.491355 
L 472.56696 231.964166 
L 477.99072 226.655177 
L 483.41448 221.54568 
L 488.83824 216.614306 
L 494.262 211.837504 
L 499.68576 207.190014 
L 505.10952 202.645327 
L 510.53328 198.176126 
L 515.95704 193.754708 
L 521.3808 189.353387 
L 526.80456 184.94488 
L 532.22832 180.502676 
L 537.65208 176.001401 
L 543.07584 171.417172 
L 548.4996 166.727964 
L 553.92336 161.913985 
L 559.34712 156.958069 
L 564.77088 151.846104 
L 570.19464 146.567492 
L 575.6184 141.115658 
L 581.04216 135.488613 
L 586.46592 129.689565 
L 591.88968 123.727604 
L 597.31344 117.618435 
L 602.7372 111.38518 
L 608.16096 105.059217 
L 613.58472 98.681058 
L 619.00848 92.301239 
L 624.43224 85.981182 
" clip-path="url(#p380cc5f52a)" style="fill: none; stroke: #0000ff; stroke-width: 3; stroke-linecap: square"/>
   </g>
   <g id="line2d_19">
    <path d="M 87.48 328.277638 
L 92.90376 326.082483 
L 98.32752 325.629577 
L 103.75128 326.647521 
L 109.17504 328.845212 
L 114.5988 331.936669 
L 120.02256 335.658213 
L 125.44632 339.778677 
L 130.87008 344.103971 
L 136.29384 348.477499 
L 141.7176 352.77784 
L 147.14136 356.914868 
L 152.56512 360.825193 
L 157.98888 364.467539 
L 163.41264 367.818437 
L 168.8364 370.868439 
L 174.26016 373.618947 
L 179.68392 376.079631 
L 185.10768 378.266419 
L 190.53144 380.199952 
L 195.9552 381.904442 
L 201.37896 383.40684 
L 206.80272 384.736223 
L 212.22648 385.923338 
L 217.65024 387.000228 
L 223.074 387.999886 
L 228.49776 388.95589 
L 233.92152 389.901966 
L 239.34528 390.871475 
L 244.76904 391.896784 
L 250.1928 393.008539 
L 255.61656 394.234838 
L 261.04032 395.600347 
L 266.46408 397.125388 
L 271.88784 398.825072 
L 277.3116 400.708533 
L 282.73536 402.778336 
L 288.15912 405.03013 
L 293.58288 407.452588 
L 299.00664 410.027687 
L 304.4304 412.731328 
L 309.85416 415.534272 
L 315.27792 418.403361 
L 320.70168 421.302926 
L 326.12544 424.196303 
L 331.5492 427.047345 
L 336.97296 429.821813 
L 342.39672 432.488572 
L 347.82048 435.020496 
L 353.24424 437.395045 
L 358.668 439.594499 
L 364.09176 437.395045 
L 369.51552 435.020496 
L 374.93928 432.488572 
L 380.36304 429.821813 
L 385.7868 427.047345 
L 391.21056 424.196303 
L 396.63432 421.302926 
L 402.05808 418.403361 
L 407.48184 415.534272 
L 412.9056 412.731328 
L 418.32936 410.027687 
L 423.75312 407.452588 
L 429.17688 405.03013 
L 434.60064 402.778336 
L 440.0244 400.708533 
L 445.44816 398.825072 
L 450.87192 397.125388 
L 456.29568 395.600347 
L 461.71944 394.234838 
L 467.1432 393.008539 
L 472.56696 391.896784 
L 477.99072 390.871475 
L 483.41448 389.901966 
L 488.83824 388.95589 
L 494.262 387.999886 
L 499.68576 387.000228 
L 505.10952 385.923338 
L 510.53328 384.736223 
L 515.95704 383.40684 
L 521.3808 381.904442 
L 526.80456 380.199952 
L 532.22832 378.266419 
L 537.65208 376.079631 
L 543.07584 373.618947 
L 548.4996 370.868439 
L 553.92336 367.818437 
L 559.34712 364.467539 
L 564.77088 360.825193 
L 570.19464 356.914868 
L 575.6184 352.77784 
L 581.04216 348.477499 
L 586.46592 344.103971 
L 591.88968 339.778677 
L 597.31344 335.658213 
L 602.7372 331.936669 
L 608.16096 328.845212 
L 613.58472 326.647521 
L 619.00848 325.629577 
L 624.43224 326.082483 
" clip-path="url(#p380cc5f52a)" style="fill: none; stroke-dasharray: 11.1,4.8; stroke-dashoffset: 0; stroke: #ff0000; stroke-width: 3"/>
   </g>
   <g id="line2d_20">
    <path d="M 87.48 295.765268 
L 92.90376 302.552202 
L 98.32752 308.945343 
L 103.75128 314.950946 
L 109.17504 320.579197 
L 114.5988 325.843308 
L 120.02256 330.75875 
L 125.44632 335.342627 
L 130.87008 339.613168 
L 136.29384 343.589319 
L 141.7176 347.290426 
L 147.14136 350.735997 
L 152.56512 353.945514 
L 157.98888 356.938305 
L 163.41264 359.733452 
L 168.8364 362.349729 
L 174.26016 364.805562 
L 179.68392 367.119006 
L 185.10768 369.307731 
L 190.53144 371.38901 
L 195.9552 373.37971 
L 201.37896 375.296272 
L 206.80272 377.15469 
L 212.22648 378.970474 
L 217.65024 380.758601 
L 223.074 382.533452 
L 228.49776 384.308736 
L 233.92152 386.097389 
L 239.34528 387.91147 
L 244.76904 389.762035 
L 250.1928 391.659005 
L 255.61656 393.611022 
L 261.04032 395.625304 
L 266.46408 397.707503 
L 271.88784 399.861573 
L 277.3116 402.089643 
L 282.73536 404.391924 
L 288.15912 406.766634 
L 293.58288 409.209968 
L 299.00664 411.716104 
L 304.4304 414.277252 
L 309.85416 416.883766 
L 315.27792 419.524293 
L 320.70168 422.185989 
L 326.12544 424.85477 
L 331.5492 427.515617 
L 336.97296 430.152914 
L 342.39672 432.75081 
L 347.82048 435.293597 
L 353.24424 437.766092 
L 358.668 440.154 
L 364.09176 437.766092 
L 369.51552 435.293597 
L 374.93928 432.75081 
L 380.36304 430.152914 
L 385.7868 427.515617 
L 391.21056 424.85477 
L 396.63432 422.185989 
L 402.05808 419.524293 
L 407.48184 416.883766 
L 412.9056 414.277252 
L 418.32936 411.716104 
L 423.75312 409.209968 
L 429.17688 406.766634 
L 434.60064 404.391924 
L 440.0244 402.089643 
L 445.44816 399.861573 
L 450.87192 397.707503 
L 456.29568 395.625304 
L 461.71944 393.611022 
L 467.1432 391.659005 
L 472.56696 389.762035 
L 477.99072 387.91147 
L 483.41448 386.097389 
L 488.83824 384.308736 
L 494.262 382.533452 
L 499.68576 380.758601 
L 505.10952 378.970474 
L 510.53328 377.15469 
L 515.95704 375.296272 
L 521.3808 373.37971 
L 526.80456 371.38901 
L 532.22832 369.307731 
L 537.65208 367.119006 
L 543.07584 364.805562 
L 548.4996 362.349729 
L 553.92336 359.733452 
L 559.34712 356.938305 
L 564.77088 353.945514 
L 570.19464 350.735997 
L 575.6184 347.290426 
L 581.04216 343.589319 
L 586.46592 339.613168 
L 591.88968 335.342627 
L 597.31344 330.75875 
L 602.7372 325.843308 
L 608.16096 320.579197 
L 613.58472 314.950946 
L 619.00848 308.945343 
L 624.43224 302.552202 
" clip-path="url(#p380cc5f52a)" style="fill: none; stroke-dasharray: 11.1,4.8; stroke-dashoffset: 0; stroke: #0000ff; stroke-width: 3"/>
   </g>
   <g id="patch_3">
    <path d="M 87.48 458.172 
L 87.48 61.776 
" style="fill: none; stroke: #000000; stroke-width: 0.8; stroke-linejoin: miter; stroke-linecap: square"/>
   </g>
   <g id="patch_4">
    <path d="M 629.856 458.172 
L 629.856 61.776 
" style="fill: none; stroke: #000000; stroke-width: 0.8; stroke-linejoin: miter; stroke-linecap: square"/>
   </g>
   <g id="patch_5">
    <path d="M 87.48 458.172 
L 629.856 458.172 
" style="fill: none; stroke: #000000; stroke-width: 0.8; stroke-linejoin: miter; stroke-linecap: square"/>
   </g>
   <g id="patch_6">
    <path d="M 87.48 61.776 
L 629.856 61.776 
" style="fill: none; stroke: #000000; stroke-width: 0.8; stroke-linejoin: miter; stroke-linecap: square"/>
   </g>
   <g id="legend_1">
    <g id="patch_7">
     <path d="M 203.768 195.201 
L 513.568 195.201 
Q 517.568 195.201 517.568 191.201 
L 517.568 75.776 
Q 517.568 71.776 513.568 71.776 
L 203.768 71.776 
Q 199.768 71.776 199.768 75.776 
L 199.768 191.201 
Q 199.768 195.201 203.768 195.201 
z
" style="fill: #ffffff; opacity: 0.8; stroke: #cccccc; stroke-linejoin: miter"/>
    </g>
    <g id="line2d_21">
     <path d="M 207.768 87.972875 
L 227.768 87.972875 
L 247.768 87.972875 
" style="fill: none; stroke: #ff0000; stroke-width: 3; stroke-linecap: square"/>
    </g>
    <g id="text_19">
     <!-- bartol at 100 GeV -->
     <g transform="translate(263.768 94.972875)scale(0.2 -0.2)">
      <defs>
       <path id="DejaVuSans-62" d="M 3116 1747 
Q 3116 2381 2855 2742 
Q 2594 3103 2138 3103 
Q 1681 3103 1420 2742 
Q 1159 2381 1159 1747 
Q 1159 1113 1420 752 
Q 1681 391 2138 391 
Q 2594 391 2855 752 
Q 3116 1113 3116 1747 
z
M 1159 2969 
Q 1341 3281 1617 3432 
Q 1894 3584 2278 3584 
Q 2916 3584 3314 3078 
Q 3713 2572 3713 1747 
Q 3713 922 3314 415 
Q 2916 -91 2278 -91 
Q 1894 -91 1617 61 
Q 1341 213 1159 525 
L 1159 0 
L 581 0 
L 581 4863 
L 1159 4863 
L 1159 2969 
z
" transform="scale(0.015625)"/>
       <path id="DejaVuSans-61" d="M 2194 1759 
Q 1497 1759 1228 1600 
Q 959 1441 959 1056 
Q 959 750 1161 570 
Q 1363 391 1709 391 
Q 2188 391 2477 730 
Q 2766 1069 2766 1631 
L 2766 1759 
L 2194 1759 
z
M 3341 1997 
L 3341 0 
L 2766 0 
L 2766 531 
Q 2569 213 2275 61 
Q 1981 -91 1556 -91 
Q 1019 -91 701 211 
Q 384 513 384 1019 
Q 384 1609 779 1909 
Q 1175 2209 1959 2209 
L 2766 2209 
L 2766 2266 
Q 2766 2663 2505 2880 
Q 2244 3097 1772 3097 
Q 1472 3097 1187 3025 
Q 903 2953 641 2809 
L 641 3341 
Q 956 3463 1253 3523 
Q 1550 3584 1831 3584 
Q 2591 3584 2966 3190 
Q 3341 2797 3341 1997 
z
" transform="scale(0.015625)"/>
       <path id="DejaVuSans-72" d="M 2631 2963 
Q 2534 3019 2420 3045 
Q 2306 3072 2169 3072 
Q 1681 3072 1420 2755 
Q 1159 2438 1159 1844 
L 1159 0 
L 581 0 
L 581 3500 
L 1159 3500 
L 1159 2956 
Q 1341 3275 1631 3429 
Q 1922 3584 2338 3584 
Q 2397 3584 2469 3576 
Q 2541 3569 2628 3553 
L 2631 2963 
z
" transform="scale(0.015625)"/>
       <path id="DejaVuSans-74" d="M 1172 4494 
L 1172 3500 
L 2356 3500 
L 2356 3053 
L 1172 3053 
L 1172 1153 
Q 1172 725 1289 603 
Q 1406 481 1766 481 
L 2356 481 
L 2356 0 
L 1766 0 
Q 1100 0 847 248 
Q 594 497 594 1153 
L 594 3053 
L 172 3053 
L 172 3500 
L 594 3500 
L 594 4494 
L 1172 4494 
z
" transform="scale(0.015625)"/>
       <path id="DejaVuSans-6f" d="M 1959 3097 
Q 1497 3097 1228 2736 
Q 959 2375 959 1747 
Q 959 1119 1226 758 
Q 1494 397 1959 397 
Q 2419 397 2687 759 
Q 2956 1122 2956 1747 
Q 2956 2369 2687 2733 
Q 2419 3097 1959 3097 
z
M 1959 3584 
Q 2709 3584 3137 3096 
Q 3566 2609 3566 1747 
Q 3566 888 3137 398 
Q 2709 -91 1959 -91 
Q 1206 -91 779 398 
Q 353 888 353 1747 
Q 353 2609 779 3096 
Q 1206 3584 1959 3584 
z
" transform="scale(0.015625)"/>
       <path id="DejaVuSans-6c" d="M 603 4863 
L 1178 4863 
L 1178 0 
L 603 0 
L 603 4863 
z
" transform="scale(0.015625)"/>
       <path id="DejaVuSans-20" transform="scale(0.015625)"/>
       <path id="DejaVuSans-47" d="M 3809 666 
L 3809 1919 
L 2778 1919 
L 2778 2438 
L 4434 2438 
L 4434 434 
Q 4069 175 3628 42 
Q 3188 -91 2688 -91 
Q 1594 -91 976 548 
Q 359 1188 359 2328 
Q 359 3472 976 4111 
Q 1594 4750 2688 4750 
Q 3144 4750 3555 4637 
Q 3966 4525 4313 4306 
L 4313 3634 
Q 3963 3931 3569 4081 
Q 3175 4231 2741 4231 
Q 1884 4231 1454 3753 
Q 1025 3275 1025 2328 
Q 1025 1384 1454 906 
Q 1884 428 2741 428 
Q 3075 428 3337 486 
Q 3600 544 3809 666 
z
" transform="scale(0.015625)"/>
       <path id="DejaVuSans-65" d="M 3597 1894 
L 3597 1613 
L 953 1613 
Q 991 1019 1311 708 
Q 1631 397 2203 397 
Q 2534 397 2845 478 
Q 3156 559 3463 722 
L 3463 178 
Q 3153 47 2828 -22 
Q 2503 -91 2169 -91 
Q 1331 -91 842 396 
Q 353 884 353 1716 
Q 353 2575 817 3079 
Q 1281 3584 2069 3584 
Q 2775 3584 3186 3129 
Q 3597 2675 3597 1894 
z
M 3022 2063 
Q 3016 2534 2758 2815 
Q 2500 3097 2075 3097 
Q 1594 3097 1305 2825 
Q 1016 2553 972 2059 
L 3022 2063 
z
" transform="scale(0.015625)"/>
       <path id="DejaVuSans-56" d="M 1831 0 
L 50 4666 
L 709 4666 
L 2188 738 
L 3669 4666 
L 4325 4666 
L 2547 0 
L 1831 0 
z
" transform="scale(0.015625)"/>
      </defs>
      <use xlink:href="#DejaVuSans-62"/>
      <use xlink:href="#DejaVuSans-61" x="63.476562"/>
      <use xlink:href="#DejaVuSans-72" x="124.755859"/>
      <use xlink:href="#DejaVuSans-74" x="165.869141"/>
      <use xlink:href="#DejaVuSans-6f" x="205.078125"/>
      <use xlink:href="#DejaVuSans-6c" x="266.259766"/>
      <use xlink:href="#DejaVuSans-20" x="294.042969"/>
      <use xlink:href="#DejaVuSans-61" x="325.830078"/>
      <use xlink:href="#DejaVuSans-74" x="387.109375"/>
      <use xlink:href="#DejaVuSans-20" x="426.318359"/>
      <use xlink:href="#DejaVuSans-31" x="458.105469"/>
      <use xlink:href="#DejaVuSans-30" x="521.728516"/>
      <use xlink:href="#DejaVuSans-30" x="585.351562"/>
      <use xlink:href="#DejaVuSans-20" x="648.974609"/>
      <use xlink:href="#DejaVuSans-47" x="680.761719"/>
      <use xlink:href="#DejaVuSans-65" x="758.251953"/>
      <use xlink:href="#DejaVuSans-56" x="819.775391"/>
     </g>
    </g>
    <g id="line2d_22">
     <path d="M 207.768 117.329125 
L 227.768 117.329125 
L 247.768 117.329125 
" style="fill: none; stroke: #0000ff; stroke-width: 3; stroke-linecap: square"/>
    </g>
    <g id="text_20">
     <!-- honda group at 100 GeV -->
     <g transform="translate(263.768 124.329125)scale(0.2 -0.2)">
      <defs>
       <path id="DejaVuSans-68" d="M 3513 2113 
L 3513 0 
L 2938 0 
L 2938 2094 
Q 2938 2591 2744 2837 
Q 2550 3084 2163 3084 
Q 1697 3084 1428 2787 
Q 1159 2491 1159 1978 
L 1159 0 
L 581 0 
L 581 4863 
L 1159 4863 
L 1159 2956 
Q 1366 3272 1645 3428 
Q 1925 3584 2291 3584 
Q 2894 3584 3203 3211 
Q 3513 2838 3513 2113 
z
" transform="scale(0.015625)"/>
       <path id="DejaVuSans-6e" d="M 3513 2113 
L 3513 0 
L 2938 0 
L 2938 2094 
Q 2938 2591 2744 2837 
Q 2550 3084 2163 3084 
Q 1697 3084 1428 2787 
Q 1159 2491 1159 1978 
L 1159 0 
L 581 0 
L 581 3500 
L 1159 3500 
L 1159 2956 
Q 1366 3272 1645 3428 
Q 1925 3584 2291 3584 
Q 2894 3584 3203 3211 
Q 3513 2838 3513 2113 
z
" transform="scale(0.015625)"/>
       <path id="DejaVuSans-64" d="M 2906 2969 
L 2906 4863 
L 3481 4863 
L 3481 0 
L 2906 0 
L 2906 525 
Q 2725 213 2448 61 
Q 2172 -91 1784 -91 
Q 1150 -91 751 415 
Q 353 922 353 1747 
Q 353 2572 751 3078 
Q 1150 3584 1784 3584 
Q 2172 3584 2448 3432 
Q 2725 3281 2906 2969 
z
M 947 1747 
Q 947 1113 1208 752 
Q 1469 391 1925 391 
Q 2381 391 2643 752 
Q 2906 1113 2906 1747 
Q 2906 2381 2643 2742 
Q 2381 3103 1925 3103 
Q 1469 3103 1208 2742 
Q 947 2381 947 1747 
z
" transform="scale(0.015625)"/>
       <path id="DejaVuSans-67" d="M 2906 1791 
Q 2906 2416 2648 2759 
Q 2391 3103 1925 3103 
Q 1463 3103 1205 2759 
Q 947 2416 947 1791 
Q 947 1169 1205 825 
Q 1463 481 1925 481 
Q 2391 481 2648 825 
Q 2906 1169 2906 1791 
z
M 3481 434 
Q 3481 -459 3084 -895 
Q 2688 -1331 1869 -1331 
Q 1566 -1331 1297 -1286 
Q 1028 -1241 775 -1147 
L 775 -588 
Q 1028 -725 1275 -790 
Q 1522 -856 1778 -856 
Q 2344 -856 2625 -561 
Q 2906 -266 2906 331 
L 2906 616 
Q 2728 306 2450 153 
Q 2172 0 1784 0 
Q 1141 0 747 490 
Q 353 981 353 1791 
Q 353 2603 747 3093 
Q 1141 3584 1784 3584 
Q 2172 3584 2450 3431 
Q 2728 3278 2906 2969 
L 2906 3500 
L 3481 3500 
L 3481 434 
z
" transform="scale(0.015625)"/>
       <path id="DejaVuSans-75" d="M 544 1381 
L 544 3500 
L 1119 3500 
L 1119 1403 
Q 1119 906 1312 657 
Q 1506 409 1894 409 
Q 2359 409 2629 706 
Q 2900 1003 2900 1516 
L 2900 3500 
L 3475 3500 
L 3475 0 
L 2900 0 
L 2900 538 
Q 2691 219 2414 64 
Q 2138 -91 1772 -91 
Q 1169 -91 856 284 
Q 544 659 544 1381 
z
M 1991 3584 
L 1991 3584 
z
" transform="scale(0.015625)"/>
       <path id="DejaVuSans-70" d="M 1159 525 
L 1159 -1331 
L 581 -1331 
L 581 3500 
L 1159 3500 
L 1159 2969 
Q 1341 3281 1617 3432 
Q 1894 3584 2278 3584 
Q 2916 3584 3314 3078 
Q 3713 2572 3713 1747 
Q 3713 922 3314 415 
Q 2916 -91 2278 -91 
Q 1894 -91 1617 61 
Q 1341 213 1159 525 
z
M 3116 1747 
Q 3116 2381 2855 2742 
Q 2594 3103 2138 3103 
Q 1681 3103 1420 2742 
Q 1159 2381 1159 1747 
Q 1159 1113 1420 752 
Q 1681 391 2138 391 
Q 2594 391 2855 752 
Q 3116 1113 3116 1747 
z
" transform="scale(0.015625)"/>
      </defs>
      <use xlink:href="#DejaVuSans-68"/>
      <use xlink:href="#DejaVuSans-6f" x="63.378906"/>
      <use xlink:href="#DejaVuSans-6e" x="124.560547"/>
      <use xlink:href="#DejaVuSans-64" x="187.939453"/>
      <use xlink:href="#DejaVuSans-61" x="251.416016"/>
      <use xlink:href="#DejaVuSans-20" x="312.695312"/>
      <use xlink:href="#DejaVuSans-67" x="344.482422"/>
      <use xlink:href="#DejaVuSans-72" x="407.958984"/>
      <use xlink:href="#DejaVuSans-6f" x="446.822266"/>
      <use xlink:href="#DejaVuSans-75" x="508.003906"/>
      <use xlink:href="#DejaVuSans-70" x="571.382812"/>
      <use xlink:href="#DejaVuSans-20" x="634.859375"/>
      <use xlink:href="#DejaVuSans-61" x="666.646484"/>
      <use xlink:href="#DejaVuSans-74" x="727.925781"/>
      <use xlink:href="#DejaVuSans-20" x="767.134766"/>
      <use xlink:href="#DejaVuSans-31" x="798.921875"/>
      <use xlink:href="#DejaVuSans-30" x="862.544922"/>
      <use xlink:href="#DejaVuSans-30" x="926.167969"/>
      <use xlink:href="#DejaVuSans-20" x="989.791016"/>
      <use xlink:href="#DejaVuSans-47" x="1021.578125"/>
      <use xlink:href="#DejaVuSans-65" x="1099.068359"/>
      <use xlink:href="#DejaVuSans-56" x="1160.591797"/>
     </g>
    </g>
    <g id="line2d_23">
     <path d="M 207.768 146.685375 
L 227.768 146.685375 
L 247.768 146.685375 
" style="fill: none; stroke-dasharray: 11.1,4.8; stroke-dashoffset: 0; stroke: #ff0000; stroke-width: 3"/>
    </g>
    <g id="text_21">
     <!-- bartol group at 10 GeV -->
     <g transform="translate(263.768 153.685375)scale(0.2 -0.2)">
      <use xlink:href="#DejaVuSans-62"/>
      <use xlink:href="#DejaVuSans-61" x="63.476562"/>
      <use xlink:href="#DejaVuSans-72" x="124.755859"/>
      <use xlink:href="#DejaVuSans-74" x="165.869141"/>
      <use xlink:href="#DejaVuSans-6f" x="205.078125"/>
      <use xlink:href="#DejaVuSans-6c" x="266.259766"/>
      <use xlink:href="#DejaVuSans-20" x="294.042969"/>
      <use xlink:href="#DejaVuSans-67" x="325.830078"/>
      <use xlink:href="#DejaVuSans-72" x="389.306641"/>
      <use xlink:href="#DejaVuSans-6f" x="428.169922"/>
      <use xlink:href="#DejaVuSans-75" x="489.351562"/>
      <use xlink:href="#DejaVuSans-70" x="552.730469"/>
      <use xlink:href="#DejaVuSans-20" x="616.207031"/>
      <use xlink:href="#DejaVuSans-61" x="647.994141"/>
      <use xlink:href="#DejaVuSans-74" x="709.273438"/>
      <use xlink:href="#DejaVuSans-20" x="748.482422"/>
      <use xlink:href="#DejaVuSans-31" x="780.269531"/>
      <use xlink:href="#DejaVuSans-30" x="843.892578"/>
      <use xlink:href="#DejaVuSans-20" x="907.515625"/>
      <use xlink:href="#DejaVuSans-47" x="939.302734"/>
      <use xlink:href="#DejaVuSans-65" x="1016.792969"/>
      <use xlink:href="#DejaVuSans-56" x="1078.316406"/>
     </g>
    </g>
    <g id="line2d_24">
     <path d="M 207.768 176.041625 
L 227.768 176.041625 
L 247.768 176.041625 
" style="fill: none; stroke-dasharray: 11.1,4.8; stroke-dashoffset: 0; stroke: #0000ff; stroke-width: 3"/>
    </g>
    <g id="text_22">
     <!-- honda group 10 GeV -->
     <g transform="translate(263.768 183.041625)scale(0.2 -0.2)">
      <use xlink:href="#DejaVuSans-68"/>
      <use xlink:href="#DejaVuSans-6f" x="63.378906"/>
      <use xlink:href="#DejaVuSans-6e" x="124.560547"/>
      <use xlink:href="#DejaVuSans-64" x="187.939453"/>
      <use xlink:href="#DejaVuSans-61" x="251.416016"/>
      <use xlink:href="#DejaVuSans-20" x="312.695312"/>
      <use xlink:href="#DejaVuSans-67" x="344.482422"/>
      <use xlink:href="#DejaVuSans-72" x="407.958984"/>
      <use xlink:href="#DejaVuSans-6f" x="446.822266"/>
      <use xlink:href="#DejaVuSans-75" x="508.003906"/>
      <use xlink:href="#DejaVuSans-70" x="571.382812"/>
      <use xlink:href="#DejaVuSans-20" x="634.859375"/>
      <use xlink:href="#DejaVuSans-31" x="666.646484"/>
      <use xlink:href="#DejaVuSans-30" x="730.269531"/>
      <use xlink:href="#DejaVuSans-20" x="793.892578"/>
      <use xlink:href="#DejaVuSans-47" x="825.679688"/>
      <use xlink:href="#DejaVuSans-65" x="903.169922"/>
      <use xlink:href="#DejaVuSans-56" x="964.693359"/>
     </g>
    </g>
   </g>
  </g>
 </g>
 <defs>
  <clipPath id="p380cc5f52a">
   <rect x="87.48" y="61.776" width="542.376" height="396.396"/>
  </clipPath>
 </defs>
</svg>
