<?xml version="1.0" encoding="utf-8" standalone="no"?>
<!DOCTYPE svg PUBLIC "-//W3C//DTD SVG 1.1//EN"
  "http://www.w3.org/Graphics/SVG/1.1/DTD/svg11.dtd">
<svg xmlns:xlink="http://www.w3.org/1999/xlink" width="972pt" height="613.44pt" viewBox="0 0 972 613.44" xmlns="http://www.w3.org/2000/svg" version="1.1">
 <metadata>
  <rdf:RDF xmlns:dc="http://purl.org/dc/elements/1.1/" xmlns:cc="http://creativecommons.org/ns#" xmlns:rdf="http://www.w3.org/1999/02/22-rdf-syntax-ns#">
   <cc:Work>
    <dc:type rdf:resource="http://purl.org/dc/dcmitype/StillImage"/>
    <dc:date>2022-02-08T14:15:33.226381</dc:date>
    <dc:format>image/svg+xml</dc:format>
    <dc:creator>
     <cc:Agent>
      <dc:title>Matplotlib v3.5.0, https://matplotlib.org/</dc:title>
     </cc:Agent>
    </dc:creator>
   </cc:Work>
  </rdf:RDF>
 </metadata>
 <defs>
  <style type="text/css">*{stroke-linejoin: round; stroke-linecap: butt}</style>
 </defs>
 <g id="figure_1">
  <g id="patch_1">
   <path d="M 0 613.44 
L 972 613.44 
L 972 0 
L 0 0 
z
" style="fill: #ffffff"/>
  </g>
  <g id="axes_1">
   <g id="patch_2">
    <path d="M 121.5 545.9616 
L 874.8 545.9616 
L 874.8 73.6128 
L 121.5 73.6128 
z
" style="fill: #ffffff"/>
   </g>
   <g id="PolyCollection_1">
    <path d="M 121.5 296.705974 
L 121.5 270.418394 
L 124.5132 270.349173 
L 127.5264 270.281873 
L 130.5396 270.21651 
L 133.5528 270.1531 
L 136.566 270.091659 
L 139.5792 270.032203 
L 142.5924 269.974748 
L 145.6056 269.919313 
L 148.6188 269.865913 
L 151.632 269.814566 
L 154.6452 269.765291 
L 157.6584 269.718105 
L 160.6716 269.673027 
L 163.6848 269.630075 
L 166.698 269.589268 
L 169.7112 269.550626 
L 172.7244 269.514168 
L 175.7376 269.479914 
L 178.7508 269.447884 
L 181.764 269.418098 
L 184.7772 269.390577 
L 187.7904 269.365343 
L 190.8036 269.342415 
L 193.8168 269.321817 
L 196.83 269.30357 
L 199.8432 269.287696 
L 202.8564 269.274218 
L 205.8696 269.263157 
L 208.8828 269.254539 
L 211.896 269.248385 
L 214.9092 269.244719 
L 217.9224 269.243566 
L 220.9356 269.24495 
L 223.9488 269.248895 
L 226.962 269.255427 
L 229.9752 269.26457 
L 232.9884 269.276349 
L 236.0016 269.290792 
L 239.0148 269.307923 
L 242.028 269.327769 
L 245.0412 269.350358 
L 248.0544 269.375715 
L 251.0676 269.403868 
L 254.0808 269.434846 
L 257.094 269.468675 
L 260.1072 269.505384 
L 263.1204 269.545001 
L 266.1336 269.587557 
L 269.1468 269.633078 
L 272.16 269.681596 
L 275.1732 269.73314 
L 278.1864 269.787739 
L 281.1996 269.845425 
L 284.2128 269.906228 
L 287.226 269.970179 
L 290.2392 270.03731 
L 293.2524 270.107652 
L 296.2656 270.181237 
L 299.2788 270.258097 
L 302.292 270.338266 
L 305.3052 270.421775 
L 308.3184 270.508659 
L 311.3316 270.59895 
L 314.3448 270.692683 
L 317.358 270.789892 
L 320.3712 270.890611 
L 323.3844 270.994876 
L 326.3976 271.10272 
L 329.4108 271.214181 
L 332.424 271.329293 
L 335.4372 271.448093 
L 338.4504 271.570617 
L 341.4636 271.696902 
L 344.4768 271.826985 
L 347.49 271.960904 
L 350.5032 272.098696 
L 353.5164 272.240399 
L 356.5296 272.386051 
L 359.5428 272.535692 
L 362.556 272.689361 
L 365.5692 272.847096 
L 368.5824 273.008937 
L 371.5956 273.174925 
L 374.6088 273.3451 
L 377.622 273.519502 
L 380.6352 273.698173 
L 383.6484 273.881154 
L 386.6616 274.068486 
L 389.6748 274.260212 
L 392.688 274.456374 
L 395.7012 274.657014 
L 398.7144 274.862176 
L 401.7276 275.071903 
L 404.7408 275.286238 
L 407.754 275.505226 
L 410.7672 275.728911 
L 413.7804 275.957338 
L 416.7936 276.190551 
L 419.8068 276.428596 
L 422.82 276.671519 
L 425.8332 276.919365 
L 428.8464 277.172182 
L 431.8596 277.430015 
L 434.8728 277.692912 
L 437.886 277.960921 
L 440.8992 278.234088 
L 443.9124 278.512463 
L 446.9256 278.796093 
L 449.9388 279.085027 
L 452.952 279.379314 
L 455.9652 279.679005 
L 458.9784 279.984147 
L 461.9916 280.294793 
L 465.0048 280.610992 
L 468.018 280.932794 
L 471.0312 281.260252 
L 474.0444 281.593417 
L 477.0576 281.93234 
L 480.0708 282.277074 
L 483.084 282.627671 
L 486.0972 282.984184 
L 489.1104 283.346667 
L 492.1236 283.715173 
L 495.1368 284.089757 
L 498.15 284.470471 
L 501.1632 284.857372 
L 504.1764 285.250514 
L 507.1896 285.649953 
L 510.2028 286.055744 
L 513.216 286.467943 
L 516.2292 286.886607 
L 519.2424 287.311792 
L 522.2556 287.743556 
L 525.2688 288.181957 
L 528.282 288.627051 
L 531.2952 289.078898 
L 534.3084 289.537556 
L 537.3216 290.003084 
L 540.3348 290.475541 
L 543.348 290.954986 
L 546.3612 291.441481 
L 549.3744 291.935085 
L 552.3876 292.435858 
L 555.4008 292.943863 
L 558.414 293.459161 
L 561.4272 293.981813 
L 564.4404 294.511881 
L 567.4536 295.049429 
L 570.4668 295.594519 
L 573.48 296.147214 
L 576.4932 296.707578 
L 579.5064 297.275675 
L 582.5196 297.85157 
L 585.5328 298.435327 
L 588.546 299.027011 
L 591.5592 299.626688 
L 594.5724 300.234424 
L 597.5856 300.850285 
L 600.5988 301.474338 
L 603.612 302.106649 
L 606.6252 302.747286 
L 609.6384 303.396316 
L 612.6516 304.053809 
L 615.6648 304.719831 
L 618.678 305.394453 
L 621.6912 306.077743 
L 624.7044 306.76977 
L 627.7176 307.470606 
L 630.7308 308.18032 
L 633.744 308.898982 
L 636.7572 309.626665 
L 639.7704 310.363439 
L 642.7836 311.109377 
L 645.7968 311.86455 
L 648.81 312.629031 
L 651.8232 313.402893 
L 654.8364 314.18621 
L 657.8496 314.979056 
L 660.8628 315.781504 
L 663.876 316.593628 
L 666.8892 317.415505 
L 669.9024 318.247209 
L 672.9156 319.088815 
L 675.9288 319.940401 
L 678.942 320.802042 
L 681.9552 321.673815 
L 684.9684 322.555797 
L 687.9816 323.448066 
L 690.9948 324.350701 
L 694.008 325.263778 
L 697.0212 326.187378 
L 700.0344 327.121579 
L 703.0476 328.066461 
L 706.0608 329.022103 
L 709.074 329.988587 
L 712.0872 330.965992 
L 715.1004 331.9544 
L 718.1136 332.953892 
L 721.1268 333.964551 
L 724.14 334.986458 
L 727.1532 336.019696 
L 730.1664 337.064348 
L 733.1796 338.120499 
L 736.1928 339.18823 
L 739.206 340.267628 
L 742.2192 341.358776 
L 745.2324 342.46176 
L 748.2456 343.576664 
L 751.2588 344.703576 
L 754.272 345.84258 
L 757.2852 346.993764 
L 760.2984 348.157215 
L 763.3116 349.333021 
L 766.3248 350.521268 
L 769.338 351.722045 
L 772.3512 352.935442 
L 775.3644 354.161546 
L 778.3776 355.400448 
L 781.3908 356.652238 
L 784.404 357.917004 
L 787.4172 359.19484 
L 790.4304 360.485834 
L 793.4436 361.790079 
L 796.4568 363.107667 
L 799.47 364.43869 
L 802.4832 365.783241 
L 805.4964 367.141412 
L 808.5096 368.513298 
L 811.5228 369.898992 
L 814.536 371.298589 
L 817.5492 372.712183 
L 820.5624 374.139869 
L 823.5756 375.581744 
L 826.5888 377.037902 
L 829.602 378.508441 
L 832.6152 379.993457 
L 835.6284 381.493048 
L 838.6416 383.007311 
L 841.6548 384.536344 
L 844.668 386.080246 
L 847.6812 387.639115 
L 850.6944 389.213052 
L 853.7076 390.802154 
L 856.7208 392.406524 
L 859.734 394.02626 
L 862.7472 395.661465 
L 865.7604 397.31224 
L 868.7736 398.978686 
L 871.7868 400.660905 
L 871.7868 424.738211 
L 871.7868 424.738211 
L 868.7736 423.071188 
L 865.7604 421.419883 
L 862.7472 419.784186 
L 859.734 418.163987 
L 856.7208 416.559179 
L 853.7076 414.969651 
L 850.6944 413.395297 
L 847.6812 411.83601 
L 844.668 410.291683 
L 841.6548 408.76221 
L 838.6416 407.247485 
L 835.6284 405.747405 
L 832.6152 404.261864 
L 829.602 402.790759 
L 826.5888 401.333988 
L 823.5756 399.891447 
L 820.5624 398.463034 
L 817.5492 397.048649 
L 814.536 395.64819 
L 811.5228 394.261558 
L 808.5096 392.888652 
L 805.4964 391.529373 
L 802.4832 390.183624 
L 799.47 388.851305 
L 796.4568 387.53232 
L 793.4436 386.226571 
L 790.4304 384.933963 
L 787.4172 383.6544 
L 784.404 382.387786 
L 781.3908 381.134026 
L 778.3776 379.893028 
L 775.3644 378.664696 
L 772.3512 377.448939 
L 769.338 376.245664 
L 766.3248 375.054778 
L 763.3116 373.876191 
L 760.2984 372.709811 
L 757.2852 371.555549 
L 754.272 370.413314 
L 751.2588 369.283018 
L 748.2456 368.164571 
L 745.2324 367.057886 
L 742.2192 365.962876 
L 739.206 364.879452 
L 736.1928 363.807529 
L 733.1796 362.74702 
L 730.1664 361.69784 
L 727.1532 360.659905 
L 724.14 359.633129 
L 721.1268 358.617429 
L 718.1136 357.612721 
L 715.1004 356.618923 
L 712.0872 355.635952 
L 709.074 354.663727 
L 706.0608 353.702166 
L 703.0476 352.751188 
L 700.0344 351.810714 
L 697.0212 350.880663 
L 694.008 349.960956 
L 690.9948 349.051515 
L 687.9816 348.152261 
L 684.9684 347.263117 
L 681.9552 346.384006 
L 678.942 345.51485 
L 675.9288 344.655574 
L 672.9156 343.806101 
L 669.9024 342.966358 
L 666.8892 342.136269 
L 663.876 341.31576 
L 660.8628 340.504757 
L 657.8496 339.703187 
L 654.8364 338.910977 
L 651.8232 338.128056 
L 648.81 337.354352 
L 645.7968 336.589793 
L 642.7836 335.834309 
L 639.7704 335.087829 
L 636.7572 334.350284 
L 633.744 333.621604 
L 630.7308 332.901721 
L 627.7176 332.190567 
L 624.7044 331.488073 
L 621.6912 330.794172 
L 618.678 330.108798 
L 615.6648 329.431885 
L 612.6516 328.763365 
L 609.6384 328.103174 
L 606.6252 327.451247 
L 603.612 326.80752 
L 600.5988 326.171928 
L 597.5856 325.544408 
L 594.5724 324.924897 
L 591.5592 324.313332 
L 588.546 323.709652 
L 585.5328 323.113794 
L 582.5196 322.525697 
L 579.5064 321.9453 
L 576.4932 321.372544 
L 573.48 320.807369 
L 570.4668 320.249715 
L 567.4536 319.699523 
L 564.4404 319.156734 
L 561.4272 318.621292 
L 558.414 318.093137 
L 555.4008 317.572214 
L 552.3876 317.058465 
L 549.3744 316.551835 
L 546.3612 316.052267 
L 543.348 315.559706 
L 540.3348 315.074098 
L 537.3216 314.595388 
L 534.3084 314.123522 
L 531.2952 313.658446 
L 528.282 313.200107 
L 525.2688 312.748453 
L 522.2556 312.303432 
L 519.2424 311.864991 
L 516.2292 311.43308 
L 513.216 311.007647 
L 510.2028 310.588642 
L 507.1896 310.176014 
L 504.1764 309.769715 
L 501.1632 309.369695 
L 498.15 308.975905 
L 495.1368 308.588297 
L 492.1236 308.206822 
L 489.1104 307.831434 
L 486.0972 307.462085 
L 483.084 307.098728 
L 480.0708 306.741318 
L 477.0576 306.389808 
L 474.0444 306.044154 
L 471.0312 305.704309 
L 468.018 305.370229 
L 465.0048 305.04187 
L 461.9916 304.719189 
L 458.9784 304.402142 
L 455.9652 304.090685 
L 452.952 303.784777 
L 449.9388 303.484375 
L 446.9256 303.189437 
L 443.9124 302.899922 
L 440.8992 302.615789 
L 437.886 302.336998 
L 434.8728 302.063508 
L 431.8596 301.795279 
L 428.8464 301.532273 
L 425.8332 301.274449 
L 422.82 301.02177 
L 419.8068 300.774197 
L 416.7936 300.531692 
L 413.7804 300.294218 
L 410.7672 300.061738 
L 407.754 299.834215 
L 404.7408 299.611613 
L 401.7276 299.393896 
L 398.7144 299.181029 
L 395.7012 298.972975 
L 392.688 298.769701 
L 389.6748 298.571172 
L 386.6616 298.377355 
L 383.6484 298.188214 
L 380.6352 298.003718 
L 377.622 297.823832 
L 374.6088 297.648526 
L 371.5956 297.477765 
L 368.5824 297.31152 
L 365.5692 297.149757 
L 362.556 296.992447 
L 359.5428 296.839558 
L 356.5296 296.69106 
L 353.5164 296.546923 
L 350.5032 296.407117 
L 347.49 296.271614 
L 344.4768 296.140383 
L 341.4636 296.013397 
L 338.4504 295.890628 
L 335.4372 295.772047 
L 332.424 295.657627 
L 329.4108 295.54734 
L 326.3976 295.441161 
L 323.3844 295.339062 
L 320.3712 295.241018 
L 317.358 295.147002 
L 314.3448 295.056989 
L 311.3316 294.970954 
L 308.3184 294.888872 
L 305.3052 294.810719 
L 302.292 294.736471 
L 299.2788 294.666103 
L 296.2656 294.599593 
L 293.2524 294.536918 
L 290.2392 294.478054 
L 287.226 294.422979 
L 284.2128 294.371672 
L 281.1996 294.32411 
L 278.1864 294.280271 
L 275.1732 294.240136 
L 272.16 294.203682 
L 269.1468 294.17089 
L 266.1336 294.141739 
L 263.1204 294.11621 
L 260.1072 294.094282 
L 257.094 294.075937 
L 254.0808 294.061156 
L 251.0676 294.049921 
L 248.0544 294.042212 
L 245.0412 294.038012 
L 242.028 294.037304 
L 239.0148 294.040069 
L 236.0016 294.046292 
L 232.9884 294.055955 
L 229.9752 294.069041 
L 226.962 294.085536 
L 223.9488 294.105422 
L 220.9356 294.128684 
L 217.9224 294.155308 
L 214.9092 294.185278 
L 211.896 294.21858 
L 208.8828 294.255198 
L 205.8696 294.29512 
L 202.8564 294.338332 
L 199.8432 294.384819 
L 196.83 294.434569 
L 193.8168 294.48757 
L 190.8036 294.543807 
L 187.7904 294.60327 
L 184.7772 294.665945 
L 181.764 294.731822 
L 178.7508 294.800889 
L 175.7376 294.873134 
L 172.7244 294.948547 
L 169.7112 295.027117 
L 166.698 295.108833 
L 163.6848 295.193687 
L 160.6716 295.281667 
L 157.6584 295.372764 
L 154.6452 295.466969 
L 151.632 295.564274 
L 148.6188 295.664669 
L 145.6056 295.768145 
L 142.5924 295.874695 
L 139.5792 295.984311 
L 136.566 296.096985 
L 133.5528 296.21271 
L 130.5396 296.331477 
L 127.5264 296.453282 
L 124.5132 296.578116 
L 121.5 296.705974 
z
" clip-path="url(#p69f0dca0c8)" style="fill: #f5deb3; fill-opacity: 0.5"/>
   </g>
   <g id="PolyCollection_2">
    <path d="M 121.5 294.03408 
L 121.5 306.001462 
L 124.5132 306.024576 
L 127.5264 306.049009 
L 130.5396 306.074968 
L 133.5528 306.102384 
L 136.566 306.131187 
L 139.5792 306.161378 
L 142.5924 306.193026 
L 145.6056 306.226338 
L 148.6188 306.26083 
L 151.632 306.296917 
L 154.6452 306.334392 
L 157.6584 306.373185 
L 160.6716 306.413643 
L 163.6848 306.455904 
L 166.698 306.500039 
L 169.7112 306.546116 
L 172.7244 306.594066 
L 175.7376 306.643958 
L 178.7508 306.695654 
L 181.764 306.749362 
L 184.7772 306.804874 
L 187.7904 306.862328 
L 190.8036 306.921724 
L 193.8168 306.982994 
L 196.83 307.046205 
L 199.8432 307.111845 
L 202.8564 307.180815 
L 205.8696 307.252837 
L 208.8828 307.32812 
L 211.896 307.406663 
L 214.9092 307.48812 
L 217.9224 307.573045 
L 220.9356 307.661023 
L 223.9488 307.752122 
L 226.962 307.846551 
L 229.9752 307.944102 
L 232.9884 308.044775 
L 236.0016 308.148847 
L 239.0148 308.257359 
L 242.028 308.37038 
L 245.0412 308.488118 
L 248.0544 308.610158 
L 251.0676 308.736915 
L 254.0808 308.86825 
L 257.094 309.004164 
L 260.1072 309.144656 
L 263.1204 309.289588 
L 266.1336 309.439238 
L 269.1468 309.593327 
L 272.16 309.752134 
L 275.1732 309.91649 
L 278.1864 310.087645 
L 281.1996 310.265598 
L 284.2128 310.45035 
L 287.226 310.6419 
L 290.2392 310.84011 
L 293.2524 311.045257 
L 296.2656 311.257203 
L 299.2788 311.475808 
L 302.292 311.701212 
L 305.3052 311.933415 
L 308.3184 312.172415 
L 311.3316 312.418353 
L 314.3448 312.672893 
L 317.358 312.935758 
L 320.3712 313.207225 
L 323.3844 313.487294 
L 326.3976 313.775827 
L 329.4108 314.0731 
L 332.424 314.378837 
L 335.4372 314.693176 
L 338.4504 315.016117 
L 341.4636 315.347521 
L 344.4768 315.687528 
L 347.49 316.036136 
L 350.5032 316.394735 
L 353.5164 316.764571 
L 356.5296 317.145923 
L 359.5428 317.538792 
L 362.556 317.942898 
L 365.5692 318.358243 
L 368.5824 318.785242 
L 371.5956 319.223479 
L 374.6088 319.673094 
L 377.622 320.134085 
L 380.6352 320.606592 
L 383.6484 321.090477 
L 386.6616 321.585599 
L 389.6748 322.093903 
L 392.688 322.61497 
L 395.7012 323.14908 
L 398.7144 323.695954 
L 401.7276 324.25587 
L 404.7408 324.82869 
L 407.754 325.41469 
L 410.7672 326.013454 
L 413.7804 326.625122 
L 416.7936 327.249832 
L 419.8068 327.887444 
L 422.82 328.538099 
L 425.8332 329.202212 
L 428.8464 329.880477 
L 431.8596 330.573033 
L 434.8728 331.280018 
L 437.886 332.001016 
L 440.8992 332.736305 
L 443.9124 333.485745 
L 446.9256 334.249477 
L 449.9388 335.02736 
L 452.952 335.819395 
L 455.9652 336.625721 
L 458.9784 337.446199 
L 461.9916 338.280828 
L 465.0048 339.127529 
L 468.018 339.9863 
L 471.0312 340.857003 
L 474.0444 341.739638 
L 477.0576 342.634344 
L 480.0708 343.540982 
L 483.084 344.459552 
L 486.0972 345.390193 
L 489.1104 346.332627 
L 492.1236 347.28727 
L 495.1368 348.253845 
L 498.15 349.232353 
L 501.1632 350.219878 
L 504.1764 351.212815 
L 507.1896 352.211857 
L 510.2028 353.216587 
L 513.216 354.226867 
L 516.2292 355.243112 
L 519.2424 356.265047 
L 522.2556 357.292808 
L 525.2688 358.326259 
L 528.282 359.365536 
L 531.2952 360.410502 
L 534.3084 361.461156 
L 537.3216 362.516805 
L 540.3348 363.571206 
L 543.348 364.623386 
L 546.3612 365.673486 
L 549.3744 366.721365 
L 552.3876 367.767025 
L 555.4008 368.810603 
L 558.414 369.851962 
L 561.4272 370.891378 
L 564.4404 371.928435 
L 567.4536 372.963273 
L 570.4668 373.996029 
L 573.48 375.026704 
L 576.4932 376.052107 
L 579.5064 377.068631 
L 582.5196 378.076691 
L 585.5328 379.076287 
L 588.546 380.067143 
L 591.5592 381.049674 
L 594.5724 382.023464 
L 597.5856 382.988929 
L 600.5988 383.945654 
L 603.612 384.893776 
L 606.6252 385.833435 
L 609.6384 386.764492 
L 612.6516 387.686531 
L 615.6648 388.59747 
L 618.678 389.496615 
L 621.6912 390.384245 
L 624.7044 391.259943 
L 627.7176 392.124264 
L 630.7308 392.976792 
L 633.744 393.817804 
L 636.7572 394.647022 
L 639.7704 395.464586 
L 642.7836 396.270635 
L 645.7968 397.065028 
L 648.81 397.84749 
L 651.8232 398.617743 
L 654.8364 399.374398 
L 657.8496 400.117873 
L 660.8628 400.848028 
L 663.876 401.564725 
L 666.8892 402.267964 
L 669.9024 402.958161 
L 672.9156 403.6349 
L 675.9288 404.29818 
L 678.942 404.948141 
L 681.9552 405.584644 
L 684.9684 406.207966 
L 687.9816 406.818524 
L 690.9948 407.421174 
L 694.008 408.016192 
L 697.0212 408.603857 
L 700.0344 409.18403 
L 703.0476 409.756988 
L 706.0608 410.322176 
L 709.074 410.880289 
L 712.0872 411.43077 
L 715.1004 411.974037 
L 718.1136 412.509812 
L 721.1268 413.038233 
L 724.14 413.559162 
L 727.1532 414.081894 
L 730.1664 414.615727 
L 733.1796 415.160381 
L 736.1928 415.716273 
L 739.206 416.282849 
L 742.2192 416.860663 
L 745.2324 417.449577 
L 748.2456 418.049313 
L 751.2588 418.660009 
L 754.272 419.281805 
L 757.2852 419.914701 
L 760.2984 420.558419 
L 763.3116 421.214068 
L 766.3248 421.885951 
L 769.338 422.575315 
L 772.3512 423.281468 
L 775.3644 424.004963 
L 778.3776 424.745802 
L 781.3908 425.503429 
L 784.404 426.278537 
L 787.4172 427.07085 
L 790.4304 427.880228 
L 793.4436 428.706672 
L 796.4568 429.55032 
L 799.47 430.411311 
L 802.4832 431.294501 
L 805.4964 432.205023 
L 808.5096 433.143018 
L 811.5228 434.108622 
L 814.536 435.10142 
L 817.5492 436.121689 
L 820.5624 437.169569 
L 823.5756 438.244781 
L 826.5888 439.347326 
L 829.602 440.477342 
L 832.6152 441.634829 
L 835.6284 442.819649 
L 838.6416 444.030275 
L 841.6548 445.254915 
L 844.668 446.492042 
L 847.6812 447.741794 
L 850.6944 449.003895 
L 853.7076 450.278205 
L 856.7208 451.56514 
L 859.734 452.864424 
L 862.7472 454.176195 
L 865.7604 455.500315 
L 868.7736 456.836921 
L 871.7868 458.186014 
L 871.7868 428.901274 
L 871.7868 428.901274 
L 868.7736 427.552597 
L 865.7604 426.216407 
L 862.7472 424.892288 
L 859.734 423.580378 
L 856.7208 422.280539 
L 853.7076 420.993049 
L 850.6944 419.717767 
L 847.6812 418.454418 
L 844.668 417.203556 
L 841.6548 415.964626 
L 838.6416 414.738182 
L 835.6284 413.525752 
L 832.6152 412.339545 
L 829.602 411.181086 
L 826.5888 410.050931 
L 823.5756 408.948525 
L 820.5624 407.874146 
L 817.5492 406.827654 
L 814.536 405.809465 
L 811.5228 404.819026 
L 808.5096 403.856613 
L 805.4964 402.922365 
L 802.4832 402.016143 
L 799.47 401.13767 
L 796.4568 400.282784 
L 793.4436 399.44649 
L 790.4304 398.628925 
L 787.4172 397.830231 
L 784.404 397.050266 
L 781.3908 396.288755 
L 778.3776 395.546112 
L 775.3644 394.822201 
L 772.3512 394.116881 
L 769.338 393.43043 
L 766.3248 392.762571 
L 763.3116 392.113442 
L 760.2984 391.48235 
L 757.2852 390.865133 
L 754.272 390.261235 
L 751.2588 389.670101 
L 748.2456 389.092287 
L 745.2324 388.527653 
L 742.2192 387.976201 
L 739.206 387.437929 
L 736.1928 386.91256 
L 733.1796 386.400511 
L 730.1664 385.901503 
L 727.1532 385.415815 
L 724.14 384.943169 
L 721.1268 384.473714 
L 718.1136 383.997322 
L 715.1004 383.51427 
L 712.0872 383.024559 
L 709.074 382.52791 
L 706.0608 382.024601 
L 703.0476 381.514633 
L 700.0344 380.997867 
L 697.0212 380.474024 
L 694.008 379.94366 
L 690.9948 379.406221 
L 687.9816 378.862399 
L 684.9684 378.310808 
L 681.9552 377.746452 
L 678.942 377.16836 
L 675.9288 376.576671 
L 672.9156 375.971525 
L 669.9024 375.352504 
L 666.8892 374.720024 
L 663.876 374.073809 
L 660.8628 373.413997 
L 657.8496 372.740588 
L 654.8364 372.053444 
L 651.8232 371.352841 
L 648.81 370.638503 
L 645.7968 369.9114 
L 642.7836 369.172504 
L 639.7704 368.421953 
L 636.7572 367.65947 
L 633.744 366.885194 
L 630.7308 366.098986 
L 627.7176 365.300985 
L 624.7044 364.491191 
L 621.6912 363.669603 
L 618.678 362.836222 
L 615.6648 361.991048 
L 612.6516 361.133803 
L 609.6384 360.265459 
L 606.6252 359.388928 
L 603.612 358.504767 
L 600.5988 357.612697 
L 597.5856 356.712996 
L 594.5724 355.805526 
L 591.5592 354.890286 
L 588.546 353.967692 
L 585.5328 353.037052 
L 582.5196 352.098919 
L 579.5064 351.152878 
L 576.4932 350.199344 
L 573.48 349.237902 
L 570.4668 348.271188 
L 567.4536 347.301699 
L 564.4404 346.329435 
L 561.4272 345.354397 
L 558.414 344.376444 
L 555.4008 343.395717 
L 552.3876 342.412076 
L 549.3744 341.42566 
L 546.3612 340.436469 
L 543.348 339.444365 
L 540.3348 338.449347 
L 537.3216 337.451554 
L 534.3084 336.452097 
L 531.2952 335.456662 
L 528.282 334.466778 
L 525.2688 333.482166 
L 522.2556 332.502687 
L 519.2424 331.52862 
L 516.2292 330.559686 
L 513.216 329.596163 
L 510.2028 328.637773 
L 507.1896 327.684933 
L 504.1764 326.737088 
L 501.1632 325.794793 
L 498.15 324.85777 
L 495.1368 323.929072 
L 492.1236 323.011751 
L 489.1104 322.105807 
L 486.0972 321.211378 
L 483.084 320.328327 
L 480.0708 319.456653 
L 477.0576 318.596494 
L 474.0444 317.747713 
L 471.0312 316.910447 
L 468.018 316.084558 
L 465.0048 315.269908 
L 461.9916 314.466773 
L 458.9784 313.675709 
L 455.9652 312.899352 
L 452.952 312.138257 
L 449.9388 311.392562 
L 446.9256 310.662129 
L 443.9124 309.94682 
L 440.8992 309.247188 
L 437.886 308.56268 
L 434.8728 307.893294 
L 431.8596 307.239448 
L 428.8464 306.600587 
L 425.8332 305.977403 
L 422.82 305.369343 
L 419.8068 304.775989 
L 416.7936 304.196927 
L 413.7804 303.631877 
L 410.7672 303.081257 
L 407.754 302.54465 
L 404.7408 302.022194 
L 401.7276 301.513891 
L 398.7144 301.020017 
L 395.7012 300.540157 
L 392.688 300.074448 
L 389.6748 299.622891 
L 386.6616 299.185486 
L 383.6484 298.762094 
L 380.6352 298.351467 
L 377.622 297.953326 
L 374.6088 297.567673 
L 371.5956 297.194368 
L 368.5824 296.83355 
L 365.5692 296.485218 
L 362.556 296.149513 
L 359.5428 295.826156 
L 356.5296 295.515285 
L 353.5164 295.216902 
L 350.5032 294.931006 
L 347.49 294.657596 
L 344.4768 294.395148 
L 341.4636 294.142411 
L 338.4504 293.899387 
L 335.4372 293.665936 
L 332.424 293.442058 
L 329.4108 293.227893 
L 326.3976 293.023301 
L 323.3844 292.828282 
L 320.3712 292.643114 
L 317.358 292.46738 
L 314.3448 292.301359 
L 311.3316 292.144911 
L 308.3184 291.997759 
L 305.3052 291.858793 
L 302.292 291.727319 
L 299.2788 291.603476 
L 296.2656 291.487541 
L 293.2524 291.37896 
L 290.2392 291.278148 
L 287.226 291.185106 
L 284.2128 291.099696 
L 281.1996 291.021777 
L 278.1864 290.951766 
L 275.1732 290.889248 
L 272.16 290.8345 
L 269.1468 290.786134 
L 266.1336 290.743317 
L 263.1204 290.705495 
L 260.1072 290.673154 
L 257.094 290.646085 
L 254.0808 290.624219 
L 251.0676 290.607695 
L 248.0544 290.596443 
L 245.0412 290.590601 
L 242.028 290.589963 
L 239.0148 290.594597 
L 236.0016 290.604573 
L 232.9884 290.619682 
L 229.9752 290.639509 
L 226.962 290.664053 
L 223.9488 290.693175 
L 220.9356 290.726737 
L 217.9224 290.765017 
L 214.9092 290.807944 
L 211.896 290.85545 
L 208.8828 290.907465 
L 205.8696 290.964198 
L 202.8564 291.025509 
L 199.8432 291.091468 
L 196.83 291.161936 
L 193.8168 291.236428 
L 190.8036 291.314319 
L 187.7904 291.395609 
L 184.7772 291.480229 
L 181.764 291.568318 
L 178.7508 291.659737 
L 175.7376 291.754485 
L 172.7244 291.852633 
L 169.7112 291.954249 
L 166.698 292.059195 
L 163.6848 292.16754 
L 160.6716 292.279285 
L 157.6584 292.39429 
L 154.6452 292.512694 
L 151.632 292.634428 
L 148.6188 292.759562 
L 145.6056 292.887886 
L 142.5924 293.019541 
L 139.5792 293.154525 
L 136.566 293.292839 
L 133.5528 293.434483 
L 130.5396 293.579318 
L 127.5264 293.727622 
L 124.5132 293.879117 
L 121.5 294.03408 
z
" clip-path="url(#p69f0dca0c8)" style="fill: #f0e68c; fill-opacity: 0.5"/>
   </g>
   <g id="matplotlib.axis_1">
    <g id="xtick_1">
     <g id="line2d_1">
      <defs>
       <path id="mb226777972" d="M 0 0 
L 0 3.5 
" style="stroke: #000000; stroke-width: 0.8"/>
      </defs>
      <g>
       <use xlink:href="#mb226777972" x="121.5" y="545.9616" style="stroke: #000000; stroke-width: 0.8"/>
      </g>
     </g>
     <g id="text_1">
      <!-- $\mathdefault{10^{3}}$ -->
      <g transform="translate(103.9 568.158475)scale(0.2 -0.2)">
       <defs>
        <path id="DejaVuSans-31" d="M 794 531 
L 1825 531 
L 1825 4091 
L 703 3866 
L 703 4441 
L 1819 4666 
L 2450 4666 
L 2450 531 
L 3481 531 
L 3481 0 
L 794 0 
L 794 531 
z
" transform="scale(0.015625)"/>
        <path id="DejaVuSans-30" d="M 2034 4250 
Q 1547 4250 1301 3770 
Q 1056 3291 1056 2328 
Q 1056 1369 1301 889 
Q 1547 409 2034 409 
Q 2525 409 2770 889 
Q 3016 1369 3016 2328 
Q 3016 3291 2770 3770 
Q 2525 4250 2034 4250 
z
M 2034 4750 
Q 2819 4750 3233 4129 
Q 3647 3509 3647 2328 
Q 3647 1150 3233 529 
Q 2819 -91 2034 -91 
Q 1250 -91 836 529 
Q 422 1150 422 2328 
Q 422 3509 836 4129 
Q 1250 4750 2034 4750 
z
" transform="scale(0.015625)"/>
        <path id="DejaVuSans-33" d="M 2597 2516 
Q 3050 2419 3304 2112 
Q 3559 1806 3559 1356 
Q 3559 666 3084 287 
Q 2609 -91 1734 -91 
Q 1441 -91 1130 -33 
Q 819 25 488 141 
L 488 750 
Q 750 597 1062 519 
Q 1375 441 1716 441 
Q 2309 441 2620 675 
Q 2931 909 2931 1356 
Q 2931 1769 2642 2001 
Q 2353 2234 1838 2234 
L 1294 2234 
L 1294 2753 
L 1863 2753 
Q 2328 2753 2575 2939 
Q 2822 3125 2822 3475 
Q 2822 3834 2567 4026 
Q 2313 4219 1838 4219 
Q 1578 4219 1281 4162 
Q 984 4106 628 3988 
L 628 4550 
Q 988 4650 1302 4700 
Q 1616 4750 1894 4750 
Q 2613 4750 3031 4423 
Q 3450 4097 3450 3541 
Q 3450 3153 3228 2886 
Q 3006 2619 2597 2516 
z
" transform="scale(0.015625)"/>
       </defs>
       <use xlink:href="#DejaVuSans-31" transform="translate(0 0.765625)"/>
       <use xlink:href="#DejaVuSans-30" transform="translate(63.623047 0.765625)"/>
       <use xlink:href="#DejaVuSans-33" transform="translate(128.203125 39.046875)scale(0.7)"/>
      </g>
     </g>
    </g>
    <g id="xtick_2">
     <g id="line2d_2">
      <g>
       <use xlink:href="#mb226777972" x="272.16" y="545.9616" style="stroke: #000000; stroke-width: 0.8"/>
      </g>
     </g>
     <g id="text_2">
      <!-- $\mathdefault{10^{4}}$ -->
      <g transform="translate(254.56 568.158475)scale(0.2 -0.2)">
       <defs>
        <path id="DejaVuSans-34" d="M 2419 4116 
L 825 1625 
L 2419 1625 
L 2419 4116 
z
M 2253 4666 
L 3047 4666 
L 3047 1625 
L 3713 1625 
L 3713 1100 
L 3047 1100 
L 3047 0 
L 2419 0 
L 2419 1100 
L 313 1100 
L 313 1709 
L 2253 4666 
z
" transform="scale(0.015625)"/>
       </defs>
       <use xlink:href="#DejaVuSans-31" transform="translate(0 0.684375)"/>
       <use xlink:href="#DejaVuSans-30" transform="translate(63.623047 0.684375)"/>
       <use xlink:href="#DejaVuSans-34" transform="translate(128.203125 38.965625)scale(0.7)"/>
      </g>
     </g>
    </g>
    <g id="xtick_3">
     <g id="line2d_3">
      <g>
       <use xlink:href="#mb226777972" x="422.82" y="545.9616" style="stroke: #000000; stroke-width: 0.8"/>
      </g>
     </g>
     <g id="text_3">
      <!-- $\mathdefault{10^{5}}$ -->
      <g transform="translate(405.22 568.158475)scale(0.2 -0.2)">
       <defs>
        <path id="DejaVuSans-35" d="M 691 4666 
L 3169 4666 
L 3169 4134 
L 1269 4134 
L 1269 2991 
Q 1406 3038 1543 3061 
Q 1681 3084 1819 3084 
Q 2600 3084 3056 2656 
Q 3513 2228 3513 1497 
Q 3513 744 3044 326 
Q 2575 -91 1722 -91 
Q 1428 -91 1123 -41 
Q 819 9 494 109 
L 494 744 
Q 775 591 1075 516 
Q 1375 441 1709 441 
Q 2250 441 2565 725 
Q 2881 1009 2881 1497 
Q 2881 1984 2565 2268 
Q 2250 2553 1709 2553 
Q 1456 2553 1204 2497 
Q 953 2441 691 2322 
L 691 4666 
z
" transform="scale(0.015625)"/>
       </defs>
       <use xlink:href="#DejaVuSans-31" transform="translate(0 0.684375)"/>
       <use xlink:href="#DejaVuSans-30" transform="translate(63.623047 0.684375)"/>
       <use xlink:href="#DejaVuSans-35" transform="translate(128.203125 38.965625)scale(0.7)"/>
      </g>
     </g>
    </g>
    <g id="xtick_4">
     <g id="line2d_4">
      <g>
       <use xlink:href="#mb226777972" x="573.48" y="545.9616" style="stroke: #000000; stroke-width: 0.8"/>
      </g>
     </g>
     <g id="text_4">
      <!-- $\mathdefault{10^{6}}$ -->
      <g transform="translate(555.88 568.158475)scale(0.2 -0.2)">
       <defs>
        <path id="DejaVuSans-36" d="M 2113 2584 
Q 1688 2584 1439 2293 
Q 1191 2003 1191 1497 
Q 1191 994 1439 701 
Q 1688 409 2113 409 
Q 2538 409 2786 701 
Q 3034 994 3034 1497 
Q 3034 2003 2786 2293 
Q 2538 2584 2113 2584 
z
M 3366 4563 
L 3366 3988 
Q 3128 4100 2886 4159 
Q 2644 4219 2406 4219 
Q 1781 4219 1451 3797 
Q 1122 3375 1075 2522 
Q 1259 2794 1537 2939 
Q 1816 3084 2150 3084 
Q 2853 3084 3261 2657 
Q 3669 2231 3669 1497 
Q 3669 778 3244 343 
Q 2819 -91 2113 -91 
Q 1303 -91 875 529 
Q 447 1150 447 2328 
Q 447 3434 972 4092 
Q 1497 4750 2381 4750 
Q 2619 4750 2861 4703 
Q 3103 4656 3366 4563 
z
" transform="scale(0.015625)"/>
       </defs>
       <use xlink:href="#DejaVuSans-31" transform="translate(0 0.765625)"/>
       <use xlink:href="#DejaVuSans-30" transform="translate(63.623047 0.765625)"/>
       <use xlink:href="#DejaVuSans-36" transform="translate(128.203125 39.046875)scale(0.7)"/>
      </g>
     </g>
    </g>
    <g id="xtick_5">
     <g id="line2d_5">
      <g>
       <use xlink:href="#mb226777972" x="724.14" y="545.9616" style="stroke: #000000; stroke-width: 0.8"/>
      </g>
     </g>
     <g id="text_5">
      <!-- $\mathdefault{10^{7}}$ -->
      <g transform="translate(706.54 568.158475)scale(0.2 -0.2)">
       <defs>
        <path id="DejaVuSans-37" d="M 525 4666 
L 3525 4666 
L 3525 4397 
L 1831 0 
L 1172 0 
L 2766 4134 
L 525 4134 
L 525 4666 
z
" transform="scale(0.015625)"/>
       </defs>
       <use xlink:href="#DejaVuSans-31" transform="translate(0 0.684375)"/>
       <use xlink:href="#DejaVuSans-30" transform="translate(63.623047 0.684375)"/>
       <use xlink:href="#DejaVuSans-37" transform="translate(128.203125 38.965625)scale(0.7)"/>
      </g>
     </g>
    </g>
    <g id="xtick_6">
     <g id="line2d_6">
      <g>
       <use xlink:href="#mb226777972" x="874.8" y="545.9616" style="stroke: #000000; stroke-width: 0.8"/>
      </g>
     </g>
     <g id="text_6">
      <!-- $\mathdefault{10^{8}}$ -->
      <g transform="translate(857.2 568.158475)scale(0.2 -0.2)">
       <defs>
        <path id="DejaVuSans-38" d="M 2034 2216 
Q 1584 2216 1326 1975 
Q 1069 1734 1069 1313 
Q 1069 891 1326 650 
Q 1584 409 2034 409 
Q 2484 409 2743 651 
Q 3003 894 3003 1313 
Q 3003 1734 2745 1975 
Q 2488 2216 2034 2216 
z
M 1403 2484 
Q 997 2584 770 2862 
Q 544 3141 544 3541 
Q 544 4100 942 4425 
Q 1341 4750 2034 4750 
Q 2731 4750 3128 4425 
Q 3525 4100 3525 3541 
Q 3525 3141 3298 2862 
Q 3072 2584 2669 2484 
Q 3125 2378 3379 2068 
Q 3634 1759 3634 1313 
Q 3634 634 3220 271 
Q 2806 -91 2034 -91 
Q 1263 -91 848 271 
Q 434 634 434 1313 
Q 434 1759 690 2068 
Q 947 2378 1403 2484 
z
M 1172 3481 
Q 1172 3119 1398 2916 
Q 1625 2713 2034 2713 
Q 2441 2713 2670 2916 
Q 2900 3119 2900 3481 
Q 2900 3844 2670 4047 
Q 2441 4250 2034 4250 
Q 1625 4250 1398 4047 
Q 1172 3844 1172 3481 
z
" transform="scale(0.015625)"/>
       </defs>
       <use xlink:href="#DejaVuSans-31" transform="translate(0 0.765625)"/>
       <use xlink:href="#DejaVuSans-30" transform="translate(63.623047 0.765625)"/>
       <use xlink:href="#DejaVuSans-38" transform="translate(128.203125 39.046875)scale(0.7)"/>
      </g>
     </g>
    </g>
    <g id="xtick_7">
     <g id="line2d_7">
      <defs>
       <path id="m35309b5130" d="M 0 0 
L 0 2 
" style="stroke: #000000; stroke-width: 0.6"/>
      </defs>
      <g>
       <use xlink:href="#m35309b5130" x="166.853179" y="545.9616" style="stroke: #000000; stroke-width: 0.6"/>
      </g>
     </g>
    </g>
    <g id="xtick_8">
     <g id="line2d_8">
      <g>
       <use xlink:href="#m35309b5130" x="193.383088" y="545.9616" style="stroke: #000000; stroke-width: 0.6"/>
      </g>
     </g>
    </g>
    <g id="xtick_9">
     <g id="line2d_9">
      <g>
       <use xlink:href="#m35309b5130" x="212.206358" y="545.9616" style="stroke: #000000; stroke-width: 0.6"/>
      </g>
     </g>
    </g>
    <g id="xtick_10">
     <g id="line2d_10">
      <g>
       <use xlink:href="#m35309b5130" x="226.806821" y="545.9616" style="stroke: #000000; stroke-width: 0.6"/>
      </g>
     </g>
    </g>
    <g id="xtick_11">
     <g id="line2d_11">
      <g>
       <use xlink:href="#m35309b5130" x="238.736267" y="545.9616" style="stroke: #000000; stroke-width: 0.6"/>
      </g>
     </g>
    </g>
    <g id="xtick_12">
     <g id="line2d_12">
      <g>
       <use xlink:href="#m35309b5130" x="248.822471" y="545.9616" style="stroke: #000000; stroke-width: 0.6"/>
      </g>
     </g>
    </g>
    <g id="xtick_13">
     <g id="line2d_13">
      <g>
       <use xlink:href="#m35309b5130" x="257.559537" y="545.9616" style="stroke: #000000; stroke-width: 0.6"/>
      </g>
     </g>
    </g>
    <g id="xtick_14">
     <g id="line2d_14">
      <g>
       <use xlink:href="#m35309b5130" x="265.266176" y="545.9616" style="stroke: #000000; stroke-width: 0.6"/>
      </g>
     </g>
    </g>
    <g id="xtick_15">
     <g id="line2d_15">
      <g>
       <use xlink:href="#m35309b5130" x="317.513179" y="545.9616" style="stroke: #000000; stroke-width: 0.6"/>
      </g>
     </g>
    </g>
    <g id="xtick_16">
     <g id="line2d_16">
      <g>
       <use xlink:href="#m35309b5130" x="344.043088" y="545.9616" style="stroke: #000000; stroke-width: 0.6"/>
      </g>
     </g>
    </g>
    <g id="xtick_17">
     <g id="line2d_17">
      <g>
       <use xlink:href="#m35309b5130" x="362.866358" y="545.9616" style="stroke: #000000; stroke-width: 0.6"/>
      </g>
     </g>
    </g>
    <g id="xtick_18">
     <g id="line2d_18">
      <g>
       <use xlink:href="#m35309b5130" x="377.466821" y="545.9616" style="stroke: #000000; stroke-width: 0.6"/>
      </g>
     </g>
    </g>
    <g id="xtick_19">
     <g id="line2d_19">
      <g>
       <use xlink:href="#m35309b5130" x="389.396267" y="545.9616" style="stroke: #000000; stroke-width: 0.6"/>
      </g>
     </g>
    </g>
    <g id="xtick_20">
     <g id="line2d_20">
      <g>
       <use xlink:href="#m35309b5130" x="399.482471" y="545.9616" style="stroke: #000000; stroke-width: 0.6"/>
      </g>
     </g>
    </g>
    <g id="xtick_21">
     <g id="line2d_21">
      <g>
       <use xlink:href="#m35309b5130" x="408.219537" y="545.9616" style="stroke: #000000; stroke-width: 0.6"/>
      </g>
     </g>
    </g>
    <g id="xtick_22">
     <g id="line2d_22">
      <g>
       <use xlink:href="#m35309b5130" x="415.926176" y="545.9616" style="stroke: #000000; stroke-width: 0.6"/>
      </g>
     </g>
    </g>
    <g id="xtick_23">
     <g id="line2d_23">
      <g>
       <use xlink:href="#m35309b5130" x="468.173179" y="545.9616" style="stroke: #000000; stroke-width: 0.6"/>
      </g>
     </g>
    </g>
    <g id="xtick_24">
     <g id="line2d_24">
      <g>
       <use xlink:href="#m35309b5130" x="494.703088" y="545.9616" style="stroke: #000000; stroke-width: 0.6"/>
      </g>
     </g>
    </g>
    <g id="xtick_25">
     <g id="line2d_25">
      <g>
       <use xlink:href="#m35309b5130" x="513.526358" y="545.9616" style="stroke: #000000; stroke-width: 0.6"/>
      </g>
     </g>
    </g>
    <g id="xtick_26">
     <g id="line2d_26">
      <g>
       <use xlink:href="#m35309b5130" x="528.126821" y="545.9616" style="stroke: #000000; stroke-width: 0.6"/>
      </g>
     </g>
    </g>
    <g id="xtick_27">
     <g id="line2d_27">
      <g>
       <use xlink:href="#m35309b5130" x="540.056267" y="545.9616" style="stroke: #000000; stroke-width: 0.6"/>
      </g>
     </g>
    </g>
    <g id="xtick_28">
     <g id="line2d_28">
      <g>
       <use xlink:href="#m35309b5130" x="550.142471" y="545.9616" style="stroke: #000000; stroke-width: 0.6"/>
      </g>
     </g>
    </g>
    <g id="xtick_29">
     <g id="line2d_29">
      <g>
       <use xlink:href="#m35309b5130" x="558.879537" y="545.9616" style="stroke: #000000; stroke-width: 0.6"/>
      </g>
     </g>
    </g>
    <g id="xtick_30">
     <g id="line2d_30">
      <g>
       <use xlink:href="#m35309b5130" x="566.586176" y="545.9616" style="stroke: #000000; stroke-width: 0.6"/>
      </g>
     </g>
    </g>
    <g id="xtick_31">
     <g id="line2d_31">
      <g>
       <use xlink:href="#m35309b5130" x="618.833179" y="545.9616" style="stroke: #000000; stroke-width: 0.6"/>
      </g>
     </g>
    </g>
    <g id="xtick_32">
     <g id="line2d_32">
      <g>
       <use xlink:href="#m35309b5130" x="645.363088" y="545.9616" style="stroke: #000000; stroke-width: 0.6"/>
      </g>
     </g>
    </g>
    <g id="xtick_33">
     <g id="line2d_33">
      <g>
       <use xlink:href="#m35309b5130" x="664.186358" y="545.9616" style="stroke: #000000; stroke-width: 0.6"/>
      </g>
     </g>
    </g>
    <g id="xtick_34">
     <g id="line2d_34">
      <g>
       <use xlink:href="#m35309b5130" x="678.786821" y="545.9616" style="stroke: #000000; stroke-width: 0.6"/>
      </g>
     </g>
    </g>
    <g id="xtick_35">
     <g id="line2d_35">
      <g>
       <use xlink:href="#m35309b5130" x="690.716267" y="545.9616" style="stroke: #000000; stroke-width: 0.6"/>
      </g>
     </g>
    </g>
    <g id="xtick_36">
     <g id="line2d_36">
      <g>
       <use xlink:href="#m35309b5130" x="700.802471" y="545.9616" style="stroke: #000000; stroke-width: 0.6"/>
      </g>
     </g>
    </g>
    <g id="xtick_37">
     <g id="line2d_37">
      <g>
       <use xlink:href="#m35309b5130" x="709.539537" y="545.9616" style="stroke: #000000; stroke-width: 0.6"/>
      </g>
     </g>
    </g>
    <g id="xtick_38">
     <g id="line2d_38">
      <g>
       <use xlink:href="#m35309b5130" x="717.246176" y="545.9616" style="stroke: #000000; stroke-width: 0.6"/>
      </g>
     </g>
    </g>
    <g id="xtick_39">
     <g id="line2d_39">
      <g>
       <use xlink:href="#m35309b5130" x="769.493179" y="545.9616" style="stroke: #000000; stroke-width: 0.6"/>
      </g>
     </g>
    </g>
    <g id="xtick_40">
     <g id="line2d_40">
      <g>
       <use xlink:href="#m35309b5130" x="796.023088" y="545.9616" style="stroke: #000000; stroke-width: 0.6"/>
      </g>
     </g>
    </g>
    <g id="xtick_41">
     <g id="line2d_41">
      <g>
       <use xlink:href="#m35309b5130" x="814.846358" y="545.9616" style="stroke: #000000; stroke-width: 0.6"/>
      </g>
     </g>
    </g>
    <g id="xtick_42">
     <g id="line2d_42">
      <g>
       <use xlink:href="#m35309b5130" x="829.446821" y="545.9616" style="stroke: #000000; stroke-width: 0.6"/>
      </g>
     </g>
    </g>
    <g id="xtick_43">
     <g id="line2d_43">
      <g>
       <use xlink:href="#m35309b5130" x="841.376267" y="545.9616" style="stroke: #000000; stroke-width: 0.6"/>
      </g>
     </g>
    </g>
    <g id="xtick_44">
     <g id="line2d_44">
      <g>
       <use xlink:href="#m35309b5130" x="851.462471" y="545.9616" style="stroke: #000000; stroke-width: 0.6"/>
      </g>
     </g>
    </g>
    <g id="xtick_45">
     <g id="line2d_45">
      <g>
       <use xlink:href="#m35309b5130" x="860.199537" y="545.9616" style="stroke: #000000; stroke-width: 0.6"/>
      </g>
     </g>
    </g>
    <g id="xtick_46">
     <g id="line2d_46">
      <g>
       <use xlink:href="#m35309b5130" x="867.906176" y="545.9616" style="stroke: #000000; stroke-width: 0.6"/>
      </g>
     </g>
    </g>
    <g id="text_7">
     <!-- Energy(GeV) -->
     <g transform="translate(434.592188 591.514725)scale(0.2 -0.2)">
      <defs>
       <path id="DejaVuSans-45" d="M 628 4666 
L 3578 4666 
L 3578 4134 
L 1259 4134 
L 1259 2753 
L 3481 2753 
L 3481 2222 
L 1259 2222 
L 1259 531 
L 3634 531 
L 3634 0 
L 628 0 
L 628 4666 
z
" transform="scale(0.015625)"/>
       <path id="DejaVuSans-6e" d="M 3513 2113 
L 3513 0 
L 2938 0 
L 2938 2094 
Q 2938 2591 2744 2837 
Q 2550 3084 2163 3084 
Q 1697 3084 1428 2787 
Q 1159 2491 1159 1978 
L 1159 0 
L 581 0 
L 581 3500 
L 1159 3500 
L 1159 2956 
Q 1366 3272 1645 3428 
Q 1925 3584 2291 3584 
Q 2894 3584 3203 3211 
Q 3513 2838 3513 2113 
z
" transform="scale(0.015625)"/>
       <path id="DejaVuSans-65" d="M 3597 1894 
L 3597 1613 
L 953 1613 
Q 991 1019 1311 708 
Q 1631 397 2203 397 
Q 2534 397 2845 478 
Q 3156 559 3463 722 
L 3463 178 
Q 3153 47 2828 -22 
Q 2503 -91 2169 -91 
Q 1331 -91 842 396 
Q 353 884 353 1716 
Q 353 2575 817 3079 
Q 1281 3584 2069 3584 
Q 2775 3584 3186 3129 
Q 3597 2675 3597 1894 
z
M 3022 2063 
Q 3016 2534 2758 2815 
Q 2500 3097 2075 3097 
Q 1594 3097 1305 2825 
Q 1016 2553 972 2059 
L 3022 2063 
z
" transform="scale(0.015625)"/>
       <path id="DejaVuSans-72" d="M 2631 2963 
Q 2534 3019 2420 3045 
Q 2306 3072 2169 3072 
Q 1681 3072 1420 2755 
Q 1159 2438 1159 1844 
L 1159 0 
L 581 0 
L 581 3500 
L 1159 3500 
L 1159 2956 
Q 1341 3275 1631 3429 
Q 1922 3584 2338 3584 
Q 2397 3584 2469 3576 
Q 2541 3569 2628 3553 
L 2631 2963 
z
" transform="scale(0.015625)"/>
       <path id="DejaVuSans-67" d="M 2906 1791 
Q 2906 2416 2648 2759 
Q 2391 3103 1925 3103 
Q 1463 3103 1205 2759 
Q 947 2416 947 1791 
Q 947 1169 1205 825 
Q 1463 481 1925 481 
Q 2391 481 2648 825 
Q 2906 1169 2906 1791 
z
M 3481 434 
Q 3481 -459 3084 -895 
Q 2688 -1331 1869 -1331 
Q 1566 -1331 1297 -1286 
Q 1028 -1241 775 -1147 
L 775 -588 
Q 1028 -725 1275 -790 
Q 1522 -856 1778 -856 
Q 2344 -856 2625 -561 
Q 2906 -266 2906 331 
L 2906 616 
Q 2728 306 2450 153 
Q 2172 0 1784 0 
Q 1141 0 747 490 
Q 353 981 353 1791 
Q 353 2603 747 3093 
Q 1141 3584 1784 3584 
Q 2172 3584 2450 3431 
Q 2728 3278 2906 2969 
L 2906 3500 
L 3481 3500 
L 3481 434 
z
" transform="scale(0.015625)"/>
       <path id="DejaVuSans-79" d="M 2059 -325 
Q 1816 -950 1584 -1140 
Q 1353 -1331 966 -1331 
L 506 -1331 
L 506 -850 
L 844 -850 
Q 1081 -850 1212 -737 
Q 1344 -625 1503 -206 
L 1606 56 
L 191 3500 
L 800 3500 
L 1894 763 
L 2988 3500 
L 3597 3500 
L 2059 -325 
z
" transform="scale(0.015625)"/>
       <path id="DejaVuSans-28" d="M 1984 4856 
Q 1566 4138 1362 3434 
Q 1159 2731 1159 2009 
Q 1159 1288 1364 580 
Q 1569 -128 1984 -844 
L 1484 -844 
Q 1016 -109 783 600 
Q 550 1309 550 2009 
Q 550 2706 781 3412 
Q 1013 4119 1484 4856 
L 1984 4856 
z
" transform="scale(0.015625)"/>
       <path id="DejaVuSans-47" d="M 3809 666 
L 3809 1919 
L 2778 1919 
L 2778 2438 
L 4434 2438 
L 4434 434 
Q 4069 175 3628 42 
Q 3188 -91 2688 -91 
Q 1594 -91 976 548 
Q 359 1188 359 2328 
Q 359 3472 976 4111 
Q 1594 4750 2688 4750 
Q 3144 4750 3555 4637 
Q 3966 4525 4313 4306 
L 4313 3634 
Q 3963 3931 3569 4081 
Q 3175 4231 2741 4231 
Q 1884 4231 1454 3753 
Q 1025 3275 1025 2328 
Q 1025 1384 1454 906 
Q 1884 428 2741 428 
Q 3075 428 3337 486 
Q 3600 544 3809 666 
z
" transform="scale(0.015625)"/>
       <path id="DejaVuSans-56" d="M 1831 0 
L 50 4666 
L 709 4666 
L 2188 738 
L 3669 4666 
L 4325 4666 
L 2547 0 
L 1831 0 
z
" transform="scale(0.015625)"/>
       <path id="DejaVuSans-29" d="M 513 4856 
L 1013 4856 
Q 1481 4119 1714 3412 
Q 1947 2706 1947 2009 
Q 1947 1309 1714 600 
Q 1481 -109 1013 -844 
L 513 -844 
Q 928 -128 1133 580 
Q 1338 1288 1338 2009 
Q 1338 2731 1133 3434 
Q 928 4138 513 4856 
z
" transform="scale(0.015625)"/>
      </defs>
      <use xlink:href="#DejaVuSans-45"/>
      <use xlink:href="#DejaVuSans-6e" x="63.183594"/>
      <use xlink:href="#DejaVuSans-65" x="126.5625"/>
      <use xlink:href="#DejaVuSans-72" x="188.085938"/>
      <use xlink:href="#DejaVuSans-67" x="227.449219"/>
      <use xlink:href="#DejaVuSans-79" x="290.925781"/>
      <use xlink:href="#DejaVuSans-28" x="350.105469"/>
      <use xlink:href="#DejaVuSans-47" x="389.119141"/>
      <use xlink:href="#DejaVuSans-65" x="466.609375"/>
      <use xlink:href="#DejaVuSans-56" x="528.132812"/>
      <use xlink:href="#DejaVuSans-29" x="596.541016"/>
     </g>
    </g>
   </g>
   <g id="matplotlib.axis_2">
    <g id="ytick_1">
     <g id="line2d_47">
      <defs>
       <path id="m8644e97631" d="M 0 0 
L -3.5 0 
" style="stroke: #000000; stroke-width: 0.8"/>
      </defs>
      <g>
       <use xlink:href="#m8644e97631" x="121.5" y="516.808218" style="stroke: #000000; stroke-width: 0.8"/>
      </g>
     </g>
     <g id="text_8">
      <!-- $\mathdefault{10^{-9}}$ -->
      <g transform="translate(67.5 524.406656)scale(0.2 -0.2)">
       <defs>
        <path id="DejaVuSans-2212" d="M 678 2272 
L 4684 2272 
L 4684 1741 
L 678 1741 
L 678 2272 
z
" transform="scale(0.015625)"/>
        <path id="DejaVuSans-39" d="M 703 97 
L 703 672 
Q 941 559 1184 500 
Q 1428 441 1663 441 
Q 2288 441 2617 861 
Q 2947 1281 2994 2138 
Q 2813 1869 2534 1725 
Q 2256 1581 1919 1581 
Q 1219 1581 811 2004 
Q 403 2428 403 3163 
Q 403 3881 828 4315 
Q 1253 4750 1959 4750 
Q 2769 4750 3195 4129 
Q 3622 3509 3622 2328 
Q 3622 1225 3098 567 
Q 2575 -91 1691 -91 
Q 1453 -91 1209 -44 
Q 966 3 703 97 
z
M 1959 2075 
Q 2384 2075 2632 2365 
Q 2881 2656 2881 3163 
Q 2881 3666 2632 3958 
Q 2384 4250 1959 4250 
Q 1534 4250 1286 3958 
Q 1038 3666 1038 3163 
Q 1038 2656 1286 2365 
Q 1534 2075 1959 2075 
z
" transform="scale(0.015625)"/>
       </defs>
       <use xlink:href="#DejaVuSans-31" transform="translate(0 0.765625)"/>
       <use xlink:href="#DejaVuSans-30" transform="translate(63.623047 0.765625)"/>
       <use xlink:href="#DejaVuSans-2212" transform="translate(128.203125 39.046875)scale(0.7)"/>
       <use xlink:href="#DejaVuSans-39" transform="translate(186.855469 39.046875)scale(0.7)"/>
      </g>
     </g>
    </g>
    <g id="ytick_2">
     <g id="line2d_48">
      <g>
       <use xlink:href="#m8644e97631" x="121.5" y="444.066295" style="stroke: #000000; stroke-width: 0.8"/>
      </g>
     </g>
     <g id="text_9">
      <!-- $\mathdefault{10^{-8}}$ -->
      <g transform="translate(67.5 451.664733)scale(0.2 -0.2)">
       <use xlink:href="#DejaVuSans-31" transform="translate(0 0.765625)"/>
       <use xlink:href="#DejaVuSans-30" transform="translate(63.623047 0.765625)"/>
       <use xlink:href="#DejaVuSans-2212" transform="translate(128.203125 39.046875)scale(0.7)"/>
       <use xlink:href="#DejaVuSans-38" transform="translate(186.855469 39.046875)scale(0.7)"/>
      </g>
     </g>
    </g>
    <g id="ytick_3">
     <g id="line2d_49">
      <g>
       <use xlink:href="#m8644e97631" x="121.5" y="371.324373" style="stroke: #000000; stroke-width: 0.8"/>
      </g>
     </g>
     <g id="text_10">
      <!-- $\mathdefault{10^{-7}}$ -->
      <g transform="translate(67.5 378.92281)scale(0.2 -0.2)">
       <use xlink:href="#DejaVuSans-31" transform="translate(0 0.684375)"/>
       <use xlink:href="#DejaVuSans-30" transform="translate(63.623047 0.684375)"/>
       <use xlink:href="#DejaVuSans-2212" transform="translate(128.203125 38.965625)scale(0.7)"/>
       <use xlink:href="#DejaVuSans-37" transform="translate(186.855469 38.965625)scale(0.7)"/>
      </g>
     </g>
    </g>
    <g id="ytick_4">
     <g id="line2d_50">
      <g>
       <use xlink:href="#m8644e97631" x="121.5" y="298.58245" style="stroke: #000000; stroke-width: 0.8"/>
      </g>
     </g>
     <g id="text_11">
      <!-- $\mathdefault{10^{-6}}$ -->
      <g transform="translate(67.5 306.180888)scale(0.2 -0.2)">
       <use xlink:href="#DejaVuSans-31" transform="translate(0 0.765625)"/>
       <use xlink:href="#DejaVuSans-30" transform="translate(63.623047 0.765625)"/>
       <use xlink:href="#DejaVuSans-2212" transform="translate(128.203125 39.046875)scale(0.7)"/>
       <use xlink:href="#DejaVuSans-36" transform="translate(186.855469 39.046875)scale(0.7)"/>
      </g>
     </g>
    </g>
    <g id="ytick_5">
     <g id="line2d_51">
      <g>
       <use xlink:href="#m8644e97631" x="121.5" y="225.840527" style="stroke: #000000; stroke-width: 0.8"/>
      </g>
     </g>
     <g id="text_12">
      <!-- $\mathdefault{10^{-5}}$ -->
      <g transform="translate(67.5 233.438965)scale(0.2 -0.2)">
       <use xlink:href="#DejaVuSans-31" transform="translate(0 0.684375)"/>
       <use xlink:href="#DejaVuSans-30" transform="translate(63.623047 0.684375)"/>
       <use xlink:href="#DejaVuSans-2212" transform="translate(128.203125 38.965625)scale(0.7)"/>
       <use xlink:href="#DejaVuSans-35" transform="translate(186.855469 38.965625)scale(0.7)"/>
      </g>
     </g>
    </g>
    <g id="ytick_6">
     <g id="line2d_52">
      <g>
       <use xlink:href="#m8644e97631" x="121.5" y="153.098605" style="stroke: #000000; stroke-width: 0.8"/>
      </g>
     </g>
     <g id="text_13">
      <!-- $\mathdefault{10^{-4}}$ -->
      <g transform="translate(67.5 160.697042)scale(0.2 -0.2)">
       <use xlink:href="#DejaVuSans-31" transform="translate(0 0.684375)"/>
       <use xlink:href="#DejaVuSans-30" transform="translate(63.623047 0.684375)"/>
       <use xlink:href="#DejaVuSans-2212" transform="translate(128.203125 38.965625)scale(0.7)"/>
       <use xlink:href="#DejaVuSans-34" transform="translate(186.855469 38.965625)scale(0.7)"/>
      </g>
     </g>
    </g>
    <g id="ytick_7">
     <g id="line2d_53">
      <g>
       <use xlink:href="#m8644e97631" x="121.5" y="80.356682" style="stroke: #000000; stroke-width: 0.8"/>
      </g>
     </g>
     <g id="text_14">
      <!-- $\mathdefault{10^{-3}}$ -->
      <g transform="translate(67.5 87.955119)scale(0.2 -0.2)">
       <use xlink:href="#DejaVuSans-31" transform="translate(0 0.765625)"/>
       <use xlink:href="#DejaVuSans-30" transform="translate(63.623047 0.765625)"/>
       <use xlink:href="#DejaVuSans-2212" transform="translate(128.203125 39.046875)scale(0.7)"/>
       <use xlink:href="#DejaVuSans-33" transform="translate(186.855469 39.046875)scale(0.7)"/>
      </g>
     </g>
    </g>
    <g id="ytick_8">
     <g id="line2d_54">
      <defs>
       <path id="m82b90cf76e" d="M 0 0 
L -2 0 
" style="stroke: #000000; stroke-width: 0.6"/>
      </defs>
      <g>
       <use xlink:href="#m82b90cf76e" x="121.5" y="545.75514" style="stroke: #000000; stroke-width: 0.6"/>
      </g>
     </g>
    </g>
    <g id="ytick_9">
     <g id="line2d_55">
      <g>
       <use xlink:href="#m82b90cf76e" x="121.5" y="538.705719" style="stroke: #000000; stroke-width: 0.6"/>
      </g>
     </g>
    </g>
    <g id="ytick_10">
     <g id="line2d_56">
      <g>
       <use xlink:href="#m82b90cf76e" x="121.5" y="532.945923" style="stroke: #000000; stroke-width: 0.6"/>
      </g>
     </g>
    </g>
    <g id="ytick_11">
     <g id="line2d_57">
      <g>
       <use xlink:href="#m82b90cf76e" x="121.5" y="528.076085" style="stroke: #000000; stroke-width: 0.6"/>
      </g>
     </g>
    </g>
    <g id="ytick_12">
     <g id="line2d_58">
      <g>
       <use xlink:href="#m82b90cf76e" x="121.5" y="523.857639" style="stroke: #000000; stroke-width: 0.6"/>
      </g>
     </g>
    </g>
    <g id="ytick_13">
     <g id="line2d_59">
      <g>
       <use xlink:href="#m82b90cf76e" x="121.5" y="520.136706" style="stroke: #000000; stroke-width: 0.6"/>
      </g>
     </g>
    </g>
    <g id="ytick_14">
     <g id="line2d_60">
      <g>
       <use xlink:href="#m82b90cf76e" x="121.5" y="494.910717" style="stroke: #000000; stroke-width: 0.6"/>
      </g>
     </g>
    </g>
    <g id="ytick_15">
     <g id="line2d_61">
      <g>
       <use xlink:href="#m82b90cf76e" x="121.5" y="482.101501" style="stroke: #000000; stroke-width: 0.6"/>
      </g>
     </g>
    </g>
    <g id="ytick_16">
     <g id="line2d_62">
      <g>
       <use xlink:href="#m82b90cf76e" x="121.5" y="473.013217" style="stroke: #000000; stroke-width: 0.6"/>
      </g>
     </g>
    </g>
    <g id="ytick_17">
     <g id="line2d_63">
      <g>
       <use xlink:href="#m82b90cf76e" x="121.5" y="465.963796" style="stroke: #000000; stroke-width: 0.6"/>
      </g>
     </g>
    </g>
    <g id="ytick_18">
     <g id="line2d_64">
      <g>
       <use xlink:href="#m82b90cf76e" x="121.5" y="460.204" style="stroke: #000000; stroke-width: 0.6"/>
      </g>
     </g>
    </g>
    <g id="ytick_19">
     <g id="line2d_65">
      <g>
       <use xlink:href="#m82b90cf76e" x="121.5" y="455.334162" style="stroke: #000000; stroke-width: 0.6"/>
      </g>
     </g>
    </g>
    <g id="ytick_20">
     <g id="line2d_66">
      <g>
       <use xlink:href="#m82b90cf76e" x="121.5" y="451.115716" style="stroke: #000000; stroke-width: 0.6"/>
      </g>
     </g>
    </g>
    <g id="ytick_21">
     <g id="line2d_67">
      <g>
       <use xlink:href="#m82b90cf76e" x="121.5" y="447.394783" style="stroke: #000000; stroke-width: 0.6"/>
      </g>
     </g>
    </g>
    <g id="ytick_22">
     <g id="line2d_68">
      <g>
       <use xlink:href="#m82b90cf76e" x="121.5" y="422.168795" style="stroke: #000000; stroke-width: 0.6"/>
      </g>
     </g>
    </g>
    <g id="ytick_23">
     <g id="line2d_69">
      <g>
       <use xlink:href="#m82b90cf76e" x="121.5" y="409.359578" style="stroke: #000000; stroke-width: 0.6"/>
      </g>
     </g>
    </g>
    <g id="ytick_24">
     <g id="line2d_70">
      <g>
       <use xlink:href="#m82b90cf76e" x="121.5" y="400.271294" style="stroke: #000000; stroke-width: 0.6"/>
      </g>
     </g>
    </g>
    <g id="ytick_25">
     <g id="line2d_71">
      <g>
       <use xlink:href="#m82b90cf76e" x="121.5" y="393.221873" style="stroke: #000000; stroke-width: 0.6"/>
      </g>
     </g>
    </g>
    <g id="ytick_26">
     <g id="line2d_72">
      <g>
       <use xlink:href="#m82b90cf76e" x="121.5" y="387.462077" style="stroke: #000000; stroke-width: 0.6"/>
      </g>
     </g>
    </g>
    <g id="ytick_27">
     <g id="line2d_73">
      <g>
       <use xlink:href="#m82b90cf76e" x="121.5" y="382.592239" style="stroke: #000000; stroke-width: 0.6"/>
      </g>
     </g>
    </g>
    <g id="ytick_28">
     <g id="line2d_74">
      <g>
       <use xlink:href="#m82b90cf76e" x="121.5" y="378.373793" style="stroke: #000000; stroke-width: 0.6"/>
      </g>
     </g>
    </g>
    <g id="ytick_29">
     <g id="line2d_75">
      <g>
       <use xlink:href="#m82b90cf76e" x="121.5" y="374.652861" style="stroke: #000000; stroke-width: 0.6"/>
      </g>
     </g>
    </g>
    <g id="ytick_30">
     <g id="line2d_76">
      <g>
       <use xlink:href="#m82b90cf76e" x="121.5" y="349.426872" style="stroke: #000000; stroke-width: 0.6"/>
      </g>
     </g>
    </g>
    <g id="ytick_31">
     <g id="line2d_77">
      <g>
       <use xlink:href="#m82b90cf76e" x="121.5" y="336.617655" style="stroke: #000000; stroke-width: 0.6"/>
      </g>
     </g>
    </g>
    <g id="ytick_32">
     <g id="line2d_78">
      <g>
       <use xlink:href="#m82b90cf76e" x="121.5" y="327.529371" style="stroke: #000000; stroke-width: 0.6"/>
      </g>
     </g>
    </g>
    <g id="ytick_33">
     <g id="line2d_79">
      <g>
       <use xlink:href="#m82b90cf76e" x="121.5" y="320.479951" style="stroke: #000000; stroke-width: 0.6"/>
      </g>
     </g>
    </g>
    <g id="ytick_34">
     <g id="line2d_80">
      <g>
       <use xlink:href="#m82b90cf76e" x="121.5" y="314.720155" style="stroke: #000000; stroke-width: 0.6"/>
      </g>
     </g>
    </g>
    <g id="ytick_35">
     <g id="line2d_81">
      <g>
       <use xlink:href="#m82b90cf76e" x="121.5" y="309.850316" style="stroke: #000000; stroke-width: 0.6"/>
      </g>
     </g>
    </g>
    <g id="ytick_36">
     <g id="line2d_82">
      <g>
       <use xlink:href="#m82b90cf76e" x="121.5" y="305.631871" style="stroke: #000000; stroke-width: 0.6"/>
      </g>
     </g>
    </g>
    <g id="ytick_37">
     <g id="line2d_83">
      <g>
       <use xlink:href="#m82b90cf76e" x="121.5" y="301.910938" style="stroke: #000000; stroke-width: 0.6"/>
      </g>
     </g>
    </g>
    <g id="ytick_38">
     <g id="line2d_84">
      <g>
       <use xlink:href="#m82b90cf76e" x="121.5" y="276.684949" style="stroke: #000000; stroke-width: 0.6"/>
      </g>
     </g>
    </g>
    <g id="ytick_39">
     <g id="line2d_85">
      <g>
       <use xlink:href="#m82b90cf76e" x="121.5" y="263.875733" style="stroke: #000000; stroke-width: 0.6"/>
      </g>
     </g>
    </g>
    <g id="ytick_40">
     <g id="line2d_86">
      <g>
       <use xlink:href="#m82b90cf76e" x="121.5" y="254.787449" style="stroke: #000000; stroke-width: 0.6"/>
      </g>
     </g>
    </g>
    <g id="ytick_41">
     <g id="line2d_87">
      <g>
       <use xlink:href="#m82b90cf76e" x="121.5" y="247.738028" style="stroke: #000000; stroke-width: 0.6"/>
      </g>
     </g>
    </g>
    <g id="ytick_42">
     <g id="line2d_88">
      <g>
       <use xlink:href="#m82b90cf76e" x="121.5" y="241.978232" style="stroke: #000000; stroke-width: 0.6"/>
      </g>
     </g>
    </g>
    <g id="ytick_43">
     <g id="line2d_89">
      <g>
       <use xlink:href="#m82b90cf76e" x="121.5" y="237.108394" style="stroke: #000000; stroke-width: 0.6"/>
      </g>
     </g>
    </g>
    <g id="ytick_44">
     <g id="line2d_90">
      <g>
       <use xlink:href="#m82b90cf76e" x="121.5" y="232.889948" style="stroke: #000000; stroke-width: 0.6"/>
      </g>
     </g>
    </g>
    <g id="ytick_45">
     <g id="line2d_91">
      <g>
       <use xlink:href="#m82b90cf76e" x="121.5" y="229.169015" style="stroke: #000000; stroke-width: 0.6"/>
      </g>
     </g>
    </g>
    <g id="ytick_46">
     <g id="line2d_92">
      <g>
       <use xlink:href="#m82b90cf76e" x="121.5" y="203.943027" style="stroke: #000000; stroke-width: 0.6"/>
      </g>
     </g>
    </g>
    <g id="ytick_47">
     <g id="line2d_93">
      <g>
       <use xlink:href="#m82b90cf76e" x="121.5" y="191.13381" style="stroke: #000000; stroke-width: 0.6"/>
      </g>
     </g>
    </g>
    <g id="ytick_48">
     <g id="line2d_94">
      <g>
       <use xlink:href="#m82b90cf76e" x="121.5" y="182.045526" style="stroke: #000000; stroke-width: 0.6"/>
      </g>
     </g>
    </g>
    <g id="ytick_49">
     <g id="line2d_95">
      <g>
       <use xlink:href="#m82b90cf76e" x="121.5" y="174.996105" style="stroke: #000000; stroke-width: 0.6"/>
      </g>
     </g>
    </g>
    <g id="ytick_50">
     <g id="line2d_96">
      <g>
       <use xlink:href="#m82b90cf76e" x="121.5" y="169.236309" style="stroke: #000000; stroke-width: 0.6"/>
      </g>
     </g>
    </g>
    <g id="ytick_51">
     <g id="line2d_97">
      <g>
       <use xlink:href="#m82b90cf76e" x="121.5" y="164.366471" style="stroke: #000000; stroke-width: 0.6"/>
      </g>
     </g>
    </g>
    <g id="ytick_52">
     <g id="line2d_98">
      <g>
       <use xlink:href="#m82b90cf76e" x="121.5" y="160.148025" style="stroke: #000000; stroke-width: 0.6"/>
      </g>
     </g>
    </g>
    <g id="ytick_53">
     <g id="line2d_99">
      <g>
       <use xlink:href="#m82b90cf76e" x="121.5" y="156.427093" style="stroke: #000000; stroke-width: 0.6"/>
      </g>
     </g>
    </g>
    <g id="ytick_54">
     <g id="line2d_100">
      <g>
       <use xlink:href="#m82b90cf76e" x="121.5" y="131.201104" style="stroke: #000000; stroke-width: 0.6"/>
      </g>
     </g>
    </g>
    <g id="ytick_55">
     <g id="line2d_101">
      <g>
       <use xlink:href="#m82b90cf76e" x="121.5" y="118.391887" style="stroke: #000000; stroke-width: 0.6"/>
      </g>
     </g>
    </g>
    <g id="ytick_56">
     <g id="line2d_102">
      <g>
       <use xlink:href="#m82b90cf76e" x="121.5" y="109.303603" style="stroke: #000000; stroke-width: 0.6"/>
      </g>
     </g>
    </g>
    <g id="ytick_57">
     <g id="line2d_103">
      <g>
       <use xlink:href="#m82b90cf76e" x="121.5" y="102.254183" style="stroke: #000000; stroke-width: 0.6"/>
      </g>
     </g>
    </g>
    <g id="ytick_58">
     <g id="line2d_104">
      <g>
       <use xlink:href="#m82b90cf76e" x="121.5" y="96.494387" style="stroke: #000000; stroke-width: 0.6"/>
      </g>
     </g>
    </g>
    <g id="ytick_59">
     <g id="line2d_105">
      <g>
       <use xlink:href="#m82b90cf76e" x="121.5" y="91.624548" style="stroke: #000000; stroke-width: 0.6"/>
      </g>
     </g>
    </g>
    <g id="ytick_60">
     <g id="line2d_106">
      <g>
       <use xlink:href="#m82b90cf76e" x="121.5" y="87.406103" style="stroke: #000000; stroke-width: 0.6"/>
      </g>
     </g>
    </g>
    <g id="ytick_61">
     <g id="line2d_107">
      <g>
       <use xlink:href="#m82b90cf76e" x="121.5" y="83.68517" style="stroke: #000000; stroke-width: 0.6"/>
      </g>
     </g>
    </g>
    <g id="text_15">
     <!-- $\phi_{\nu_{\mu}+\nu_e}E^{2.5}[GeV^{1.5} cm^{-2} s^{-1}sr^{-1}]$ -->
     <g transform="translate(55.7 461.6872)rotate(-90)scale(0.2 -0.2)">
      <defs>
       <path id="DejaVuSans-Oblique-3d5" d="M 2991 4863 
L 2738 3572 
Q 3363 3572 3684 3094 
Q 4016 2606 3850 1747 
Q 3681 888 3159 400 
Q 2653 -78 2028 -78 
L 1784 -1331 
L 1213 -1331 
L 1456 -78 
Q 834 -78 509 400 
Q 178 888 347 1747 
Q 513 2606 1034 3094 
Q 1544 3572 2166 3572 
L 2419 4863 
L 2991 4863 
z
M 2128 434 
Q 2481 434 2784 756 
Q 3116 1116 3244 1747 
Q 3369 2372 3169 2738 
Q 2991 3059 2638 3059 
L 2128 434 
z
M 1556 434 
L 2066 3059 
Q 1716 3059 1413 2738 
Q 1072 2372 953 1747 
Q 834 1116 1028 756 
Q 1203 434 1556 434 
z
" transform="scale(0.015625)"/>
       <path id="DejaVuSans-Oblique-3bd" d="M 959 0 
L 572 3500 
L 1191 3500 
L 1522 563 
Q 1972 950 2391 1488 
Q 2706 1891 2788 2241 
Q 2825 2406 2809 2719 
Q 2794 3091 2544 3500 
L 3125 3500 
L 3125 3500 
Q 3288 3222 3353 2834 
Q 3416 2478 3369 2234 
Q 3250 1622 2719 1075 
Q 2025 363 1572 0 
L 959 0 
z
" transform="scale(0.015625)"/>
       <path id="DejaVuSans-Oblique-3bc" d="M -84 -1331 
L 856 3500 
L 1434 3500 
L 1009 1322 
Q 997 1256 987 1175 
Q 978 1094 978 1013 
Q 978 722 1161 565 
Q 1344 409 1684 409 
Q 2147 409 2431 671 
Q 2716 934 2816 1459 
L 3213 3500 
L 3788 3500 
L 3266 809 
Q 3253 750 3248 706 
Q 3244 663 3244 628 
Q 3244 531 3283 486 
Q 3322 441 3406 441 
Q 3438 441 3492 456 
Q 3547 472 3647 513 
L 3559 50 
Q 3422 -19 3297 -55 
Q 3172 -91 3053 -91 
Q 2847 -91 2730 40 
Q 2613 172 2613 403 
Q 2438 153 2195 31 
Q 1953 -91 1625 -91 
Q 1334 -91 1117 43 
Q 900 178 831 397 
L 494 -1331 
L -84 -1331 
z
" transform="scale(0.015625)"/>
       <path id="DejaVuSans-2b" d="M 2944 4013 
L 2944 2272 
L 4684 2272 
L 4684 1741 
L 2944 1741 
L 2944 0 
L 2419 0 
L 2419 1741 
L 678 1741 
L 678 2272 
L 2419 2272 
L 2419 4013 
L 2944 4013 
z
" transform="scale(0.015625)"/>
       <path id="DejaVuSans-Oblique-65" d="M 3078 2063 
Q 3088 2113 3092 2166 
Q 3097 2219 3097 2272 
Q 3097 2653 2873 2875 
Q 2650 3097 2266 3097 
Q 1838 3097 1509 2826 
Q 1181 2556 1013 2059 
L 3078 2063 
z
M 3578 1613 
L 903 1613 
Q 884 1494 878 1425 
Q 872 1356 872 1306 
Q 872 872 1139 634 
Q 1406 397 1894 397 
Q 2269 397 2603 481 
Q 2938 566 3225 728 
L 3116 159 
Q 2806 34 2476 -28 
Q 2147 -91 1806 -91 
Q 1078 -91 686 257 
Q 294 606 294 1247 
Q 294 1794 489 2264 
Q 684 2734 1063 3103 
Q 1306 3334 1642 3459 
Q 1978 3584 2356 3584 
Q 2950 3584 3301 3228 
Q 3653 2872 3653 2272 
Q 3653 2128 3634 1964 
Q 3616 1800 3578 1613 
z
" transform="scale(0.015625)"/>
       <path id="DejaVuSans-Oblique-45" d="M 1081 4666 
L 4031 4666 
L 3928 4134 
L 1606 4134 
L 1338 2753 
L 3566 2753 
L 3463 2222 
L 1234 2222 
L 909 531 
L 3284 531 
L 3181 0 
L 172 0 
L 1081 4666 
z
" transform="scale(0.015625)"/>
       <path id="DejaVuSans-32" d="M 1228 531 
L 3431 531 
L 3431 0 
L 469 0 
L 469 531 
Q 828 903 1448 1529 
Q 2069 2156 2228 2338 
Q 2531 2678 2651 2914 
Q 2772 3150 2772 3378 
Q 2772 3750 2511 3984 
Q 2250 4219 1831 4219 
Q 1534 4219 1204 4116 
Q 875 4013 500 3803 
L 500 4441 
Q 881 4594 1212 4672 
Q 1544 4750 1819 4750 
Q 2544 4750 2975 4387 
Q 3406 4025 3406 3419 
Q 3406 3131 3298 2873 
Q 3191 2616 2906 2266 
Q 2828 2175 2409 1742 
Q 1991 1309 1228 531 
z
" transform="scale(0.015625)"/>
       <path id="DejaVuSans-2e" d="M 684 794 
L 1344 794 
L 1344 0 
L 684 0 
L 684 794 
z
" transform="scale(0.015625)"/>
       <path id="DejaVuSans-5b" d="M 550 4863 
L 1875 4863 
L 1875 4416 
L 1125 4416 
L 1125 -397 
L 1875 -397 
L 1875 -844 
L 550 -844 
L 550 4863 
z
" transform="scale(0.015625)"/>
       <path id="DejaVuSans-Oblique-47" d="M 3494 697 
L 3738 1919 
L 2700 1919 
L 2797 2438 
L 4453 2438 
L 4050 384 
Q 3634 156 3143 32 
Q 2653 -91 2156 -91 
Q 1278 -91 783 396 
Q 288 884 288 1753 
Q 288 2475 589 3126 
Q 891 3778 1422 4213 
Q 1756 4484 2153 4617 
Q 2550 4750 3034 4750 
Q 3472 4750 3873 4639 
Q 4275 4528 4641 4306 
L 4513 3634 
Q 4231 3928 3853 4083 
Q 3475 4238 3047 4238 
Q 2550 4238 2172 4048 
Q 1794 3859 1497 3463 
Q 1244 3125 1098 2667 
Q 953 2209 953 1734 
Q 953 1081 1287 751 
Q 1622 422 2284 422 
Q 2616 422 2925 492 
Q 3234 563 3494 697 
z
" transform="scale(0.015625)"/>
       <path id="DejaVuSans-Oblique-56" d="M 1319 0 
L 500 4666 
L 1119 4666 
L 1797 653 
L 4063 4666 
L 4750 4666 
L 2053 0 
L 1319 0 
z
" transform="scale(0.015625)"/>
       <path id="DejaVuSans-Oblique-63" d="M 3431 3366 
L 3316 2797 
Q 3109 2947 2876 3022 
Q 2644 3097 2394 3097 
Q 2119 3097 1870 3000 
Q 1622 2903 1453 2725 
Q 1184 2453 1037 2087 
Q 891 1722 891 1331 
Q 891 859 1127 628 
Q 1363 397 1844 397 
Q 2081 397 2348 469 
Q 2616 541 2906 684 
L 2797 116 
Q 2547 13 2283 -39 
Q 2019 -91 1741 -91 
Q 1044 -91 669 257 
Q 294 606 294 1253 
Q 294 1797 489 2255 
Q 684 2713 1069 3078 
Q 1331 3328 1684 3456 
Q 2038 3584 2456 3584 
Q 2700 3584 2940 3529 
Q 3181 3475 3431 3366 
z
" transform="scale(0.015625)"/>
       <path id="DejaVuSans-Oblique-6d" d="M 5747 2113 
L 5338 0 
L 4763 0 
L 5166 2094 
Q 5191 2228 5203 2325 
Q 5216 2422 5216 2491 
Q 5216 2772 5059 2928 
Q 4903 3084 4622 3084 
Q 4203 3084 3875 2770 
Q 3547 2456 3450 1953 
L 3066 0 
L 2491 0 
L 2900 2094 
Q 2925 2209 2937 2307 
Q 2950 2406 2950 2484 
Q 2950 2769 2794 2926 
Q 2638 3084 2363 3084 
Q 1938 3084 1609 2770 
Q 1281 2456 1184 1953 
L 800 0 
L 225 0 
L 909 3500 
L 1484 3500 
L 1375 2956 
Q 1609 3263 1923 3423 
Q 2238 3584 2597 3584 
Q 2978 3584 3223 3384 
Q 3469 3184 3519 2828 
Q 3781 3197 4126 3390 
Q 4472 3584 4856 3584 
Q 5306 3584 5551 3325 
Q 5797 3066 5797 2591 
Q 5797 2488 5784 2364 
Q 5772 2241 5747 2113 
z
" transform="scale(0.015625)"/>
       <path id="DejaVuSans-Oblique-73" d="M 3200 3397 
L 3091 2853 
Q 2863 2978 2609 3040 
Q 2356 3103 2088 3103 
Q 1634 3103 1373 2948 
Q 1113 2794 1113 2528 
Q 1113 2219 1719 2053 
Q 1766 2041 1788 2034 
L 1972 1978 
Q 2547 1819 2739 1644 
Q 2931 1469 2931 1166 
Q 2931 609 2489 259 
Q 2047 -91 1331 -91 
Q 1053 -91 747 -37 
Q 441 16 72 128 
L 184 722 
Q 500 559 806 475 
Q 1113 391 1394 391 
Q 1816 391 2080 572 
Q 2344 753 2344 1031 
Q 2344 1331 1650 1516 
L 1591 1531 
L 1394 1581 
Q 956 1697 753 1886 
Q 550 2075 550 2369 
Q 550 2928 970 3256 
Q 1391 3584 2113 3584 
Q 2397 3584 2667 3537 
Q 2938 3491 3200 3397 
z
" transform="scale(0.015625)"/>
       <path id="DejaVuSans-Oblique-72" d="M 2853 2969 
Q 2766 3016 2653 3041 
Q 2541 3066 2413 3066 
Q 1953 3066 1609 2717 
Q 1266 2369 1153 1784 
L 800 0 
L 225 0 
L 909 3500 
L 1484 3500 
L 1375 2956 
Q 1603 3259 1920 3421 
Q 2238 3584 2597 3584 
Q 2691 3584 2781 3573 
Q 2872 3563 2963 3538 
L 2853 2969 
z
" transform="scale(0.015625)"/>
       <path id="DejaVuSans-5d" d="M 1947 4863 
L 1947 -844 
L 622 -844 
L 622 -397 
L 1369 -397 
L 1369 4416 
L 622 4416 
L 622 4863 
L 1947 4863 
z
" transform="scale(0.015625)"/>
      </defs>
      <use xlink:href="#DejaVuSans-Oblique-3d5" transform="translate(0 0.765625)"/>
      <use xlink:href="#DejaVuSans-Oblique-3bd" transform="translate(65.966797 -15.640625)scale(0.7)"/>
      <use xlink:href="#DejaVuSans-Oblique-3bc" transform="translate(105.068359 -27.125)scale(0.49)"/>
      <use xlink:href="#DejaVuSans-2b" transform="translate(151.79541 -15.640625)scale(0.7)"/>
      <use xlink:href="#DejaVuSans-Oblique-3bd" transform="translate(224.085449 -15.640625)scale(0.7)"/>
      <use xlink:href="#DejaVuSans-Oblique-65" transform="translate(263.187012 -27.125)scale(0.49)"/>
      <use xlink:href="#DejaVuSans-Oblique-45" transform="translate(297.981934 0.765625)"/>
      <use xlink:href="#DejaVuSans-32" transform="translate(368.182298 39.046875)scale(0.7)"/>
      <use xlink:href="#DejaVuSans-2e" transform="translate(412.718431 39.046875)scale(0.7)"/>
      <use xlink:href="#DejaVuSans-35" transform="translate(434.969408 39.046875)scale(0.7)"/>
      <use xlink:href="#DejaVuSans-5b" transform="translate(482.239915 0.765625)"/>
      <use xlink:href="#DejaVuSans-Oblique-47" transform="translate(521.253587 0.765625)"/>
      <use xlink:href="#DejaVuSans-Oblique-65" transform="translate(598.743822 0.765625)"/>
      <use xlink:href="#DejaVuSans-Oblique-56" transform="translate(660.267259 0.765625)"/>
      <use xlink:href="#DejaVuSans-31" transform="translate(735.692233 39.046875)scale(0.7)"/>
      <use xlink:href="#DejaVuSans-2e" transform="translate(780.228366 39.046875)scale(0.7)"/>
      <use xlink:href="#DejaVuSans-35" transform="translate(802.479342 39.046875)scale(0.7)"/>
      <use xlink:href="#DejaVuSans-Oblique-63" transform="translate(849.74985 0.765625)"/>
      <use xlink:href="#DejaVuSans-Oblique-6d" transform="translate(904.730319 0.765625)"/>
      <use xlink:href="#DejaVuSans-2212" transform="translate(1006.792324 39.046875)scale(0.7)"/>
      <use xlink:href="#DejaVuSans-32" transform="translate(1065.444668 39.046875)scale(0.7)"/>
      <use xlink:href="#DejaVuSans-Oblique-73" transform="translate(1112.715176 0.765625)"/>
      <use xlink:href="#DejaVuSans-2212" transform="translate(1169.464681 39.046875)scale(0.7)"/>
      <use xlink:href="#DejaVuSans-31" transform="translate(1228.117025 39.046875)scale(0.7)"/>
      <use xlink:href="#DejaVuSans-Oblique-73" transform="translate(1275.387533 0.765625)"/>
      <use xlink:href="#DejaVuSans-Oblique-72" transform="translate(1327.487142 0.765625)"/>
      <use xlink:href="#DejaVuSans-2212" transform="translate(1373.250319 39.046875)scale(0.7)"/>
      <use xlink:href="#DejaVuSans-31" transform="translate(1431.902663 39.046875)scale(0.7)"/>
      <use xlink:href="#DejaVuSans-5d" transform="translate(1479.173171 0.765625)"/>
     </g>
    </g>
   </g>
   <g id="line2d_108">
    <path d="M 121.5 306.001462 
L 157.6584 306.373185 
L 190.8036 306.921724 
L 217.9224 307.573045 
L 242.028 308.37038 
L 263.1204 309.289588 
L 281.1996 310.265598 
L 299.2788 311.475808 
L 317.358 312.935758 
L 332.424 314.378837 
L 347.49 316.036136 
L 359.5428 317.538792 
L 371.5956 319.223479 
L 383.6484 321.090477 
L 395.7012 323.14908 
L 407.754 325.41469 
L 419.8068 327.887444 
L 431.8596 330.573033 
L 443.9124 333.485745 
L 455.9652 336.625721 
L 468.018 339.9863 
L 480.0708 343.540982 
L 492.1236 347.28727 
L 507.1896 352.211857 
L 525.2688 358.326259 
L 588.546 380.067143 
L 603.612 384.893776 
L 618.678 389.496615 
L 630.7308 392.976792 
L 642.7836 396.270635 
L 654.8364 399.374398 
L 666.8892 402.267964 
L 678.942 404.948141 
L 690.9948 407.421174 
L 709.074 410.880289 
L 727.1532 414.081894 
L 742.2192 416.860663 
L 757.2852 419.914701 
L 769.338 422.575315 
L 781.3908 425.503429 
L 793.4436 428.706672 
L 802.4832 431.294501 
L 811.5228 434.108622 
L 820.5624 437.169569 
L 829.602 440.477342 
L 838.6416 444.030275 
L 850.6944 449.003895 
L 862.7472 454.176195 
L 871.7868 458.186014 
L 871.7868 458.186014 
" clip-path="url(#p69f0dca0c8)" style="fill: none; stroke-dasharray: 3.7,1.6; stroke-dashoffset: 0; stroke: #ff0000"/>
   </g>
   <g id="line2d_109">
    <path d="M 121.5 299.006117 
L 151.632 298.371918 
L 178.7508 298.014152 
L 205.8696 297.885036 
L 229.9752 298.007381 
L 251.0676 298.332556 
L 272.16 298.913991 
L 290.2392 299.648864 
L 308.3184 300.636251 
L 323.3844 301.676416 
L 338.4504 302.952447 
L 353.5164 304.469753 
L 365.5692 305.886942 
L 377.622 307.492546 
L 389.6748 309.288922 
L 401.7276 311.301463 
L 413.7804 313.536965 
L 425.8332 315.995845 
L 437.886 318.684763 
L 449.9388 321.606494 
L 461.9916 324.760483 
L 474.0444 328.123698 
L 486.0972 331.680878 
L 498.15 335.432299 
L 519.2424 342.300304 
L 540.3348 349.426928 
L 573.48 360.600914 
L 588.546 365.515928 
L 603.612 370.215472 
L 618.678 374.691915 
L 633.744 378.897807 
L 648.81 382.825378 
L 660.8628 385.753768 
L 672.9156 388.477511 
L 684.9684 390.996607 
L 703.0476 394.482083 
L 721.1268 397.722676 
L 736.1928 400.392115 
L 748.2456 402.748463 
L 760.2984 405.307655 
L 772.3512 408.103407 
L 784.404 411.18844 
L 796.4568 414.563587 
L 805.4964 417.301537 
L 814.536 420.271884 
L 823.5756 423.478929 
L 832.6152 426.922116 
L 844.668 431.831358 
L 859.734 438.225939 
L 871.7868 443.530047 
L 871.7868 443.530047 
" clip-path="url(#p69f0dca0c8)" style="fill: none; stroke: #008000; stroke-width: 3; stroke-linecap: square"/>
   </g>
   <g id="line2d_110">
    <path d="M 121.5 294.03408 
L 145.6056 292.887886 
L 169.7112 291.954249 
L 193.8168 291.236428 
L 214.9092 290.807944 
L 236.0016 290.604573 
L 254.0808 290.624219 
L 272.16 290.8345 
L 287.226 291.185106 
L 302.292 291.727319 
L 317.358 292.46738 
L 332.424 293.442058 
L 347.49 294.657596 
L 359.5428 295.826156 
L 371.5956 297.194368 
L 383.6484 298.762094 
L 395.7012 300.540157 
L 407.754 302.54465 
L 419.8068 304.775989 
L 431.8596 307.239448 
L 443.9124 309.94682 
L 455.9652 312.899352 
L 468.018 316.084558 
L 483.084 320.328327 
L 498.15 324.85777 
L 519.2424 331.52862 
L 540.3348 338.449347 
L 567.4536 347.301699 
L 585.5328 353.037052 
L 603.612 358.504767 
L 618.678 362.836222 
L 630.7308 366.098986 
L 642.7836 369.172504 
L 654.8364 372.053444 
L 666.8892 374.720024 
L 678.942 377.16836 
L 690.9948 379.406221 
L 709.074 382.52791 
L 748.2456 389.092287 
L 760.2984 391.48235 
L 772.3512 394.116881 
L 784.404 397.050266 
L 796.4568 400.282784 
L 805.4964 402.922365 
L 814.536 405.809465 
L 823.5756 408.948525 
L 832.6152 412.339545 
L 844.668 417.203556 
L 856.7208 422.280539 
L 868.7736 427.552597 
L 871.7868 428.901274 
L 871.7868 428.901274 
" clip-path="url(#p69f0dca0c8)" style="fill: none; stroke-dasharray: 3.7,1.6; stroke-dashoffset: 0; stroke: #0000ff"/>
   </g>
   <g id="line2d_111">
    <path d="M 121.5 296.705974 
L 148.6188 295.664669 
L 172.7244 294.948547 
L 196.83 294.434569 
L 220.9356 294.128684 
L 245.0412 294.038012 
L 269.1468 294.17089 
L 293.2524 294.536918 
L 317.358 295.147002 
L 338.4504 295.890628 
L 359.5428 296.839558 
L 380.6352 298.003718 
L 401.7276 299.393896 
L 422.82 301.02177 
L 443.9124 302.899922 
L 461.9916 304.719189 
L 480.0708 306.741318 
L 498.15 308.975905 
L 516.2292 311.43308 
L 534.3084 314.123522 
L 552.3876 317.058465 
L 570.4668 320.249715 
L 585.5328 323.113794 
L 600.5988 326.171928 
L 615.6648 329.431885 
L 630.7308 332.901721 
L 645.7968 336.589793 
L 660.8628 340.504757 
L 675.9288 344.655574 
L 690.9948 349.051515 
L 706.0608 353.702166 
L 721.1268 358.617429 
L 736.1928 363.807529 
L 751.2588 369.283018 
L 763.3116 373.876191 
L 775.3644 378.664696 
L 787.4172 383.6544 
L 799.47 388.851305 
L 811.5228 394.261558 
L 823.5756 399.891447 
L 835.6284 405.747405 
L 847.6812 411.83601 
L 859.734 418.163987 
L 871.7868 424.738211 
L 871.7868 424.738211 
" clip-path="url(#p69f0dca0c8)" style="fill: none; stroke-dasharray: 3.7,1.6; stroke-dashoffset: 0; stroke: #000000"/>
   </g>
   <g id="line2d_112">
    <path d="M 121.5 277.234799 
L 151.632 276.606824 
L 181.764 276.215678 
L 208.8828 276.080521 
L 236.0016 276.165979 
L 263.1204 276.488582 
L 287.226 276.989282 
L 311.3316 277.706119 
L 335.4372 278.65455 
L 356.5296 279.687509 
L 377.622 280.922542 
L 398.7144 282.372392 
L 419.8068 284.050565 
L 440.8992 285.971344 
L 458.9784 287.82222 
L 477.0576 289.872348 
L 495.1368 292.132115 
L 513.216 294.612347 
L 531.2952 297.324314 
L 549.3744 300.279736 
L 567.4536 303.490783 
L 582.5196 306.371023 
L 597.5856 309.445098 
L 612.6516 312.720787 
L 627.7176 316.206096 
L 642.7836 319.90926 
L 657.8496 323.838746 
L 672.9156 328.003253 
L 687.9816 332.411713 
L 703.0476 337.073297 
L 718.1136 341.997413 
L 733.1796 347.193711 
L 748.2456 352.672081 
L 763.3116 358.442659 
L 775.3644 363.276479 
L 787.4172 368.309381 
L 799.47 373.546898 
L 811.5228 378.994663 
L 823.5756 384.658415 
L 835.6284 390.543996 
L 847.6812 396.657353 
L 859.734 403.004539 
L 871.7868 409.591713 
L 871.7868 409.591713 
" clip-path="url(#p69f0dca0c8)" style="fill: none; stroke: #00ffff; stroke-width: 3; stroke-linecap: square"/>
   </g>
   <g id="line2d_113">
    <path d="M 121.5 270.418394 
L 154.6452 269.765291 
L 184.7772 269.390577 
L 214.9092 269.244719 
L 242.028 269.327769 
L 269.1468 269.633078 
L 293.2524 270.107652 
L 317.358 270.789892 
L 341.4636 271.696902 
L 365.5692 272.847096 
L 386.6616 274.068486 
L 407.754 275.505226 
L 428.8464 277.172182 
L 449.9388 279.085027 
L 468.018 280.932794 
L 486.0972 282.984184 
L 504.1764 285.250514 
L 522.2556 287.743556 
L 540.3348 290.475541 
L 558.414 293.459161 
L 576.4932 296.707578 
L 591.5592 299.626688 
L 606.6252 302.747286 
L 621.6912 306.077743 
L 636.7572 309.626665 
L 651.8232 313.402893 
L 666.8892 317.415505 
L 681.9552 321.673815 
L 697.0212 326.187378 
L 712.0872 330.965992 
L 727.1532 336.019696 
L 742.2192 341.358776 
L 754.272 345.84258 
L 766.3248 350.521268 
L 778.3776 355.400448 
L 790.4304 360.485834 
L 802.4832 365.783241 
L 814.536 371.298589 
L 826.5888 377.037902 
L 838.6416 383.007311 
L 850.6944 389.213052 
L 862.7472 395.661465 
L 871.7868 400.660905 
L 871.7868 400.660905 
" clip-path="url(#p69f0dca0c8)" style="fill: none; stroke-dasharray: 3.7,1.6; stroke-dashoffset: 0; stroke: #ffc0cb"/>
   </g>
   <g id="line2d_114">
    <path d="M 121.5 299.777535 
L 151.632 299.151799 
L 178.7508 298.803814 
L 205.8696 298.680249 
L 229.9752 298.816954 
L 251.0676 299.162038 
L 272.16 299.762412 
L 290.2392 300.517958 
L 308.3184 301.535313 
L 323.3844 302.609193 
L 338.4504 303.928651 
L 353.5164 305.498819 
L 365.5692 306.966095 
L 377.622 308.628444 
L 389.6748 310.488505 
L 401.7276 312.575828 
L 413.7804 314.898045 
L 425.8332 317.455573 
L 437.886 320.263534 
L 449.9388 323.327616 
L 461.9916 326.64782 
L 474.0444 330.204445 
L 486.0972 333.985141 
L 498.15 337.990187 
L 513.216 343.239435 
L 528.282 348.694996 
L 552.3876 357.736651 
L 594.5724 373.524965 
L 612.6516 379.986088 
L 627.7176 385.161386 
L 642.7836 390.118717 
L 657.8496 394.851559 
L 672.9156 399.332719 
L 687.9816 403.5597 
L 709.074 409.206062 
L 739.206 417.163459 
L 751.2588 420.73146 
L 763.3116 424.58361 
L 772.3512 427.689371 
L 781.3908 431.000335 
L 790.4304 434.516918 
L 799.47 438.238981 
L 814.536 444.737621 
L 829.602 451.484336 
L 853.7076 462.409859 
L 865.7604 467.539982 
L 871.7868 470.012015 
L 871.7868 470.012015 
" clip-path="url(#p69f0dca0c8)" style="fill: none; stroke: #a52a2a; stroke-width: 3; stroke-linecap: square"/>
   </g>
   <g id="line2d_115">
    <path d="M 121.5 95.0832 
L 136.566 101.460164 
L 145.6056 105.429516 
L 148.6188 107.074524 
L 163.6848 114.018106 
L 178.7508 121.220254 
L 193.8168 128.658172 
L 211.896 137.858446 
L 229.9752 147.314938 
L 251.0676 158.612636 
L 275.1732 171.798018 
L 302.292 186.889323 
L 335.4372 205.588829 
L 380.6352 231.365121 
L 446.9256 269.462143 
L 570.4668 340.771491 
L 871.7868 514.889552 
L 871.7868 514.889552 
" clip-path="url(#p69f0dca0c8)" style="fill: none; stroke-dasharray: 2,3.3; stroke-dashoffset: 0; stroke: #000000; stroke-width: 2"/>
   </g>
   <g id="line2d_116">
    <path d="M 121.5 103.552908 
L 136.566 110.079421 
L 151.632 116.878109 
L 166.698 123.93925 
L 181.764 131.245719 
L 196.83 138.775369 
L 214.9092 148.070503 
L 232.9884 157.60722 
L 254.0808 168.982978 
L 278.1864 182.241229 
L 308.3184 199.095534 
L 344.4768 219.596836 
L 392.688 247.207569 
L 465.0048 288.906855 
L 609.6384 372.616817 
L 871.7868 524.4912 
L 871.7868 524.4912 
" clip-path="url(#p69f0dca0c8)" style="fill: none; stroke-dasharray: 7.4,3.2; stroke-dashoffset: 0; stroke: #000000; stroke-width: 2"/>
   </g>
   <g id="patch_3">
    <path d="M 121.5 545.9616 
L 121.5 73.6128 
" style="fill: none; stroke: #000000; stroke-width: 0.8; stroke-linejoin: miter; stroke-linecap: square"/>
   </g>
   <g id="patch_4">
    <path d="M 874.8 545.9616 
L 874.8 73.6128 
" style="fill: none; stroke: #000000; stroke-width: 0.8; stroke-linejoin: miter; stroke-linecap: square"/>
   </g>
   <g id="patch_5">
    <path d="M 121.5 545.9616 
L 874.8 545.9616 
" style="fill: none; stroke: #000000; stroke-width: 0.8; stroke-linejoin: miter; stroke-linecap: square"/>
   </g>
   <g id="patch_6">
    <path d="M 121.5 73.6128 
L 874.8 73.6128 
" style="fill: none; stroke: #000000; stroke-width: 0.8; stroke-linejoin: miter; stroke-linecap: square"/>
   </g>
   <g id="legend_1">
    <g id="patch_7">
     <path d="M 130.6 539.4616 
L 299.577656 539.4616 
Q 302.177656 539.4616 302.177656 536.8616 
L 302.177656 363.8966 
Q 302.177656 361.2966 299.577656 361.2966 
L 130.6 361.2966 
Q 128 361.2966 128 363.8966 
L 128 536.8616 
Q 128 539.4616 130.6 539.4616 
z
" style="fill: #ffffff; opacity: 0.8; stroke: #cccccc; stroke-linejoin: miter"/>
    </g>
    <g id="line2d_117">
     <path d="M 133.2 371.824569 
L 146.2 371.824569 
L 159.2 371.824569 
" style="fill: none; stroke-dasharray: 3.7,1.6; stroke-dashoffset: 0; stroke: #ff0000"/>
    </g>
    <g id="text_16">
     <!-- BERSS_H3p_lower -->
     <g transform="translate(169.6 376.374569)scale(0.13 -0.13)">
      <defs>
       <path id="DejaVuSans-42" d="M 1259 2228 
L 1259 519 
L 2272 519 
Q 2781 519 3026 730 
Q 3272 941 3272 1375 
Q 3272 1813 3026 2020 
Q 2781 2228 2272 2228 
L 1259 2228 
z
M 1259 4147 
L 1259 2741 
L 2194 2741 
Q 2656 2741 2882 2914 
Q 3109 3088 3109 3444 
Q 3109 3797 2882 3972 
Q 2656 4147 2194 4147 
L 1259 4147 
z
M 628 4666 
L 2241 4666 
Q 2963 4666 3353 4366 
Q 3744 4066 3744 3513 
Q 3744 3084 3544 2831 
Q 3344 2578 2956 2516 
Q 3422 2416 3680 2098 
Q 3938 1781 3938 1306 
Q 3938 681 3513 340 
Q 3088 0 2303 0 
L 628 0 
L 628 4666 
z
" transform="scale(0.015625)"/>
       <path id="DejaVuSans-52" d="M 2841 2188 
Q 3044 2119 3236 1894 
Q 3428 1669 3622 1275 
L 4263 0 
L 3584 0 
L 2988 1197 
Q 2756 1666 2539 1819 
Q 2322 1972 1947 1972 
L 1259 1972 
L 1259 0 
L 628 0 
L 628 4666 
L 2053 4666 
Q 2853 4666 3247 4331 
Q 3641 3997 3641 3322 
Q 3641 2881 3436 2590 
Q 3231 2300 2841 2188 
z
M 1259 4147 
L 1259 2491 
L 2053 2491 
Q 2509 2491 2742 2702 
Q 2975 2913 2975 3322 
Q 2975 3731 2742 3939 
Q 2509 4147 2053 4147 
L 1259 4147 
z
" transform="scale(0.015625)"/>
       <path id="DejaVuSans-53" d="M 3425 4513 
L 3425 3897 
Q 3066 4069 2747 4153 
Q 2428 4238 2131 4238 
Q 1616 4238 1336 4038 
Q 1056 3838 1056 3469 
Q 1056 3159 1242 3001 
Q 1428 2844 1947 2747 
L 2328 2669 
Q 3034 2534 3370 2195 
Q 3706 1856 3706 1288 
Q 3706 609 3251 259 
Q 2797 -91 1919 -91 
Q 1588 -91 1214 -16 
Q 841 59 441 206 
L 441 856 
Q 825 641 1194 531 
Q 1563 422 1919 422 
Q 2459 422 2753 634 
Q 3047 847 3047 1241 
Q 3047 1584 2836 1778 
Q 2625 1972 2144 2069 
L 1759 2144 
Q 1053 2284 737 2584 
Q 422 2884 422 3419 
Q 422 4038 858 4394 
Q 1294 4750 2059 4750 
Q 2388 4750 2728 4690 
Q 3069 4631 3425 4513 
z
" transform="scale(0.015625)"/>
       <path id="DejaVuSans-5f" d="M 3263 -1063 
L 3263 -1509 
L -63 -1509 
L -63 -1063 
L 3263 -1063 
z
" transform="scale(0.015625)"/>
       <path id="DejaVuSans-48" d="M 628 4666 
L 1259 4666 
L 1259 2753 
L 3553 2753 
L 3553 4666 
L 4184 4666 
L 4184 0 
L 3553 0 
L 3553 2222 
L 1259 2222 
L 1259 0 
L 628 0 
L 628 4666 
z
" transform="scale(0.015625)"/>
       <path id="DejaVuSans-70" d="M 1159 525 
L 1159 -1331 
L 581 -1331 
L 581 3500 
L 1159 3500 
L 1159 2969 
Q 1341 3281 1617 3432 
Q 1894 3584 2278 3584 
Q 2916 3584 3314 3078 
Q 3713 2572 3713 1747 
Q 3713 922 3314 415 
Q 2916 -91 2278 -91 
Q 1894 -91 1617 61 
Q 1341 213 1159 525 
z
M 3116 1747 
Q 3116 2381 2855 2742 
Q 2594 3103 2138 3103 
Q 1681 3103 1420 2742 
Q 1159 2381 1159 1747 
Q 1159 1113 1420 752 
Q 1681 391 2138 391 
Q 2594 391 2855 752 
Q 3116 1113 3116 1747 
z
" transform="scale(0.015625)"/>
       <path id="DejaVuSans-6c" d="M 603 4863 
L 1178 4863 
L 1178 0 
L 603 0 
L 603 4863 
z
" transform="scale(0.015625)"/>
       <path id="DejaVuSans-6f" d="M 1959 3097 
Q 1497 3097 1228 2736 
Q 959 2375 959 1747 
Q 959 1119 1226 758 
Q 1494 397 1959 397 
Q 2419 397 2687 759 
Q 2956 1122 2956 1747 
Q 2956 2369 2687 2733 
Q 2419 3097 1959 3097 
z
M 1959 3584 
Q 2709 3584 3137 3096 
Q 3566 2609 3566 1747 
Q 3566 888 3137 398 
Q 2709 -91 1959 -91 
Q 1206 -91 779 398 
Q 353 888 353 1747 
Q 353 2609 779 3096 
Q 1206 3584 1959 3584 
z
" transform="scale(0.015625)"/>
       <path id="DejaVuSans-77" d="M 269 3500 
L 844 3500 
L 1563 769 
L 2278 3500 
L 2956 3500 
L 3675 769 
L 4391 3500 
L 4966 3500 
L 4050 0 
L 3372 0 
L 2619 2869 
L 1863 0 
L 1184 0 
L 269 3500 
z
" transform="scale(0.015625)"/>
      </defs>
      <use xlink:href="#DejaVuSans-42"/>
      <use xlink:href="#DejaVuSans-45" x="68.603516"/>
      <use xlink:href="#DejaVuSans-52" x="131.787109"/>
      <use xlink:href="#DejaVuSans-53" x="201.269531"/>
      <use xlink:href="#DejaVuSans-53" x="264.746094"/>
      <use xlink:href="#DejaVuSans-5f" x="328.222656"/>
      <use xlink:href="#DejaVuSans-48" x="378.222656"/>
      <use xlink:href="#DejaVuSans-33" x="453.417969"/>
      <use xlink:href="#DejaVuSans-70" x="517.041016"/>
      <use xlink:href="#DejaVuSans-5f" x="580.517578"/>
      <use xlink:href="#DejaVuSans-6c" x="630.517578"/>
      <use xlink:href="#DejaVuSans-6f" x="658.300781"/>
      <use xlink:href="#DejaVuSans-77" x="719.482422"/>
      <use xlink:href="#DejaVuSans-65" x="801.269531"/>
      <use xlink:href="#DejaVuSans-72" x="862.792969"/>
     </g>
    </g>
    <g id="line2d_118">
     <path d="M 133.2 391.267694 
L 146.2 391.267694 
L 159.2 391.267694 
" style="fill: none; stroke: #008000; stroke-width: 3; stroke-linecap: square"/>
    </g>
    <g id="text_17">
     <!-- BERSS_H3p_central -->
     <g transform="translate(169.6 395.817694)scale(0.13 -0.13)">
      <defs>
       <path id="DejaVuSans-63" d="M 3122 3366 
L 3122 2828 
Q 2878 2963 2633 3030 
Q 2388 3097 2138 3097 
Q 1578 3097 1268 2742 
Q 959 2388 959 1747 
Q 959 1106 1268 751 
Q 1578 397 2138 397 
Q 2388 397 2633 464 
Q 2878 531 3122 666 
L 3122 134 
Q 2881 22 2623 -34 
Q 2366 -91 2075 -91 
Q 1284 -91 818 406 
Q 353 903 353 1747 
Q 353 2603 823 3093 
Q 1294 3584 2113 3584 
Q 2378 3584 2631 3529 
Q 2884 3475 3122 3366 
z
" transform="scale(0.015625)"/>
       <path id="DejaVuSans-74" d="M 1172 4494 
L 1172 3500 
L 2356 3500 
L 2356 3053 
L 1172 3053 
L 1172 1153 
Q 1172 725 1289 603 
Q 1406 481 1766 481 
L 2356 481 
L 2356 0 
L 1766 0 
Q 1100 0 847 248 
Q 594 497 594 1153 
L 594 3053 
L 172 3053 
L 172 3500 
L 594 3500 
L 594 4494 
L 1172 4494 
z
" transform="scale(0.015625)"/>
       <path id="DejaVuSans-61" d="M 2194 1759 
Q 1497 1759 1228 1600 
Q 959 1441 959 1056 
Q 959 750 1161 570 
Q 1363 391 1709 391 
Q 2188 391 2477 730 
Q 2766 1069 2766 1631 
L 2766 1759 
L 2194 1759 
z
M 3341 1997 
L 3341 0 
L 2766 0 
L 2766 531 
Q 2569 213 2275 61 
Q 1981 -91 1556 -91 
Q 1019 -91 701 211 
Q 384 513 384 1019 
Q 384 1609 779 1909 
Q 1175 2209 1959 2209 
L 2766 2209 
L 2766 2266 
Q 2766 2663 2505 2880 
Q 2244 3097 1772 3097 
Q 1472 3097 1187 3025 
Q 903 2953 641 2809 
L 641 3341 
Q 956 3463 1253 3523 
Q 1550 3584 1831 3584 
Q 2591 3584 2966 3190 
Q 3341 2797 3341 1997 
z
" transform="scale(0.015625)"/>
      </defs>
      <use xlink:href="#DejaVuSans-42"/>
      <use xlink:href="#DejaVuSans-45" x="68.603516"/>
      <use xlink:href="#DejaVuSans-52" x="131.787109"/>
      <use xlink:href="#DejaVuSans-53" x="201.269531"/>
      <use xlink:href="#DejaVuSans-53" x="264.746094"/>
      <use xlink:href="#DejaVuSans-5f" x="328.222656"/>
      <use xlink:href="#DejaVuSans-48" x="378.222656"/>
      <use xlink:href="#DejaVuSans-33" x="453.417969"/>
      <use xlink:href="#DejaVuSans-70" x="517.041016"/>
      <use xlink:href="#DejaVuSans-5f" x="580.517578"/>
      <use xlink:href="#DejaVuSans-63" x="630.517578"/>
      <use xlink:href="#DejaVuSans-65" x="685.498047"/>
      <use xlink:href="#DejaVuSans-6e" x="747.021484"/>
      <use xlink:href="#DejaVuSans-74" x="810.400391"/>
      <use xlink:href="#DejaVuSans-72" x="849.609375"/>
      <use xlink:href="#DejaVuSans-61" x="890.722656"/>
      <use xlink:href="#DejaVuSans-6c" x="952.001953"/>
     </g>
    </g>
    <g id="line2d_119">
     <path d="M 133.2 410.710819 
L 146.2 410.710819 
L 159.2 410.710819 
" style="fill: none; stroke-dasharray: 3.7,1.6; stroke-dashoffset: 0; stroke: #0000ff"/>
    </g>
    <g id="text_18">
     <!-- BERSS_H3p_upper -->
     <g transform="translate(169.6 415.260819)scale(0.13 -0.13)">
      <defs>
       <path id="DejaVuSans-75" d="M 544 1381 
L 544 3500 
L 1119 3500 
L 1119 1403 
Q 1119 906 1312 657 
Q 1506 409 1894 409 
Q 2359 409 2629 706 
Q 2900 1003 2900 1516 
L 2900 3500 
L 3475 3500 
L 3475 0 
L 2900 0 
L 2900 538 
Q 2691 219 2414 64 
Q 2138 -91 1772 -91 
Q 1169 -91 856 284 
Q 544 659 544 1381 
z
M 1991 3584 
L 1991 3584 
z
" transform="scale(0.015625)"/>
      </defs>
      <use xlink:href="#DejaVuSans-42"/>
      <use xlink:href="#DejaVuSans-45" x="68.603516"/>
      <use xlink:href="#DejaVuSans-52" x="131.787109"/>
      <use xlink:href="#DejaVuSans-53" x="201.269531"/>
      <use xlink:href="#DejaVuSans-53" x="264.746094"/>
      <use xlink:href="#DejaVuSans-5f" x="328.222656"/>
      <use xlink:href="#DejaVuSans-48" x="378.222656"/>
      <use xlink:href="#DejaVuSans-33" x="453.417969"/>
      <use xlink:href="#DejaVuSans-70" x="517.041016"/>
      <use xlink:href="#DejaVuSans-5f" x="580.517578"/>
      <use xlink:href="#DejaVuSans-75" x="630.517578"/>
      <use xlink:href="#DejaVuSans-70" x="693.896484"/>
      <use xlink:href="#DejaVuSans-70" x="757.373047"/>
      <use xlink:href="#DejaVuSans-65" x="820.849609"/>
      <use xlink:href="#DejaVuSans-72" x="882.373047"/>
     </g>
    </g>
    <g id="line2d_120">
     <path d="M 133.2 430.153944 
L 146.2 430.153944 
L 159.2 430.153944 
" style="fill: none; stroke-dasharray: 3.7,1.6; stroke-dashoffset: 0; stroke: #000000"/>
    </g>
    <g id="text_19">
     <!-- ERS_min -->
     <g transform="translate(169.6 434.703944)scale(0.13 -0.13)">
      <defs>
       <path id="DejaVuSans-6d" d="M 3328 2828 
Q 3544 3216 3844 3400 
Q 4144 3584 4550 3584 
Q 5097 3584 5394 3201 
Q 5691 2819 5691 2113 
L 5691 0 
L 5113 0 
L 5113 2094 
Q 5113 2597 4934 2840 
Q 4756 3084 4391 3084 
Q 3944 3084 3684 2787 
Q 3425 2491 3425 1978 
L 3425 0 
L 2847 0 
L 2847 2094 
Q 2847 2600 2669 2842 
Q 2491 3084 2119 3084 
Q 1678 3084 1418 2786 
Q 1159 2488 1159 1978 
L 1159 0 
L 581 0 
L 581 3500 
L 1159 3500 
L 1159 2956 
Q 1356 3278 1631 3431 
Q 1906 3584 2284 3584 
Q 2666 3584 2933 3390 
Q 3200 3197 3328 2828 
z
" transform="scale(0.015625)"/>
       <path id="DejaVuSans-69" d="M 603 3500 
L 1178 3500 
L 1178 0 
L 603 0 
L 603 3500 
z
M 603 4863 
L 1178 4863 
L 1178 4134 
L 603 4134 
L 603 4863 
z
" transform="scale(0.015625)"/>
      </defs>
      <use xlink:href="#DejaVuSans-45"/>
      <use xlink:href="#DejaVuSans-52" x="63.183594"/>
      <use xlink:href="#DejaVuSans-53" x="132.666016"/>
      <use xlink:href="#DejaVuSans-5f" x="196.142578"/>
      <use xlink:href="#DejaVuSans-6d" x="246.142578"/>
      <use xlink:href="#DejaVuSans-69" x="343.554688"/>
      <use xlink:href="#DejaVuSans-6e" x="371.337891"/>
     </g>
    </g>
    <g id="line2d_121">
     <path d="M 133.2 449.597069 
L 146.2 449.597069 
L 159.2 449.597069 
" style="fill: none; stroke: #00ffff; stroke-width: 3; stroke-linecap: square"/>
    </g>
    <g id="text_20">
     <!-- ERS_std -->
     <g transform="translate(169.6 454.147069)scale(0.13 -0.13)">
      <defs>
       <path id="DejaVuSans-73" d="M 2834 3397 
L 2834 2853 
Q 2591 2978 2328 3040 
Q 2066 3103 1784 3103 
Q 1356 3103 1142 2972 
Q 928 2841 928 2578 
Q 928 2378 1081 2264 
Q 1234 2150 1697 2047 
L 1894 2003 
Q 2506 1872 2764 1633 
Q 3022 1394 3022 966 
Q 3022 478 2636 193 
Q 2250 -91 1575 -91 
Q 1294 -91 989 -36 
Q 684 19 347 128 
L 347 722 
Q 666 556 975 473 
Q 1284 391 1588 391 
Q 1994 391 2212 530 
Q 2431 669 2431 922 
Q 2431 1156 2273 1281 
Q 2116 1406 1581 1522 
L 1381 1569 
Q 847 1681 609 1914 
Q 372 2147 372 2553 
Q 372 3047 722 3315 
Q 1072 3584 1716 3584 
Q 2034 3584 2315 3537 
Q 2597 3491 2834 3397 
z
" transform="scale(0.015625)"/>
       <path id="DejaVuSans-64" d="M 2906 2969 
L 2906 4863 
L 3481 4863 
L 3481 0 
L 2906 0 
L 2906 525 
Q 2725 213 2448 61 
Q 2172 -91 1784 -91 
Q 1150 -91 751 415 
Q 353 922 353 1747 
Q 353 2572 751 3078 
Q 1150 3584 1784 3584 
Q 2172 3584 2448 3432 
Q 2725 3281 2906 2969 
z
M 947 1747 
Q 947 1113 1208 752 
Q 1469 391 1925 391 
Q 2381 391 2643 752 
Q 2906 1113 2906 1747 
Q 2906 2381 2643 2742 
Q 2381 3103 1925 3103 
Q 1469 3103 1208 2742 
Q 947 2381 947 1747 
z
" transform="scale(0.015625)"/>
      </defs>
      <use xlink:href="#DejaVuSans-45"/>
      <use xlink:href="#DejaVuSans-52" x="63.183594"/>
      <use xlink:href="#DejaVuSans-53" x="132.666016"/>
      <use xlink:href="#DejaVuSans-5f" x="196.142578"/>
      <use xlink:href="#DejaVuSans-73" x="246.142578"/>
      <use xlink:href="#DejaVuSans-74" x="298.242188"/>
      <use xlink:href="#DejaVuSans-64" x="337.451172"/>
     </g>
    </g>
    <g id="line2d_122">
     <path d="M 133.2 469.040194 
L 146.2 469.040194 
L 159.2 469.040194 
" style="fill: none; stroke-dasharray: 3.7,1.6; stroke-dashoffset: 0; stroke: #ffc0cb"/>
    </g>
    <g id="text_21">
     <!-- ERS_max -->
     <g transform="translate(169.6 473.590194)scale(0.13 -0.13)">
      <defs>
       <path id="DejaVuSans-78" d="M 3513 3500 
L 2247 1797 
L 3578 0 
L 2900 0 
L 1881 1375 
L 863 0 
L 184 0 
L 1544 1831 
L 300 3500 
L 978 3500 
L 1906 2253 
L 2834 3500 
L 3513 3500 
z
" transform="scale(0.015625)"/>
      </defs>
      <use xlink:href="#DejaVuSans-45"/>
      <use xlink:href="#DejaVuSans-52" x="63.183594"/>
      <use xlink:href="#DejaVuSans-53" x="132.666016"/>
      <use xlink:href="#DejaVuSans-5f" x="196.142578"/>
      <use xlink:href="#DejaVuSans-6d" x="246.142578"/>
      <use xlink:href="#DejaVuSans-61" x="343.554688"/>
      <use xlink:href="#DejaVuSans-78" x="404.833984"/>
     </g>
    </g>
    <g id="line2d_123">
     <path d="M 133.2 488.483319 
L 146.2 488.483319 
L 159.2 488.483319 
" style="fill: none; stroke: #a52a2a; stroke-width: 3; stroke-linecap: square"/>
    </g>
    <g id="text_22">
     <!-- BERSS_H3a_central -->
     <g transform="translate(169.6 493.033319)scale(0.13 -0.13)">
      <use xlink:href="#DejaVuSans-42"/>
      <use xlink:href="#DejaVuSans-45" x="68.603516"/>
      <use xlink:href="#DejaVuSans-52" x="131.787109"/>
      <use xlink:href="#DejaVuSans-53" x="201.269531"/>
      <use xlink:href="#DejaVuSans-53" x="264.746094"/>
      <use xlink:href="#DejaVuSans-5f" x="328.222656"/>
      <use xlink:href="#DejaVuSans-48" x="378.222656"/>
      <use xlink:href="#DejaVuSans-33" x="453.417969"/>
      <use xlink:href="#DejaVuSans-61" x="517.041016"/>
      <use xlink:href="#DejaVuSans-5f" x="578.320312"/>
      <use xlink:href="#DejaVuSans-63" x="628.320312"/>
      <use xlink:href="#DejaVuSans-65" x="683.300781"/>
      <use xlink:href="#DejaVuSans-6e" x="744.824219"/>
      <use xlink:href="#DejaVuSans-74" x="808.203125"/>
      <use xlink:href="#DejaVuSans-72" x="847.412109"/>
      <use xlink:href="#DejaVuSans-61" x="888.525391"/>
      <use xlink:href="#DejaVuSans-6c" x="949.804688"/>
     </g>
    </g>
    <g id="line2d_124">
     <path d="M 133.2 507.926444 
L 146.2 507.926444 
L 159.2 507.926444 
" style="fill: none; stroke-dasharray: 2,3.3; stroke-dashoffset: 0; stroke: #000000; stroke-width: 2"/>
    </g>
    <g id="text_23">
     <!-- Bartol -->
     <g transform="translate(169.6 512.476444)scale(0.13 -0.13)">
      <use xlink:href="#DejaVuSans-42"/>
      <use xlink:href="#DejaVuSans-61" x="68.603516"/>
      <use xlink:href="#DejaVuSans-72" x="129.882812"/>
      <use xlink:href="#DejaVuSans-74" x="170.996094"/>
      <use xlink:href="#DejaVuSans-6f" x="210.205078"/>
      <use xlink:href="#DejaVuSans-6c" x="271.386719"/>
     </g>
    </g>
    <g id="line2d_125">
     <path d="M 133.2 527.008006 
L 146.2 527.008006 
L 159.2 527.008006 
" style="fill: none; stroke-dasharray: 7.4,3.2; stroke-dashoffset: 0; stroke: #000000; stroke-width: 2"/>
    </g>
    <g id="text_24">
     <!-- Honda et al. -->
     <g transform="translate(169.6 531.558006)scale(0.13 -0.13)">
      <defs>
       <path id="DejaVuSans-20" transform="scale(0.015625)"/>
      </defs>
      <use xlink:href="#DejaVuSans-48"/>
      <use xlink:href="#DejaVuSans-6f" x="75.195312"/>
      <use xlink:href="#DejaVuSans-6e" x="136.376953"/>
      <use xlink:href="#DejaVuSans-64" x="199.755859"/>
      <use xlink:href="#DejaVuSans-61" x="263.232422"/>
      <use xlink:href="#DejaVuSans-20" x="324.511719"/>
      <use xlink:href="#DejaVuSans-65" x="356.298828"/>
      <use xlink:href="#DejaVuSans-74" x="417.822266"/>
      <use xlink:href="#DejaVuSans-20" x="457.03125"/>
      <use xlink:href="#DejaVuSans-61" x="488.818359"/>
      <use xlink:href="#DejaVuSans-6c" x="550.097656"/>
      <use xlink:href="#DejaVuSans-2e" x="577.880859"/>
     </g>
    </g>
   </g>
  </g>
 </g>
 <defs>
  <clipPath id="p69f0dca0c8">
   <rect x="121.5" y="73.6128" width="753.3" height="472.3488"/>
  </clipPath>
 </defs>
</svg>
