<?xml version="1.0" encoding="utf-8" standalone="no"?>
<!DOCTYPE svg PUBLIC "-//W3C//DTD SVG 1.1//EN"
  "http://www.w3.org/Graphics/SVG/1.1/DTD/svg11.dtd">
<svg xmlns:xlink="http://www.w3.org/1999/xlink" width="669.6pt" height="500.4pt" viewBox="0 0 669.6 500.4" xmlns="http://www.w3.org/2000/svg" version="1.1">
 <metadata>
  <rdf:RDF xmlns:dc="http://purl.org/dc/elements/1.1/" xmlns:cc="http://creativecommons.org/ns#" xmlns:rdf="http://www.w3.org/1999/02/22-rdf-syntax-ns#">
   <cc:Work>
    <dc:type rdf:resource="http://purl.org/dc/dcmitype/StillImage"/>
    <dc:date>2022-02-04T14:24:52.826066</dc:date>
    <dc:format>image/svg+xml</dc:format>
    <dc:creator>
     <cc:Agent>
      <dc:title>Matplotlib v3.5.0, https://matplotlib.org/</dc:title>
     </cc:Agent>
    </dc:creator>
   </cc:Work>
  </rdf:RDF>
 </metadata>
 <defs>
  <style type="text/css">*{stroke-linejoin: round; stroke-linecap: butt}</style>
 </defs>
 <g id="figure_1">
  <g id="patch_1">
   <path d="M 0 500.4 
L 669.6 500.4 
L 669.6 0 
L 0 0 
z
" style="fill: #ffffff"/>
  </g>
  <g id="axes_1">
   <g id="patch_2">
    <path d="M 83.7 445.356 
L 602.64 445.356 
L 602.64 60.048 
L 83.7 60.048 
z
" style="fill: #ffffff"/>
   </g>
   <g id="PolyCollection_1">
    <path d="M 83.7 125.475565 
L 83.7 79.611718 
L 85.77576 79.490948 
L 87.85152 79.37353 
L 89.92728 79.259492 
L 92.00304 79.148861 
L 94.0788 79.041664 
L 96.15456 78.937931 
L 98.23032 78.83769 
L 100.30608 78.740972 
L 102.38184 78.647805 
L 104.4576 78.558221 
L 106.53336 78.472251 
L 108.60912 78.389926 
L 110.68488 78.311278 
L 112.76064 78.23634 
L 114.8364 78.165145 
L 116.91216 78.097726 
L 118.98792 78.034118 
L 121.06368 77.974354 
L 123.13944 77.918471 
L 125.2152 77.866504 
L 127.29096 77.818489 
L 129.36672 77.774462 
L 131.44248 77.734462 
L 133.51824 77.698524 
L 135.594 77.666688 
L 137.66976 77.638993 
L 139.74552 77.615477 
L 141.82128 77.59618 
L 143.89704 77.581143 
L 145.9728 77.570406 
L 148.04856 77.564011 
L 150.12432 77.562 
L 152.20008 77.564414 
L 154.27584 77.571298 
L 156.3516 77.582693 
L 158.42736 77.598644 
L 160.50312 77.619196 
L 162.57888 77.644394 
L 164.65464 77.674283 
L 166.7304 77.708909 
L 168.80616 77.748318 
L 170.88192 77.792559 
L 172.95768 77.841678 
L 175.03344 77.895724 
L 177.1092 77.954746 
L 179.18496 78.018792 
L 181.26072 78.087913 
L 183.33648 78.162158 
L 185.41224 78.24158 
L 187.488 78.326228 
L 189.56376 78.416156 
L 191.63952 78.511416 
L 193.71528 78.612061 
L 195.79104 78.718144 
L 197.8668 78.829719 
L 199.94256 78.946842 
L 202.01832 79.069567 
L 204.09408 79.19795 
L 206.16984 79.332048 
L 208.2456 79.471918 
L 210.32136 79.617617 
L 212.39712 79.769202 
L 214.47288 79.926733 
L 216.54864 80.090269 
L 218.6244 80.259869 
L 220.70016 80.435593 
L 222.77592 80.617503 
L 224.85168 80.805659 
L 226.92744 81.000124 
L 229.0032 81.20096 
L 231.07896 81.40823 
L 233.15472 81.621997 
L 235.23048 81.842326 
L 237.30624 82.069282 
L 239.382 82.302929 
L 241.45776 82.543334 
L 243.53352 82.790562 
L 245.60928 83.044682 
L 247.68504 83.30576 
L 249.7608 83.573865 
L 251.83656 83.849065 
L 253.91232 84.131429 
L 255.98808 84.421028 
L 258.06384 84.717931 
L 260.1396 85.02221 
L 262.21536 85.333937 
L 264.29112 85.653183 
L 266.36688 85.980021 
L 268.44264 86.314524 
L 270.5184 86.656767 
L 272.59416 87.006823 
L 274.66992 87.364768 
L 276.74568 87.730678 
L 278.82144 88.104628 
L 280.8972 88.486696 
L 282.97296 88.876958 
L 285.04872 89.275493 
L 287.12448 89.682379 
L 289.20024 90.097695 
L 291.276 90.521522 
L 293.35176 90.953939 
L 295.42752 91.395027 
L 297.50328 91.844868 
L 299.57904 92.303544 
L 301.6548 92.771137 
L 303.73056 93.247732 
L 305.80632 93.733411 
L 307.88208 94.228259 
L 309.95784 94.732361 
L 312.0336 95.245804 
L 314.10936 95.768672 
L 316.18512 96.301054 
L 318.26088 96.843036 
L 320.33664 97.394706 
L 322.4124 97.956154 
L 324.48816 98.527469 
L 326.56392 99.10874 
L 328.63968 99.700058 
L 330.71544 100.301514 
L 332.7912 100.913199 
L 334.86696 101.535207 
L 336.94272 102.16763 
L 339.01848 102.810561 
L 341.09424 103.464096 
L 343.17 104.128327 
L 345.24576 104.803352 
L 347.32152 105.489265 
L 349.39728 106.186164 
L 351.47304 106.894146 
L 353.5488 107.613308 
L 355.62456 108.34375 
L 357.70032 109.085569 
L 359.77608 109.838867 
L 361.85184 110.603742 
L 363.9276 111.380297 
L 366.00336 112.168633 
L 368.07912 112.968852 
L 370.15488 113.781056 
L 372.23064 114.60535 
L 374.3064 115.441837 
L 376.38216 116.290623 
L 378.45792 117.151811 
L 380.53368 118.02551 
L 382.60944 118.911824 
L 384.6852 119.810862 
L 386.76096 120.72273 
L 388.83672 121.647539 
L 390.91248 122.585396 
L 392.98824 123.536413 
L 395.064 124.500698 
L 397.13976 125.478363 
L 399.21552 126.46952 
L 401.29128 127.474282 
L 403.36704 128.492761 
L 405.4428 129.52507 
L 407.51856 130.571325 
L 409.59432 131.63164 
L 411.67008 132.70613 
L 413.74584 133.794912 
L 415.8216 134.898103 
L 417.89736 136.01582 
L 419.97312 137.148181 
L 422.04888 138.295306 
L 424.12464 139.457313 
L 426.2004 140.634323 
L 428.27616 141.826456 
L 430.35192 143.033835 
L 432.42768 144.25658 
L 434.50344 145.494815 
L 436.5792 146.748663 
L 438.65496 148.018249 
L 440.73072 149.303696 
L 442.80648 150.60513 
L 444.88224 151.922678 
L 446.958 153.256466 
L 449.03376 154.606621 
L 451.10952 155.973271 
L 453.18528 157.356546 
L 455.26104 158.756574 
L 457.3368 160.173485 
L 459.41256 161.60741 
L 461.48832 163.058481 
L 463.56408 164.526829 
L 465.63984 166.012587 
L 467.7156 167.515889 
L 469.79136 169.036868 
L 471.86712 170.57566 
L 473.94288 172.132399 
L 476.01864 173.707222 
L 478.0944 175.300265 
L 480.17016 176.911666 
L 482.24592 178.541563 
L 484.32168 180.190095 
L 486.39744 181.857401 
L 488.4732 183.543621 
L 490.54896 185.248896 
L 492.62472 186.973368 
L 494.70048 188.717179 
L 496.77624 190.480471 
L 498.852 192.263389 
L 500.92776 194.066076 
L 503.00352 195.888678 
L 505.07928 197.731339 
L 507.15504 199.594207 
L 509.2308 201.477428 
L 511.30656 203.38115 
L 513.38232 205.305522 
L 515.45808 207.250692 
L 517.53384 209.21681 
L 519.6096 211.204027 
L 521.68536 213.212494 
L 523.76112 215.242363 
L 525.83688 217.293786 
L 527.91264 219.366917 
L 529.9884 221.461909 
L 532.06416 223.578918 
L 534.13992 225.718098 
L 536.21568 227.879606 
L 538.29144 230.063598 
L 540.3672 232.270233 
L 542.44296 234.499667 
L 544.51872 236.75206 
L 546.59448 239.027572 
L 548.67024 241.326363 
L 550.746 243.648594 
L 552.82176 245.994427 
L 554.89752 248.364024 
L 556.97328 250.757548 
L 559.04904 253.175164 
L 561.1248 255.617035 
L 563.20056 258.083327 
L 565.27632 260.574207 
L 567.35208 263.08984 
L 569.42784 265.630395 
L 571.5036 268.196039 
L 573.57936 270.786942 
L 575.65512 273.403273 
L 577.73088 276.045202 
L 579.80664 278.7129 
L 581.8824 281.40654 
L 583.95816 284.126294 
L 586.03392 286.872335 
L 588.10968 289.644837 
L 590.18544 292.443974 
L 592.2612 295.269923 
L 594.33696 298.122859 
L 596.41272 301.00296 
L 598.48848 303.910402 
L 600.56424 306.845365 
L 600.56424 348.852954 
L 600.56424 348.852954 
L 598.48848 345.944505 
L 596.41272 343.063479 
L 594.33696 340.209685 
L 592.2612 337.38293 
L 590.18544 334.583026 
L 588.10968 331.809783 
L 586.03392 329.063013 
L 583.95816 326.34253 
L 581.8824 323.648148 
L 579.80664 320.979682 
L 577.73088 318.336947 
L 575.65512 315.719762 
L 573.57936 313.127945 
L 571.5036 310.561314 
L 569.42784 308.01969 
L 567.35208 305.502893 
L 565.27632 303.010747 
L 563.20056 300.543074 
L 561.1248 298.099699 
L 559.04904 295.680446 
L 556.97328 293.285142 
L 554.89752 290.913613 
L 552.82176 288.565688 
L 550.746 286.241197 
L 548.67024 283.939968 
L 546.59448 281.661833 
L 544.51872 279.406625 
L 542.44296 277.174175 
L 540.3672 274.964318 
L 538.29144 272.776889 
L 536.21568 270.611723 
L 534.13992 268.468657 
L 532.06416 266.34753 
L 529.9884 264.248179 
L 527.91264 262.170445 
L 525.83688 260.114168 
L 523.76112 258.07919 
L 521.68536 256.065352 
L 519.6096 254.0725 
L 517.53384 252.100476 
L 515.45808 250.149126 
L 513.38232 248.218297 
L 511.30656 246.307836 
L 509.2308 244.41759 
L 507.15504 242.547409 
L 505.07928 240.697144 
L 503.00352 238.866643 
L 500.92776 237.055761 
L 498.852 235.264349 
L 496.77624 233.49226 
L 494.70048 231.73935 
L 492.62472 230.005474 
L 490.54896 228.290489 
L 488.4732 226.594251 
L 486.39744 224.916618 
L 484.32168 223.257451 
L 482.24592 221.616609 
L 480.17016 219.993952 
L 478.0944 218.389343 
L 476.01864 216.802645 
L 473.94288 215.23372 
L 471.86712 213.682433 
L 469.79136 212.14865 
L 467.7156 210.632237 
L 465.63984 209.133061 
L 463.56408 207.65099 
L 461.48832 206.185893 
L 459.41256 204.737639 
L 457.3368 203.306099 
L 455.26104 201.891146 
L 453.18528 200.49265 
L 451.10952 199.110485 
L 449.03376 197.744525 
L 446.958 196.394646 
L 444.88224 195.060722 
L 442.80648 193.742631 
L 440.73072 192.440251 
L 438.65496 191.153458 
L 436.5792 189.882133 
L 434.50344 188.626156 
L 432.42768 187.385408 
L 430.35192 186.159769 
L 428.27616 184.949124 
L 426.2004 183.753354 
L 424.12464 182.572345 
L 422.04888 181.405981 
L 419.97312 180.254149 
L 417.89736 179.116734 
L 415.8216 177.993626 
L 413.74584 176.884711 
L 411.67008 175.789879 
L 409.59432 174.70902 
L 407.51856 173.642025 
L 405.4428 172.588786 
L 403.36704 171.549194 
L 401.29128 170.523144 
L 399.21552 169.510528 
L 397.13976 168.511243 
L 395.064 167.525183 
L 392.98824 166.552246 
L 390.91248 165.592328 
L 388.83672 164.645327 
L 386.76096 163.711142 
L 384.6852 162.789673 
L 382.60944 161.88082 
L 380.53368 160.984484 
L 378.45792 160.100568 
L 376.38216 159.228974 
L 374.3064 158.369605 
L 372.23064 157.522366 
L 370.15488 156.687162 
L 368.07912 155.863898 
L 366.00336 155.052482 
L 363.9276 154.252821 
L 361.85184 153.464822 
L 359.77608 152.688395 
L 357.70032 151.923449 
L 355.62456 151.169894 
L 353.5488 150.427643 
L 351.47304 149.696606 
L 349.39728 148.976697 
L 347.32152 148.267828 
L 345.24576 147.569914 
L 343.17 146.88287 
L 341.09424 146.206611 
L 339.01848 145.541054 
L 336.94272 144.886115 
L 334.86696 144.241713 
L 332.7912 143.607767 
L 330.71544 142.984194 
L 328.63968 142.370916 
L 326.56392 141.767854 
L 324.48816 141.174927 
L 322.4124 140.59206 
L 320.33664 140.019174 
L 318.26088 139.456193 
L 316.18512 138.903041 
L 314.10936 138.359644 
L 312.0336 137.825927 
L 309.95784 137.301817 
L 307.88208 136.78724 
L 305.80632 136.282124 
L 303.73056 135.786399 
L 301.6548 135.299993 
L 299.57904 134.822835 
L 297.50328 134.354858 
L 295.42752 133.895991 
L 293.35176 133.446167 
L 291.276 133.005318 
L 289.20024 132.573379 
L 287.12448 132.150281 
L 285.04872 131.735962 
L 282.97296 131.330355 
L 280.8972 130.933397 
L 278.82144 130.545024 
L 276.74568 130.165174 
L 274.66992 129.793784 
L 272.59416 129.430794 
L 270.5184 129.076143 
L 268.44264 128.72977 
L 266.36688 128.391617 
L 264.29112 128.061624 
L 262.21536 127.739734 
L 260.1396 127.425888 
L 258.06384 127.120032 
L 255.98808 126.822107 
L 253.91232 126.532059 
L 251.83656 126.249832 
L 249.7608 125.975373 
L 247.68504 125.708628 
L 245.60928 125.449545 
L 243.53352 125.198069 
L 241.45776 124.954151 
L 239.382 124.717738 
L 237.30624 124.488781 
L 235.23048 124.267229 
L 233.15472 124.053034 
L 231.07896 123.846146 
L 229.0032 123.646517 
L 226.92744 123.454101 
L 224.85168 123.26885 
L 222.77592 123.090719 
L 220.70016 122.919661 
L 218.6244 122.755631 
L 216.54864 122.598586 
L 214.47288 122.448481 
L 212.39712 122.305273 
L 210.32136 122.16892 
L 208.2456 122.039379 
L 206.16984 121.91661 
L 204.09408 121.80057 
L 202.01832 121.69122 
L 199.94256 121.588521 
L 197.8668 121.492432 
L 195.79104 121.402916 
L 193.71528 121.319935 
L 191.63952 121.24345 
L 189.56376 121.173426 
L 187.488 121.109825 
L 185.41224 121.052613 
L 183.33648 121.001753 
L 181.26072 120.957212 
L 179.18496 120.918955 
L 177.1092 120.886949 
L 175.03344 120.861161 
L 172.95768 120.841558 
L 170.88192 120.828109 
L 168.80616 120.820781 
L 166.7304 120.819545 
L 164.65464 120.82437 
L 162.57888 120.835227 
L 160.50312 120.852086 
L 158.42736 120.874918 
L 156.3516 120.903695 
L 154.27584 120.938391 
L 152.20008 120.978977 
L 150.12432 121.025427 
L 148.04856 121.077716 
L 145.9728 121.135817 
L 143.89704 121.199705 
L 141.82128 121.269357 
L 139.74552 121.344748 
L 137.66976 121.425854 
L 135.594 121.512653 
L 133.51824 121.605123 
L 131.44248 121.70324 
L 129.36672 121.806984 
L 127.29096 121.916334 
L 125.2152 122.031269 
L 123.13944 122.151769 
L 121.06368 122.277815 
L 118.98792 122.409388 
L 116.91216 122.546468 
L 114.8364 122.689039 
L 112.76064 122.837082 
L 110.68488 122.990581 
L 108.60912 123.149518 
L 106.53336 123.313878 
L 104.4576 123.483645 
L 102.38184 123.658803 
L 100.30608 123.839338 
L 98.23032 124.025236 
L 96.15456 124.216482 
L 94.0788 124.413064 
L 92.00304 124.614968 
L 89.92728 124.822182 
L 87.85152 125.034694 
L 85.77576 125.252492 
L 83.7 125.475565 
z
" clip-path="url(#paefd811c3b)" style="fill: #f5deb3; fill-opacity: 0.5"/>
   </g>
   <g id="PolyCollection_2">
    <path d="M 83.7 120.813921 
L 83.7 141.693369 
L 85.77576 141.733697 
L 87.85152 141.776325 
L 89.92728 141.821616 
L 92.00304 141.869448 
L 94.0788 141.919701 
L 96.15456 141.972375 
L 98.23032 142.02759 
L 100.30608 142.085711 
L 102.38184 142.145888 
L 104.4576 142.20885 
L 106.53336 142.274232 
L 108.60912 142.341914 
L 110.68488 142.4125 
L 112.76064 142.486234 
L 114.8364 142.563235 
L 116.91216 142.643625 
L 118.98792 142.727284 
L 121.06368 142.814331 
L 123.13944 142.904525 
L 125.2152 142.998229 
L 127.29096 143.09508 
L 129.36672 143.195319 
L 131.44248 143.298948 
L 133.51824 143.405845 
L 135.594 143.51613 
L 137.66976 143.630652 
L 139.74552 143.750983 
L 141.82128 143.87664 
L 143.89704 144.007985 
L 145.9728 144.145019 
L 148.04856 144.287136 
L 150.12432 144.435305 
L 152.20008 144.588799 
L 154.27584 144.74774 
L 156.3516 144.912491 
L 158.42736 145.082688 
L 160.50312 145.258331 
L 162.57888 145.439905 
L 164.65464 145.629226 
L 166.7304 145.826413 
L 168.80616 146.031831 
L 170.88192 146.244752 
L 172.95768 146.465904 
L 175.03344 146.695045 
L 177.1092 146.932173 
L 179.18496 147.177289 
L 181.26072 147.430152 
L 183.33648 147.691245 
L 185.41224 147.960084 
L 187.488 148.237154 
L 189.56376 148.523906 
L 191.63952 148.822519 
L 193.71528 149.132993 
L 195.79104 149.455329 
L 197.8668 149.789526 
L 199.94256 150.135342 
L 202.01832 150.493262 
L 204.09408 150.863043 
L 206.16984 151.244443 
L 208.2456 151.637704 
L 210.32136 152.042827 
L 212.39712 152.45981 
L 214.47288 152.888898 
L 216.54864 153.332993 
L 218.6244 153.791612 
L 220.70016 154.265239 
L 222.77592 154.753875 
L 224.85168 155.257276 
L 226.92744 155.775928 
L 229.0032 156.309346 
L 231.07896 156.857772 
L 233.15472 157.421206 
L 235.23048 157.999406 
L 237.30624 158.592614 
L 239.382 159.200831 
L 241.45776 159.826476 
L 243.53352 160.471728 
L 245.60928 161.137072 
L 247.68504 161.822508 
L 249.7608 162.527551 
L 251.83656 163.252201 
L 253.91232 163.997185 
L 255.98808 164.761776 
L 258.06384 165.546217 
L 260.1396 166.350507 
L 262.21536 167.174889 
L 264.29112 168.01912 
L 266.36688 168.882959 
L 268.44264 169.769794 
L 270.5184 170.678899 
L 272.59416 171.610758 
L 274.66992 172.564888 
L 276.74568 173.541771 
L 278.82144 174.541167 
L 280.8972 175.563559 
L 282.97296 176.608222 
L 285.04872 177.675396 
L 287.12448 178.765325 
L 289.20024 179.877766 
L 291.276 181.012961 
L 293.35176 182.171637 
L 295.42752 183.355003 
L 297.50328 184.563302 
L 299.57904 185.796777 
L 301.6548 187.054699 
L 303.73056 188.337555 
L 305.80632 189.645102 
L 307.88208 190.977581 
L 309.95784 192.334751 
L 312.0336 193.716612 
L 314.10936 195.123406 
L 316.18512 196.554891 
L 318.26088 198.011066 
L 320.33664 199.488301 
L 322.4124 200.986596 
L 324.48816 202.505709 
L 326.56392 204.045639 
L 328.63968 205.60663 
L 330.71544 207.188437 
L 332.7912 208.791063 
L 334.86696 210.414749 
L 336.94272 212.05901 
L 339.01848 213.724573 
L 341.09424 215.410953 
L 343.17 217.118152 
L 345.24576 218.841084 
L 347.32152 220.573458 
L 349.39728 222.316482 
L 351.47304 224.069431 
L 353.5488 225.832062 
L 355.62456 227.605103 
L 357.70032 229.388068 
L 359.77608 231.1812 
L 361.85184 232.984257 
L 363.9276 234.79748 
L 366.00336 236.620628 
L 368.07912 238.453701 
L 370.15488 240.295489 
L 372.23064 242.135098 
L 374.3064 243.970833 
L 376.38216 245.802938 
L 378.45792 247.63117 
L 380.53368 249.455528 
L 382.60944 251.276256 
L 384.6852 253.09311 
L 386.76096 254.906576 
L 388.83672 256.715926 
L 390.91248 258.521404 
L 392.98824 260.32325 
L 395.064 262.121465 
L 397.13976 263.910482 
L 399.21552 265.684007 
L 401.29128 267.442765 
L 403.36704 269.186758 
L 405.4428 270.9155 
L 407.51856 272.629719 
L 409.59432 274.328687 
L 411.67008 276.013131 
L 413.74584 277.682325 
L 415.8216 279.336511 
L 417.89736 280.97593 
L 419.97312 282.600342 
L 422.04888 284.209019 
L 424.12464 285.798331 
L 426.2004 287.367068 
L 428.27616 288.915712 
L 430.35192 290.443539 
L 432.42768 291.951517 
L 434.50344 293.438919 
L 436.5792 294.906229 
L 438.65496 296.352964 
L 440.73072 297.779365 
L 442.80648 299.185675 
L 444.88224 300.571651 
L 446.958 301.93681 
L 449.03376 303.280666 
L 451.10952 304.6008 
L 453.18528 305.897938 
L 455.26104 307.171837 
L 457.3368 308.422256 
L 459.41256 309.649194 
L 461.48832 310.853378 
L 463.56408 312.034082 
L 465.63984 313.191305 
L 467.7156 314.32529 
L 469.79136 315.435795 
L 471.86712 316.523303 
L 473.94288 317.588541 
L 476.01864 318.639981 
L 478.0944 319.678107 
L 480.17016 320.703404 
L 482.24592 321.71563 
L 484.32168 322.715268 
L 486.39744 323.70135 
L 488.4732 324.675087 
L 490.54896 325.63551 
L 492.62472 326.583345 
L 494.70048 327.51811 
L 496.77624 328.440044 
L 498.852 329.348907 
L 500.92776 330.260917 
L 503.00352 331.192292 
L 505.07928 332.142548 
L 507.15504 333.112412 
L 509.2308 334.100915 
L 511.30656 335.109025 
L 513.38232 336.136501 
L 515.45808 337.182858 
L 517.53384 338.248338 
L 519.6096 339.333183 
L 521.68536 340.437394 
L 523.76112 341.560486 
L 525.83688 342.704395 
L 527.91264 343.876626 
L 529.9884 345.079358 
L 532.06416 346.31138 
L 534.13992 347.57366 
L 536.21568 348.866198 
L 538.29144 350.188027 
L 540.3672 351.540356 
L 542.44296 352.922701 
L 544.51872 354.33482 
L 546.59448 355.776714 
L 548.67024 357.248623 
L 550.746 358.750791 
L 552.82176 360.29169 
L 554.89752 361.880276 
L 556.97328 363.516791 
L 559.04904 365.201477 
L 561.1248 366.933608 
L 563.20056 368.713669 
L 565.27632 370.5419 
L 567.35208 372.417819 
L 569.42784 374.341425 
L 571.5036 376.31296 
L 573.57936 378.332424 
L 575.65512 380.399575 
L 577.73088 382.511751 
L 579.80664 384.648375 
L 581.8824 386.806786 
L 583.95816 388.987224 
L 586.03392 391.189207 
L 588.10968 393.412491 
L 590.18544 395.657803 
L 592.2612 397.924659 
L 594.33696 400.213301 
L 596.41272 402.523488 
L 598.48848 404.85546 
L 600.56424 407.209218 
L 600.56424 356.116236 
L 600.56424 356.116236 
L 598.48848 353.763204 
L 596.41272 351.431958 
L 594.33696 349.121772 
L 592.2612 346.832888 
L 590.18544 344.565064 
L 588.10968 342.318783 
L 586.03392 340.093804 
L 583.95816 337.889643 
L 581.8824 335.707269 
L 579.80664 333.545711 
L 577.73088 331.40594 
L 575.65512 329.290617 
L 573.57936 327.221046 
L 571.5036 325.199887 
L 569.42784 323.22811 
L 567.35208 321.304746 
L 565.27632 319.43028 
L 563.20056 317.604469 
L 561.1248 315.828039 
L 559.04904 314.100023 
L 556.97328 312.420904 
L 554.89752 310.790925 
L 552.82176 309.209844 
L 550.746 307.677175 
L 548.67024 306.185658 
L 546.59448 304.726578 
L 544.51872 303.300177 
L 542.44296 301.906697 
L 540.3672 300.545895 
L 538.29144 299.217289 
L 536.21568 297.921604 
L 534.13992 296.658597 
L 532.06416 295.428028 
L 529.9884 294.23038 
L 527.91264 293.065168 
L 525.83688 291.932636 
L 523.76112 290.831572 
L 521.68536 289.754715 
L 519.6096 288.701096 
L 517.53384 287.669748 
L 515.45808 286.661637 
L 513.38232 285.676523 
L 511.30656 284.714406 
L 509.2308 283.775284 
L 507.15504 282.858675 
L 505.07928 281.965305 
L 503.00352 281.094688 
L 500.92776 280.24731 
L 498.852 279.422686 
L 496.77624 278.60363 
L 494.70048 277.77247 
L 492.62472 276.929692 
L 490.54896 276.075294 
L 488.4732 275.208792 
L 486.39744 274.330672 
L 484.32168 273.440932 
L 482.24592 272.539331 
L 480.17016 271.625385 
L 478.0944 270.700061 
L 476.01864 269.762392 
L 473.94288 268.813588 
L 471.86712 267.851229 
L 469.79136 266.866599 
L 467.7156 265.858004 
L 465.63984 264.825687 
L 463.56408 263.76989 
L 461.48832 262.689886 
L 459.41256 261.586402 
L 457.3368 260.458953 
L 455.26104 259.307781 
L 453.18528 258.132887 
L 451.10952 256.934028 
L 449.03376 255.711689 
L 446.958 254.465385 
L 444.88224 253.196812 
L 442.80648 251.907662 
L 440.73072 250.598179 
L 438.65496 249.267878 
L 436.5792 247.917002 
L 434.50344 246.545308 
L 432.42768 245.153038 
L 430.35192 243.740192 
L 428.27616 242.306771 
L 426.2004 240.852774 
L 424.12464 239.378202 
L 422.04888 237.88257 
L 419.97312 236.367572 
L 417.89736 234.838293 
L 415.8216 233.2957 
L 413.74584 231.739309 
L 411.67008 230.169604 
L 409.59432 228.586344 
L 407.51856 226.989528 
L 405.4428 225.379882 
L 403.36704 223.756197 
L 401.29128 222.11944 
L 399.21552 220.468885 
L 397.13976 218.805258 
L 395.064 217.127834 
L 392.98824 215.441211 
L 390.91248 213.749747 
L 388.83672 212.053442 
L 386.76096 210.352295 
L 384.6852 208.646065 
L 382.60944 206.934994 
L 380.53368 205.218839 
L 378.45792 203.497843 
L 376.38216 201.772005 
L 374.3064 200.041084 
L 372.23064 198.30508 
L 370.15488 196.564234 
L 368.07912 194.820484 
L 366.00336 193.083754 
L 363.9276 191.356706 
L 361.85184 189.638856 
L 359.77608 187.929964 
L 357.70032 186.230511 
L 355.62456 184.540016 
L 353.5488 182.85896 
L 351.47304 181.186862 
L 349.39728 179.524446 
L 347.32152 177.870744 
L 345.24576 176.226725 
L 343.17 174.591904 
L 341.09424 172.971608 
L 339.01848 171.371161 
L 336.94272 169.790563 
L 334.86696 168.230057 
L 332.7912 166.689401 
L 330.71544 165.168593 
L 328.63968 163.667878 
L 326.56392 162.187012 
L 324.48816 160.726237 
L 322.4124 159.285312 
L 320.33664 157.863994 
L 318.26088 156.462768 
L 316.18512 155.082601 
L 314.10936 153.728094 
L 312.0336 152.400214 
L 309.95784 151.099203 
L 307.88208 149.824819 
L 305.80632 148.576821 
L 303.73056 147.356177 
L 301.6548 146.161917 
L 299.57904 144.994043 
L 297.50328 143.85328 
L 295.42752 142.738661 
L 293.35176 141.651395 
L 291.276 140.590514 
L 289.20024 139.555292 
L 287.12448 138.545003 
L 285.04872 137.559163 
L 282.97296 136.598498 
L 280.8972 135.662282 
L 278.82144 134.750756 
L 276.74568 133.863921 
L 274.66992 133.002261 
L 272.59416 132.16505 
L 270.5184 131.352529 
L 268.44264 130.5647 
L 266.36688 129.801561 
L 264.29112 129.06287 
L 262.21536 128.34645 
L 260.1396 127.651816 
L 258.06384 126.978968 
L 255.98808 126.327664 
L 253.91232 125.698146 
L 251.83656 125.090413 
L 249.7608 124.504709 
L 247.68504 123.940549 
L 245.60928 123.398175 
L 243.53352 122.877587 
L 241.45776 122.378784 
L 239.382 121.901768 
L 237.30624 121.443875 
L 235.23048 121.002927 
L 233.15472 120.578923 
L 231.07896 120.171622 
L 229.0032 119.781023 
L 226.92744 119.407369 
L 224.85168 119.050418 
L 222.77592 118.710169 
L 220.70016 118.387107 
L 218.6244 118.080506 
L 216.54864 117.790849 
L 214.47288 117.517895 
L 212.39712 117.261159 
L 210.32136 117.018705 
L 208.2456 116.789323 
L 206.16984 116.573254 
L 204.09408 116.370984 
L 202.01832 116.181542 
L 199.94256 116.005657 
L 197.8668 115.843327 
L 195.79104 115.694311 
L 193.71528 115.558366 
L 191.63952 115.436219 
L 189.56376 115.327144 
L 187.488 115.231625 
L 185.41224 115.14724 
L 183.33648 115.072539 
L 181.26072 115.006551 
L 179.18496 114.950126 
L 177.1092 114.902899 
L 175.03344 114.864749 
L 172.95768 114.835919 
L 170.88192 114.816287 
L 168.80616 114.806096 
L 166.7304 114.804983 
L 164.65464 114.813068 
L 162.57888 114.830472 
L 160.50312 114.856833 
L 158.42736 114.891425 
L 156.3516 114.934246 
L 154.27584 114.985056 
L 152.20008 115.043612 
L 150.12432 115.110398 
L 148.04856 115.185293 
L 145.9728 115.268177 
L 143.89704 115.358928 
L 141.82128 115.457909 
L 139.74552 115.564878 
L 137.66976 115.679956 
L 135.594 115.802902 
L 133.51824 115.932867 
L 131.44248 116.068764 
L 129.36672 116.21059 
L 127.29096 116.358227 
L 125.2152 116.511915 
L 123.13944 116.671412 
L 121.06368 116.83672 
L 118.98792 117.007957 
L 116.91216 117.185247 
L 114.8364 117.368346 
L 112.76064 117.557376 
L 110.68488 117.752336 
L 108.60912 117.952985 
L 106.53336 118.159565 
L 104.4576 118.371954 
L 102.38184 118.590274 
L 100.30608 118.814161 
L 98.23032 119.043858 
L 96.15456 119.279364 
L 94.0788 119.520681 
L 92.00304 119.767806 
L 89.92728 120.0205 
L 87.85152 120.279244 
L 85.77576 120.543557 
L 83.7 120.813921 
z
" clip-path="url(#paefd811c3b)" style="fill: #f0e68c; fill-opacity: 0.5"/>
   </g>
   <g id="matplotlib.axis_1">
    <g id="xtick_1">
     <g id="line2d_1">
      <defs>
       <path id="mb7843e9bc9" d="M 0 0 
L 0 3.5 
" style="stroke: #000000; stroke-width: 0.8"/>
      </defs>
      <g>
       <use xlink:href="#mb7843e9bc9" x="83.7" y="445.356" style="stroke: #000000; stroke-width: 0.8"/>
      </g>
     </g>
     <g id="text_1">
      <!-- $\mathdefault{10^{3}}$ -->
      <g transform="translate(74.9 459.954438)scale(0.1 -0.1)">
       <defs>
        <path id="DejaVuSans-31" d="M 794 531 
L 1825 531 
L 1825 4091 
L 703 3866 
L 703 4441 
L 1819 4666 
L 2450 4666 
L 2450 531 
L 3481 531 
L 3481 0 
L 794 0 
L 794 531 
z
" transform="scale(0.015625)"/>
        <path id="DejaVuSans-30" d="M 2034 4250 
Q 1547 4250 1301 3770 
Q 1056 3291 1056 2328 
Q 1056 1369 1301 889 
Q 1547 409 2034 409 
Q 2525 409 2770 889 
Q 3016 1369 3016 2328 
Q 3016 3291 2770 3770 
Q 2525 4250 2034 4250 
z
M 2034 4750 
Q 2819 4750 3233 4129 
Q 3647 3509 3647 2328 
Q 3647 1150 3233 529 
Q 2819 -91 2034 -91 
Q 1250 -91 836 529 
Q 422 1150 422 2328 
Q 422 3509 836 4129 
Q 1250 4750 2034 4750 
z
" transform="scale(0.015625)"/>
        <path id="DejaVuSans-33" d="M 2597 2516 
Q 3050 2419 3304 2112 
Q 3559 1806 3559 1356 
Q 3559 666 3084 287 
Q 2609 -91 1734 -91 
Q 1441 -91 1130 -33 
Q 819 25 488 141 
L 488 750 
Q 750 597 1062 519 
Q 1375 441 1716 441 
Q 2309 441 2620 675 
Q 2931 909 2931 1356 
Q 2931 1769 2642 2001 
Q 2353 2234 1838 2234 
L 1294 2234 
L 1294 2753 
L 1863 2753 
Q 2328 2753 2575 2939 
Q 2822 3125 2822 3475 
Q 2822 3834 2567 4026 
Q 2313 4219 1838 4219 
Q 1578 4219 1281 4162 
Q 984 4106 628 3988 
L 628 4550 
Q 988 4650 1302 4700 
Q 1616 4750 1894 4750 
Q 2613 4750 3031 4423 
Q 3450 4097 3450 3541 
Q 3450 3153 3228 2886 
Q 3006 2619 2597 2516 
z
" transform="scale(0.015625)"/>
       </defs>
       <use xlink:href="#DejaVuSans-31" transform="translate(0 0.765625)"/>
       <use xlink:href="#DejaVuSans-30" transform="translate(63.623047 0.765625)"/>
       <use xlink:href="#DejaVuSans-33" transform="translate(128.203125 39.046875)scale(0.7)"/>
      </g>
     </g>
    </g>
    <g id="xtick_2">
     <g id="line2d_2">
      <g>
       <use xlink:href="#mb7843e9bc9" x="187.488" y="445.356" style="stroke: #000000; stroke-width: 0.8"/>
      </g>
     </g>
     <g id="text_2">
      <!-- $\mathdefault{10^{4}}$ -->
      <g transform="translate(178.688 459.954438)scale(0.1 -0.1)">
       <defs>
        <path id="DejaVuSans-34" d="M 2419 4116 
L 825 1625 
L 2419 1625 
L 2419 4116 
z
M 2253 4666 
L 3047 4666 
L 3047 1625 
L 3713 1625 
L 3713 1100 
L 3047 1100 
L 3047 0 
L 2419 0 
L 2419 1100 
L 313 1100 
L 313 1709 
L 2253 4666 
z
" transform="scale(0.015625)"/>
       </defs>
       <use xlink:href="#DejaVuSans-31" transform="translate(0 0.684375)"/>
       <use xlink:href="#DejaVuSans-30" transform="translate(63.623047 0.684375)"/>
       <use xlink:href="#DejaVuSans-34" transform="translate(128.203125 38.965625)scale(0.7)"/>
      </g>
     </g>
    </g>
    <g id="xtick_3">
     <g id="line2d_3">
      <g>
       <use xlink:href="#mb7843e9bc9" x="291.276" y="445.356" style="stroke: #000000; stroke-width: 0.8"/>
      </g>
     </g>
     <g id="text_3">
      <!-- $\mathdefault{10^{5}}$ -->
      <g transform="translate(282.476 459.954438)scale(0.1 -0.1)">
       <defs>
        <path id="DejaVuSans-35" d="M 691 4666 
L 3169 4666 
L 3169 4134 
L 1269 4134 
L 1269 2991 
Q 1406 3038 1543 3061 
Q 1681 3084 1819 3084 
Q 2600 3084 3056 2656 
Q 3513 2228 3513 1497 
Q 3513 744 3044 326 
Q 2575 -91 1722 -91 
Q 1428 -91 1123 -41 
Q 819 9 494 109 
L 494 744 
Q 775 591 1075 516 
Q 1375 441 1709 441 
Q 2250 441 2565 725 
Q 2881 1009 2881 1497 
Q 2881 1984 2565 2268 
Q 2250 2553 1709 2553 
Q 1456 2553 1204 2497 
Q 953 2441 691 2322 
L 691 4666 
z
" transform="scale(0.015625)"/>
       </defs>
       <use xlink:href="#DejaVuSans-31" transform="translate(0 0.684375)"/>
       <use xlink:href="#DejaVuSans-30" transform="translate(63.623047 0.684375)"/>
       <use xlink:href="#DejaVuSans-35" transform="translate(128.203125 38.965625)scale(0.7)"/>
      </g>
     </g>
    </g>
    <g id="xtick_4">
     <g id="line2d_4">
      <g>
       <use xlink:href="#mb7843e9bc9" x="395.064" y="445.356" style="stroke: #000000; stroke-width: 0.8"/>
      </g>
     </g>
     <g id="text_4">
      <!-- $\mathdefault{10^{6}}$ -->
      <g transform="translate(386.264 459.954438)scale(0.1 -0.1)">
       <defs>
        <path id="DejaVuSans-36" d="M 2113 2584 
Q 1688 2584 1439 2293 
Q 1191 2003 1191 1497 
Q 1191 994 1439 701 
Q 1688 409 2113 409 
Q 2538 409 2786 701 
Q 3034 994 3034 1497 
Q 3034 2003 2786 2293 
Q 2538 2584 2113 2584 
z
M 3366 4563 
L 3366 3988 
Q 3128 4100 2886 4159 
Q 2644 4219 2406 4219 
Q 1781 4219 1451 3797 
Q 1122 3375 1075 2522 
Q 1259 2794 1537 2939 
Q 1816 3084 2150 3084 
Q 2853 3084 3261 2657 
Q 3669 2231 3669 1497 
Q 3669 778 3244 343 
Q 2819 -91 2113 -91 
Q 1303 -91 875 529 
Q 447 1150 447 2328 
Q 447 3434 972 4092 
Q 1497 4750 2381 4750 
Q 2619 4750 2861 4703 
Q 3103 4656 3366 4563 
z
" transform="scale(0.015625)"/>
       </defs>
       <use xlink:href="#DejaVuSans-31" transform="translate(0 0.765625)"/>
       <use xlink:href="#DejaVuSans-30" transform="translate(63.623047 0.765625)"/>
       <use xlink:href="#DejaVuSans-36" transform="translate(128.203125 39.046875)scale(0.7)"/>
      </g>
     </g>
    </g>
    <g id="xtick_5">
     <g id="line2d_5">
      <g>
       <use xlink:href="#mb7843e9bc9" x="498.852" y="445.356" style="stroke: #000000; stroke-width: 0.8"/>
      </g>
     </g>
     <g id="text_5">
      <!-- $\mathdefault{10^{7}}$ -->
      <g transform="translate(490.052 459.954438)scale(0.1 -0.1)">
       <defs>
        <path id="DejaVuSans-37" d="M 525 4666 
L 3525 4666 
L 3525 4397 
L 1831 0 
L 1172 0 
L 2766 4134 
L 525 4134 
L 525 4666 
z
" transform="scale(0.015625)"/>
       </defs>
       <use xlink:href="#DejaVuSans-31" transform="translate(0 0.684375)"/>
       <use xlink:href="#DejaVuSans-30" transform="translate(63.623047 0.684375)"/>
       <use xlink:href="#DejaVuSans-37" transform="translate(128.203125 38.965625)scale(0.7)"/>
      </g>
     </g>
    </g>
    <g id="xtick_6">
     <g id="line2d_6">
      <g>
       <use xlink:href="#mb7843e9bc9" x="602.64" y="445.356" style="stroke: #000000; stroke-width: 0.8"/>
      </g>
     </g>
     <g id="text_6">
      <!-- $\mathdefault{10^{8}}$ -->
      <g transform="translate(593.84 459.954438)scale(0.1 -0.1)">
       <defs>
        <path id="DejaVuSans-38" d="M 2034 2216 
Q 1584 2216 1326 1975 
Q 1069 1734 1069 1313 
Q 1069 891 1326 650 
Q 1584 409 2034 409 
Q 2484 409 2743 651 
Q 3003 894 3003 1313 
Q 3003 1734 2745 1975 
Q 2488 2216 2034 2216 
z
M 1403 2484 
Q 997 2584 770 2862 
Q 544 3141 544 3541 
Q 544 4100 942 4425 
Q 1341 4750 2034 4750 
Q 2731 4750 3128 4425 
Q 3525 4100 3525 3541 
Q 3525 3141 3298 2862 
Q 3072 2584 2669 2484 
Q 3125 2378 3379 2068 
Q 3634 1759 3634 1313 
Q 3634 634 3220 271 
Q 2806 -91 2034 -91 
Q 1263 -91 848 271 
Q 434 634 434 1313 
Q 434 1759 690 2068 
Q 947 2378 1403 2484 
z
M 1172 3481 
Q 1172 3119 1398 2916 
Q 1625 2713 2034 2713 
Q 2441 2713 2670 2916 
Q 2900 3119 2900 3481 
Q 2900 3844 2670 4047 
Q 2441 4250 2034 4250 
Q 1625 4250 1398 4047 
Q 1172 3844 1172 3481 
z
" transform="scale(0.015625)"/>
       </defs>
       <use xlink:href="#DejaVuSans-31" transform="translate(0 0.765625)"/>
       <use xlink:href="#DejaVuSans-30" transform="translate(63.623047 0.765625)"/>
       <use xlink:href="#DejaVuSans-38" transform="translate(128.203125 39.046875)scale(0.7)"/>
      </g>
     </g>
    </g>
    <g id="xtick_7">
     <g id="line2d_7">
      <defs>
       <path id="m13b65646be" d="M 0 0 
L 0 2 
" style="stroke: #000000; stroke-width: 0.6"/>
      </defs>
      <g>
       <use xlink:href="#m13b65646be" x="114.943301" y="445.356" style="stroke: #000000; stroke-width: 0.6"/>
      </g>
     </g>
    </g>
    <g id="xtick_8">
     <g id="line2d_8">
      <g>
       <use xlink:href="#m13b65646be" x="133.219461" y="445.356" style="stroke: #000000; stroke-width: 0.6"/>
      </g>
     </g>
    </g>
    <g id="xtick_9">
     <g id="line2d_9">
      <g>
       <use xlink:href="#m13b65646be" x="146.186602" y="445.356" style="stroke: #000000; stroke-width: 0.6"/>
      </g>
     </g>
    </g>
    <g id="xtick_10">
     <g id="line2d_10">
      <g>
       <use xlink:href="#m13b65646be" x="156.244699" y="445.356" style="stroke: #000000; stroke-width: 0.6"/>
      </g>
     </g>
    </g>
    <g id="xtick_11">
     <g id="line2d_11">
      <g>
       <use xlink:href="#m13b65646be" x="164.462762" y="445.356" style="stroke: #000000; stroke-width: 0.6"/>
      </g>
     </g>
    </g>
    <g id="xtick_12">
     <g id="line2d_12">
      <g>
       <use xlink:href="#m13b65646be" x="171.411035" y="445.356" style="stroke: #000000; stroke-width: 0.6"/>
      </g>
     </g>
    </g>
    <g id="xtick_13">
     <g id="line2d_13">
      <g>
       <use xlink:href="#m13b65646be" x="177.429904" y="445.356" style="stroke: #000000; stroke-width: 0.6"/>
      </g>
     </g>
    </g>
    <g id="xtick_14">
     <g id="line2d_14">
      <g>
       <use xlink:href="#m13b65646be" x="182.738922" y="445.356" style="stroke: #000000; stroke-width: 0.6"/>
      </g>
     </g>
    </g>
    <g id="xtick_15">
     <g id="line2d_15">
      <g>
       <use xlink:href="#m13b65646be" x="218.731301" y="445.356" style="stroke: #000000; stroke-width: 0.6"/>
      </g>
     </g>
    </g>
    <g id="xtick_16">
     <g id="line2d_16">
      <g>
       <use xlink:href="#m13b65646be" x="237.007461" y="445.356" style="stroke: #000000; stroke-width: 0.6"/>
      </g>
     </g>
    </g>
    <g id="xtick_17">
     <g id="line2d_17">
      <g>
       <use xlink:href="#m13b65646be" x="249.974602" y="445.356" style="stroke: #000000; stroke-width: 0.6"/>
      </g>
     </g>
    </g>
    <g id="xtick_18">
     <g id="line2d_18">
      <g>
       <use xlink:href="#m13b65646be" x="260.032699" y="445.356" style="stroke: #000000; stroke-width: 0.6"/>
      </g>
     </g>
    </g>
    <g id="xtick_19">
     <g id="line2d_19">
      <g>
       <use xlink:href="#m13b65646be" x="268.250762" y="445.356" style="stroke: #000000; stroke-width: 0.6"/>
      </g>
     </g>
    </g>
    <g id="xtick_20">
     <g id="line2d_20">
      <g>
       <use xlink:href="#m13b65646be" x="275.199035" y="445.356" style="stroke: #000000; stroke-width: 0.6"/>
      </g>
     </g>
    </g>
    <g id="xtick_21">
     <g id="line2d_21">
      <g>
       <use xlink:href="#m13b65646be" x="281.217904" y="445.356" style="stroke: #000000; stroke-width: 0.6"/>
      </g>
     </g>
    </g>
    <g id="xtick_22">
     <g id="line2d_22">
      <g>
       <use xlink:href="#m13b65646be" x="286.526922" y="445.356" style="stroke: #000000; stroke-width: 0.6"/>
      </g>
     </g>
    </g>
    <g id="xtick_23">
     <g id="line2d_23">
      <g>
       <use xlink:href="#m13b65646be" x="322.519301" y="445.356" style="stroke: #000000; stroke-width: 0.6"/>
      </g>
     </g>
    </g>
    <g id="xtick_24">
     <g id="line2d_24">
      <g>
       <use xlink:href="#m13b65646be" x="340.795461" y="445.356" style="stroke: #000000; stroke-width: 0.6"/>
      </g>
     </g>
    </g>
    <g id="xtick_25">
     <g id="line2d_25">
      <g>
       <use xlink:href="#m13b65646be" x="353.762602" y="445.356" style="stroke: #000000; stroke-width: 0.6"/>
      </g>
     </g>
    </g>
    <g id="xtick_26">
     <g id="line2d_26">
      <g>
       <use xlink:href="#m13b65646be" x="363.820699" y="445.356" style="stroke: #000000; stroke-width: 0.6"/>
      </g>
     </g>
    </g>
    <g id="xtick_27">
     <g id="line2d_27">
      <g>
       <use xlink:href="#m13b65646be" x="372.038762" y="445.356" style="stroke: #000000; stroke-width: 0.6"/>
      </g>
     </g>
    </g>
    <g id="xtick_28">
     <g id="line2d_28">
      <g>
       <use xlink:href="#m13b65646be" x="378.987035" y="445.356" style="stroke: #000000; stroke-width: 0.6"/>
      </g>
     </g>
    </g>
    <g id="xtick_29">
     <g id="line2d_29">
      <g>
       <use xlink:href="#m13b65646be" x="385.005904" y="445.356" style="stroke: #000000; stroke-width: 0.6"/>
      </g>
     </g>
    </g>
    <g id="xtick_30">
     <g id="line2d_30">
      <g>
       <use xlink:href="#m13b65646be" x="390.314922" y="445.356" style="stroke: #000000; stroke-width: 0.6"/>
      </g>
     </g>
    </g>
    <g id="xtick_31">
     <g id="line2d_31">
      <g>
       <use xlink:href="#m13b65646be" x="426.307301" y="445.356" style="stroke: #000000; stroke-width: 0.6"/>
      </g>
     </g>
    </g>
    <g id="xtick_32">
     <g id="line2d_32">
      <g>
       <use xlink:href="#m13b65646be" x="444.583461" y="445.356" style="stroke: #000000; stroke-width: 0.6"/>
      </g>
     </g>
    </g>
    <g id="xtick_33">
     <g id="line2d_33">
      <g>
       <use xlink:href="#m13b65646be" x="457.550602" y="445.356" style="stroke: #000000; stroke-width: 0.6"/>
      </g>
     </g>
    </g>
    <g id="xtick_34">
     <g id="line2d_34">
      <g>
       <use xlink:href="#m13b65646be" x="467.608699" y="445.356" style="stroke: #000000; stroke-width: 0.6"/>
      </g>
     </g>
    </g>
    <g id="xtick_35">
     <g id="line2d_35">
      <g>
       <use xlink:href="#m13b65646be" x="475.826762" y="445.356" style="stroke: #000000; stroke-width: 0.6"/>
      </g>
     </g>
    </g>
    <g id="xtick_36">
     <g id="line2d_36">
      <g>
       <use xlink:href="#m13b65646be" x="482.775035" y="445.356" style="stroke: #000000; stroke-width: 0.6"/>
      </g>
     </g>
    </g>
    <g id="xtick_37">
     <g id="line2d_37">
      <g>
       <use xlink:href="#m13b65646be" x="488.793904" y="445.356" style="stroke: #000000; stroke-width: 0.6"/>
      </g>
     </g>
    </g>
    <g id="xtick_38">
     <g id="line2d_38">
      <g>
       <use xlink:href="#m13b65646be" x="494.102922" y="445.356" style="stroke: #000000; stroke-width: 0.6"/>
      </g>
     </g>
    </g>
    <g id="xtick_39">
     <g id="line2d_39">
      <g>
       <use xlink:href="#m13b65646be" x="530.095301" y="445.356" style="stroke: #000000; stroke-width: 0.6"/>
      </g>
     </g>
    </g>
    <g id="xtick_40">
     <g id="line2d_40">
      <g>
       <use xlink:href="#m13b65646be" x="548.371461" y="445.356" style="stroke: #000000; stroke-width: 0.6"/>
      </g>
     </g>
    </g>
    <g id="xtick_41">
     <g id="line2d_41">
      <g>
       <use xlink:href="#m13b65646be" x="561.338602" y="445.356" style="stroke: #000000; stroke-width: 0.6"/>
      </g>
     </g>
    </g>
    <g id="xtick_42">
     <g id="line2d_42">
      <g>
       <use xlink:href="#m13b65646be" x="571.396699" y="445.356" style="stroke: #000000; stroke-width: 0.6"/>
      </g>
     </g>
    </g>
    <g id="xtick_43">
     <g id="line2d_43">
      <g>
       <use xlink:href="#m13b65646be" x="579.614762" y="445.356" style="stroke: #000000; stroke-width: 0.6"/>
      </g>
     </g>
    </g>
    <g id="xtick_44">
     <g id="line2d_44">
      <g>
       <use xlink:href="#m13b65646be" x="586.563035" y="445.356" style="stroke: #000000; stroke-width: 0.6"/>
      </g>
     </g>
    </g>
    <g id="xtick_45">
     <g id="line2d_45">
      <g>
       <use xlink:href="#m13b65646be" x="592.581904" y="445.356" style="stroke: #000000; stroke-width: 0.6"/>
      </g>
     </g>
    </g>
    <g id="xtick_46">
     <g id="line2d_46">
      <g>
       <use xlink:href="#m13b65646be" x="597.890922" y="445.356" style="stroke: #000000; stroke-width: 0.6"/>
      </g>
     </g>
    </g>
    <g id="text_7">
     <!-- Energy(GeV) -->
     <g transform="translate(279.612187 481.231)scale(0.2 -0.2)">
      <defs>
       <path id="DejaVuSans-45" d="M 628 4666 
L 3578 4666 
L 3578 4134 
L 1259 4134 
L 1259 2753 
L 3481 2753 
L 3481 2222 
L 1259 2222 
L 1259 531 
L 3634 531 
L 3634 0 
L 628 0 
L 628 4666 
z
" transform="scale(0.015625)"/>
       <path id="DejaVuSans-6e" d="M 3513 2113 
L 3513 0 
L 2938 0 
L 2938 2094 
Q 2938 2591 2744 2837 
Q 2550 3084 2163 3084 
Q 1697 3084 1428 2787 
Q 1159 2491 1159 1978 
L 1159 0 
L 581 0 
L 581 3500 
L 1159 3500 
L 1159 2956 
Q 1366 3272 1645 3428 
Q 1925 3584 2291 3584 
Q 2894 3584 3203 3211 
Q 3513 2838 3513 2113 
z
" transform="scale(0.015625)"/>
       <path id="DejaVuSans-65" d="M 3597 1894 
L 3597 1613 
L 953 1613 
Q 991 1019 1311 708 
Q 1631 397 2203 397 
Q 2534 397 2845 478 
Q 3156 559 3463 722 
L 3463 178 
Q 3153 47 2828 -22 
Q 2503 -91 2169 -91 
Q 1331 -91 842 396 
Q 353 884 353 1716 
Q 353 2575 817 3079 
Q 1281 3584 2069 3584 
Q 2775 3584 3186 3129 
Q 3597 2675 3597 1894 
z
M 3022 2063 
Q 3016 2534 2758 2815 
Q 2500 3097 2075 3097 
Q 1594 3097 1305 2825 
Q 1016 2553 972 2059 
L 3022 2063 
z
" transform="scale(0.015625)"/>
       <path id="DejaVuSans-72" d="M 2631 2963 
Q 2534 3019 2420 3045 
Q 2306 3072 2169 3072 
Q 1681 3072 1420 2755 
Q 1159 2438 1159 1844 
L 1159 0 
L 581 0 
L 581 3500 
L 1159 3500 
L 1159 2956 
Q 1341 3275 1631 3429 
Q 1922 3584 2338 3584 
Q 2397 3584 2469 3576 
Q 2541 3569 2628 3553 
L 2631 2963 
z
" transform="scale(0.015625)"/>
       <path id="DejaVuSans-67" d="M 2906 1791 
Q 2906 2416 2648 2759 
Q 2391 3103 1925 3103 
Q 1463 3103 1205 2759 
Q 947 2416 947 1791 
Q 947 1169 1205 825 
Q 1463 481 1925 481 
Q 2391 481 2648 825 
Q 2906 1169 2906 1791 
z
M 3481 434 
Q 3481 -459 3084 -895 
Q 2688 -1331 1869 -1331 
Q 1566 -1331 1297 -1286 
Q 1028 -1241 775 -1147 
L 775 -588 
Q 1028 -725 1275 -790 
Q 1522 -856 1778 -856 
Q 2344 -856 2625 -561 
Q 2906 -266 2906 331 
L 2906 616 
Q 2728 306 2450 153 
Q 2172 0 1784 0 
Q 1141 0 747 490 
Q 353 981 353 1791 
Q 353 2603 747 3093 
Q 1141 3584 1784 3584 
Q 2172 3584 2450 3431 
Q 2728 3278 2906 2969 
L 2906 3500 
L 3481 3500 
L 3481 434 
z
" transform="scale(0.015625)"/>
       <path id="DejaVuSans-79" d="M 2059 -325 
Q 1816 -950 1584 -1140 
Q 1353 -1331 966 -1331 
L 506 -1331 
L 506 -850 
L 844 -850 
Q 1081 -850 1212 -737 
Q 1344 -625 1503 -206 
L 1606 56 
L 191 3500 
L 800 3500 
L 1894 763 
L 2988 3500 
L 3597 3500 
L 2059 -325 
z
" transform="scale(0.015625)"/>
       <path id="DejaVuSans-28" d="M 1984 4856 
Q 1566 4138 1362 3434 
Q 1159 2731 1159 2009 
Q 1159 1288 1364 580 
Q 1569 -128 1984 -844 
L 1484 -844 
Q 1016 -109 783 600 
Q 550 1309 550 2009 
Q 550 2706 781 3412 
Q 1013 4119 1484 4856 
L 1984 4856 
z
" transform="scale(0.015625)"/>
       <path id="DejaVuSans-47" d="M 3809 666 
L 3809 1919 
L 2778 1919 
L 2778 2438 
L 4434 2438 
L 4434 434 
Q 4069 175 3628 42 
Q 3188 -91 2688 -91 
Q 1594 -91 976 548 
Q 359 1188 359 2328 
Q 359 3472 976 4111 
Q 1594 4750 2688 4750 
Q 3144 4750 3555 4637 
Q 3966 4525 4313 4306 
L 4313 3634 
Q 3963 3931 3569 4081 
Q 3175 4231 2741 4231 
Q 1884 4231 1454 3753 
Q 1025 3275 1025 2328 
Q 1025 1384 1454 906 
Q 1884 428 2741 428 
Q 3075 428 3337 486 
Q 3600 544 3809 666 
z
" transform="scale(0.015625)"/>
       <path id="DejaVuSans-56" d="M 1831 0 
L 50 4666 
L 709 4666 
L 2188 738 
L 3669 4666 
L 4325 4666 
L 2547 0 
L 1831 0 
z
" transform="scale(0.015625)"/>
       <path id="DejaVuSans-29" d="M 513 4856 
L 1013 4856 
Q 1481 4119 1714 3412 
Q 1947 2706 1947 2009 
Q 1947 1309 1714 600 
Q 1481 -109 1013 -844 
L 513 -844 
Q 928 -128 1133 580 
Q 1338 1288 1338 2009 
Q 1338 2731 1133 3434 
Q 928 4138 513 4856 
z
" transform="scale(0.015625)"/>
      </defs>
      <use xlink:href="#DejaVuSans-45"/>
      <use xlink:href="#DejaVuSans-6e" x="63.183594"/>
      <use xlink:href="#DejaVuSans-65" x="126.5625"/>
      <use xlink:href="#DejaVuSans-72" x="188.085938"/>
      <use xlink:href="#DejaVuSans-67" x="227.449219"/>
      <use xlink:href="#DejaVuSans-79" x="290.925781"/>
      <use xlink:href="#DejaVuSans-28" x="350.105469"/>
      <use xlink:href="#DejaVuSans-47" x="389.119141"/>
      <use xlink:href="#DejaVuSans-65" x="466.609375"/>
      <use xlink:href="#DejaVuSans-56" x="528.132812"/>
      <use xlink:href="#DejaVuSans-29" x="596.541016"/>
     </g>
    </g>
   </g>
   <g id="matplotlib.axis_2">
    <g id="ytick_1">
     <g id="line2d_47">
      <defs>
       <path id="mdacfe617a5" d="M 0 0 
L -3.5 0 
" style="stroke: #000000; stroke-width: 0.8"/>
      </defs>
      <g>
       <use xlink:href="#mdacfe617a5" x="83.7" y="382.574595" style="stroke: #000000; stroke-width: 0.8"/>
      </g>
     </g>
     <g id="text_8">
      <!-- $\mathdefault{10^{-8}}$ -->
      <g transform="translate(53.2 386.373814)scale(0.1 -0.1)">
       <defs>
        <path id="DejaVuSans-2212" d="M 678 2272 
L 4684 2272 
L 4684 1741 
L 678 1741 
L 678 2272 
z
" transform="scale(0.015625)"/>
       </defs>
       <use xlink:href="#DejaVuSans-31" transform="translate(0 0.765625)"/>
       <use xlink:href="#DejaVuSans-30" transform="translate(63.623047 0.765625)"/>
       <use xlink:href="#DejaVuSans-2212" transform="translate(128.203125 39.046875)scale(0.7)"/>
       <use xlink:href="#DejaVuSans-38" transform="translate(186.855469 39.046875)scale(0.7)"/>
      </g>
     </g>
    </g>
    <g id="ytick_2">
     <g id="line2d_48">
      <g>
       <use xlink:href="#mdacfe617a5" x="83.7" y="255.662021" style="stroke: #000000; stroke-width: 0.8"/>
      </g>
     </g>
     <g id="text_9">
      <!-- $\mathdefault{10^{-7}}$ -->
      <g transform="translate(53.2 259.461239)scale(0.1 -0.1)">
       <use xlink:href="#DejaVuSans-31" transform="translate(0 0.684375)"/>
       <use xlink:href="#DejaVuSans-30" transform="translate(63.623047 0.684375)"/>
       <use xlink:href="#DejaVuSans-2212" transform="translate(128.203125 38.965625)scale(0.7)"/>
       <use xlink:href="#DejaVuSans-37" transform="translate(186.855469 38.965625)scale(0.7)"/>
      </g>
     </g>
    </g>
    <g id="ytick_3">
     <g id="line2d_49">
      <g>
       <use xlink:href="#mdacfe617a5" x="83.7" y="128.749446" style="stroke: #000000; stroke-width: 0.8"/>
      </g>
     </g>
     <g id="text_10">
      <!-- $\mathdefault{10^{-6}}$ -->
      <g transform="translate(53.2 132.548665)scale(0.1 -0.1)">
       <use xlink:href="#DejaVuSans-31" transform="translate(0 0.765625)"/>
       <use xlink:href="#DejaVuSans-30" transform="translate(63.623047 0.765625)"/>
       <use xlink:href="#DejaVuSans-2212" transform="translate(128.203125 39.046875)scale(0.7)"/>
       <use xlink:href="#DejaVuSans-36" transform="translate(186.855469 39.046875)scale(0.7)"/>
      </g>
     </g>
    </g>
    <g id="ytick_4">
     <g id="line2d_50">
      <defs>
       <path id="mb850c39e8e" d="M 0 0 
L -2 0 
" style="stroke: #000000; stroke-width: 0.6"/>
      </defs>
      <g>
       <use xlink:href="#mb850c39e8e" x="83.7" y="433.078186" style="stroke: #000000; stroke-width: 0.6"/>
      </g>
     </g>
    </g>
    <g id="ytick_5">
     <g id="line2d_51">
      <g>
       <use xlink:href="#mb850c39e8e" x="83.7" y="420.779087" style="stroke: #000000; stroke-width: 0.6"/>
      </g>
     </g>
    </g>
    <g id="ytick_6">
     <g id="line2d_52">
      <g>
       <use xlink:href="#mb850c39e8e" x="83.7" y="410.729991" style="stroke: #000000; stroke-width: 0.6"/>
      </g>
     </g>
    </g>
    <g id="ytick_7">
     <g id="line2d_53">
      <g>
       <use xlink:href="#mb850c39e8e" x="83.7" y="402.233602" style="stroke: #000000; stroke-width: 0.6"/>
      </g>
     </g>
    </g>
    <g id="ytick_8">
     <g id="line2d_54">
      <g>
       <use xlink:href="#mb850c39e8e" x="83.7" y="394.873694" style="stroke: #000000; stroke-width: 0.6"/>
      </g>
     </g>
    </g>
    <g id="ytick_9">
     <g id="line2d_55">
      <g>
       <use xlink:href="#mb850c39e8e" x="83.7" y="388.381796" style="stroke: #000000; stroke-width: 0.6"/>
      </g>
     </g>
    </g>
    <g id="ytick_10">
     <g id="line2d_56">
      <g>
       <use xlink:href="#mb850c39e8e" x="83.7" y="344.370103" style="stroke: #000000; stroke-width: 0.6"/>
      </g>
     </g>
    </g>
    <g id="ytick_11">
     <g id="line2d_57">
      <g>
       <use xlink:href="#mb850c39e8e" x="83.7" y="322.021908" style="stroke: #000000; stroke-width: 0.6"/>
      </g>
     </g>
    </g>
    <g id="ytick_12">
     <g id="line2d_58">
      <g>
       <use xlink:href="#mb850c39e8e" x="83.7" y="306.165612" style="stroke: #000000; stroke-width: 0.6"/>
      </g>
     </g>
    </g>
    <g id="ytick_13">
     <g id="line2d_59">
      <g>
       <use xlink:href="#mb850c39e8e" x="83.7" y="293.866512" style="stroke: #000000; stroke-width: 0.6"/>
      </g>
     </g>
    </g>
    <g id="ytick_14">
     <g id="line2d_60">
      <g>
       <use xlink:href="#mb850c39e8e" x="83.7" y="283.817416" style="stroke: #000000; stroke-width: 0.6"/>
      </g>
     </g>
    </g>
    <g id="ytick_15">
     <g id="line2d_61">
      <g>
       <use xlink:href="#mb850c39e8e" x="83.7" y="275.321027" style="stroke: #000000; stroke-width: 0.6"/>
      </g>
     </g>
    </g>
    <g id="ytick_16">
     <g id="line2d_62">
      <g>
       <use xlink:href="#mb850c39e8e" x="83.7" y="267.96112" style="stroke: #000000; stroke-width: 0.6"/>
      </g>
     </g>
    </g>
    <g id="ytick_17">
     <g id="line2d_63">
      <g>
       <use xlink:href="#mb850c39e8e" x="83.7" y="261.469221" style="stroke: #000000; stroke-width: 0.6"/>
      </g>
     </g>
    </g>
    <g id="ytick_18">
     <g id="line2d_64">
      <g>
       <use xlink:href="#mb850c39e8e" x="83.7" y="217.457529" style="stroke: #000000; stroke-width: 0.6"/>
      </g>
     </g>
    </g>
    <g id="ytick_19">
     <g id="line2d_65">
      <g>
       <use xlink:href="#mb850c39e8e" x="83.7" y="195.109334" style="stroke: #000000; stroke-width: 0.6"/>
      </g>
     </g>
    </g>
    <g id="ytick_20">
     <g id="line2d_66">
      <g>
       <use xlink:href="#mb850c39e8e" x="83.7" y="179.253037" style="stroke: #000000; stroke-width: 0.6"/>
      </g>
     </g>
    </g>
    <g id="ytick_21">
     <g id="line2d_67">
      <g>
       <use xlink:href="#mb850c39e8e" x="83.7" y="166.953938" style="stroke: #000000; stroke-width: 0.6"/>
      </g>
     </g>
    </g>
    <g id="ytick_22">
     <g id="line2d_68">
      <g>
       <use xlink:href="#mb850c39e8e" x="83.7" y="156.904842" style="stroke: #000000; stroke-width: 0.6"/>
      </g>
     </g>
    </g>
    <g id="ytick_23">
     <g id="line2d_69">
      <g>
       <use xlink:href="#mb850c39e8e" x="83.7" y="148.408453" style="stroke: #000000; stroke-width: 0.6"/>
      </g>
     </g>
    </g>
    <g id="ytick_24">
     <g id="line2d_70">
      <g>
       <use xlink:href="#mb850c39e8e" x="83.7" y="141.048545" style="stroke: #000000; stroke-width: 0.6"/>
      </g>
     </g>
    </g>
    <g id="ytick_25">
     <g id="line2d_71">
      <g>
       <use xlink:href="#mb850c39e8e" x="83.7" y="134.556647" style="stroke: #000000; stroke-width: 0.6"/>
      </g>
     </g>
    </g>
    <g id="ytick_26">
     <g id="line2d_72">
      <g>
       <use xlink:href="#mb850c39e8e" x="83.7" y="90.544954" style="stroke: #000000; stroke-width: 0.6"/>
      </g>
     </g>
    </g>
    <g id="ytick_27">
     <g id="line2d_73">
      <g>
       <use xlink:href="#mb850c39e8e" x="83.7" y="68.196759" style="stroke: #000000; stroke-width: 0.6"/>
      </g>
     </g>
    </g>
    <g id="text_11">
     <!-- $\phi_{\nu_{\mu}+\nu_e}E^{2.5}$ -->
     <g transform="translate(41.4 301.002)rotate(-90)scale(0.2 -0.2)">
      <defs>
       <path id="DejaVuSans-Oblique-3d5" d="M 2991 4863 
L 2738 3572 
Q 3363 3572 3684 3094 
Q 4016 2606 3850 1747 
Q 3681 888 3159 400 
Q 2653 -78 2028 -78 
L 1784 -1331 
L 1213 -1331 
L 1456 -78 
Q 834 -78 509 400 
Q 178 888 347 1747 
Q 513 2606 1034 3094 
Q 1544 3572 2166 3572 
L 2419 4863 
L 2991 4863 
z
M 2128 434 
Q 2481 434 2784 756 
Q 3116 1116 3244 1747 
Q 3369 2372 3169 2738 
Q 2991 3059 2638 3059 
L 2128 434 
z
M 1556 434 
L 2066 3059 
Q 1716 3059 1413 2738 
Q 1072 2372 953 1747 
Q 834 1116 1028 756 
Q 1203 434 1556 434 
z
" transform="scale(0.015625)"/>
       <path id="DejaVuSans-Oblique-3bd" d="M 959 0 
L 572 3500 
L 1191 3500 
L 1522 563 
Q 1972 950 2391 1488 
Q 2706 1891 2788 2241 
Q 2825 2406 2809 2719 
Q 2794 3091 2544 3500 
L 3125 3500 
L 3125 3500 
Q 3288 3222 3353 2834 
Q 3416 2478 3369 2234 
Q 3250 1622 2719 1075 
Q 2025 363 1572 0 
L 959 0 
z
" transform="scale(0.015625)"/>
       <path id="DejaVuSans-Oblique-3bc" d="M -84 -1331 
L 856 3500 
L 1434 3500 
L 1009 1322 
Q 997 1256 987 1175 
Q 978 1094 978 1013 
Q 978 722 1161 565 
Q 1344 409 1684 409 
Q 2147 409 2431 671 
Q 2716 934 2816 1459 
L 3213 3500 
L 3788 3500 
L 3266 809 
Q 3253 750 3248 706 
Q 3244 663 3244 628 
Q 3244 531 3283 486 
Q 3322 441 3406 441 
Q 3438 441 3492 456 
Q 3547 472 3647 513 
L 3559 50 
Q 3422 -19 3297 -55 
Q 3172 -91 3053 -91 
Q 2847 -91 2730 40 
Q 2613 172 2613 403 
Q 2438 153 2195 31 
Q 1953 -91 1625 -91 
Q 1334 -91 1117 43 
Q 900 178 831 397 
L 494 -1331 
L -84 -1331 
z
" transform="scale(0.015625)"/>
       <path id="DejaVuSans-2b" d="M 2944 4013 
L 2944 2272 
L 4684 2272 
L 4684 1741 
L 2944 1741 
L 2944 0 
L 2419 0 
L 2419 1741 
L 678 1741 
L 678 2272 
L 2419 2272 
L 2419 4013 
L 2944 4013 
z
" transform="scale(0.015625)"/>
       <path id="DejaVuSans-Oblique-65" d="M 3078 2063 
Q 3088 2113 3092 2166 
Q 3097 2219 3097 2272 
Q 3097 2653 2873 2875 
Q 2650 3097 2266 3097 
Q 1838 3097 1509 2826 
Q 1181 2556 1013 2059 
L 3078 2063 
z
M 3578 1613 
L 903 1613 
Q 884 1494 878 1425 
Q 872 1356 872 1306 
Q 872 872 1139 634 
Q 1406 397 1894 397 
Q 2269 397 2603 481 
Q 2938 566 3225 728 
L 3116 159 
Q 2806 34 2476 -28 
Q 2147 -91 1806 -91 
Q 1078 -91 686 257 
Q 294 606 294 1247 
Q 294 1794 489 2264 
Q 684 2734 1063 3103 
Q 1306 3334 1642 3459 
Q 1978 3584 2356 3584 
Q 2950 3584 3301 3228 
Q 3653 2872 3653 2272 
Q 3653 2128 3634 1964 
Q 3616 1800 3578 1613 
z
" transform="scale(0.015625)"/>
       <path id="DejaVuSans-Oblique-45" d="M 1081 4666 
L 4031 4666 
L 3928 4134 
L 1606 4134 
L 1338 2753 
L 3566 2753 
L 3463 2222 
L 1234 2222 
L 909 531 
L 3284 531 
L 3181 0 
L 172 0 
L 1081 4666 
z
" transform="scale(0.015625)"/>
       <path id="DejaVuSans-32" d="M 1228 531 
L 3431 531 
L 3431 0 
L 469 0 
L 469 531 
Q 828 903 1448 1529 
Q 2069 2156 2228 2338 
Q 2531 2678 2651 2914 
Q 2772 3150 2772 3378 
Q 2772 3750 2511 3984 
Q 2250 4219 1831 4219 
Q 1534 4219 1204 4116 
Q 875 4013 500 3803 
L 500 4441 
Q 881 4594 1212 4672 
Q 1544 4750 1819 4750 
Q 2544 4750 2975 4387 
Q 3406 4025 3406 3419 
Q 3406 3131 3298 2873 
Q 3191 2616 2906 2266 
Q 2828 2175 2409 1742 
Q 1991 1309 1228 531 
z
" transform="scale(0.015625)"/>
       <path id="DejaVuSans-2e" d="M 684 794 
L 1344 794 
L 1344 0 
L 684 0 
L 684 794 
z
" transform="scale(0.015625)"/>
      </defs>
      <use xlink:href="#DejaVuSans-Oblique-3d5" transform="translate(0 0.765625)"/>
      <use xlink:href="#DejaVuSans-Oblique-3bd" transform="translate(65.966797 -15.640625)scale(0.7)"/>
      <use xlink:href="#DejaVuSans-Oblique-3bc" transform="translate(105.068359 -27.125)scale(0.49)"/>
      <use xlink:href="#DejaVuSans-2b" transform="translate(151.79541 -15.640625)scale(0.7)"/>
      <use xlink:href="#DejaVuSans-Oblique-3bd" transform="translate(224.085449 -15.640625)scale(0.7)"/>
      <use xlink:href="#DejaVuSans-Oblique-65" transform="translate(263.187012 -27.125)scale(0.49)"/>
      <use xlink:href="#DejaVuSans-Oblique-45" transform="translate(297.981934 0.765625)"/>
      <use xlink:href="#DejaVuSans-32" transform="translate(368.182298 39.046875)scale(0.7)"/>
      <use xlink:href="#DejaVuSans-2e" transform="translate(412.718431 39.046875)scale(0.7)"/>
      <use xlink:href="#DejaVuSans-35" transform="translate(434.969408 39.046875)scale(0.7)"/>
     </g>
    </g>
   </g>
   <g id="line2d_74">
    <path d="M 83.7 141.693369 
L 102.38184 142.145888 
L 121.06368 142.814331 
L 137.66976 143.630652 
L 150.12432 144.435305 
L 162.57888 145.439905 
L 172.95768 146.465904 
L 183.33648 147.691245 
L 193.71528 149.132993 
L 202.01832 150.493262 
L 210.32136 152.042827 
L 218.6244 153.791612 
L 226.92744 155.775928 
L 235.23048 157.999406 
L 243.53352 160.471728 
L 249.7608 162.527551 
L 255.98808 164.761776 
L 262.21536 167.174889 
L 268.44264 169.769794 
L 274.66992 172.564888 
L 280.8972 175.563559 
L 287.12448 178.765325 
L 293.35176 182.171637 
L 299.57904 185.796777 
L 305.80632 189.645102 
L 312.0336 193.716612 
L 318.26088 198.011066 
L 326.56392 204.045639 
L 334.86696 210.414749 
L 343.17 217.118152 
L 353.5488 225.832062 
L 363.9276 234.79748 
L 399.21552 265.684007 
L 407.51856 272.629719 
L 415.8216 279.336511 
L 424.12464 285.798331 
L 432.42768 291.951517 
L 440.73072 297.779365 
L 449.03376 303.280666 
L 455.26104 307.171837 
L 461.48832 310.853378 
L 467.7156 314.32529 
L 473.94288 317.588541 
L 482.24592 321.71563 
L 490.54896 325.63551 
L 500.92776 330.260917 
L 509.2308 334.100915 
L 517.53384 338.248338 
L 525.83688 342.704395 
L 532.06416 346.31138 
L 538.29144 350.188027 
L 544.51872 354.33482 
L 550.746 358.750791 
L 554.89752 361.880276 
L 559.04904 365.201477 
L 565.27632 370.5419 
L 571.5036 376.31296 
L 577.73088 382.511751 
L 586.03392 391.189207 
L 594.33696 400.213301 
L 600.56424 407.209218 
L 600.56424 407.209218 
" clip-path="url(#paefd811c3b)" style="fill: none; stroke-dasharray: 3.7,1.6; stroke-dashoffset: 0; stroke: #ff0000"/>
   </g>
   <g id="line2d_75">
    <path d="M 83.7 129.488617 
L 98.23032 128.670238 
L 112.76064 128.057253 
L 127.29096 127.672295 
L 141.82128 127.532671 
L 154.27584 127.654092 
L 166.7304 128.016489 
L 177.1092 128.557387 
L 187.488 129.327885 
L 195.79104 130.133821 
L 204.09408 131.135347 
L 212.39712 132.332705 
L 220.70016 133.751312 
L 229.0032 135.433771 
L 237.30624 137.37984 
L 243.53352 139.021003 
L 249.7608 140.844684 
L 255.98808 142.853061 
L 262.21536 145.046378 
L 268.44264 147.42899 
L 274.66992 150.025831 
L 280.8972 152.841743 
L 287.12448 155.876241 
L 293.35176 159.130534 
L 299.57904 162.611161 
L 305.80632 166.319813 
L 312.0336 170.256977 
L 318.26088 174.422167 
L 326.56392 180.289957 
L 334.86696 186.496155 
L 343.17 193.041247 
L 355.62456 203.283469 
L 368.07912 213.867973 
L 386.76096 229.913691 
L 401.29128 242.142941 
L 409.59432 248.852879 
L 417.89736 255.322204 
L 426.2004 261.537359 
L 434.50344 267.446542 
L 442.80648 273.044911 
L 451.10952 278.327142 
L 457.3368 282.058549 
L 463.56408 285.58904 
L 469.79136 288.918859 
L 478.0944 293.078627 
L 488.4732 297.997419 
L 498.852 302.619921 
L 505.07928 305.40388 
L 511.30656 308.387786 
L 517.53384 311.57067 
L 523.76112 314.952533 
L 529.9884 318.563391 
L 536.21568 322.458193 
L 542.44296 326.637181 
L 548.67024 331.101323 
L 554.89752 335.878216 
L 561.1248 341.06057 
L 567.35208 346.655889 
L 573.57936 352.663206 
L 579.80664 359.051777 
L 588.10968 367.867452 
L 596.41272 376.975302 
L 600.56424 381.639004 
L 600.56424 381.639004 
" clip-path="url(#paefd811c3b)" style="fill: none; stroke: #008000; stroke-width: 3; stroke-linecap: square"/>
   </g>
   <g id="line2d_76">
    <path d="M 83.7 120.813921 
L 96.15456 119.279364 
L 108.60912 117.952985 
L 121.06368 116.83672 
L 133.51824 115.932867 
L 143.89704 115.358928 
L 154.27584 114.985056 
L 164.65464 114.813068 
L 175.03344 114.864749 
L 185.41224 115.14724 
L 193.71528 115.558366 
L 202.01832 116.181542 
L 210.32136 117.018705 
L 218.6244 118.080506 
L 226.92744 119.407369 
L 235.23048 121.002927 
L 243.53352 122.877587 
L 249.7608 124.504709 
L 255.98808 126.327664 
L 262.21536 128.34645 
L 268.44264 130.5647 
L 274.66992 133.002261 
L 280.8972 135.662282 
L 287.12448 138.545003 
L 293.35176 141.651395 
L 299.57904 144.994043 
L 305.80632 148.576821 
L 312.0336 152.400214 
L 318.26088 156.462768 
L 326.56392 162.187012 
L 334.86696 168.230057 
L 343.17 174.591904 
L 355.62456 184.540016 
L 368.07912 194.820484 
L 384.6852 208.646065 
L 399.21552 220.468885 
L 409.59432 228.586344 
L 419.97312 236.367572 
L 428.27616 242.306771 
L 436.5792 247.917002 
L 444.88224 253.196812 
L 451.10952 256.934028 
L 457.3368 260.458953 
L 463.56408 263.76989 
L 469.79136 266.866599 
L 478.0944 270.700061 
L 488.4732 275.208792 
L 498.852 279.422686 
L 505.07928 281.965305 
L 511.30656 284.714406 
L 517.53384 287.669748 
L 523.76112 290.831572 
L 529.9884 294.23038 
L 536.21568 297.921604 
L 542.44296 301.906697 
L 548.67024 306.185658 
L 554.89752 310.790925 
L 559.04904 314.100023 
L 563.20056 317.604469 
L 569.42784 323.22811 
L 575.65512 329.290617 
L 583.95816 337.889643 
L 592.2612 346.832888 
L 600.56424 356.116236 
L 600.56424 356.116236 
" clip-path="url(#paefd811c3b)" style="fill: none; stroke-dasharray: 3.7,1.6; stroke-dashoffset: 0; stroke: #0000ff"/>
   </g>
   <g id="line2d_77">
    <path d="M 83.7 125.475565 
L 98.23032 124.025236 
L 110.68488 122.990581 
L 123.13944 122.151769 
L 135.594 121.512653 
L 148.04856 121.077716 
L 160.50312 120.852086 
L 172.95768 120.841558 
L 185.41224 121.052613 
L 197.8668 121.492432 
L 210.32136 122.16892 
L 222.77592 123.090719 
L 235.23048 124.267229 
L 245.60928 125.449545 
L 255.98808 126.822107 
L 266.36688 128.391617 
L 276.74568 130.165174 
L 287.12448 132.150281 
L 297.50328 134.354858 
L 307.88208 136.78724 
L 318.26088 139.456193 
L 328.63968 142.370916 
L 339.01848 145.541054 
L 349.39728 148.976697 
L 359.77608 152.688395 
L 370.15488 156.687162 
L 378.45792 160.100568 
L 386.76096 163.711142 
L 395.064 167.525183 
L 403.36704 171.549194 
L 411.67008 175.789879 
L 419.97312 180.254149 
L 428.27616 184.949124 
L 436.5792 189.882133 
L 444.88224 195.060722 
L 453.18528 200.49265 
L 461.48832 206.185893 
L 469.79136 212.14865 
L 478.0944 218.389343 
L 486.39744 224.916618 
L 494.70048 231.73935 
L 503.00352 238.866643 
L 511.30656 246.307836 
L 519.6096 254.0725 
L 527.91264 262.170445 
L 536.21568 270.611723 
L 544.51872 279.406625 
L 552.82176 288.565688 
L 561.1248 298.099699 
L 569.42784 308.01969 
L 577.73088 318.336947 
L 586.03392 329.063013 
L 594.33696 340.209685 
L 600.56424 348.852954 
L 600.56424 348.852954 
" clip-path="url(#paefd811c3b)" style="fill: none; stroke-dasharray: 3.7,1.6; stroke-dashoffset: 0; stroke: #000000"/>
   </g>
   <g id="line2d_78">
    <path d="M 83.7 91.504276 
L 100.30608 90.595609 
L 114.8364 90.013991 
L 129.36672 89.641913 
L 143.89704 89.49041 
L 158.42736 89.571686 
L 172.95768 89.899139 
L 185.41224 90.386787 
L 197.8668 91.075923 
L 210.32136 91.97713 
L 222.77592 93.10167 
L 235.23048 94.461493 
L 247.68504 96.069243 
L 260.1396 97.938267 
L 270.5184 99.705494 
L 280.8972 101.67243 
L 291.276 103.847944 
L 301.6548 106.241258 
L 312.0336 108.861953 
L 322.4124 111.719968 
L 332.7912 114.825608 
L 343.17 118.189545 
L 353.5488 121.822821 
L 363.9276 125.736853 
L 374.3064 129.943434 
L 382.60944 133.527502 
L 390.91248 137.312997 
L 399.21552 141.306485 
L 407.51856 145.514696 
L 415.8216 149.944518 
L 424.12464 154.603001 
L 432.42768 159.497358 
L 440.73072 164.634966 
L 449.03376 170.023367 
L 457.3368 175.670268 
L 465.63984 181.583545 
L 473.94288 187.771241 
L 482.24592 194.241568 
L 490.54896 201.00291 
L 498.852 208.063821 
L 507.15504 215.433029 
L 515.45808 223.119433 
L 523.76112 231.13211 
L 532.06416 239.480312 
L 540.3672 248.173466 
L 548.67024 257.221181 
L 556.97328 266.63324 
L 565.27632 276.419612 
L 573.57936 286.590443 
L 581.8824 297.156063 
L 590.18544 308.126986 
L 598.48848 319.51391 
L 600.56424 322.426913 
L 600.56424 322.426913 
" clip-path="url(#paefd811c3b)" style="fill: none; stroke: #00ffff; stroke-width: 3; stroke-linecap: square"/>
   </g>
   <g id="line2d_79">
    <path d="M 83.7 79.611718 
L 100.30608 78.740972 
L 116.91216 78.097726 
L 133.51824 77.698524 
L 148.04856 77.564011 
L 162.57888 77.644394 
L 177.1092 77.954746 
L 191.63952 78.511416 
L 204.09408 79.19795 
L 216.54864 80.090269 
L 229.0032 81.20096 
L 241.45776 82.543334 
L 253.91232 84.131429 
L 266.36688 85.980021 
L 276.74568 87.730678 
L 287.12448 89.682379 
L 297.50328 91.844868 
L 307.88208 94.228259 
L 318.26088 96.843036 
L 328.63968 99.700058 
L 339.01848 102.810561 
L 349.39728 106.186164 
L 359.77608 109.838867 
L 370.15488 113.781056 
L 378.45792 117.151811 
L 386.76096 120.72273 
L 395.064 124.500698 
L 403.36704 128.492761 
L 411.67008 132.70613 
L 419.97312 137.148181 
L 428.27616 141.826456 
L 436.5792 146.748663 
L 444.88224 151.922678 
L 453.18528 157.356546 
L 461.48832 163.058481 
L 469.79136 169.036868 
L 478.0944 175.300265 
L 486.39744 181.857401 
L 494.70048 188.717179 
L 503.00352 195.888678 
L 511.30656 203.38115 
L 519.6096 211.204027 
L 527.91264 219.366917 
L 536.21568 227.879606 
L 544.51872 236.75206 
L 552.82176 245.994427 
L 561.1248 255.617035 
L 569.42784 265.630395 
L 577.73088 276.045202 
L 586.03392 286.872335 
L 594.33696 298.122859 
L 600.56424 306.845365 
L 600.56424 306.845365 
" clip-path="url(#paefd811c3b)" style="fill: none; stroke-dasharray: 3.7,1.6; stroke-dashoffset: 0; stroke: #ffc0cb"/>
   </g>
   <g id="line2d_80">
    <path d="M 83.7 130.834507 
L 98.23032 130.025327 
L 112.76064 129.426503 
L 127.29096 129.052558 
L 141.82128 128.920075 
L 154.27584 129.058077 
L 166.7304 129.448918 
L 177.1092 130.014143 
L 187.488 130.808122 
L 195.79104 131.636086 
L 204.09408 132.667386 
L 212.39712 133.901296 
L 220.70016 135.366137 
L 229.0032 137.104756 
L 237.30624 139.11812 
L 243.53352 140.816411 
L 249.7608 142.704723 
L 255.98808 144.784026 
L 262.21536 147.054804 
L 268.44264 149.521897 
L 274.66992 152.214839 
L 280.8972 155.138228 
L 287.12448 158.291822 
L 293.35176 161.677316 
L 299.57904 165.309718 
L 305.80632 169.193385 
L 312.0336 173.328801 
L 318.26088 177.714998 
L 324.48816 182.332369 
L 330.71544 187.169294 
L 336.94272 192.226741 
L 345.24576 199.3068 
L 355.62456 208.537281 
L 366.00336 218.12723 
L 384.6852 235.920185 
L 405.4428 255.655627 
L 415.8216 265.187238 
L 426.2004 274.431274 
L 434.50344 281.563619 
L 442.80648 288.452445 
L 451.10952 295.093153 
L 459.41256 301.454032 
L 467.7156 307.530725 
L 476.01864 313.333883 
L 488.4732 321.75407 
L 509.2308 335.637311 
L 515.45808 340.259765 
L 521.68536 345.160596 
L 527.91264 350.349485 
L 534.13992 355.887677 
L 540.3672 361.783643 
L 546.59448 368.038593 
L 552.82176 374.64091 
L 561.1248 383.745855 
L 569.42784 393.127966 
L 590.18544 416.856537 
L 598.48848 425.69884 
L 600.56424 427.842 
L 600.56424 427.842 
" clip-path="url(#paefd811c3b)" style="fill: none; stroke: #a52a2a; stroke-width: 3; stroke-linecap: square"/>
   </g>
   <g id="patch_3">
    <path d="M 83.7 445.356 
L 83.7 60.048 
" style="fill: none; stroke: #000000; stroke-width: 0.8; stroke-linejoin: miter; stroke-linecap: square"/>
   </g>
   <g id="patch_4">
    <path d="M 602.64 445.356 
L 602.64 60.048 
" style="fill: none; stroke: #000000; stroke-width: 0.8; stroke-linejoin: miter; stroke-linecap: square"/>
   </g>
   <g id="patch_5">
    <path d="M 83.7 445.356 
L 602.64 445.356 
" style="fill: none; stroke: #000000; stroke-width: 0.8; stroke-linejoin: miter; stroke-linecap: square"/>
   </g>
   <g id="patch_6">
    <path d="M 83.7 60.048 
L 602.64 60.048 
" style="fill: none; stroke: #000000; stroke-width: 0.8; stroke-linejoin: miter; stroke-linecap: square"/>
   </g>
   <g id="legend_1">
    <g id="patch_7">
     <path d="M 97.7 435.356 
L 357.665625 435.356 
Q 361.665625 435.356 361.665625 431.356 
L 361.665625 223.9685 
Q 361.665625 219.9685 357.665625 219.9685 
L 97.7 219.9685 
Q 93.7 219.9685 93.7 223.9685 
L 93.7 431.356 
Q 93.7 435.356 97.7 435.356 
z
" style="fill: #ffffff; opacity: 0.8; stroke: #cccccc; stroke-linejoin: miter"/>
    </g>
    <g id="line2d_81">
     <path d="M 101.7 236.165375 
L 121.7 236.165375 
L 141.7 236.165375 
" style="fill: none; stroke-dasharray: 3.7,1.6; stroke-dashoffset: 0; stroke: #ff0000"/>
    </g>
    <g id="text_12">
     <!-- BERSS_H3p_lower -->
     <g transform="translate(157.7 243.165375)scale(0.2 -0.2)">
      <defs>
       <path id="DejaVuSans-42" d="M 1259 2228 
L 1259 519 
L 2272 519 
Q 2781 519 3026 730 
Q 3272 941 3272 1375 
Q 3272 1813 3026 2020 
Q 2781 2228 2272 2228 
L 1259 2228 
z
M 1259 4147 
L 1259 2741 
L 2194 2741 
Q 2656 2741 2882 2914 
Q 3109 3088 3109 3444 
Q 3109 3797 2882 3972 
Q 2656 4147 2194 4147 
L 1259 4147 
z
M 628 4666 
L 2241 4666 
Q 2963 4666 3353 4366 
Q 3744 4066 3744 3513 
Q 3744 3084 3544 2831 
Q 3344 2578 2956 2516 
Q 3422 2416 3680 2098 
Q 3938 1781 3938 1306 
Q 3938 681 3513 340 
Q 3088 0 2303 0 
L 628 0 
L 628 4666 
z
" transform="scale(0.015625)"/>
       <path id="DejaVuSans-52" d="M 2841 2188 
Q 3044 2119 3236 1894 
Q 3428 1669 3622 1275 
L 4263 0 
L 3584 0 
L 2988 1197 
Q 2756 1666 2539 1819 
Q 2322 1972 1947 1972 
L 1259 1972 
L 1259 0 
L 628 0 
L 628 4666 
L 2053 4666 
Q 2853 4666 3247 4331 
Q 3641 3997 3641 3322 
Q 3641 2881 3436 2590 
Q 3231 2300 2841 2188 
z
M 1259 4147 
L 1259 2491 
L 2053 2491 
Q 2509 2491 2742 2702 
Q 2975 2913 2975 3322 
Q 2975 3731 2742 3939 
Q 2509 4147 2053 4147 
L 1259 4147 
z
" transform="scale(0.015625)"/>
       <path id="DejaVuSans-53" d="M 3425 4513 
L 3425 3897 
Q 3066 4069 2747 4153 
Q 2428 4238 2131 4238 
Q 1616 4238 1336 4038 
Q 1056 3838 1056 3469 
Q 1056 3159 1242 3001 
Q 1428 2844 1947 2747 
L 2328 2669 
Q 3034 2534 3370 2195 
Q 3706 1856 3706 1288 
Q 3706 609 3251 259 
Q 2797 -91 1919 -91 
Q 1588 -91 1214 -16 
Q 841 59 441 206 
L 441 856 
Q 825 641 1194 531 
Q 1563 422 1919 422 
Q 2459 422 2753 634 
Q 3047 847 3047 1241 
Q 3047 1584 2836 1778 
Q 2625 1972 2144 2069 
L 1759 2144 
Q 1053 2284 737 2584 
Q 422 2884 422 3419 
Q 422 4038 858 4394 
Q 1294 4750 2059 4750 
Q 2388 4750 2728 4690 
Q 3069 4631 3425 4513 
z
" transform="scale(0.015625)"/>
       <path id="DejaVuSans-5f" d="M 3263 -1063 
L 3263 -1509 
L -63 -1509 
L -63 -1063 
L 3263 -1063 
z
" transform="scale(0.015625)"/>
       <path id="DejaVuSans-48" d="M 628 4666 
L 1259 4666 
L 1259 2753 
L 3553 2753 
L 3553 4666 
L 4184 4666 
L 4184 0 
L 3553 0 
L 3553 2222 
L 1259 2222 
L 1259 0 
L 628 0 
L 628 4666 
z
" transform="scale(0.015625)"/>
       <path id="DejaVuSans-70" d="M 1159 525 
L 1159 -1331 
L 581 -1331 
L 581 3500 
L 1159 3500 
L 1159 2969 
Q 1341 3281 1617 3432 
Q 1894 3584 2278 3584 
Q 2916 3584 3314 3078 
Q 3713 2572 3713 1747 
Q 3713 922 3314 415 
Q 2916 -91 2278 -91 
Q 1894 -91 1617 61 
Q 1341 213 1159 525 
z
M 3116 1747 
Q 3116 2381 2855 2742 
Q 2594 3103 2138 3103 
Q 1681 3103 1420 2742 
Q 1159 2381 1159 1747 
Q 1159 1113 1420 752 
Q 1681 391 2138 391 
Q 2594 391 2855 752 
Q 3116 1113 3116 1747 
z
" transform="scale(0.015625)"/>
       <path id="DejaVuSans-6c" d="M 603 4863 
L 1178 4863 
L 1178 0 
L 603 0 
L 603 4863 
z
" transform="scale(0.015625)"/>
       <path id="DejaVuSans-6f" d="M 1959 3097 
Q 1497 3097 1228 2736 
Q 959 2375 959 1747 
Q 959 1119 1226 758 
Q 1494 397 1959 397 
Q 2419 397 2687 759 
Q 2956 1122 2956 1747 
Q 2956 2369 2687 2733 
Q 2419 3097 1959 3097 
z
M 1959 3584 
Q 2709 3584 3137 3096 
Q 3566 2609 3566 1747 
Q 3566 888 3137 398 
Q 2709 -91 1959 -91 
Q 1206 -91 779 398 
Q 353 888 353 1747 
Q 353 2609 779 3096 
Q 1206 3584 1959 3584 
z
" transform="scale(0.015625)"/>
       <path id="DejaVuSans-77" d="M 269 3500 
L 844 3500 
L 1563 769 
L 2278 3500 
L 2956 3500 
L 3675 769 
L 4391 3500 
L 4966 3500 
L 4050 0 
L 3372 0 
L 2619 2869 
L 1863 0 
L 1184 0 
L 269 3500 
z
" transform="scale(0.015625)"/>
      </defs>
      <use xlink:href="#DejaVuSans-42"/>
      <use xlink:href="#DejaVuSans-45" x="68.603516"/>
      <use xlink:href="#DejaVuSans-52" x="131.787109"/>
      <use xlink:href="#DejaVuSans-53" x="201.269531"/>
      <use xlink:href="#DejaVuSans-53" x="264.746094"/>
      <use xlink:href="#DejaVuSans-5f" x="328.222656"/>
      <use xlink:href="#DejaVuSans-48" x="378.222656"/>
      <use xlink:href="#DejaVuSans-33" x="453.417969"/>
      <use xlink:href="#DejaVuSans-70" x="517.041016"/>
      <use xlink:href="#DejaVuSans-5f" x="580.517578"/>
      <use xlink:href="#DejaVuSans-6c" x="630.517578"/>
      <use xlink:href="#DejaVuSans-6f" x="658.300781"/>
      <use xlink:href="#DejaVuSans-77" x="719.482422"/>
      <use xlink:href="#DejaVuSans-65" x="801.269531"/>
      <use xlink:href="#DejaVuSans-72" x="862.792969"/>
     </g>
    </g>
    <g id="line2d_82">
     <path d="M 101.7 266.077875 
L 121.7 266.077875 
L 141.7 266.077875 
" style="fill: none; stroke: #008000; stroke-width: 3; stroke-linecap: square"/>
    </g>
    <g id="text_13">
     <!-- BERSS_H3p_central -->
     <g transform="translate(157.7 273.077875)scale(0.2 -0.2)">
      <defs>
       <path id="DejaVuSans-63" d="M 3122 3366 
L 3122 2828 
Q 2878 2963 2633 3030 
Q 2388 3097 2138 3097 
Q 1578 3097 1268 2742 
Q 959 2388 959 1747 
Q 959 1106 1268 751 
Q 1578 397 2138 397 
Q 2388 397 2633 464 
Q 2878 531 3122 666 
L 3122 134 
Q 2881 22 2623 -34 
Q 2366 -91 2075 -91 
Q 1284 -91 818 406 
Q 353 903 353 1747 
Q 353 2603 823 3093 
Q 1294 3584 2113 3584 
Q 2378 3584 2631 3529 
Q 2884 3475 3122 3366 
z
" transform="scale(0.015625)"/>
       <path id="DejaVuSans-74" d="M 1172 4494 
L 1172 3500 
L 2356 3500 
L 2356 3053 
L 1172 3053 
L 1172 1153 
Q 1172 725 1289 603 
Q 1406 481 1766 481 
L 2356 481 
L 2356 0 
L 1766 0 
Q 1100 0 847 248 
Q 594 497 594 1153 
L 594 3053 
L 172 3053 
L 172 3500 
L 594 3500 
L 594 4494 
L 1172 4494 
z
" transform="scale(0.015625)"/>
       <path id="DejaVuSans-61" d="M 2194 1759 
Q 1497 1759 1228 1600 
Q 959 1441 959 1056 
Q 959 750 1161 570 
Q 1363 391 1709 391 
Q 2188 391 2477 730 
Q 2766 1069 2766 1631 
L 2766 1759 
L 2194 1759 
z
M 3341 1997 
L 3341 0 
L 2766 0 
L 2766 531 
Q 2569 213 2275 61 
Q 1981 -91 1556 -91 
Q 1019 -91 701 211 
Q 384 513 384 1019 
Q 384 1609 779 1909 
Q 1175 2209 1959 2209 
L 2766 2209 
L 2766 2266 
Q 2766 2663 2505 2880 
Q 2244 3097 1772 3097 
Q 1472 3097 1187 3025 
Q 903 2953 641 2809 
L 641 3341 
Q 956 3463 1253 3523 
Q 1550 3584 1831 3584 
Q 2591 3584 2966 3190 
Q 3341 2797 3341 1997 
z
" transform="scale(0.015625)"/>
      </defs>
      <use xlink:href="#DejaVuSans-42"/>
      <use xlink:href="#DejaVuSans-45" x="68.603516"/>
      <use xlink:href="#DejaVuSans-52" x="131.787109"/>
      <use xlink:href="#DejaVuSans-53" x="201.269531"/>
      <use xlink:href="#DejaVuSans-53" x="264.746094"/>
      <use xlink:href="#DejaVuSans-5f" x="328.222656"/>
      <use xlink:href="#DejaVuSans-48" x="378.222656"/>
      <use xlink:href="#DejaVuSans-33" x="453.417969"/>
      <use xlink:href="#DejaVuSans-70" x="517.041016"/>
      <use xlink:href="#DejaVuSans-5f" x="580.517578"/>
      <use xlink:href="#DejaVuSans-63" x="630.517578"/>
      <use xlink:href="#DejaVuSans-65" x="685.498047"/>
      <use xlink:href="#DejaVuSans-6e" x="747.021484"/>
      <use xlink:href="#DejaVuSans-74" x="810.400391"/>
      <use xlink:href="#DejaVuSans-72" x="849.609375"/>
      <use xlink:href="#DejaVuSans-61" x="890.722656"/>
      <use xlink:href="#DejaVuSans-6c" x="952.001953"/>
     </g>
    </g>
    <g id="line2d_83">
     <path d="M 101.7 295.990375 
L 121.7 295.990375 
L 141.7 295.990375 
" style="fill: none; stroke-dasharray: 3.7,1.6; stroke-dashoffset: 0; stroke: #0000ff"/>
    </g>
    <g id="text_14">
     <!-- BERSS_H3p_upper -->
     <g transform="translate(157.7 302.990375)scale(0.2 -0.2)">
      <defs>
       <path id="DejaVuSans-75" d="M 544 1381 
L 544 3500 
L 1119 3500 
L 1119 1403 
Q 1119 906 1312 657 
Q 1506 409 1894 409 
Q 2359 409 2629 706 
Q 2900 1003 2900 1516 
L 2900 3500 
L 3475 3500 
L 3475 0 
L 2900 0 
L 2900 538 
Q 2691 219 2414 64 
Q 2138 -91 1772 -91 
Q 1169 -91 856 284 
Q 544 659 544 1381 
z
M 1991 3584 
L 1991 3584 
z
" transform="scale(0.015625)"/>
      </defs>
      <use xlink:href="#DejaVuSans-42"/>
      <use xlink:href="#DejaVuSans-45" x="68.603516"/>
      <use xlink:href="#DejaVuSans-52" x="131.787109"/>
      <use xlink:href="#DejaVuSans-53" x="201.269531"/>
      <use xlink:href="#DejaVuSans-53" x="264.746094"/>
      <use xlink:href="#DejaVuSans-5f" x="328.222656"/>
      <use xlink:href="#DejaVuSans-48" x="378.222656"/>
      <use xlink:href="#DejaVuSans-33" x="453.417969"/>
      <use xlink:href="#DejaVuSans-70" x="517.041016"/>
      <use xlink:href="#DejaVuSans-5f" x="580.517578"/>
      <use xlink:href="#DejaVuSans-75" x="630.517578"/>
      <use xlink:href="#DejaVuSans-70" x="693.896484"/>
      <use xlink:href="#DejaVuSans-70" x="757.373047"/>
      <use xlink:href="#DejaVuSans-65" x="820.849609"/>
      <use xlink:href="#DejaVuSans-72" x="882.373047"/>
     </g>
    </g>
    <g id="line2d_84">
     <path d="M 101.7 325.902875 
L 121.7 325.902875 
L 141.7 325.902875 
" style="fill: none; stroke-dasharray: 3.7,1.6; stroke-dashoffset: 0; stroke: #000000"/>
    </g>
    <g id="text_15">
     <!-- ERS_min -->
     <g transform="translate(157.7 332.902875)scale(0.2 -0.2)">
      <defs>
       <path id="DejaVuSans-6d" d="M 3328 2828 
Q 3544 3216 3844 3400 
Q 4144 3584 4550 3584 
Q 5097 3584 5394 3201 
Q 5691 2819 5691 2113 
L 5691 0 
L 5113 0 
L 5113 2094 
Q 5113 2597 4934 2840 
Q 4756 3084 4391 3084 
Q 3944 3084 3684 2787 
Q 3425 2491 3425 1978 
L 3425 0 
L 2847 0 
L 2847 2094 
Q 2847 2600 2669 2842 
Q 2491 3084 2119 3084 
Q 1678 3084 1418 2786 
Q 1159 2488 1159 1978 
L 1159 0 
L 581 0 
L 581 3500 
L 1159 3500 
L 1159 2956 
Q 1356 3278 1631 3431 
Q 1906 3584 2284 3584 
Q 2666 3584 2933 3390 
Q 3200 3197 3328 2828 
z
" transform="scale(0.015625)"/>
       <path id="DejaVuSans-69" d="M 603 3500 
L 1178 3500 
L 1178 0 
L 603 0 
L 603 3500 
z
M 603 4863 
L 1178 4863 
L 1178 4134 
L 603 4134 
L 603 4863 
z
" transform="scale(0.015625)"/>
      </defs>
      <use xlink:href="#DejaVuSans-45"/>
      <use xlink:href="#DejaVuSans-52" x="63.183594"/>
      <use xlink:href="#DejaVuSans-53" x="132.666016"/>
      <use xlink:href="#DejaVuSans-5f" x="196.142578"/>
      <use xlink:href="#DejaVuSans-6d" x="246.142578"/>
      <use xlink:href="#DejaVuSans-69" x="343.554688"/>
      <use xlink:href="#DejaVuSans-6e" x="371.337891"/>
     </g>
    </g>
    <g id="line2d_85">
     <path d="M 101.7 355.815375 
L 121.7 355.815375 
L 141.7 355.815375 
" style="fill: none; stroke: #00ffff; stroke-width: 3; stroke-linecap: square"/>
    </g>
    <g id="text_16">
     <!-- ERS_std -->
     <g transform="translate(157.7 362.815375)scale(0.2 -0.2)">
      <defs>
       <path id="DejaVuSans-73" d="M 2834 3397 
L 2834 2853 
Q 2591 2978 2328 3040 
Q 2066 3103 1784 3103 
Q 1356 3103 1142 2972 
Q 928 2841 928 2578 
Q 928 2378 1081 2264 
Q 1234 2150 1697 2047 
L 1894 2003 
Q 2506 1872 2764 1633 
Q 3022 1394 3022 966 
Q 3022 478 2636 193 
Q 2250 -91 1575 -91 
Q 1294 -91 989 -36 
Q 684 19 347 128 
L 347 722 
Q 666 556 975 473 
Q 1284 391 1588 391 
Q 1994 391 2212 530 
Q 2431 669 2431 922 
Q 2431 1156 2273 1281 
Q 2116 1406 1581 1522 
L 1381 1569 
Q 847 1681 609 1914 
Q 372 2147 372 2553 
Q 372 3047 722 3315 
Q 1072 3584 1716 3584 
Q 2034 3584 2315 3537 
Q 2597 3491 2834 3397 
z
" transform="scale(0.015625)"/>
       <path id="DejaVuSans-64" d="M 2906 2969 
L 2906 4863 
L 3481 4863 
L 3481 0 
L 2906 0 
L 2906 525 
Q 2725 213 2448 61 
Q 2172 -91 1784 -91 
Q 1150 -91 751 415 
Q 353 922 353 1747 
Q 353 2572 751 3078 
Q 1150 3584 1784 3584 
Q 2172 3584 2448 3432 
Q 2725 3281 2906 2969 
z
M 947 1747 
Q 947 1113 1208 752 
Q 1469 391 1925 391 
Q 2381 391 2643 752 
Q 2906 1113 2906 1747 
Q 2906 2381 2643 2742 
Q 2381 3103 1925 3103 
Q 1469 3103 1208 2742 
Q 947 2381 947 1747 
z
" transform="scale(0.015625)"/>
      </defs>
      <use xlink:href="#DejaVuSans-45"/>
      <use xlink:href="#DejaVuSans-52" x="63.183594"/>
      <use xlink:href="#DejaVuSans-53" x="132.666016"/>
      <use xlink:href="#DejaVuSans-5f" x="196.142578"/>
      <use xlink:href="#DejaVuSans-73" x="246.142578"/>
      <use xlink:href="#DejaVuSans-74" x="298.242188"/>
      <use xlink:href="#DejaVuSans-64" x="337.451172"/>
     </g>
    </g>
    <g id="line2d_86">
     <path d="M 101.7 385.727875 
L 121.7 385.727875 
L 141.7 385.727875 
" style="fill: none; stroke-dasharray: 3.7,1.6; stroke-dashoffset: 0; stroke: #ffc0cb"/>
    </g>
    <g id="text_17">
     <!-- ERS_max -->
     <g transform="translate(157.7 392.727875)scale(0.2 -0.2)">
      <defs>
       <path id="DejaVuSans-78" d="M 3513 3500 
L 2247 1797 
L 3578 0 
L 2900 0 
L 1881 1375 
L 863 0 
L 184 0 
L 1544 1831 
L 300 3500 
L 978 3500 
L 1906 2253 
L 2834 3500 
L 3513 3500 
z
" transform="scale(0.015625)"/>
      </defs>
      <use xlink:href="#DejaVuSans-45"/>
      <use xlink:href="#DejaVuSans-52" x="63.183594"/>
      <use xlink:href="#DejaVuSans-53" x="132.666016"/>
      <use xlink:href="#DejaVuSans-5f" x="196.142578"/>
      <use xlink:href="#DejaVuSans-6d" x="246.142578"/>
      <use xlink:href="#DejaVuSans-61" x="343.554688"/>
      <use xlink:href="#DejaVuSans-78" x="404.833984"/>
     </g>
    </g>
    <g id="line2d_87">
     <path d="M 101.7 415.640375 
L 121.7 415.640375 
L 141.7 415.640375 
" style="fill: none; stroke: #a52a2a; stroke-width: 3; stroke-linecap: square"/>
    </g>
    <g id="text_18">
     <!-- BERSS_H3a_central -->
     <g transform="translate(157.7 422.640375)scale(0.2 -0.2)">
      <use xlink:href="#DejaVuSans-42"/>
      <use xlink:href="#DejaVuSans-45" x="68.603516"/>
      <use xlink:href="#DejaVuSans-52" x="131.787109"/>
      <use xlink:href="#DejaVuSans-53" x="201.269531"/>
      <use xlink:href="#DejaVuSans-53" x="264.746094"/>
      <use xlink:href="#DejaVuSans-5f" x="328.222656"/>
      <use xlink:href="#DejaVuSans-48" x="378.222656"/>
      <use xlink:href="#DejaVuSans-33" x="453.417969"/>
      <use xlink:href="#DejaVuSans-61" x="517.041016"/>
      <use xlink:href="#DejaVuSans-5f" x="578.320312"/>
      <use xlink:href="#DejaVuSans-63" x="628.320312"/>
      <use xlink:href="#DejaVuSans-65" x="683.300781"/>
      <use xlink:href="#DejaVuSans-6e" x="744.824219"/>
      <use xlink:href="#DejaVuSans-74" x="808.203125"/>
      <use xlink:href="#DejaVuSans-72" x="847.412109"/>
      <use xlink:href="#DejaVuSans-61" x="888.525391"/>
      <use xlink:href="#DejaVuSans-6c" x="949.804688"/>
     </g>
    </g>
   </g>
  </g>
 </g>
 <defs>
  <clipPath id="paefd811c3b">
   <rect x="83.7" y="60.048" width="518.94" height="385.308"/>
  </clipPath>
 </defs>
</svg>
