<?xml version="1.0" encoding="utf-8" standalone="no"?>
<!DOCTYPE svg PUBLIC "-//W3C//DTD SVG 1.1//EN"
  "http://www.w3.org/Graphics/SVG/1.1/DTD/svg11.dtd">
<svg xmlns:xlink="http://www.w3.org/1999/xlink" width="763.2pt" height="466.56pt" viewBox="0 0 763.2 466.56" xmlns="http://www.w3.org/2000/svg" version="1.1">
 <metadata>
  <rdf:RDF xmlns:dc="http://purl.org/dc/elements/1.1/" xmlns:cc="http://creativecommons.org/ns#" xmlns:rdf="http://www.w3.org/1999/02/22-rdf-syntax-ns#">
   <cc:Work>
    <dc:type rdf:resource="http://purl.org/dc/dcmitype/StillImage"/>
    <dc:date>2022-02-06T10:30:56.728546</dc:date>
    <dc:format>image/svg+xml</dc:format>
    <dc:creator>
     <cc:Agent>
      <dc:title>Matplotlib v3.5.0, https://matplotlib.org/</dc:title>
     </cc:Agent>
    </dc:creator>
   </cc:Work>
  </rdf:RDF>
 </metadata>
 <defs>
  <style type="text/css">*{stroke-linejoin: round; stroke-linecap: butt}</style>
 </defs>
 <g id="figure_1">
  <g id="patch_1">
   <path d="M 0 466.56 
L 763.2 466.56 
L 763.2 0 
L 0 0 
z
" style="fill: #ffffff"/>
  </g>
  <g id="axes_1">
   <g id="patch_2">
    <path d="M 95.4 415.2384 
L 686.88 415.2384 
L 686.88 55.9872 
L 95.4 55.9872 
z
" style="fill: #ffffff"/>
   </g>
   <g id="matplotlib.axis_1">
    <g id="xtick_1">
     <g id="line2d_1">
      <defs>
       <path id="mfe0e9caeb8" d="M 0 0 
L 0 3.5 
" style="stroke: #000000; stroke-width: 0.8"/>
      </defs>
      <g>
       <use xlink:href="#mfe0e9caeb8" x="188.48582" y="415.2384" style="stroke: #000000; stroke-width: 0.8"/>
      </g>
     </g>
     <g id="text_1">
      <!-- $\mathdefault{10^{1}}$ -->
      <g transform="translate(170.88582 437.435275)scale(0.2 -0.2)">
       <defs>
        <path id="DejaVuSans-31" d="M 794 531 
L 1825 531 
L 1825 4091 
L 703 3866 
L 703 4441 
L 1819 4666 
L 2450 4666 
L 2450 531 
L 3481 531 
L 3481 0 
L 794 0 
L 794 531 
z
" transform="scale(0.015625)"/>
        <path id="DejaVuSans-30" d="M 2034 4250 
Q 1547 4250 1301 3770 
Q 1056 3291 1056 2328 
Q 1056 1369 1301 889 
Q 1547 409 2034 409 
Q 2525 409 2770 889 
Q 3016 1369 3016 2328 
Q 3016 3291 2770 3770 
Q 2525 4250 2034 4250 
z
M 2034 4750 
Q 2819 4750 3233 4129 
Q 3647 3509 3647 2328 
Q 3647 1150 3233 529 
Q 2819 -91 2034 -91 
Q 1250 -91 836 529 
Q 422 1150 422 2328 
Q 422 3509 836 4129 
Q 1250 4750 2034 4750 
z
" transform="scale(0.015625)"/>
       </defs>
       <use xlink:href="#DejaVuSans-31" transform="translate(0 0.684375)"/>
       <use xlink:href="#DejaVuSans-30" transform="translate(63.623047 0.684375)"/>
       <use xlink:href="#DejaVuSans-31" transform="translate(128.203125 38.965625)scale(0.7)"/>
      </g>
     </g>
    </g>
    <g id="xtick_2">
     <g id="line2d_2">
      <g>
       <use xlink:href="#mfe0e9caeb8" x="323.588607" y="415.2384" style="stroke: #000000; stroke-width: 0.8"/>
      </g>
     </g>
     <g id="text_2">
      <!-- $\mathdefault{10^{3}}$ -->
      <g transform="translate(305.988607 437.435275)scale(0.2 -0.2)">
       <defs>
        <path id="DejaVuSans-33" d="M 2597 2516 
Q 3050 2419 3304 2112 
Q 3559 1806 3559 1356 
Q 3559 666 3084 287 
Q 2609 -91 1734 -91 
Q 1441 -91 1130 -33 
Q 819 25 488 141 
L 488 750 
Q 750 597 1062 519 
Q 1375 441 1716 441 
Q 2309 441 2620 675 
Q 2931 909 2931 1356 
Q 2931 1769 2642 2001 
Q 2353 2234 1838 2234 
L 1294 2234 
L 1294 2753 
L 1863 2753 
Q 2328 2753 2575 2939 
Q 2822 3125 2822 3475 
Q 2822 3834 2567 4026 
Q 2313 4219 1838 4219 
Q 1578 4219 1281 4162 
Q 984 4106 628 3988 
L 628 4550 
Q 988 4650 1302 4700 
Q 1616 4750 1894 4750 
Q 2613 4750 3031 4423 
Q 3450 4097 3450 3541 
Q 3450 3153 3228 2886 
Q 3006 2619 2597 2516 
z
" transform="scale(0.015625)"/>
       </defs>
       <use xlink:href="#DejaVuSans-31" transform="translate(0 0.765625)"/>
       <use xlink:href="#DejaVuSans-30" transform="translate(63.623047 0.765625)"/>
       <use xlink:href="#DejaVuSans-33" transform="translate(128.203125 39.046875)scale(0.7)"/>
      </g>
     </g>
    </g>
    <g id="xtick_3">
     <g id="line2d_3">
      <g>
       <use xlink:href="#mfe0e9caeb8" x="458.691393" y="415.2384" style="stroke: #000000; stroke-width: 0.8"/>
      </g>
     </g>
     <g id="text_3">
      <!-- $\mathdefault{10^{5}}$ -->
      <g transform="translate(441.091393 437.435275)scale(0.2 -0.2)">
       <defs>
        <path id="DejaVuSans-35" d="M 691 4666 
L 3169 4666 
L 3169 4134 
L 1269 4134 
L 1269 2991 
Q 1406 3038 1543 3061 
Q 1681 3084 1819 3084 
Q 2600 3084 3056 2656 
Q 3513 2228 3513 1497 
Q 3513 744 3044 326 
Q 2575 -91 1722 -91 
Q 1428 -91 1123 -41 
Q 819 9 494 109 
L 494 744 
Q 775 591 1075 516 
Q 1375 441 1709 441 
Q 2250 441 2565 725 
Q 2881 1009 2881 1497 
Q 2881 1984 2565 2268 
Q 2250 2553 1709 2553 
Q 1456 2553 1204 2497 
Q 953 2441 691 2322 
L 691 4666 
z
" transform="scale(0.015625)"/>
       </defs>
       <use xlink:href="#DejaVuSans-31" transform="translate(0 0.684375)"/>
       <use xlink:href="#DejaVuSans-30" transform="translate(63.623047 0.684375)"/>
       <use xlink:href="#DejaVuSans-35" transform="translate(128.203125 38.965625)scale(0.7)"/>
      </g>
     </g>
    </g>
    <g id="xtick_4">
     <g id="line2d_4">
      <g>
       <use xlink:href="#mfe0e9caeb8" x="593.79418" y="415.2384" style="stroke: #000000; stroke-width: 0.8"/>
      </g>
     </g>
     <g id="text_4">
      <!-- $\mathdefault{10^{7}}$ -->
      <g transform="translate(576.19418 437.435275)scale(0.2 -0.2)">
       <defs>
        <path id="DejaVuSans-37" d="M 525 4666 
L 3525 4666 
L 3525 4397 
L 1831 0 
L 1172 0 
L 2766 4134 
L 525 4134 
L 525 4666 
z
" transform="scale(0.015625)"/>
       </defs>
       <use xlink:href="#DejaVuSans-31" transform="translate(0 0.684375)"/>
       <use xlink:href="#DejaVuSans-30" transform="translate(63.623047 0.684375)"/>
       <use xlink:href="#DejaVuSans-37" transform="translate(128.203125 38.965625)scale(0.7)"/>
      </g>
     </g>
    </g>
    <g id="text_5">
     <!-- Energy(GeV) -->
     <g transform="translate(327.582187 460.791525)scale(0.2 -0.2)">
      <defs>
       <path id="DejaVuSans-45" d="M 628 4666 
L 3578 4666 
L 3578 4134 
L 1259 4134 
L 1259 2753 
L 3481 2753 
L 3481 2222 
L 1259 2222 
L 1259 531 
L 3634 531 
L 3634 0 
L 628 0 
L 628 4666 
z
" transform="scale(0.015625)"/>
       <path id="DejaVuSans-6e" d="M 3513 2113 
L 3513 0 
L 2938 0 
L 2938 2094 
Q 2938 2591 2744 2837 
Q 2550 3084 2163 3084 
Q 1697 3084 1428 2787 
Q 1159 2491 1159 1978 
L 1159 0 
L 581 0 
L 581 3500 
L 1159 3500 
L 1159 2956 
Q 1366 3272 1645 3428 
Q 1925 3584 2291 3584 
Q 2894 3584 3203 3211 
Q 3513 2838 3513 2113 
z
" transform="scale(0.015625)"/>
       <path id="DejaVuSans-65" d="M 3597 1894 
L 3597 1613 
L 953 1613 
Q 991 1019 1311 708 
Q 1631 397 2203 397 
Q 2534 397 2845 478 
Q 3156 559 3463 722 
L 3463 178 
Q 3153 47 2828 -22 
Q 2503 -91 2169 -91 
Q 1331 -91 842 396 
Q 353 884 353 1716 
Q 353 2575 817 3079 
Q 1281 3584 2069 3584 
Q 2775 3584 3186 3129 
Q 3597 2675 3597 1894 
z
M 3022 2063 
Q 3016 2534 2758 2815 
Q 2500 3097 2075 3097 
Q 1594 3097 1305 2825 
Q 1016 2553 972 2059 
L 3022 2063 
z
" transform="scale(0.015625)"/>
       <path id="DejaVuSans-72" d="M 2631 2963 
Q 2534 3019 2420 3045 
Q 2306 3072 2169 3072 
Q 1681 3072 1420 2755 
Q 1159 2438 1159 1844 
L 1159 0 
L 581 0 
L 581 3500 
L 1159 3500 
L 1159 2956 
Q 1341 3275 1631 3429 
Q 1922 3584 2338 3584 
Q 2397 3584 2469 3576 
Q 2541 3569 2628 3553 
L 2631 2963 
z
" transform="scale(0.015625)"/>
       <path id="DejaVuSans-67" d="M 2906 1791 
Q 2906 2416 2648 2759 
Q 2391 3103 1925 3103 
Q 1463 3103 1205 2759 
Q 947 2416 947 1791 
Q 947 1169 1205 825 
Q 1463 481 1925 481 
Q 2391 481 2648 825 
Q 2906 1169 2906 1791 
z
M 3481 434 
Q 3481 -459 3084 -895 
Q 2688 -1331 1869 -1331 
Q 1566 -1331 1297 -1286 
Q 1028 -1241 775 -1147 
L 775 -588 
Q 1028 -725 1275 -790 
Q 1522 -856 1778 -856 
Q 2344 -856 2625 -561 
Q 2906 -266 2906 331 
L 2906 616 
Q 2728 306 2450 153 
Q 2172 0 1784 0 
Q 1141 0 747 490 
Q 353 981 353 1791 
Q 353 2603 747 3093 
Q 1141 3584 1784 3584 
Q 2172 3584 2450 3431 
Q 2728 3278 2906 2969 
L 2906 3500 
L 3481 3500 
L 3481 434 
z
" transform="scale(0.015625)"/>
       <path id="DejaVuSans-79" d="M 2059 -325 
Q 1816 -950 1584 -1140 
Q 1353 -1331 966 -1331 
L 506 -1331 
L 506 -850 
L 844 -850 
Q 1081 -850 1212 -737 
Q 1344 -625 1503 -206 
L 1606 56 
L 191 3500 
L 800 3500 
L 1894 763 
L 2988 3500 
L 3597 3500 
L 2059 -325 
z
" transform="scale(0.015625)"/>
       <path id="DejaVuSans-28" d="M 1984 4856 
Q 1566 4138 1362 3434 
Q 1159 2731 1159 2009 
Q 1159 1288 1364 580 
Q 1569 -128 1984 -844 
L 1484 -844 
Q 1016 -109 783 600 
Q 550 1309 550 2009 
Q 550 2706 781 3412 
Q 1013 4119 1484 4856 
L 1984 4856 
z
" transform="scale(0.015625)"/>
       <path id="DejaVuSans-47" d="M 3809 666 
L 3809 1919 
L 2778 1919 
L 2778 2438 
L 4434 2438 
L 4434 434 
Q 4069 175 3628 42 
Q 3188 -91 2688 -91 
Q 1594 -91 976 548 
Q 359 1188 359 2328 
Q 359 3472 976 4111 
Q 1594 4750 2688 4750 
Q 3144 4750 3555 4637 
Q 3966 4525 4313 4306 
L 4313 3634 
Q 3963 3931 3569 4081 
Q 3175 4231 2741 4231 
Q 1884 4231 1454 3753 
Q 1025 3275 1025 2328 
Q 1025 1384 1454 906 
Q 1884 428 2741 428 
Q 3075 428 3337 486 
Q 3600 544 3809 666 
z
" transform="scale(0.015625)"/>
       <path id="DejaVuSans-56" d="M 1831 0 
L 50 4666 
L 709 4666 
L 2188 738 
L 3669 4666 
L 4325 4666 
L 2547 0 
L 1831 0 
z
" transform="scale(0.015625)"/>
       <path id="DejaVuSans-29" d="M 513 4856 
L 1013 4856 
Q 1481 4119 1714 3412 
Q 1947 2706 1947 2009 
Q 1947 1309 1714 600 
Q 1481 -109 1013 -844 
L 513 -844 
Q 928 -128 1133 580 
Q 1338 1288 1338 2009 
Q 1338 2731 1133 3434 
Q 928 4138 513 4856 
z
" transform="scale(0.015625)"/>
      </defs>
      <use xlink:href="#DejaVuSans-45"/>
      <use xlink:href="#DejaVuSans-6e" x="63.183594"/>
      <use xlink:href="#DejaVuSans-65" x="126.5625"/>
      <use xlink:href="#DejaVuSans-72" x="188.085938"/>
      <use xlink:href="#DejaVuSans-67" x="227.449219"/>
      <use xlink:href="#DejaVuSans-79" x="290.925781"/>
      <use xlink:href="#DejaVuSans-28" x="350.105469"/>
      <use xlink:href="#DejaVuSans-47" x="389.119141"/>
      <use xlink:href="#DejaVuSans-65" x="466.609375"/>
      <use xlink:href="#DejaVuSans-56" x="528.132812"/>
      <use xlink:href="#DejaVuSans-29" x="596.541016"/>
     </g>
    </g>
   </g>
   <g id="matplotlib.axis_2">
    <g id="ytick_1">
     <g id="line2d_5">
      <defs>
       <path id="m6fba467540" d="M 0 0 
L -3.5 0 
" style="stroke: #000000; stroke-width: 0.8"/>
      </defs>
      <g>
       <use xlink:href="#m6fba467540" x="95.4" y="362.874591" style="stroke: #000000; stroke-width: 0.8"/>
      </g>
     </g>
     <g id="text_6">
      <!-- $\mathdefault{10^{0}}$ -->
      <g transform="translate(53.2 370.473029)scale(0.2 -0.2)">
       <use xlink:href="#DejaVuSans-31" transform="translate(0 0.765625)"/>
       <use xlink:href="#DejaVuSans-30" transform="translate(63.623047 0.765625)"/>
       <use xlink:href="#DejaVuSans-30" transform="translate(128.203125 39.046875)scale(0.7)"/>
      </g>
     </g>
    </g>
    <g id="ytick_2">
     <g id="line2d_6">
      <g>
       <use xlink:href="#m6fba467540" x="95.4" y="212.731912" style="stroke: #000000; stroke-width: 0.8"/>
      </g>
     </g>
     <g id="text_7">
      <!-- $\mathdefault{10^{1}}$ -->
      <g transform="translate(53.2 220.33035)scale(0.2 -0.2)">
       <use xlink:href="#DejaVuSans-31" transform="translate(0 0.684375)"/>
       <use xlink:href="#DejaVuSans-30" transform="translate(63.623047 0.684375)"/>
       <use xlink:href="#DejaVuSans-31" transform="translate(128.203125 38.965625)scale(0.7)"/>
      </g>
     </g>
    </g>
    <g id="ytick_3">
     <g id="line2d_7">
      <g>
       <use xlink:href="#m6fba467540" x="95.4" y="62.589233" style="stroke: #000000; stroke-width: 0.8"/>
      </g>
     </g>
     <g id="text_8">
      <!-- $\mathdefault{10^{2}}$ -->
      <g transform="translate(53.2 70.187671)scale(0.2 -0.2)">
       <defs>
        <path id="DejaVuSans-32" d="M 1228 531 
L 3431 531 
L 3431 0 
L 469 0 
L 469 531 
Q 828 903 1448 1529 
Q 2069 2156 2228 2338 
Q 2531 2678 2651 2914 
Q 2772 3150 2772 3378 
Q 2772 3750 2511 3984 
Q 2250 4219 1831 4219 
Q 1534 4219 1204 4116 
Q 875 4013 500 3803 
L 500 4441 
Q 881 4594 1212 4672 
Q 1544 4750 1819 4750 
Q 2544 4750 2975 4387 
Q 3406 4025 3406 3419 
Q 3406 3131 3298 2873 
Q 3191 2616 2906 2266 
Q 2828 2175 2409 1742 
Q 1991 1309 1228 531 
z
" transform="scale(0.015625)"/>
       </defs>
       <use xlink:href="#DejaVuSans-31" transform="translate(0 0.765625)"/>
       <use xlink:href="#DejaVuSans-30" transform="translate(63.623047 0.765625)"/>
       <use xlink:href="#DejaVuSans-32" transform="translate(128.203125 39.046875)scale(0.7)"/>
      </g>
     </g>
    </g>
    <g id="ytick_4">
     <g id="line2d_8">
      <defs>
       <path id="m4f9f13d725" d="M 0 0 
L -2 0 
" style="stroke: #000000; stroke-width: 0.6"/>
      </defs>
      <g>
       <use xlink:href="#m4f9f13d725" x="95.4" y="408.072041" style="stroke: #000000; stroke-width: 0.6"/>
      </g>
     </g>
    </g>
    <g id="ytick_5">
     <g id="line2d_9">
      <g>
       <use xlink:href="#m4f9f13d725" x="95.4" y="396.183557" style="stroke: #000000; stroke-width: 0.6"/>
      </g>
     </g>
    </g>
    <g id="ytick_6">
     <g id="line2d_10">
      <g>
       <use xlink:href="#m4f9f13d725" x="95.4" y="386.131987" style="stroke: #000000; stroke-width: 0.6"/>
      </g>
     </g>
    </g>
    <g id="ytick_7">
     <g id="line2d_11">
      <g>
       <use xlink:href="#m4f9f13d725" x="95.4" y="377.42492" style="stroke: #000000; stroke-width: 0.6"/>
      </g>
     </g>
    </g>
    <g id="ytick_8">
     <g id="line2d_12">
      <g>
       <use xlink:href="#m4f9f13d725" x="95.4" y="369.744744" style="stroke: #000000; stroke-width: 0.6"/>
      </g>
     </g>
    </g>
    <g id="ytick_9">
     <g id="line2d_13">
      <g>
       <use xlink:href="#m4f9f13d725" x="95.4" y="317.677141" style="stroke: #000000; stroke-width: 0.6"/>
      </g>
     </g>
    </g>
    <g id="ytick_10">
     <g id="line2d_14">
      <g>
       <use xlink:href="#m4f9f13d725" x="95.4" y="291.238328" style="stroke: #000000; stroke-width: 0.6"/>
      </g>
     </g>
    </g>
    <g id="ytick_11">
     <g id="line2d_15">
      <g>
       <use xlink:href="#m4f9f13d725" x="95.4" y="272.479691" style="stroke: #000000; stroke-width: 0.6"/>
      </g>
     </g>
    </g>
    <g id="ytick_12">
     <g id="line2d_16">
      <g>
       <use xlink:href="#m4f9f13d725" x="95.4" y="257.929362" style="stroke: #000000; stroke-width: 0.6"/>
      </g>
     </g>
    </g>
    <g id="ytick_13">
     <g id="line2d_17">
      <g>
       <use xlink:href="#m4f9f13d725" x="95.4" y="246.040878" style="stroke: #000000; stroke-width: 0.6"/>
      </g>
     </g>
    </g>
    <g id="ytick_14">
     <g id="line2d_18">
      <g>
       <use xlink:href="#m4f9f13d725" x="95.4" y="235.989308" style="stroke: #000000; stroke-width: 0.6"/>
      </g>
     </g>
    </g>
    <g id="ytick_15">
     <g id="line2d_19">
      <g>
       <use xlink:href="#m4f9f13d725" x="95.4" y="227.282241" style="stroke: #000000; stroke-width: 0.6"/>
      </g>
     </g>
    </g>
    <g id="ytick_16">
     <g id="line2d_20">
      <g>
       <use xlink:href="#m4f9f13d725" x="95.4" y="219.602065" style="stroke: #000000; stroke-width: 0.6"/>
      </g>
     </g>
    </g>
    <g id="ytick_17">
     <g id="line2d_21">
      <g>
       <use xlink:href="#m4f9f13d725" x="95.4" y="167.534462" style="stroke: #000000; stroke-width: 0.6"/>
      </g>
     </g>
    </g>
    <g id="ytick_18">
     <g id="line2d_22">
      <g>
       <use xlink:href="#m4f9f13d725" x="95.4" y="141.095649" style="stroke: #000000; stroke-width: 0.6"/>
      </g>
     </g>
    </g>
    <g id="ytick_19">
     <g id="line2d_23">
      <g>
       <use xlink:href="#m4f9f13d725" x="95.4" y="122.337012" style="stroke: #000000; stroke-width: 0.6"/>
      </g>
     </g>
    </g>
    <g id="ytick_20">
     <g id="line2d_24">
      <g>
       <use xlink:href="#m4f9f13d725" x="95.4" y="107.786683" style="stroke: #000000; stroke-width: 0.6"/>
      </g>
     </g>
    </g>
    <g id="ytick_21">
     <g id="line2d_25">
      <g>
       <use xlink:href="#m4f9f13d725" x="95.4" y="95.898199" style="stroke: #000000; stroke-width: 0.6"/>
      </g>
     </g>
    </g>
    <g id="ytick_22">
     <g id="line2d_26">
      <g>
       <use xlink:href="#m4f9f13d725" x="95.4" y="85.846629" style="stroke: #000000; stroke-width: 0.6"/>
      </g>
     </g>
    </g>
    <g id="ytick_23">
     <g id="line2d_27">
      <g>
       <use xlink:href="#m4f9f13d725" x="95.4" y="77.139562" style="stroke: #000000; stroke-width: 0.6"/>
      </g>
     </g>
    </g>
    <g id="ytick_24">
     <g id="line2d_28">
      <g>
       <use xlink:href="#m4f9f13d725" x="95.4" y="69.459385" style="stroke: #000000; stroke-width: 0.6"/>
      </g>
     </g>
    </g>
    <g id="text_9">
     <!-- $\phi_{\nu_{\mu}}^{SIB23}/\phi_{\nu_{\mu}}^{SIB21}$ -->
     <g transform="translate(39.2 294.7128)rotate(-90)scale(0.2 -0.2)">
      <defs>
       <path id="DejaVuSans-Oblique-3d5" d="M 2991 4863 
L 2738 3572 
Q 3363 3572 3684 3094 
Q 4016 2606 3850 1747 
Q 3681 888 3159 400 
Q 2653 -78 2028 -78 
L 1784 -1331 
L 1213 -1331 
L 1456 -78 
Q 834 -78 509 400 
Q 178 888 347 1747 
Q 513 2606 1034 3094 
Q 1544 3572 2166 3572 
L 2419 4863 
L 2991 4863 
z
M 2128 434 
Q 2481 434 2784 756 
Q 3116 1116 3244 1747 
Q 3369 2372 3169 2738 
Q 2991 3059 2638 3059 
L 2128 434 
z
M 1556 434 
L 2066 3059 
Q 1716 3059 1413 2738 
Q 1072 2372 953 1747 
Q 834 1116 1028 756 
Q 1203 434 1556 434 
z
" transform="scale(0.015625)"/>
       <path id="DejaVuSans-Oblique-53" d="M 3859 4513 
L 3738 3897 
Q 3422 4066 3111 4152 
Q 2800 4238 2509 4238 
Q 1944 4238 1609 3991 
Q 1275 3744 1275 3334 
Q 1275 3109 1398 2989 
Q 1522 2869 2034 2731 
L 2413 2638 
Q 3053 2472 3303 2217 
Q 3553 1963 3553 1503 
Q 3553 797 2998 353 
Q 2444 -91 1538 -91 
Q 1166 -91 791 -17 
Q 416 56 38 206 
L 166 856 
Q 513 641 861 531 
Q 1209 422 1556 422 
Q 2147 422 2503 684 
Q 2859 947 2859 1369 
Q 2859 1650 2717 1795 
Q 2575 1941 2106 2059 
L 1728 2156 
Q 1081 2325 845 2545 
Q 609 2766 609 3163 
Q 609 3859 1145 4304 
Q 1681 4750 2541 4750 
Q 2875 4750 3203 4690 
Q 3531 4631 3859 4513 
z
" transform="scale(0.015625)"/>
       <path id="DejaVuSans-Oblique-49" d="M 1081 4666 
L 1716 4666 
L 806 0 
L 172 0 
L 1081 4666 
z
" transform="scale(0.015625)"/>
       <path id="DejaVuSans-Oblique-42" d="M 1081 4666 
L 2694 4666 
Q 3350 4666 3675 4422 
Q 4000 4178 4000 3688 
Q 4000 3238 3720 2911 
Q 3441 2584 2988 2516 
Q 3375 2428 3569 2181 
Q 3763 1934 3763 1522 
Q 3763 819 3242 409 
Q 2722 0 1819 0 
L 172 0 
L 1081 4666 
z
M 1234 2228 
L 903 519 
L 1919 519 
Q 2491 519 2800 781 
Q 3109 1044 3109 1522 
Q 3109 1891 2904 2059 
Q 2700 2228 2247 2228 
L 1234 2228 
z
M 1606 4147 
L 1331 2741 
L 2272 2741 
Q 2775 2741 3058 2959 
Q 3341 3178 3341 3566 
Q 3341 3869 3150 4008 
Q 2959 4147 2541 4147 
L 1606 4147 
z
" transform="scale(0.015625)"/>
       <path id="DejaVuSans-Oblique-3bd" d="M 959 0 
L 572 3500 
L 1191 3500 
L 1522 563 
Q 1972 950 2391 1488 
Q 2706 1891 2788 2241 
Q 2825 2406 2809 2719 
Q 2794 3091 2544 3500 
L 3125 3500 
L 3125 3500 
Q 3288 3222 3353 2834 
Q 3416 2478 3369 2234 
Q 3250 1622 2719 1075 
Q 2025 363 1572 0 
L 959 0 
z
" transform="scale(0.015625)"/>
       <path id="DejaVuSans-Oblique-3bc" d="M -84 -1331 
L 856 3500 
L 1434 3500 
L 1009 1322 
Q 997 1256 987 1175 
Q 978 1094 978 1013 
Q 978 722 1161 565 
Q 1344 409 1684 409 
Q 2147 409 2431 671 
Q 2716 934 2816 1459 
L 3213 3500 
L 3788 3500 
L 3266 809 
Q 3253 750 3248 706 
Q 3244 663 3244 628 
Q 3244 531 3283 486 
Q 3322 441 3406 441 
Q 3438 441 3492 456 
Q 3547 472 3647 513 
L 3559 50 
Q 3422 -19 3297 -55 
Q 3172 -91 3053 -91 
Q 2847 -91 2730 40 
Q 2613 172 2613 403 
Q 2438 153 2195 31 
Q 1953 -91 1625 -91 
Q 1334 -91 1117 43 
Q 900 178 831 397 
L 494 -1331 
L -84 -1331 
z
" transform="scale(0.015625)"/>
       <path id="DejaVuSans-2f" d="M 1625 4666 
L 2156 4666 
L 531 -594 
L 0 -594 
L 1625 4666 
z
" transform="scale(0.015625)"/>
      </defs>
      <use xlink:href="#DejaVuSans-Oblique-3d5" transform="translate(0 0.765625)"/>
      <use xlink:href="#DejaVuSans-Oblique-53" transform="translate(73.414505 39.046875)scale(0.7)"/>
      <use xlink:href="#DejaVuSans-Oblique-49" transform="translate(117.848099 39.046875)scale(0.7)"/>
      <use xlink:href="#DejaVuSans-Oblique-42" transform="translate(138.49263 39.046875)scale(0.7)"/>
      <use xlink:href="#DejaVuSans-32" transform="translate(186.515091 39.046875)scale(0.7)"/>
      <use xlink:href="#DejaVuSans-33" transform="translate(231.051224 39.046875)scale(0.7)"/>
      <use xlink:href="#DejaVuSans-Oblique-3bd" transform="translate(65.966797 -26.578125)scale(0.7)"/>
      <use xlink:href="#DejaVuSans-Oblique-3bc" transform="translate(105.068359 -38.0625)scale(0.49)"/>
      <use xlink:href="#DejaVuSans-2f" transform="translate(278.321732 0.765625)"/>
      <use xlink:href="#DejaVuSans-Oblique-3d5" transform="translate(312.013138 0.765625)"/>
      <use xlink:href="#DejaVuSans-Oblique-53" transform="translate(385.427643 39.046875)scale(0.7)"/>
      <use xlink:href="#DejaVuSans-Oblique-49" transform="translate(429.861237 39.046875)scale(0.7)"/>
      <use xlink:href="#DejaVuSans-Oblique-42" transform="translate(450.505768 39.046875)scale(0.7)"/>
      <use xlink:href="#DejaVuSans-32" transform="translate(498.528229 39.046875)scale(0.7)"/>
      <use xlink:href="#DejaVuSans-31" transform="translate(543.064362 39.046875)scale(0.7)"/>
      <use xlink:href="#DejaVuSans-Oblique-3bd" transform="translate(377.979935 -26.578125)scale(0.7)"/>
      <use xlink:href="#DejaVuSans-Oblique-3bc" transform="translate(417.081497 -38.0625)scale(0.49)"/>
     </g>
    </g>
   </g>
   <g id="line2d_29">
    <path d="M 122.285455 362.889447 
L 127.689566 362.945755 
L 138.497789 362.491959 
L 145.252928 362.109113 
L 153.359095 361.697234 
L 161.465263 361.407603 
L 166.869374 361.4686 
L 170.922458 361.695373 
L 174.975541 362.148919 
L 179.028625 362.88039 
L 183.081709 363.917639 
L 185.783764 364.787716 
L 188.48582 365.81759 
L 191.187876 367.008406 
L 195.240959 369.098295 
L 199.294043 371.542501 
L 203.347127 374.266423 
L 210.102266 379.223708 
L 218.208433 385.245876 
L 222.261517 387.989629 
L 226.3146 390.432618 
L 230.367684 392.537327 
L 233.06974 393.745326 
L 235.771795 394.789161 
L 238.473851 395.667972 
L 241.175907 396.369017 
L 243.877963 396.889645 
L 250.633102 397.79824 
L 257.388241 398.468141 
L 262.792353 398.793821 
L 269.547492 398.9088 
L 276.302631 398.806851 
L 285.759826 398.346074 
L 293.865994 397.753422 
L 301.972161 396.893726 
L 311.429356 395.717443 
L 338.449913 391.874871 
L 364.119443 388.056641 
L 396.544111 383.831616 
L 408.703362 382.492386 
L 427.617752 380.269834 
L 446.532143 378.22827 
L 466.797561 375.539214 
L 481.658867 373.017401 
L 487.062979 371.780836 
L 495.169146 369.629019 
L 504.626341 366.926503 
L 510.030452 365.153846 
L 515.434564 363.141492 
L 519.487647 361.397186 
L 523.540731 359.452703 
L 530.29587 355.8693 
L 534.348954 353.590905 
L 537.05101 351.847744 
L 541.104093 348.863722 
L 545.157177 345.532901 
L 554.614372 337.161604 
L 558.667455 333.109119 
L 564.071567 327.178877 
L 568.124651 322.415039 
L 570.826706 318.934157 
L 574.87979 313.268812 
L 578.932873 307.271272 
L 584.336985 298.823226 
L 589.741096 289.868298 
L 593.79418 282.773371 
L 597.847264 275.16383 
L 608.655487 254.048011 
L 612.70857 246.939052 
L 615.410626 242.174354 
L 618.112682 236.927688 
L 623.516793 225.833829 
L 634.325016 204.85547 
L 638.3781 197.170326 
L 657.29249 162.282474 
L 659.994545 156.952759 
L 659.994545 156.952759 
" clip-path="url(#pbe7b304b36)" style="fill: none; stroke: #008000; stroke-width: 3; stroke-linecap: square"/>
   </g>
   <g id="line2d_30">
    <path d="M 122.285455 360.550305 
L 131.74265 359.997387 
L 146.603956 359.05765 
L 153.359095 358.894416 
L 158.763207 358.997869 
L 164.167318 359.343093 
L 170.922458 360.04514 
L 180.379653 361.306333 
L 204.698154 364.761011 
L 211.453294 365.358746 
L 216.857405 365.640109 
L 222.261517 365.720437 
L 229.016656 365.587703 
L 235.771795 365.258372 
L 243.877963 364.622907 
L 258.739269 363.179867 
L 280.355715 360.869111 
L 311.429356 357.232442 
L 322.237579 355.916409 
L 333.045802 354.603955 
L 341.151969 353.858665 
L 360.066359 352.146576 
L 378.980749 350.405276 
L 422.213641 346.281484 
L 434.372892 344.996235 
L 455.989338 342.377341 
L 466.797561 340.723243 
L 483.009895 338.129836 
L 505.977369 333.837369 
L 511.38148 333.227965 
L 524.891759 332.101367 
L 530.29587 331.93212 
L 537.05101 331.989681 
L 551.912316 332.448167 
L 560.018483 332.876583 
L 565.422595 333.281517 
L 573.528762 334.017785 
L 580.283901 334.685324 
L 588.390069 335.746341 
L 605.953431 338.110076 
L 611.357542 338.455443 
L 616.761654 338.549088 
L 622.165765 338.386427 
L 627.569877 337.947988 
L 634.325016 337.173918 
L 639.729127 336.356319 
L 649.186323 334.646091 
L 655.941462 333.197609 
L 659.994545 332.245127 
L 659.994545 332.245127 
" clip-path="url(#pbe7b304b36)" style="fill: none; stroke-dasharray: 11.1,4.8; stroke-dashoffset: 0; stroke: #000000; stroke-width: 3"/>
   </g>
   <g id="line2d_31">
    <path d="M 122.285455 363.040295 
L 130.391622 362.847457 
L 138.497789 362.396704 
L 152.008068 361.357988 
L 176.326569 359.386766 
L 181.730681 359.143634 
L 187.134792 359.130246 
L 191.187876 359.333214 
L 195.240959 359.716526 
L 200.645071 360.480215 
L 207.40021 361.714417 
L 226.3146 365.314931 
L 233.06974 366.236126 
L 238.473851 366.736565 
L 247.931046 367.364298 
L 257.388241 367.695419 
L 264.143381 367.782047 
L 341.151969 367.478204 
L 350.609164 367.72692 
L 368.172526 368.361526 
L 406.001307 369.71894 
L 442.479059 370.661685 
L 466.797561 370.65653 
L 474.903728 370.43144 
L 489.765034 370.260761 
L 499.222229 369.988705 
L 504.626341 369.864705 
L 511.38148 369.800271 
L 519.487647 369.659374 
L 527.593815 369.754737 
L 547.859233 370.232696 
L 555.9654 370.46695 
L 591.092124 371.399958 
L 597.847264 371.789141 
L 604.602403 372.094416 
L 611.357542 372.51825 
L 634.325016 373.107036 
L 639.729127 373.226168 
L 645.133239 373.328976 
L 651.888378 373.411452 
L 659.994545 373.657448 
L 659.994545 373.657448 
" clip-path="url(#pbe7b304b36)" style="fill: none; stroke: #0000ff; stroke-width: 3; stroke-linecap: square"/>
   </g>
   <g id="line2d_32">
    <path d="M 122.285455 362.87835 
L 133.093677 362.710141 
L 141.199845 362.359046 
L 149.306012 361.76149 
L 158.763207 360.82415 
L 180.379653 358.543822 
L 185.783764 358.216353 
L 191.187876 358.127004 
L 195.240959 358.258164 
L 199.294043 358.581481 
L 203.347127 359.102038 
L 208.751238 360.064399 
L 215.506377 361.560061 
L 230.367684 365.011804 
L 237.122823 366.293329 
L 243.877963 367.299936 
L 250.633102 368.051239 
L 257.388241 368.584754 
L 265.494408 368.99384 
L 274.951603 369.243559 
L 287.110854 369.314866 
L 299.270105 369.166667 
L 324.939635 368.551392 
L 350.609164 367.880416 
L 372.22561 367.486652 
L 391.14 367.168776 
L 406.001307 366.63211 
L 418.160557 365.97259 
L 428.96878 365.187638 
L 438.425975 364.283267 
L 447.88317 363.134047 
L 457.340365 361.792096 
L 466.797561 360.208159 
L 476.254756 358.415741 
L 485.711951 356.407111 
L 497.871201 353.552531 
L 510.030452 350.478015 
L 524.891759 346.434981 
L 535.699982 343.308631 
L 547.859233 339.817154 
L 555.9654 337.718602 
L 564.071567 335.870055 
L 570.826706 334.551587 
L 577.581846 333.485988 
L 582.985957 332.833054 
L 588.390069 332.424398 
L 592.443152 332.345931 
L 596.496236 332.495991 
L 600.549319 332.901498 
L 604.602403 333.589369 
L 608.655487 334.569342 
L 612.70857 335.842563 
L 616.761654 337.395858 
L 620.814737 339.212045 
L 624.867821 341.247021 
L 630.271932 344.244789 
L 637.027072 348.319897 
L 659.994545 362.712503 
L 659.994545 362.712503 
" clip-path="url(#pbe7b304b36)" style="fill: none; stroke-dasharray: 11.1,4.8; stroke-dashoffset: 0; stroke: #d2b48c; stroke-width: 3"/>
   </g>
   <g id="line2d_33">
    <path d="M 122.285455 362.889554 
L 127.689566 362.945684 
L 138.497789 362.491888 
L 145.252928 362.108969 
L 153.359095 361.697056 
L 161.465263 361.407209 
L 166.869374 361.468099 
L 170.922458 361.694657 
L 174.975541 362.148059 
L 179.028625 362.879245 
L 183.081709 363.916278 
L 185.783764 364.785998 
L 188.48582 365.815657 
L 191.187876 367.006044 
L 195.240959 369.095575 
L 199.294043 371.539136 
L 203.347127 374.262342 
L 210.102266 379.21798 
L 218.208433 385.238 
L 222.261517 387.980394 
L 226.3146 390.42195 
L 230.367684 392.525013 
L 233.06974 393.731723 
L 235.771795 394.774341 
L 238.473851 395.651577 
L 241.175907 396.351047 
L 243.877963 396.870029 
L 250.633102 397.773827 
L 257.388241 398.438502 
L 262.792353 398.759313 
L 269.547492 398.867419 
L 276.302631 398.757451 
L 285.759826 398.283215 
L 293.865994 397.676388 
L 301.972161 396.798936 
L 311.429356 395.596307 
L 335.747857 392.045837 
L 384.384861 384.166244 
L 392.491028 382.748118 
L 404.650279 380.708846 
L 412.756446 379.042719 
L 423.564669 376.54582 
L 431.670836 374.518289 
L 438.425975 372.612468 
L 443.830087 370.855847 
L 449.234198 368.848362 
L 455.989338 366.062798 
L 461.393449 363.669567 
L 465.446533 361.609389 
L 470.850644 358.544037 
L 476.254756 355.208921 
L 481.658867 351.621794 
L 485.711951 348.606844 
L 489.765034 345.317834 
L 493.818118 341.776528 
L 497.871201 338.003545 
L 501.924285 333.988861 
L 505.977369 329.696395 
L 510.030452 325.084621 
L 514.083536 320.115166 
L 518.136619 314.692093 
L 522.189703 308.829149 
L 526.242787 302.587905 
L 531.646898 293.777309 
L 535.699982 286.786336 
L 539.753065 279.371243 
L 545.157177 268.965828 
L 551.912316 255.38538 
L 557.316428 244.113968 
L 565.422595 226.493063 
L 574.87979 205.416191 
L 599.198291 150.567182 
L 603.251375 141.705039 
L 607.304459 133.277612 
L 611.357542 125.446417 
L 615.410626 118.204294 
L 619.463709 111.380277 
L 622.165765 107.145372 
L 624.867821 103.260417 
L 627.569877 99.707083 
L 630.271932 96.412631 
L 632.973988 93.366466 
L 637.027072 89.206591 
L 641.080155 85.500333 
L 645.133239 82.186695 
L 649.186323 79.228161 
L 653.239406 76.568315 
L 659.994545 72.3168 
L 659.994545 72.3168 
" clip-path="url(#pbe7b304b36)" style="fill: none; stroke: #ff0000; stroke-width: 3; stroke-linecap: square"/>
   </g>
   <g id="patch_3">
    <path d="M 95.4 415.2384 
L 95.4 55.9872 
" style="fill: none; stroke: #000000; stroke-width: 0.8; stroke-linejoin: miter; stroke-linecap: square"/>
   </g>
   <g id="patch_4">
    <path d="M 686.88 415.2384 
L 686.88 55.9872 
" style="fill: none; stroke: #000000; stroke-width: 0.8; stroke-linejoin: miter; stroke-linecap: square"/>
   </g>
   <g id="patch_5">
    <path d="M 95.4 415.2384 
L 686.88 415.2384 
" style="fill: none; stroke: #000000; stroke-width: 0.8; stroke-linejoin: miter; stroke-linecap: square"/>
   </g>
   <g id="patch_6">
    <path d="M 95.4 55.9872 
L 686.88 55.9872 
" style="fill: none; stroke: #000000; stroke-width: 0.8; stroke-linejoin: miter; stroke-linecap: square"/>
   </g>
   <g id="legend_1">
    <g id="patch_7">
     <path d="M 107.3 194.351263 
L 266.690938 194.351263 
Q 270.090937 194.351263 270.090937 190.951263 
L 270.090937 67.8872 
Q 270.090937 64.4872 266.690938 64.4872 
L 107.3 64.4872 
Q 103.9 64.4872 103.9 67.8872 
L 103.9 190.951263 
Q 103.9 194.351263 107.3 194.351263 
z
" style="fill: #ffffff; opacity: 0.8; stroke: #cccccc; stroke-linejoin: miter"/>
    </g>
    <g id="line2d_34">
     <path d="M 110.7 78.254544 
L 127.7 78.254544 
L 144.7 78.254544 
" style="fill: none; stroke: #008000; stroke-width: 3; stroke-linecap: square"/>
    </g>
    <g id="text_10">
     <!-- K Decay -->
     <g transform="translate(158.3 84.204544)scale(0.17 -0.17)">
      <defs>
       <path id="DejaVuSans-4b" d="M 628 4666 
L 1259 4666 
L 1259 2694 
L 3353 4666 
L 4166 4666 
L 1850 2491 
L 4331 0 
L 3500 0 
L 1259 2247 
L 1259 0 
L 628 0 
L 628 4666 
z
" transform="scale(0.015625)"/>
       <path id="DejaVuSans-20" transform="scale(0.015625)"/>
       <path id="DejaVuSans-44" d="M 1259 4147 
L 1259 519 
L 2022 519 
Q 2988 519 3436 956 
Q 3884 1394 3884 2338 
Q 3884 3275 3436 3711 
Q 2988 4147 2022 4147 
L 1259 4147 
z
M 628 4666 
L 1925 4666 
Q 3281 4666 3915 4102 
Q 4550 3538 4550 2338 
Q 4550 1131 3912 565 
Q 3275 0 1925 0 
L 628 0 
L 628 4666 
z
" transform="scale(0.015625)"/>
       <path id="DejaVuSans-63" d="M 3122 3366 
L 3122 2828 
Q 2878 2963 2633 3030 
Q 2388 3097 2138 3097 
Q 1578 3097 1268 2742 
Q 959 2388 959 1747 
Q 959 1106 1268 751 
Q 1578 397 2138 397 
Q 2388 397 2633 464 
Q 2878 531 3122 666 
L 3122 134 
Q 2881 22 2623 -34 
Q 2366 -91 2075 -91 
Q 1284 -91 818 406 
Q 353 903 353 1747 
Q 353 2603 823 3093 
Q 1294 3584 2113 3584 
Q 2378 3584 2631 3529 
Q 2884 3475 3122 3366 
z
" transform="scale(0.015625)"/>
       <path id="DejaVuSans-61" d="M 2194 1759 
Q 1497 1759 1228 1600 
Q 959 1441 959 1056 
Q 959 750 1161 570 
Q 1363 391 1709 391 
Q 2188 391 2477 730 
Q 2766 1069 2766 1631 
L 2766 1759 
L 2194 1759 
z
M 3341 1997 
L 3341 0 
L 2766 0 
L 2766 531 
Q 2569 213 2275 61 
Q 1981 -91 1556 -91 
Q 1019 -91 701 211 
Q 384 513 384 1019 
Q 384 1609 779 1909 
Q 1175 2209 1959 2209 
L 2766 2209 
L 2766 2266 
Q 2766 2663 2505 2880 
Q 2244 3097 1772 3097 
Q 1472 3097 1187 3025 
Q 903 2953 641 2809 
L 641 3341 
Q 956 3463 1253 3523 
Q 1550 3584 1831 3584 
Q 2591 3584 2966 3190 
Q 3341 2797 3341 1997 
z
" transform="scale(0.015625)"/>
      </defs>
      <use xlink:href="#DejaVuSans-4b"/>
      <use xlink:href="#DejaVuSans-20" x="65.576172"/>
      <use xlink:href="#DejaVuSans-44" x="97.363281"/>
      <use xlink:href="#DejaVuSans-65" x="174.365234"/>
      <use xlink:href="#DejaVuSans-63" x="235.888672"/>
      <use xlink:href="#DejaVuSans-61" x="290.869141"/>
      <use xlink:href="#DejaVuSans-79" x="352.148438"/>
     </g>
    </g>
    <g id="line2d_35">
     <path d="M 110.7 103.207356 
L 127.7 103.207356 
L 144.7 103.207356 
" style="fill: none; stroke-dasharray: 11.1,4.8; stroke-dashoffset: 0; stroke: #000000; stroke-width: 3"/>
    </g>
    <g id="text_11">
     <!-- K0L decay -->
     <g transform="translate(158.3 109.157356)scale(0.17 -0.17)">
      <defs>
       <path id="DejaVuSans-4c" d="M 628 4666 
L 1259 4666 
L 1259 531 
L 3531 531 
L 3531 0 
L 628 0 
L 628 4666 
z
" transform="scale(0.015625)"/>
       <path id="DejaVuSans-64" d="M 2906 2969 
L 2906 4863 
L 3481 4863 
L 3481 0 
L 2906 0 
L 2906 525 
Q 2725 213 2448 61 
Q 2172 -91 1784 -91 
Q 1150 -91 751 415 
Q 353 922 353 1747 
Q 353 2572 751 3078 
Q 1150 3584 1784 3584 
Q 2172 3584 2448 3432 
Q 2725 3281 2906 2969 
z
M 947 1747 
Q 947 1113 1208 752 
Q 1469 391 1925 391 
Q 2381 391 2643 752 
Q 2906 1113 2906 1747 
Q 2906 2381 2643 2742 
Q 2381 3103 1925 3103 
Q 1469 3103 1208 2742 
Q 947 2381 947 1747 
z
" transform="scale(0.015625)"/>
      </defs>
      <use xlink:href="#DejaVuSans-4b"/>
      <use xlink:href="#DejaVuSans-30" x="65.576172"/>
      <use xlink:href="#DejaVuSans-4c" x="129.199219"/>
      <use xlink:href="#DejaVuSans-20" x="184.912109"/>
      <use xlink:href="#DejaVuSans-64" x="216.699219"/>
      <use xlink:href="#DejaVuSans-65" x="280.175781"/>
      <use xlink:href="#DejaVuSans-63" x="341.699219"/>
      <use xlink:href="#DejaVuSans-61" x="396.679688"/>
      <use xlink:href="#DejaVuSans-79" x="457.958984"/>
     </g>
    </g>
    <g id="line2d_36">
     <path d="M 110.7 128.160169 
L 127.7 128.160169 
L 144.7 128.160169 
" style="fill: none; stroke: #0000ff; stroke-width: 3; stroke-linecap: square"/>
    </g>
    <g id="text_12">
     <!-- pi decay -->
     <g transform="translate(158.3 134.110169)scale(0.17 -0.17)">
      <defs>
       <path id="DejaVuSans-70" d="M 1159 525 
L 1159 -1331 
L 581 -1331 
L 581 3500 
L 1159 3500 
L 1159 2969 
Q 1341 3281 1617 3432 
Q 1894 3584 2278 3584 
Q 2916 3584 3314 3078 
Q 3713 2572 3713 1747 
Q 3713 922 3314 415 
Q 2916 -91 2278 -91 
Q 1894 -91 1617 61 
Q 1341 213 1159 525 
z
M 3116 1747 
Q 3116 2381 2855 2742 
Q 2594 3103 2138 3103 
Q 1681 3103 1420 2742 
Q 1159 2381 1159 1747 
Q 1159 1113 1420 752 
Q 1681 391 2138 391 
Q 2594 391 2855 752 
Q 3116 1113 3116 1747 
z
" transform="scale(0.015625)"/>
       <path id="DejaVuSans-69" d="M 603 3500 
L 1178 3500 
L 1178 0 
L 603 0 
L 603 3500 
z
M 603 4863 
L 1178 4863 
L 1178 4134 
L 603 4134 
L 603 4863 
z
" transform="scale(0.015625)"/>
      </defs>
      <use xlink:href="#DejaVuSans-70"/>
      <use xlink:href="#DejaVuSans-69" x="63.476562"/>
      <use xlink:href="#DejaVuSans-20" x="91.259766"/>
      <use xlink:href="#DejaVuSans-64" x="123.046875"/>
      <use xlink:href="#DejaVuSans-65" x="186.523438"/>
      <use xlink:href="#DejaVuSans-63" x="248.046875"/>
      <use xlink:href="#DejaVuSans-61" x="303.027344"/>
      <use xlink:href="#DejaVuSans-79" x="364.306641"/>
     </g>
    </g>
    <g id="line2d_37">
     <path d="M 110.7 153.112981 
L 127.7 153.112981 
L 144.7 153.112981 
" style="fill: none; stroke-dasharray: 11.1,4.8; stroke-dashoffset: 0; stroke: #d2b48c; stroke-width: 3"/>
    </g>
    <g id="text_13">
     <!-- muon decay -->
     <g transform="translate(158.3 159.062981)scale(0.17 -0.17)">
      <defs>
       <path id="DejaVuSans-6d" d="M 3328 2828 
Q 3544 3216 3844 3400 
Q 4144 3584 4550 3584 
Q 5097 3584 5394 3201 
Q 5691 2819 5691 2113 
L 5691 0 
L 5113 0 
L 5113 2094 
Q 5113 2597 4934 2840 
Q 4756 3084 4391 3084 
Q 3944 3084 3684 2787 
Q 3425 2491 3425 1978 
L 3425 0 
L 2847 0 
L 2847 2094 
Q 2847 2600 2669 2842 
Q 2491 3084 2119 3084 
Q 1678 3084 1418 2786 
Q 1159 2488 1159 1978 
L 1159 0 
L 581 0 
L 581 3500 
L 1159 3500 
L 1159 2956 
Q 1356 3278 1631 3431 
Q 1906 3584 2284 3584 
Q 2666 3584 2933 3390 
Q 3200 3197 3328 2828 
z
" transform="scale(0.015625)"/>
       <path id="DejaVuSans-75" d="M 544 1381 
L 544 3500 
L 1119 3500 
L 1119 1403 
Q 1119 906 1312 657 
Q 1506 409 1894 409 
Q 2359 409 2629 706 
Q 2900 1003 2900 1516 
L 2900 3500 
L 3475 3500 
L 3475 0 
L 2900 0 
L 2900 538 
Q 2691 219 2414 64 
Q 2138 -91 1772 -91 
Q 1169 -91 856 284 
Q 544 659 544 1381 
z
M 1991 3584 
L 1991 3584 
z
" transform="scale(0.015625)"/>
       <path id="DejaVuSans-6f" d="M 1959 3097 
Q 1497 3097 1228 2736 
Q 959 2375 959 1747 
Q 959 1119 1226 758 
Q 1494 397 1959 397 
Q 2419 397 2687 759 
Q 2956 1122 2956 1747 
Q 2956 2369 2687 2733 
Q 2419 3097 1959 3097 
z
M 1959 3584 
Q 2709 3584 3137 3096 
Q 3566 2609 3566 1747 
Q 3566 888 3137 398 
Q 2709 -91 1959 -91 
Q 1206 -91 779 398 
Q 353 888 353 1747 
Q 353 2609 779 3096 
Q 1206 3584 1959 3584 
z
" transform="scale(0.015625)"/>
      </defs>
      <use xlink:href="#DejaVuSans-6d"/>
      <use xlink:href="#DejaVuSans-75" x="97.412109"/>
      <use xlink:href="#DejaVuSans-6f" x="160.791016"/>
      <use xlink:href="#DejaVuSans-6e" x="221.972656"/>
      <use xlink:href="#DejaVuSans-20" x="285.351562"/>
      <use xlink:href="#DejaVuSans-64" x="317.138672"/>
      <use xlink:href="#DejaVuSans-65" x="380.615234"/>
      <use xlink:href="#DejaVuSans-63" x="442.138672"/>
      <use xlink:href="#DejaVuSans-61" x="497.119141"/>
      <use xlink:href="#DejaVuSans-79" x="558.398438"/>
     </g>
    </g>
    <g id="line2d_38">
     <path d="M 110.7 178.065794 
L 127.7 178.065794 
L 144.7 178.065794 
" style="fill: none; stroke: #ff0000; stroke-width: 3; stroke-linecap: square"/>
    </g>
    <g id="text_14">
     <!-- overall -->
     <g transform="translate(158.3 184.015794)scale(0.17 -0.17)">
      <defs>
       <path id="DejaVuSans-76" d="M 191 3500 
L 800 3500 
L 1894 563 
L 2988 3500 
L 3597 3500 
L 2284 0 
L 1503 0 
L 191 3500 
z
" transform="scale(0.015625)"/>
       <path id="DejaVuSans-6c" d="M 603 4863 
L 1178 4863 
L 1178 0 
L 603 0 
L 603 4863 
z
" transform="scale(0.015625)"/>
      </defs>
      <use xlink:href="#DejaVuSans-6f"/>
      <use xlink:href="#DejaVuSans-76" x="61.181641"/>
      <use xlink:href="#DejaVuSans-65" x="120.361328"/>
      <use xlink:href="#DejaVuSans-72" x="181.884766"/>
      <use xlink:href="#DejaVuSans-61" x="222.998047"/>
      <use xlink:href="#DejaVuSans-6c" x="284.277344"/>
      <use xlink:href="#DejaVuSans-6c" x="312.060547"/>
     </g>
    </g>
   </g>
  </g>
 </g>
 <defs>
  <clipPath id="pbe7b304b36">
   <rect x="95.4" y="55.9872" width="591.48" height="359.2512"/>
  </clipPath>
 </defs>
</svg>
