<?xml version="1.0" encoding="utf-8" standalone="no"?>
<!DOCTYPE svg PUBLIC "-//W3C//DTD SVG 1.1//EN"
  "http://www.w3.org/Graphics/SVG/1.1/DTD/svg11.dtd">
<svg xmlns:xlink="http://www.w3.org/1999/xlink" width="524.88pt" height="414pt" viewBox="0 0 524.88 414" xmlns="http://www.w3.org/2000/svg" version="1.1">
 <metadata>
  <rdf:RDF xmlns:dc="http://purl.org/dc/elements/1.1/" xmlns:cc="http://creativecommons.org/ns#" xmlns:rdf="http://www.w3.org/1999/02/22-rdf-syntax-ns#">
   <cc:Work>
    <dc:type rdf:resource="http://purl.org/dc/dcmitype/StillImage"/>
    <dc:date>2022-02-02T07:31:34.942409</dc:date>
    <dc:format>image/svg+xml</dc:format>
    <dc:creator>
     <cc:Agent>
      <dc:title>Matplotlib v3.5.0, https://matplotlib.org/</dc:title>
     </cc:Agent>
    </dc:creator>
   </cc:Work>
  </rdf:RDF>
 </metadata>
 <defs>
  <style type="text/css">*{stroke-linejoin: round; stroke-linecap: butt}</style>
 </defs>
 <g id="figure_1">
  <g id="patch_1">
   <path d="M 0 414 
L 524.88 414 
L 524.88 0 
L 0 0 
z
" style="fill: #ffffff"/>
  </g>
  <g id="axes_1">
   <g id="patch_2">
    <path d="M 65.61 368.46 
L 472.392 368.46 
L 472.392 49.68 
L 65.61 49.68 
z
" style="fill: #ffffff"/>
   </g>
   <g id="matplotlib.axis_1">
    <g id="xtick_1">
     <g id="line2d_1">
      <defs>
       <path id="mb5b2dce876" d="M 0 0 
L 0 3.5 
" style="stroke: #000000; stroke-width: 0.8"/>
      </defs>
      <g>
       <use xlink:href="#mb5b2dce876" x="129.628455" y="368.46" style="stroke: #000000; stroke-width: 0.8"/>
      </g>
     </g>
     <g id="text_1">
      <!-- $\mathdefault{10^{1}}$ -->
      <g transform="translate(120.828455 383.058438)scale(0.1 -0.1)">
       <defs>
        <path id="DejaVuSans-31" d="M 794 531 
L 1825 531 
L 1825 4091 
L 703 3866 
L 703 4441 
L 1819 4666 
L 2450 4666 
L 2450 531 
L 3481 531 
L 3481 0 
L 794 0 
L 794 531 
z
" transform="scale(0.015625)"/>
        <path id="DejaVuSans-30" d="M 2034 4250 
Q 1547 4250 1301 3770 
Q 1056 3291 1056 2328 
Q 1056 1369 1301 889 
Q 1547 409 2034 409 
Q 2525 409 2770 889 
Q 3016 1369 3016 2328 
Q 3016 3291 2770 3770 
Q 2525 4250 2034 4250 
z
M 2034 4750 
Q 2819 4750 3233 4129 
Q 3647 3509 3647 2328 
Q 3647 1150 3233 529 
Q 2819 -91 2034 -91 
Q 1250 -91 836 529 
Q 422 1150 422 2328 
Q 422 3509 836 4129 
Q 1250 4750 2034 4750 
z
" transform="scale(0.015625)"/>
       </defs>
       <use xlink:href="#DejaVuSans-31" transform="translate(0 0.684375)"/>
       <use xlink:href="#DejaVuSans-30" transform="translate(63.623047 0.684375)"/>
       <use xlink:href="#DejaVuSans-31" transform="translate(128.203125 38.965625)scale(0.7)"/>
      </g>
     </g>
    </g>
    <g id="xtick_2">
     <g id="line2d_2">
      <g>
       <use xlink:href="#mb5b2dce876" x="222.543485" y="368.46" style="stroke: #000000; stroke-width: 0.8"/>
      </g>
     </g>
     <g id="text_2">
      <!-- $\mathdefault{10^{3}}$ -->
      <g transform="translate(213.743485 383.058438)scale(0.1 -0.1)">
       <defs>
        <path id="DejaVuSans-33" d="M 2597 2516 
Q 3050 2419 3304 2112 
Q 3559 1806 3559 1356 
Q 3559 666 3084 287 
Q 2609 -91 1734 -91 
Q 1441 -91 1130 -33 
Q 819 25 488 141 
L 488 750 
Q 750 597 1062 519 
Q 1375 441 1716 441 
Q 2309 441 2620 675 
Q 2931 909 2931 1356 
Q 2931 1769 2642 2001 
Q 2353 2234 1838 2234 
L 1294 2234 
L 1294 2753 
L 1863 2753 
Q 2328 2753 2575 2939 
Q 2822 3125 2822 3475 
Q 2822 3834 2567 4026 
Q 2313 4219 1838 4219 
Q 1578 4219 1281 4162 
Q 984 4106 628 3988 
L 628 4550 
Q 988 4650 1302 4700 
Q 1616 4750 1894 4750 
Q 2613 4750 3031 4423 
Q 3450 4097 3450 3541 
Q 3450 3153 3228 2886 
Q 3006 2619 2597 2516 
z
" transform="scale(0.015625)"/>
       </defs>
       <use xlink:href="#DejaVuSans-31" transform="translate(0 0.765625)"/>
       <use xlink:href="#DejaVuSans-30" transform="translate(63.623047 0.765625)"/>
       <use xlink:href="#DejaVuSans-33" transform="translate(128.203125 39.046875)scale(0.7)"/>
      </g>
     </g>
    </g>
    <g id="xtick_3">
     <g id="line2d_3">
      <g>
       <use xlink:href="#mb5b2dce876" x="315.458515" y="368.46" style="stroke: #000000; stroke-width: 0.8"/>
      </g>
     </g>
     <g id="text_3">
      <!-- $\mathdefault{10^{5}}$ -->
      <g transform="translate(306.658515 383.058438)scale(0.1 -0.1)">
       <defs>
        <path id="DejaVuSans-35" d="M 691 4666 
L 3169 4666 
L 3169 4134 
L 1269 4134 
L 1269 2991 
Q 1406 3038 1543 3061 
Q 1681 3084 1819 3084 
Q 2600 3084 3056 2656 
Q 3513 2228 3513 1497 
Q 3513 744 3044 326 
Q 2575 -91 1722 -91 
Q 1428 -91 1123 -41 
Q 819 9 494 109 
L 494 744 
Q 775 591 1075 516 
Q 1375 441 1709 441 
Q 2250 441 2565 725 
Q 2881 1009 2881 1497 
Q 2881 1984 2565 2268 
Q 2250 2553 1709 2553 
Q 1456 2553 1204 2497 
Q 953 2441 691 2322 
L 691 4666 
z
" transform="scale(0.015625)"/>
       </defs>
       <use xlink:href="#DejaVuSans-31" transform="translate(0 0.684375)"/>
       <use xlink:href="#DejaVuSans-30" transform="translate(63.623047 0.684375)"/>
       <use xlink:href="#DejaVuSans-35" transform="translate(128.203125 38.965625)scale(0.7)"/>
      </g>
     </g>
    </g>
    <g id="xtick_4">
     <g id="line2d_4">
      <g>
       <use xlink:href="#mb5b2dce876" x="408.373545" y="368.46" style="stroke: #000000; stroke-width: 0.8"/>
      </g>
     </g>
     <g id="text_4">
      <!-- $\mathdefault{10^{7}}$ -->
      <g transform="translate(399.573545 383.058438)scale(0.1 -0.1)">
       <defs>
        <path id="DejaVuSans-37" d="M 525 4666 
L 3525 4666 
L 3525 4397 
L 1831 0 
L 1172 0 
L 2766 4134 
L 525 4134 
L 525 4666 
z
" transform="scale(0.015625)"/>
       </defs>
       <use xlink:href="#DejaVuSans-31" transform="translate(0 0.684375)"/>
       <use xlink:href="#DejaVuSans-30" transform="translate(63.623047 0.684375)"/>
       <use xlink:href="#DejaVuSans-37" transform="translate(128.203125 38.965625)scale(0.7)"/>
      </g>
     </g>
    </g>
    <g id="text_5">
     <!-- Energy(GeV) -->
     <g transform="translate(205.443187 404.335)scale(0.2 -0.2)">
      <defs>
       <path id="DejaVuSans-45" d="M 628 4666 
L 3578 4666 
L 3578 4134 
L 1259 4134 
L 1259 2753 
L 3481 2753 
L 3481 2222 
L 1259 2222 
L 1259 531 
L 3634 531 
L 3634 0 
L 628 0 
L 628 4666 
z
" transform="scale(0.015625)"/>
       <path id="DejaVuSans-6e" d="M 3513 2113 
L 3513 0 
L 2938 0 
L 2938 2094 
Q 2938 2591 2744 2837 
Q 2550 3084 2163 3084 
Q 1697 3084 1428 2787 
Q 1159 2491 1159 1978 
L 1159 0 
L 581 0 
L 581 3500 
L 1159 3500 
L 1159 2956 
Q 1366 3272 1645 3428 
Q 1925 3584 2291 3584 
Q 2894 3584 3203 3211 
Q 3513 2838 3513 2113 
z
" transform="scale(0.015625)"/>
       <path id="DejaVuSans-65" d="M 3597 1894 
L 3597 1613 
L 953 1613 
Q 991 1019 1311 708 
Q 1631 397 2203 397 
Q 2534 397 2845 478 
Q 3156 559 3463 722 
L 3463 178 
Q 3153 47 2828 -22 
Q 2503 -91 2169 -91 
Q 1331 -91 842 396 
Q 353 884 353 1716 
Q 353 2575 817 3079 
Q 1281 3584 2069 3584 
Q 2775 3584 3186 3129 
Q 3597 2675 3597 1894 
z
M 3022 2063 
Q 3016 2534 2758 2815 
Q 2500 3097 2075 3097 
Q 1594 3097 1305 2825 
Q 1016 2553 972 2059 
L 3022 2063 
z
" transform="scale(0.015625)"/>
       <path id="DejaVuSans-72" d="M 2631 2963 
Q 2534 3019 2420 3045 
Q 2306 3072 2169 3072 
Q 1681 3072 1420 2755 
Q 1159 2438 1159 1844 
L 1159 0 
L 581 0 
L 581 3500 
L 1159 3500 
L 1159 2956 
Q 1341 3275 1631 3429 
Q 1922 3584 2338 3584 
Q 2397 3584 2469 3576 
Q 2541 3569 2628 3553 
L 2631 2963 
z
" transform="scale(0.015625)"/>
       <path id="DejaVuSans-67" d="M 2906 1791 
Q 2906 2416 2648 2759 
Q 2391 3103 1925 3103 
Q 1463 3103 1205 2759 
Q 947 2416 947 1791 
Q 947 1169 1205 825 
Q 1463 481 1925 481 
Q 2391 481 2648 825 
Q 2906 1169 2906 1791 
z
M 3481 434 
Q 3481 -459 3084 -895 
Q 2688 -1331 1869 -1331 
Q 1566 -1331 1297 -1286 
Q 1028 -1241 775 -1147 
L 775 -588 
Q 1028 -725 1275 -790 
Q 1522 -856 1778 -856 
Q 2344 -856 2625 -561 
Q 2906 -266 2906 331 
L 2906 616 
Q 2728 306 2450 153 
Q 2172 0 1784 0 
Q 1141 0 747 490 
Q 353 981 353 1791 
Q 353 2603 747 3093 
Q 1141 3584 1784 3584 
Q 2172 3584 2450 3431 
Q 2728 3278 2906 2969 
L 2906 3500 
L 3481 3500 
L 3481 434 
z
" transform="scale(0.015625)"/>
       <path id="DejaVuSans-79" d="M 2059 -325 
Q 1816 -950 1584 -1140 
Q 1353 -1331 966 -1331 
L 506 -1331 
L 506 -850 
L 844 -850 
Q 1081 -850 1212 -737 
Q 1344 -625 1503 -206 
L 1606 56 
L 191 3500 
L 800 3500 
L 1894 763 
L 2988 3500 
L 3597 3500 
L 2059 -325 
z
" transform="scale(0.015625)"/>
       <path id="DejaVuSans-28" d="M 1984 4856 
Q 1566 4138 1362 3434 
Q 1159 2731 1159 2009 
Q 1159 1288 1364 580 
Q 1569 -128 1984 -844 
L 1484 -844 
Q 1016 -109 783 600 
Q 550 1309 550 2009 
Q 550 2706 781 3412 
Q 1013 4119 1484 4856 
L 1984 4856 
z
" transform="scale(0.015625)"/>
       <path id="DejaVuSans-47" d="M 3809 666 
L 3809 1919 
L 2778 1919 
L 2778 2438 
L 4434 2438 
L 4434 434 
Q 4069 175 3628 42 
Q 3188 -91 2688 -91 
Q 1594 -91 976 548 
Q 359 1188 359 2328 
Q 359 3472 976 4111 
Q 1594 4750 2688 4750 
Q 3144 4750 3555 4637 
Q 3966 4525 4313 4306 
L 4313 3634 
Q 3963 3931 3569 4081 
Q 3175 4231 2741 4231 
Q 1884 4231 1454 3753 
Q 1025 3275 1025 2328 
Q 1025 1384 1454 906 
Q 1884 428 2741 428 
Q 3075 428 3337 486 
Q 3600 544 3809 666 
z
" transform="scale(0.015625)"/>
       <path id="DejaVuSans-56" d="M 1831 0 
L 50 4666 
L 709 4666 
L 2188 738 
L 3669 4666 
L 4325 4666 
L 2547 0 
L 1831 0 
z
" transform="scale(0.015625)"/>
       <path id="DejaVuSans-29" d="M 513 4856 
L 1013 4856 
Q 1481 4119 1714 3412 
Q 1947 2706 1947 2009 
Q 1947 1309 1714 600 
Q 1481 -109 1013 -844 
L 513 -844 
Q 928 -128 1133 580 
Q 1338 1288 1338 2009 
Q 1338 2731 1133 3434 
Q 928 4138 513 4856 
z
" transform="scale(0.015625)"/>
      </defs>
      <use xlink:href="#DejaVuSans-45"/>
      <use xlink:href="#DejaVuSans-6e" x="63.183594"/>
      <use xlink:href="#DejaVuSans-65" x="126.5625"/>
      <use xlink:href="#DejaVuSans-72" x="188.085938"/>
      <use xlink:href="#DejaVuSans-67" x="227.449219"/>
      <use xlink:href="#DejaVuSans-79" x="290.925781"/>
      <use xlink:href="#DejaVuSans-28" x="350.105469"/>
      <use xlink:href="#DejaVuSans-47" x="389.119141"/>
      <use xlink:href="#DejaVuSans-65" x="466.609375"/>
      <use xlink:href="#DejaVuSans-56" x="528.132812"/>
      <use xlink:href="#DejaVuSans-29" x="596.541016"/>
     </g>
    </g>
   </g>
   <g id="matplotlib.axis_2">
    <g id="ytick_1">
     <g id="line2d_5">
      <defs>
       <path id="mbe232750fe" d="M 0 0 
L -3.5 0 
" style="stroke: #000000; stroke-width: 0.8"/>
      </defs>
      <g>
       <use xlink:href="#mbe232750fe" x="65.61" y="321.995201" style="stroke: #000000; stroke-width: 0.8"/>
      </g>
     </g>
     <g id="text_6">
      <!-- $\mathdefault{10^{0}}$ -->
      <g transform="translate(41.01 325.794419)scale(0.1 -0.1)">
       <use xlink:href="#DejaVuSans-31" transform="translate(0 0.765625)"/>
       <use xlink:href="#DejaVuSans-30" transform="translate(63.623047 0.765625)"/>
       <use xlink:href="#DejaVuSans-30" transform="translate(128.203125 39.046875)scale(0.7)"/>
      </g>
     </g>
    </g>
    <g id="ytick_2">
     <g id="line2d_6">
      <g>
       <use xlink:href="#mbe232750fe" x="65.61" y="188.766743" style="stroke: #000000; stroke-width: 0.8"/>
      </g>
     </g>
     <g id="text_7">
      <!-- $\mathdefault{10^{1}}$ -->
      <g transform="translate(41.01 192.565962)scale(0.1 -0.1)">
       <use xlink:href="#DejaVuSans-31" transform="translate(0 0.684375)"/>
       <use xlink:href="#DejaVuSans-30" transform="translate(63.623047 0.684375)"/>
       <use xlink:href="#DejaVuSans-31" transform="translate(128.203125 38.965625)scale(0.7)"/>
      </g>
     </g>
    </g>
    <g id="ytick_3">
     <g id="line2d_7">
      <g>
       <use xlink:href="#mbe232750fe" x="65.61" y="55.538286" style="stroke: #000000; stroke-width: 0.8"/>
      </g>
     </g>
     <g id="text_8">
      <!-- $\mathdefault{10^{2}}$ -->
      <g transform="translate(41.01 59.337504)scale(0.1 -0.1)">
       <defs>
        <path id="DejaVuSans-32" d="M 1228 531 
L 3431 531 
L 3431 0 
L 469 0 
L 469 531 
Q 828 903 1448 1529 
Q 2069 2156 2228 2338 
Q 2531 2678 2651 2914 
Q 2772 3150 2772 3378 
Q 2772 3750 2511 3984 
Q 2250 4219 1831 4219 
Q 1534 4219 1204 4116 
Q 875 4013 500 3803 
L 500 4441 
Q 881 4594 1212 4672 
Q 1544 4750 1819 4750 
Q 2544 4750 2975 4387 
Q 3406 4025 3406 3419 
Q 3406 3131 3298 2873 
Q 3191 2616 2906 2266 
Q 2828 2175 2409 1742 
Q 1991 1309 1228 531 
z
" transform="scale(0.015625)"/>
       </defs>
       <use xlink:href="#DejaVuSans-31" transform="translate(0 0.765625)"/>
       <use xlink:href="#DejaVuSans-30" transform="translate(63.623047 0.765625)"/>
       <use xlink:href="#DejaVuSans-32" transform="translate(128.203125 39.046875)scale(0.7)"/>
      </g>
     </g>
    </g>
    <g id="ytick_4">
     <g id="line2d_8">
      <defs>
       <path id="mce3afa1057" d="M 0 0 
L -2 0 
" style="stroke: #000000; stroke-width: 0.6"/>
      </defs>
      <g>
       <use xlink:href="#mce3afa1057" x="65.61" y="362.100963" style="stroke: #000000; stroke-width: 0.6"/>
      </g>
     </g>
    </g>
    <g id="ytick_5">
     <g id="line2d_9">
      <g>
       <use xlink:href="#mce3afa1057" x="65.61" y="351.551767" style="stroke: #000000; stroke-width: 0.6"/>
      </g>
     </g>
    </g>
    <g id="ytick_6">
     <g id="line2d_10">
      <g>
       <use xlink:href="#mce3afa1057" x="65.61" y="342.63255" style="stroke: #000000; stroke-width: 0.6"/>
      </g>
     </g>
    </g>
    <g id="ytick_7">
     <g id="line2d_11">
      <g>
       <use xlink:href="#mce3afa1057" x="65.61" y="334.906372" style="stroke: #000000; stroke-width: 0.6"/>
      </g>
     </g>
    </g>
    <g id="ytick_8">
     <g id="line2d_12">
      <g>
       <use xlink:href="#mce3afa1057" x="65.61" y="328.091401" style="stroke: #000000; stroke-width: 0.6"/>
      </g>
     </g>
    </g>
    <g id="ytick_9">
     <g id="line2d_13">
      <g>
       <use xlink:href="#mce3afa1057" x="65.61" y="281.889439" style="stroke: #000000; stroke-width: 0.6"/>
      </g>
     </g>
    </g>
    <g id="ytick_10">
     <g id="line2d_14">
      <g>
       <use xlink:href="#mce3afa1057" x="65.61" y="258.429072" style="stroke: #000000; stroke-width: 0.6"/>
      </g>
     </g>
    </g>
    <g id="ytick_11">
     <g id="line2d_15">
      <g>
       <use xlink:href="#mce3afa1057" x="65.61" y="241.783677" style="stroke: #000000; stroke-width: 0.6"/>
      </g>
     </g>
    </g>
    <g id="ytick_12">
     <g id="line2d_16">
      <g>
       <use xlink:href="#mce3afa1057" x="65.61" y="228.872505" style="stroke: #000000; stroke-width: 0.6"/>
      </g>
     </g>
    </g>
    <g id="ytick_13">
     <g id="line2d_17">
      <g>
       <use xlink:href="#mce3afa1057" x="65.61" y="218.32331" style="stroke: #000000; stroke-width: 0.6"/>
      </g>
     </g>
    </g>
    <g id="ytick_14">
     <g id="line2d_18">
      <g>
       <use xlink:href="#mce3afa1057" x="65.61" y="209.404092" style="stroke: #000000; stroke-width: 0.6"/>
      </g>
     </g>
    </g>
    <g id="ytick_15">
     <g id="line2d_19">
      <g>
       <use xlink:href="#mce3afa1057" x="65.61" y="201.677915" style="stroke: #000000; stroke-width: 0.6"/>
      </g>
     </g>
    </g>
    <g id="ytick_16">
     <g id="line2d_20">
      <g>
       <use xlink:href="#mce3afa1057" x="65.61" y="194.862943" style="stroke: #000000; stroke-width: 0.6"/>
      </g>
     </g>
    </g>
    <g id="ytick_17">
     <g id="line2d_21">
      <g>
       <use xlink:href="#mce3afa1057" x="65.61" y="148.660981" style="stroke: #000000; stroke-width: 0.6"/>
      </g>
     </g>
    </g>
    <g id="ytick_18">
     <g id="line2d_22">
      <g>
       <use xlink:href="#mce3afa1057" x="65.61" y="125.200614" style="stroke: #000000; stroke-width: 0.6"/>
      </g>
     </g>
    </g>
    <g id="ytick_19">
     <g id="line2d_23">
      <g>
       <use xlink:href="#mce3afa1057" x="65.61" y="108.555219" style="stroke: #000000; stroke-width: 0.6"/>
      </g>
     </g>
    </g>
    <g id="ytick_20">
     <g id="line2d_24">
      <g>
       <use xlink:href="#mce3afa1057" x="65.61" y="95.644048" style="stroke: #000000; stroke-width: 0.6"/>
      </g>
     </g>
    </g>
    <g id="ytick_21">
     <g id="line2d_25">
      <g>
       <use xlink:href="#mce3afa1057" x="65.61" y="85.094852" style="stroke: #000000; stroke-width: 0.6"/>
      </g>
     </g>
    </g>
    <g id="ytick_22">
     <g id="line2d_26">
      <g>
       <use xlink:href="#mce3afa1057" x="65.61" y="76.175635" style="stroke: #000000; stroke-width: 0.6"/>
      </g>
     </g>
    </g>
    <g id="ytick_23">
     <g id="line2d_27">
      <g>
       <use xlink:href="#mce3afa1057" x="65.61" y="68.449457" style="stroke: #000000; stroke-width: 0.6"/>
      </g>
     </g>
    </g>
    <g id="ytick_24">
     <g id="line2d_28">
      <g>
       <use xlink:href="#mce3afa1057" x="65.61" y="61.634486" style="stroke: #000000; stroke-width: 0.6"/>
      </g>
     </g>
    </g>
    <g id="text_9">
     <!-- $\phi_{\nu_{\mu}}^{SIB23}/\phi_{\nu_{\mu}}^{SIB21}$ -->
     <g transform="translate(27.01 268.17)rotate(-90)scale(0.2 -0.2)">
      <defs>
       <path id="DejaVuSans-Oblique-3d5" d="M 2991 4863 
L 2738 3572 
Q 3363 3572 3684 3094 
Q 4016 2606 3850 1747 
Q 3681 888 3159 400 
Q 2653 -78 2028 -78 
L 1784 -1331 
L 1213 -1331 
L 1456 -78 
Q 834 -78 509 400 
Q 178 888 347 1747 
Q 513 2606 1034 3094 
Q 1544 3572 2166 3572 
L 2419 4863 
L 2991 4863 
z
M 2128 434 
Q 2481 434 2784 756 
Q 3116 1116 3244 1747 
Q 3369 2372 3169 2738 
Q 2991 3059 2638 3059 
L 2128 434 
z
M 1556 434 
L 2066 3059 
Q 1716 3059 1413 2738 
Q 1072 2372 953 1747 
Q 834 1116 1028 756 
Q 1203 434 1556 434 
z
" transform="scale(0.015625)"/>
       <path id="DejaVuSans-Oblique-53" d="M 3859 4513 
L 3738 3897 
Q 3422 4066 3111 4152 
Q 2800 4238 2509 4238 
Q 1944 4238 1609 3991 
Q 1275 3744 1275 3334 
Q 1275 3109 1398 2989 
Q 1522 2869 2034 2731 
L 2413 2638 
Q 3053 2472 3303 2217 
Q 3553 1963 3553 1503 
Q 3553 797 2998 353 
Q 2444 -91 1538 -91 
Q 1166 -91 791 -17 
Q 416 56 38 206 
L 166 856 
Q 513 641 861 531 
Q 1209 422 1556 422 
Q 2147 422 2503 684 
Q 2859 947 2859 1369 
Q 2859 1650 2717 1795 
Q 2575 1941 2106 2059 
L 1728 2156 
Q 1081 2325 845 2545 
Q 609 2766 609 3163 
Q 609 3859 1145 4304 
Q 1681 4750 2541 4750 
Q 2875 4750 3203 4690 
Q 3531 4631 3859 4513 
z
" transform="scale(0.015625)"/>
       <path id="DejaVuSans-Oblique-49" d="M 1081 4666 
L 1716 4666 
L 806 0 
L 172 0 
L 1081 4666 
z
" transform="scale(0.015625)"/>
       <path id="DejaVuSans-Oblique-42" d="M 1081 4666 
L 2694 4666 
Q 3350 4666 3675 4422 
Q 4000 4178 4000 3688 
Q 4000 3238 3720 2911 
Q 3441 2584 2988 2516 
Q 3375 2428 3569 2181 
Q 3763 1934 3763 1522 
Q 3763 819 3242 409 
Q 2722 0 1819 0 
L 172 0 
L 1081 4666 
z
M 1234 2228 
L 903 519 
L 1919 519 
Q 2491 519 2800 781 
Q 3109 1044 3109 1522 
Q 3109 1891 2904 2059 
Q 2700 2228 2247 2228 
L 1234 2228 
z
M 1606 4147 
L 1331 2741 
L 2272 2741 
Q 2775 2741 3058 2959 
Q 3341 3178 3341 3566 
Q 3341 3869 3150 4008 
Q 2959 4147 2541 4147 
L 1606 4147 
z
" transform="scale(0.015625)"/>
       <path id="DejaVuSans-Oblique-3bd" d="M 959 0 
L 572 3500 
L 1191 3500 
L 1522 563 
Q 1972 950 2391 1488 
Q 2706 1891 2788 2241 
Q 2825 2406 2809 2719 
Q 2794 3091 2544 3500 
L 3125 3500 
L 3125 3500 
Q 3288 3222 3353 2834 
Q 3416 2478 3369 2234 
Q 3250 1622 2719 1075 
Q 2025 363 1572 0 
L 959 0 
z
" transform="scale(0.015625)"/>
       <path id="DejaVuSans-Oblique-3bc" d="M -84 -1331 
L 856 3500 
L 1434 3500 
L 1009 1322 
Q 997 1256 987 1175 
Q 978 1094 978 1013 
Q 978 722 1161 565 
Q 1344 409 1684 409 
Q 2147 409 2431 671 
Q 2716 934 2816 1459 
L 3213 3500 
L 3788 3500 
L 3266 809 
Q 3253 750 3248 706 
Q 3244 663 3244 628 
Q 3244 531 3283 486 
Q 3322 441 3406 441 
Q 3438 441 3492 456 
Q 3547 472 3647 513 
L 3559 50 
Q 3422 -19 3297 -55 
Q 3172 -91 3053 -91 
Q 2847 -91 2730 40 
Q 2613 172 2613 403 
Q 2438 153 2195 31 
Q 1953 -91 1625 -91 
Q 1334 -91 1117 43 
Q 900 178 831 397 
L 494 -1331 
L -84 -1331 
z
" transform="scale(0.015625)"/>
       <path id="DejaVuSans-2f" d="M 1625 4666 
L 2156 4666 
L 531 -594 
L 0 -594 
L 1625 4666 
z
" transform="scale(0.015625)"/>
      </defs>
      <use xlink:href="#DejaVuSans-Oblique-3d5" transform="translate(0 0.765625)"/>
      <use xlink:href="#DejaVuSans-Oblique-53" transform="translate(73.414505 39.046875)scale(0.7)"/>
      <use xlink:href="#DejaVuSans-Oblique-49" transform="translate(117.848099 39.046875)scale(0.7)"/>
      <use xlink:href="#DejaVuSans-Oblique-42" transform="translate(138.49263 39.046875)scale(0.7)"/>
      <use xlink:href="#DejaVuSans-32" transform="translate(186.515091 39.046875)scale(0.7)"/>
      <use xlink:href="#DejaVuSans-33" transform="translate(231.051224 39.046875)scale(0.7)"/>
      <use xlink:href="#DejaVuSans-Oblique-3bd" transform="translate(65.966797 -26.578125)scale(0.7)"/>
      <use xlink:href="#DejaVuSans-Oblique-3bc" transform="translate(105.068359 -38.0625)scale(0.49)"/>
      <use xlink:href="#DejaVuSans-2f" transform="translate(278.321732 0.765625)"/>
      <use xlink:href="#DejaVuSans-Oblique-3d5" transform="translate(312.013138 0.765625)"/>
      <use xlink:href="#DejaVuSans-Oblique-53" transform="translate(385.427643 39.046875)scale(0.7)"/>
      <use xlink:href="#DejaVuSans-Oblique-49" transform="translate(429.861237 39.046875)scale(0.7)"/>
      <use xlink:href="#DejaVuSans-Oblique-42" transform="translate(450.505768 39.046875)scale(0.7)"/>
      <use xlink:href="#DejaVuSans-32" transform="translate(498.528229 39.046875)scale(0.7)"/>
      <use xlink:href="#DejaVuSans-31" transform="translate(543.064362 39.046875)scale(0.7)"/>
      <use xlink:href="#DejaVuSans-Oblique-3bd" transform="translate(377.979935 -26.578125)scale(0.7)"/>
      <use xlink:href="#DejaVuSans-Oblique-3bc" transform="translate(417.081497 -38.0625)scale(0.49)"/>
     </g>
    </g>
   </g>
   <g id="line2d_29">
    <path d="M 84.100091 322.008383 
L 87.816692 322.058348 
L 96.179045 321.607233 
L 111.9746 320.686391 
L 115.691201 320.7989 
L 118.478652 321.055935 
L 121.266103 321.539576 
L 124.053554 322.276377 
L 126.841005 323.289526 
L 129.628455 324.606658 
L 132.415906 326.24537 
L 135.203357 328.208139 
L 137.990808 330.466379 
L 141.707409 333.829503 
L 152.857213 344.280921 
L 155.644664 346.448696 
L 158.432115 348.316301 
L 161.219566 349.869567 
L 164.007016 351.094265 
L 165.865317 351.716334 
L 168.652768 352.357843 
L 173.298519 353.119483 
L 177.944271 353.672052 
L 181.660872 353.905646 
L 187.235774 353.960217 
L 191.881525 353.782719 
L 199.314728 353.232564 
L 203.960479 352.713157 
L 212.322832 351.460887 
L 227.189237 348.811631 
L 259.709497 342.727019 
L 265.284399 341.741823 
L 269.93015 340.977196 
L 288.513156 338.221467 
L 296.875509 337.067158 
L 306.167012 335.772197 
L 321.033417 333.233099 
L 331.25407 330.995379 
L 334.970671 329.898119 
L 340.545573 327.988713 
L 347.049625 325.590647 
L 351.695376 323.594843 
L 355.411978 321.735751 
L 359.128579 319.553936 
L 362.84518 317.072267 
L 367.490931 313.757362 
L 370.278382 311.367936 
L 373.065833 308.610555 
L 376.782434 304.513743 
L 381.428186 299.178892 
L 384.215637 295.582937 
L 387.932238 290.320763 
L 390.719689 286.093591 
L 393.50714 281.372932 
L 397.223741 274.460293 
L 400.940342 267.073225 
L 404.656943 259.246795 
L 408.373545 250.917729 
L 411.160995 244.165435 
L 418.594198 225.428405 
L 421.381649 219.120301 
L 423.239949 214.892367 
L 425.09825 210.23676 
L 429.744001 198.043397 
L 442.752106 166.167193 
L 452.043608 144.000652 
L 453.901909 139.271353 
L 453.901909 139.271353 
" clip-path="url(#p3f2f974576)" style="fill: none; stroke: #008000; stroke-width: 3; stroke-linecap: square"/>
   </g>
   <g id="line2d_30">
    <path d="M 84.100091 319.932755 
L 90.604143 319.442126 
L 101.753947 318.560798 
L 106.399698 318.467857 
L 110.116299 318.611113 
L 113.8329 318.969158 
L 118.478652 319.631568 
L 125.911854 320.953273 
L 139.849109 323.540653 
L 145.424011 324.199505 
L 149.140612 324.449171 
L 153.786363 324.512572 
L 159.361265 324.308265 
L 164.936167 323.847939 
L 173.298519 322.86719 
L 190.952375 320.501651 
L 232.764138 314.200154 
L 249.488844 312.24056 
L 259.709497 311.040003 
L 285.725705 307.866766 
L 301.52126 305.706804 
L 315.458515 303.458411 
L 330.32492 300.478935 
L 337.758122 298.625942 
L 346.120475 296.573979 
L 349.837076 295.935901 
L 355.411978 295.255894 
L 360.986879 294.688713 
L 364.703481 294.538533 
L 369.349232 294.589609 
L 379.569885 294.996444 
L 392.577989 296.195858 
L 399.082042 296.981576 
L 404.656943 297.923065 
L 416.735897 300.020515 
L 420.452498 300.326975 
L 424.1691 300.41007 
L 427.885701 300.265734 
L 431.602302 299.876687 
L 437.177204 299.025408 
L 441.822955 298.05063 
L 447.397857 296.705863 
L 452.972759 295.103934 
L 453.901909 294.816278 
L 453.901909 294.816278 
" clip-path="url(#p3f2f974576)" style="fill: none; stroke-dasharray: 11.1,4.8; stroke-dashoffset: 0; stroke: #000000; stroke-width: 3"/>
   </g>
   <g id="line2d_31">
    <path d="M 84.100091 322.142237 
L 89.674993 321.971123 
L 95.249894 321.571149 
L 104.541397 320.649449 
L 122.195253 318.830095 
L 125.911854 318.659204 
L 129.628455 318.713965 
L 133.345057 319.062291 
L 137.061658 319.681818 
L 141.707409 320.734355 
L 156.573814 324.341745 
L 161.219566 325.108023 
L 165.865317 325.599922 
L 171.440219 326.034075 
L 178.873421 326.328973 
L 185.377473 326.331006 
L 210.464531 326.182095 
L 224.401786 326.045001 
L 234.622439 326.080196 
L 241.126491 326.300893 
L 255.063746 326.955489 
L 292.229757 328.614085 
L 305.237862 328.909619 
L 313.600214 329.020666 
L 318.245966 329.035405 
L 329.395769 328.712173 
L 333.11237 328.678122 
L 347.978775 328.200389 
L 352.624527 328.105859 
L 358.199429 328.016157 
L 363.77433 328.134319 
L 374.924134 328.515997 
L 379.569885 328.611798 
L 386.073937 328.822712 
L 398.152891 329.205914 
L 402.798643 329.391925 
L 406.515244 329.560148 
L 412.090146 329.941826 
L 415.806747 330.176372 
L 420.452498 330.55246 
L 436.248053 331.074916 
L 440.893805 331.220777 
L 453.901909 331.563322 
L 453.901909 331.563322 
" clip-path="url(#p3f2f974576)" style="fill: none; stroke: #0000ff; stroke-width: 3; stroke-linecap: square"/>
   </g>
   <g id="line2d_32">
    <path d="M 84.100091 321.998536 
L 91.533293 321.849276 
L 97.108195 321.537734 
L 102.683097 321.007495 
L 110.116299 320.04501 
L 124.053554 318.152312 
L 128.699305 317.820186 
L 132.415906 317.802461 
L 135.203357 317.975449 
L 137.990808 318.320217 
L 141.707409 319.04698 
L 145.424011 320.009751 
L 151.928063 321.978683 
L 158.432115 323.891647 
L 163.077866 325.028803 
L 167.723618 325.922011 
L 172.369369 326.588676 
L 177.944271 327.135782 
L 184.448323 327.507804 
L 191.881525 327.689876 
L 201.173028 327.673104 
L 212.322832 327.393707 
L 230.905838 326.745337 
L 248.559693 326.237365 
L 276.434202 325.481124 
L 285.725705 324.891836 
L 294.088058 324.14576 
L 300.59211 323.374781 
L 307.096162 322.382215 
L 314.529365 321.034653 
L 321.033417 319.629153 
L 328.466619 317.796744 
L 334.970671 315.984917 
L 344.262174 313.135547 
L 352.624527 310.357582 
L 363.77433 306.390368 
L 380.499036 300.271324 
L 386.073937 298.55352 
L 391.648839 297.078901 
L 396.294591 296.088623 
L 400.940342 295.337972 
L 404.656943 294.975353 
L 407.444394 294.905726 
L 410.231845 295.038881 
L 413.019296 295.398705 
L 415.806747 296.009085 
L 418.594198 296.87866 
L 421.381649 298.008447 
L 424.1691 299.386757 
L 426.95655 300.998342 
L 430.673152 303.445451 
L 434.389753 306.165986 
L 439.964655 310.58044 
L 453.901909 321.851373 
L 453.901909 321.851373 
" clip-path="url(#p3f2f974576)" style="fill: none; stroke-dasharray: 11.1,4.8; stroke-dashoffset: 0; stroke: #d2b48c; stroke-width: 3"/>
   </g>
   <g id="line2d_33">
    <path d="M 84.100091 322.008478 
L 87.816692 322.058284 
L 96.179045 321.607138 
L 111.9746 320.686042 
L 115.691201 320.798391 
L 118.478652 321.055236 
L 121.266103 321.53875 
L 124.053554 322.275297 
L 126.841005 323.288128 
L 129.628455 324.604942 
L 132.415906 326.243337 
L 135.203357 328.205598 
L 137.990808 330.463203 
L 141.707409 333.825373 
L 152.857213 344.272726 
L 155.644664 346.439231 
L 158.432115 348.305374 
L 161.219566 349.856925 
L 164.007016 351.079717 
L 165.865317 351.700389 
L 168.652768 352.339801 
L 173.298519 353.096994 
L 177.944271 353.644672 
L 181.660872 353.873882 
L 187.235774 353.920702 
L 191.881525 353.735708 
L 198.385577 353.256832 
L 203.960479 352.639845 
L 212.322832 351.360512 
L 225.330936 348.987223 
L 235.551589 346.91925 
L 262.496948 341.318979 
L 282.938254 336.603528 
L 290.371457 334.41193 
L 296.875509 332.327186 
L 301.52126 330.636063 
L 305.237862 329.077333 
L 308.954463 327.296 
L 314.529365 324.31195 
L 318.245966 322.116159 
L 321.962567 319.546313 
L 325.679168 316.69618 
L 330.32492 312.842809 
L 333.11237 310.255683 
L 336.828972 306.416288 
L 340.545573 302.180222 
L 344.262174 297.578488 
L 347.978775 292.554671 
L 350.766226 288.462434 
L 353.553677 284.052809 
L 356.341128 279.240669 
L 360.057729 272.22918 
L 363.77433 264.646953 
L 367.490931 256.588263 
L 371.207533 247.898865 
L 375.853284 236.286658 
L 381.428186 221.669564 
L 386.073937 208.844729 
L 393.50714 187.671262 
L 415.806747 123.203272 
L 418.594198 115.884306 
L 421.381649 109.125151 
L 425.09825 100.810824 
L 427.885701 95.074983 
L 430.673152 90.019657 
L 433.460603 85.551332 
L 436.248053 81.572937 
L 439.035504 78.01764 
L 441.822955 74.851137 
L 444.610406 72.022095 
L 447.397857 69.486809 
L 452.043608 65.682989 
L 453.901909 64.17 
L 453.901909 64.17 
" clip-path="url(#p3f2f974576)" style="fill: none; stroke: #ff0000; stroke-width: 3; stroke-linecap: square"/>
   </g>
   <g id="patch_3">
    <path d="M 65.61 368.46 
L 65.61 49.68 
" style="fill: none; stroke: #000000; stroke-width: 0.8; stroke-linejoin: miter; stroke-linecap: square"/>
   </g>
   <g id="patch_4">
    <path d="M 472.392 368.46 
L 472.392 49.68 
" style="fill: none; stroke: #000000; stroke-width: 0.8; stroke-linejoin: miter; stroke-linecap: square"/>
   </g>
   <g id="patch_5">
    <path d="M 65.61 368.46 
L 472.392 368.46 
" style="fill: none; stroke: #000000; stroke-width: 0.8; stroke-linejoin: miter; stroke-linecap: square"/>
   </g>
   <g id="patch_6">
    <path d="M 65.61 49.68 
L 472.392 49.68 
" style="fill: none; stroke: #000000; stroke-width: 0.8; stroke-linejoin: miter; stroke-linecap: square"/>
   </g>
   <g id="text_10">
    <!-- Muon Neutrino flux ratio(SIBYLL23 to SIBYLL21)(cos_zenith=1) -->
    <g transform="translate(34.759594 43.68)scale(0.15 -0.15)">
     <defs>
      <path id="DejaVuSans-4d" d="M 628 4666 
L 1569 4666 
L 2759 1491 
L 3956 4666 
L 4897 4666 
L 4897 0 
L 4281 0 
L 4281 4097 
L 3078 897 
L 2444 897 
L 1241 4097 
L 1241 0 
L 628 0 
L 628 4666 
z
" transform="scale(0.015625)"/>
      <path id="DejaVuSans-75" d="M 544 1381 
L 544 3500 
L 1119 3500 
L 1119 1403 
Q 1119 906 1312 657 
Q 1506 409 1894 409 
Q 2359 409 2629 706 
Q 2900 1003 2900 1516 
L 2900 3500 
L 3475 3500 
L 3475 0 
L 2900 0 
L 2900 538 
Q 2691 219 2414 64 
Q 2138 -91 1772 -91 
Q 1169 -91 856 284 
Q 544 659 544 1381 
z
M 1991 3584 
L 1991 3584 
z
" transform="scale(0.015625)"/>
      <path id="DejaVuSans-6f" d="M 1959 3097 
Q 1497 3097 1228 2736 
Q 959 2375 959 1747 
Q 959 1119 1226 758 
Q 1494 397 1959 397 
Q 2419 397 2687 759 
Q 2956 1122 2956 1747 
Q 2956 2369 2687 2733 
Q 2419 3097 1959 3097 
z
M 1959 3584 
Q 2709 3584 3137 3096 
Q 3566 2609 3566 1747 
Q 3566 888 3137 398 
Q 2709 -91 1959 -91 
Q 1206 -91 779 398 
Q 353 888 353 1747 
Q 353 2609 779 3096 
Q 1206 3584 1959 3584 
z
" transform="scale(0.015625)"/>
      <path id="DejaVuSans-20" transform="scale(0.015625)"/>
      <path id="DejaVuSans-4e" d="M 628 4666 
L 1478 4666 
L 3547 763 
L 3547 4666 
L 4159 4666 
L 4159 0 
L 3309 0 
L 1241 3903 
L 1241 0 
L 628 0 
L 628 4666 
z
" transform="scale(0.015625)"/>
      <path id="DejaVuSans-74" d="M 1172 4494 
L 1172 3500 
L 2356 3500 
L 2356 3053 
L 1172 3053 
L 1172 1153 
Q 1172 725 1289 603 
Q 1406 481 1766 481 
L 2356 481 
L 2356 0 
L 1766 0 
Q 1100 0 847 248 
Q 594 497 594 1153 
L 594 3053 
L 172 3053 
L 172 3500 
L 594 3500 
L 594 4494 
L 1172 4494 
z
" transform="scale(0.015625)"/>
      <path id="DejaVuSans-69" d="M 603 3500 
L 1178 3500 
L 1178 0 
L 603 0 
L 603 3500 
z
M 603 4863 
L 1178 4863 
L 1178 4134 
L 603 4134 
L 603 4863 
z
" transform="scale(0.015625)"/>
      <path id="DejaVuSans-66" d="M 2375 4863 
L 2375 4384 
L 1825 4384 
Q 1516 4384 1395 4259 
Q 1275 4134 1275 3809 
L 1275 3500 
L 2222 3500 
L 2222 3053 
L 1275 3053 
L 1275 0 
L 697 0 
L 697 3053 
L 147 3053 
L 147 3500 
L 697 3500 
L 697 3744 
Q 697 4328 969 4595 
Q 1241 4863 1831 4863 
L 2375 4863 
z
" transform="scale(0.015625)"/>
      <path id="DejaVuSans-6c" d="M 603 4863 
L 1178 4863 
L 1178 0 
L 603 0 
L 603 4863 
z
" transform="scale(0.015625)"/>
      <path id="DejaVuSans-78" d="M 3513 3500 
L 2247 1797 
L 3578 0 
L 2900 0 
L 1881 1375 
L 863 0 
L 184 0 
L 1544 1831 
L 300 3500 
L 978 3500 
L 1906 2253 
L 2834 3500 
L 3513 3500 
z
" transform="scale(0.015625)"/>
      <path id="DejaVuSans-61" d="M 2194 1759 
Q 1497 1759 1228 1600 
Q 959 1441 959 1056 
Q 959 750 1161 570 
Q 1363 391 1709 391 
Q 2188 391 2477 730 
Q 2766 1069 2766 1631 
L 2766 1759 
L 2194 1759 
z
M 3341 1997 
L 3341 0 
L 2766 0 
L 2766 531 
Q 2569 213 2275 61 
Q 1981 -91 1556 -91 
Q 1019 -91 701 211 
Q 384 513 384 1019 
Q 384 1609 779 1909 
Q 1175 2209 1959 2209 
L 2766 2209 
L 2766 2266 
Q 2766 2663 2505 2880 
Q 2244 3097 1772 3097 
Q 1472 3097 1187 3025 
Q 903 2953 641 2809 
L 641 3341 
Q 956 3463 1253 3523 
Q 1550 3584 1831 3584 
Q 2591 3584 2966 3190 
Q 3341 2797 3341 1997 
z
" transform="scale(0.015625)"/>
      <path id="DejaVuSans-53" d="M 3425 4513 
L 3425 3897 
Q 3066 4069 2747 4153 
Q 2428 4238 2131 4238 
Q 1616 4238 1336 4038 
Q 1056 3838 1056 3469 
Q 1056 3159 1242 3001 
Q 1428 2844 1947 2747 
L 2328 2669 
Q 3034 2534 3370 2195 
Q 3706 1856 3706 1288 
Q 3706 609 3251 259 
Q 2797 -91 1919 -91 
Q 1588 -91 1214 -16 
Q 841 59 441 206 
L 441 856 
Q 825 641 1194 531 
Q 1563 422 1919 422 
Q 2459 422 2753 634 
Q 3047 847 3047 1241 
Q 3047 1584 2836 1778 
Q 2625 1972 2144 2069 
L 1759 2144 
Q 1053 2284 737 2584 
Q 422 2884 422 3419 
Q 422 4038 858 4394 
Q 1294 4750 2059 4750 
Q 2388 4750 2728 4690 
Q 3069 4631 3425 4513 
z
" transform="scale(0.015625)"/>
      <path id="DejaVuSans-49" d="M 628 4666 
L 1259 4666 
L 1259 0 
L 628 0 
L 628 4666 
z
" transform="scale(0.015625)"/>
      <path id="DejaVuSans-42" d="M 1259 2228 
L 1259 519 
L 2272 519 
Q 2781 519 3026 730 
Q 3272 941 3272 1375 
Q 3272 1813 3026 2020 
Q 2781 2228 2272 2228 
L 1259 2228 
z
M 1259 4147 
L 1259 2741 
L 2194 2741 
Q 2656 2741 2882 2914 
Q 3109 3088 3109 3444 
Q 3109 3797 2882 3972 
Q 2656 4147 2194 4147 
L 1259 4147 
z
M 628 4666 
L 2241 4666 
Q 2963 4666 3353 4366 
Q 3744 4066 3744 3513 
Q 3744 3084 3544 2831 
Q 3344 2578 2956 2516 
Q 3422 2416 3680 2098 
Q 3938 1781 3938 1306 
Q 3938 681 3513 340 
Q 3088 0 2303 0 
L 628 0 
L 628 4666 
z
" transform="scale(0.015625)"/>
      <path id="DejaVuSans-59" d="M -13 4666 
L 666 4666 
L 1959 2747 
L 3244 4666 
L 3922 4666 
L 2272 2222 
L 2272 0 
L 1638 0 
L 1638 2222 
L -13 4666 
z
" transform="scale(0.015625)"/>
      <path id="DejaVuSans-4c" d="M 628 4666 
L 1259 4666 
L 1259 531 
L 3531 531 
L 3531 0 
L 628 0 
L 628 4666 
z
" transform="scale(0.015625)"/>
      <path id="DejaVuSans-63" d="M 3122 3366 
L 3122 2828 
Q 2878 2963 2633 3030 
Q 2388 3097 2138 3097 
Q 1578 3097 1268 2742 
Q 959 2388 959 1747 
Q 959 1106 1268 751 
Q 1578 397 2138 397 
Q 2388 397 2633 464 
Q 2878 531 3122 666 
L 3122 134 
Q 2881 22 2623 -34 
Q 2366 -91 2075 -91 
Q 1284 -91 818 406 
Q 353 903 353 1747 
Q 353 2603 823 3093 
Q 1294 3584 2113 3584 
Q 2378 3584 2631 3529 
Q 2884 3475 3122 3366 
z
" transform="scale(0.015625)"/>
      <path id="DejaVuSans-73" d="M 2834 3397 
L 2834 2853 
Q 2591 2978 2328 3040 
Q 2066 3103 1784 3103 
Q 1356 3103 1142 2972 
Q 928 2841 928 2578 
Q 928 2378 1081 2264 
Q 1234 2150 1697 2047 
L 1894 2003 
Q 2506 1872 2764 1633 
Q 3022 1394 3022 966 
Q 3022 478 2636 193 
Q 2250 -91 1575 -91 
Q 1294 -91 989 -36 
Q 684 19 347 128 
L 347 722 
Q 666 556 975 473 
Q 1284 391 1588 391 
Q 1994 391 2212 530 
Q 2431 669 2431 922 
Q 2431 1156 2273 1281 
Q 2116 1406 1581 1522 
L 1381 1569 
Q 847 1681 609 1914 
Q 372 2147 372 2553 
Q 372 3047 722 3315 
Q 1072 3584 1716 3584 
Q 2034 3584 2315 3537 
Q 2597 3491 2834 3397 
z
" transform="scale(0.015625)"/>
      <path id="DejaVuSans-5f" d="M 3263 -1063 
L 3263 -1509 
L -63 -1509 
L -63 -1063 
L 3263 -1063 
z
" transform="scale(0.015625)"/>
      <path id="DejaVuSans-7a" d="M 353 3500 
L 3084 3500 
L 3084 2975 
L 922 459 
L 3084 459 
L 3084 0 
L 275 0 
L 275 525 
L 2438 3041 
L 353 3041 
L 353 3500 
z
" transform="scale(0.015625)"/>
      <path id="DejaVuSans-68" d="M 3513 2113 
L 3513 0 
L 2938 0 
L 2938 2094 
Q 2938 2591 2744 2837 
Q 2550 3084 2163 3084 
Q 1697 3084 1428 2787 
Q 1159 2491 1159 1978 
L 1159 0 
L 581 0 
L 581 4863 
L 1159 4863 
L 1159 2956 
Q 1366 3272 1645 3428 
Q 1925 3584 2291 3584 
Q 2894 3584 3203 3211 
Q 3513 2838 3513 2113 
z
" transform="scale(0.015625)"/>
      <path id="DejaVuSans-3d" d="M 678 2906 
L 4684 2906 
L 4684 2381 
L 678 2381 
L 678 2906 
z
M 678 1631 
L 4684 1631 
L 4684 1100 
L 678 1100 
L 678 1631 
z
" transform="scale(0.015625)"/>
     </defs>
     <use xlink:href="#DejaVuSans-4d"/>
     <use xlink:href="#DejaVuSans-75" x="86.279297"/>
     <use xlink:href="#DejaVuSans-6f" x="149.658203"/>
     <use xlink:href="#DejaVuSans-6e" x="210.839844"/>
     <use xlink:href="#DejaVuSans-20" x="274.21875"/>
     <use xlink:href="#DejaVuSans-4e" x="306.005859"/>
     <use xlink:href="#DejaVuSans-65" x="380.810547"/>
     <use xlink:href="#DejaVuSans-75" x="442.333984"/>
     <use xlink:href="#DejaVuSans-74" x="505.712891"/>
     <use xlink:href="#DejaVuSans-72" x="544.921875"/>
     <use xlink:href="#DejaVuSans-69" x="586.035156"/>
     <use xlink:href="#DejaVuSans-6e" x="613.818359"/>
     <use xlink:href="#DejaVuSans-6f" x="677.197266"/>
     <use xlink:href="#DejaVuSans-20" x="738.378906"/>
     <use xlink:href="#DejaVuSans-66" x="770.166016"/>
     <use xlink:href="#DejaVuSans-6c" x="805.371094"/>
     <use xlink:href="#DejaVuSans-75" x="833.154297"/>
     <use xlink:href="#DejaVuSans-78" x="896.533203"/>
     <use xlink:href="#DejaVuSans-20" x="955.712891"/>
     <use xlink:href="#DejaVuSans-72" x="987.5"/>
     <use xlink:href="#DejaVuSans-61" x="1028.613281"/>
     <use xlink:href="#DejaVuSans-74" x="1089.892578"/>
     <use xlink:href="#DejaVuSans-69" x="1129.101562"/>
     <use xlink:href="#DejaVuSans-6f" x="1156.884766"/>
     <use xlink:href="#DejaVuSans-28" x="1218.066406"/>
     <use xlink:href="#DejaVuSans-53" x="1257.080078"/>
     <use xlink:href="#DejaVuSans-49" x="1320.556641"/>
     <use xlink:href="#DejaVuSans-42" x="1350.048828"/>
     <use xlink:href="#DejaVuSans-59" x="1413.152344"/>
     <use xlink:href="#DejaVuSans-4c" x="1474.236328"/>
     <use xlink:href="#DejaVuSans-4c" x="1529.949219"/>
     <use xlink:href="#DejaVuSans-32" x="1585.662109"/>
     <use xlink:href="#DejaVuSans-33" x="1649.285156"/>
     <use xlink:href="#DejaVuSans-20" x="1712.908203"/>
     <use xlink:href="#DejaVuSans-74" x="1744.695312"/>
     <use xlink:href="#DejaVuSans-6f" x="1783.904297"/>
     <use xlink:href="#DejaVuSans-20" x="1845.085938"/>
     <use xlink:href="#DejaVuSans-53" x="1876.873047"/>
     <use xlink:href="#DejaVuSans-49" x="1940.349609"/>
     <use xlink:href="#DejaVuSans-42" x="1969.841797"/>
     <use xlink:href="#DejaVuSans-59" x="2032.945312"/>
     <use xlink:href="#DejaVuSans-4c" x="2094.029297"/>
     <use xlink:href="#DejaVuSans-4c" x="2149.742188"/>
     <use xlink:href="#DejaVuSans-32" x="2205.455078"/>
     <use xlink:href="#DejaVuSans-31" x="2269.078125"/>
     <use xlink:href="#DejaVuSans-29" x="2332.701172"/>
     <use xlink:href="#DejaVuSans-28" x="2371.714844"/>
     <use xlink:href="#DejaVuSans-63" x="2410.728516"/>
     <use xlink:href="#DejaVuSans-6f" x="2465.708984"/>
     <use xlink:href="#DejaVuSans-73" x="2526.890625"/>
     <use xlink:href="#DejaVuSans-5f" x="2578.990234"/>
     <use xlink:href="#DejaVuSans-7a" x="2628.990234"/>
     <use xlink:href="#DejaVuSans-65" x="2681.480469"/>
     <use xlink:href="#DejaVuSans-6e" x="2743.003906"/>
     <use xlink:href="#DejaVuSans-69" x="2806.382812"/>
     <use xlink:href="#DejaVuSans-74" x="2834.166016"/>
     <use xlink:href="#DejaVuSans-68" x="2873.375"/>
     <use xlink:href="#DejaVuSans-3d" x="2936.753906"/>
     <use xlink:href="#DejaVuSans-31" x="3020.542969"/>
     <use xlink:href="#DejaVuSans-29" x="3084.166016"/>
    </g>
   </g>
   <g id="legend_1">
    <g id="patch_7">
     <path d="M 77.51 188.044062 
L 241.4325 188.044062 
Q 244.8325 188.044062 244.8325 184.644062 
L 244.8325 61.58 
Q 244.8325 58.18 241.4325 58.18 
L 77.51 58.18 
Q 74.11 58.18 74.11 61.58 
L 74.11 184.644062 
Q 74.11 188.044062 77.51 188.044062 
z
" style="fill: #ffffff; opacity: 0.8; stroke: #cccccc; stroke-linejoin: miter"/>
    </g>
    <g id="line2d_34">
     <path d="M 80.91 71.947344 
L 97.91 71.947344 
L 114.91 71.947344 
" style="fill: none; stroke: #008000; stroke-width: 3; stroke-linecap: square"/>
    </g>
    <g id="text_11">
     <!-- conventional -->
     <g transform="translate(128.51 77.897344)scale(0.17 -0.17)">
      <defs>
       <path id="DejaVuSans-76" d="M 191 3500 
L 800 3500 
L 1894 563 
L 2988 3500 
L 3597 3500 
L 2284 0 
L 1503 0 
L 191 3500 
z
" transform="scale(0.015625)"/>
      </defs>
      <use xlink:href="#DejaVuSans-63"/>
      <use xlink:href="#DejaVuSans-6f" x="54.980469"/>
      <use xlink:href="#DejaVuSans-6e" x="116.162109"/>
      <use xlink:href="#DejaVuSans-76" x="179.541016"/>
      <use xlink:href="#DejaVuSans-65" x="238.720703"/>
      <use xlink:href="#DejaVuSans-6e" x="300.244141"/>
      <use xlink:href="#DejaVuSans-74" x="363.623047"/>
      <use xlink:href="#DejaVuSans-69" x="402.832031"/>
      <use xlink:href="#DejaVuSans-6f" x="430.615234"/>
      <use xlink:href="#DejaVuSans-6e" x="491.796875"/>
      <use xlink:href="#DejaVuSans-61" x="555.175781"/>
      <use xlink:href="#DejaVuSans-6c" x="616.455078"/>
     </g>
    </g>
    <g id="line2d_35">
     <path d="M 80.91 96.900156 
L 97.91 96.900156 
L 114.91 96.900156 
" style="fill: none; stroke-dasharray: 11.1,4.8; stroke-dashoffset: 0; stroke: #000000; stroke-width: 3"/>
    </g>
    <g id="text_12">
     <!-- K Decay -->
     <g transform="translate(128.51 102.850156)scale(0.17 -0.17)">
      <defs>
       <path id="DejaVuSans-4b" d="M 628 4666 
L 1259 4666 
L 1259 2694 
L 3353 4666 
L 4166 4666 
L 1850 2491 
L 4331 0 
L 3500 0 
L 1259 2247 
L 1259 0 
L 628 0 
L 628 4666 
z
" transform="scale(0.015625)"/>
       <path id="DejaVuSans-44" d="M 1259 4147 
L 1259 519 
L 2022 519 
Q 2988 519 3436 956 
Q 3884 1394 3884 2338 
Q 3884 3275 3436 3711 
Q 2988 4147 2022 4147 
L 1259 4147 
z
M 628 4666 
L 1925 4666 
Q 3281 4666 3915 4102 
Q 4550 3538 4550 2338 
Q 4550 1131 3912 565 
Q 3275 0 1925 0 
L 628 0 
L 628 4666 
z
" transform="scale(0.015625)"/>
      </defs>
      <use xlink:href="#DejaVuSans-4b"/>
      <use xlink:href="#DejaVuSans-20" x="65.576172"/>
      <use xlink:href="#DejaVuSans-44" x="97.363281"/>
      <use xlink:href="#DejaVuSans-65" x="174.365234"/>
      <use xlink:href="#DejaVuSans-63" x="235.888672"/>
      <use xlink:href="#DejaVuSans-61" x="290.869141"/>
      <use xlink:href="#DejaVuSans-79" x="352.148438"/>
     </g>
    </g>
    <g id="line2d_36">
     <path d="M 80.91 121.852969 
L 97.91 121.852969 
L 114.91 121.852969 
" style="fill: none; stroke: #0000ff; stroke-width: 3; stroke-linecap: square"/>
    </g>
    <g id="text_13">
     <!-- K0 decay -->
     <g transform="translate(128.51 127.802969)scale(0.17 -0.17)">
      <defs>
       <path id="DejaVuSans-64" d="M 2906 2969 
L 2906 4863 
L 3481 4863 
L 3481 0 
L 2906 0 
L 2906 525 
Q 2725 213 2448 61 
Q 2172 -91 1784 -91 
Q 1150 -91 751 415 
Q 353 922 353 1747 
Q 353 2572 751 3078 
Q 1150 3584 1784 3584 
Q 2172 3584 2448 3432 
Q 2725 3281 2906 2969 
z
M 947 1747 
Q 947 1113 1208 752 
Q 1469 391 1925 391 
Q 2381 391 2643 752 
Q 2906 1113 2906 1747 
Q 2906 2381 2643 2742 
Q 2381 3103 1925 3103 
Q 1469 3103 1208 2742 
Q 947 2381 947 1747 
z
" transform="scale(0.015625)"/>
      </defs>
      <use xlink:href="#DejaVuSans-4b"/>
      <use xlink:href="#DejaVuSans-30" x="65.576172"/>
      <use xlink:href="#DejaVuSans-20" x="129.199219"/>
      <use xlink:href="#DejaVuSans-64" x="160.986328"/>
      <use xlink:href="#DejaVuSans-65" x="224.462891"/>
      <use xlink:href="#DejaVuSans-63" x="285.986328"/>
      <use xlink:href="#DejaVuSans-61" x="340.966797"/>
      <use xlink:href="#DejaVuSans-79" x="402.246094"/>
     </g>
    </g>
    <g id="line2d_37">
     <path d="M 80.91 146.805781 
L 97.91 146.805781 
L 114.91 146.805781 
" style="fill: none; stroke-dasharray: 11.1,4.8; stroke-dashoffset: 0; stroke: #d2b48c; stroke-width: 3"/>
    </g>
    <g id="text_14">
     <!-- K0L decay -->
     <g transform="translate(128.51 152.755781)scale(0.17 -0.17)">
      <use xlink:href="#DejaVuSans-4b"/>
      <use xlink:href="#DejaVuSans-30" x="65.576172"/>
      <use xlink:href="#DejaVuSans-4c" x="129.199219"/>
      <use xlink:href="#DejaVuSans-20" x="184.912109"/>
      <use xlink:href="#DejaVuSans-64" x="216.699219"/>
      <use xlink:href="#DejaVuSans-65" x="280.175781"/>
      <use xlink:href="#DejaVuSans-63" x="341.699219"/>
      <use xlink:href="#DejaVuSans-61" x="396.679688"/>
      <use xlink:href="#DejaVuSans-79" x="457.958984"/>
     </g>
    </g>
    <g id="line2d_38">
     <path d="M 80.91 171.758594 
L 97.91 171.758594 
L 114.91 171.758594 
" style="fill: none; stroke: #ff0000; stroke-width: 3; stroke-linecap: square"/>
    </g>
    <g id="text_15">
     <!-- pi decay -->
     <g transform="translate(128.51 177.708594)scale(0.17 -0.17)">
      <defs>
       <path id="DejaVuSans-70" d="M 1159 525 
L 1159 -1331 
L 581 -1331 
L 581 3500 
L 1159 3500 
L 1159 2969 
Q 1341 3281 1617 3432 
Q 1894 3584 2278 3584 
Q 2916 3584 3314 3078 
Q 3713 2572 3713 1747 
Q 3713 922 3314 415 
Q 2916 -91 2278 -91 
Q 1894 -91 1617 61 
Q 1341 213 1159 525 
z
M 3116 1747 
Q 3116 2381 2855 2742 
Q 2594 3103 2138 3103 
Q 1681 3103 1420 2742 
Q 1159 2381 1159 1747 
Q 1159 1113 1420 752 
Q 1681 391 2138 391 
Q 2594 391 2855 752 
Q 3116 1113 3116 1747 
z
" transform="scale(0.015625)"/>
      </defs>
      <use xlink:href="#DejaVuSans-70"/>
      <use xlink:href="#DejaVuSans-69" x="63.476562"/>
      <use xlink:href="#DejaVuSans-20" x="91.259766"/>
      <use xlink:href="#DejaVuSans-64" x="123.046875"/>
      <use xlink:href="#DejaVuSans-65" x="186.523438"/>
      <use xlink:href="#DejaVuSans-63" x="248.046875"/>
      <use xlink:href="#DejaVuSans-61" x="303.027344"/>
      <use xlink:href="#DejaVuSans-79" x="364.306641"/>
     </g>
    </g>
   </g>
  </g>
 </g>
 <defs>
  <clipPath id="p3f2f974576">
   <rect x="65.61" y="49.68" width="406.782" height="318.78"/>
  </clipPath>
 </defs>
</svg>
